<?xml version="1.0" standalone="no"?>
<!DOCTYPE svg PUBLIC "-//W3C//DTD SVG 1.1//EN" "http://www.w3.org/Graphics/SVG/1.1/DTD/svg11.dtd" >
<svg xmlns="http://www.w3.org/2000/svg">
<metadata></metadata>
<defs>
<font id="uglyquaregular" horiz-adv-x="1523" >
<font-face units-per-em="2048" ascent="1638" descent="-410" />
<missing-glyph horiz-adv-x="649" />
<glyph horiz-adv-x="0" />
<glyph horiz-adv-x="682" />
<glyph horiz-adv-x="739" d="M32 1204.5q-1 -14.5 3 -29t10 -26.5q16 -31 41 -51q23 -23 84 -37t130 -20.5t133.5 -2.5t92.5 17q41 20 74 59t70 66q14 10 25.5 24.5t13.5 32.5q0 23 -13.5 24t-38 -12.5t-55.5 -35t-63.5 -43t-64.5 -37t-56 -17.5q-31 -2 -72 -4t-83 0t-79 12.5t-59 34.5 q-6 6 -15.5 20.5t-17.5 29t-15 25.5t-14 13q-16 -6 -23 -17t-8 -25.5z" />
<glyph horiz-adv-x="1269" d="M-63 891l10 -33l26 -22l62 -7q8 -8 13 -51t8 -107.5t6.5 -140t6.5 -146.5t9 -128t16 -86l-20 -47l-54 -31l-16 -43l29 -35h155l17 21l8 -19q20 -4 44 -10t44 -6q23 0 39 9t27 36q-16 2 -36 11.5t-30 23.5l-39 4q-41 121 -44 253t32 253l-12 41l12 37q-18 0 -11 11t11 15 q0 35 -1 73t27 67h148l18 -15l19 15q29 0 43 1t23.5 0t19.5 -5.5t31 -16.5q18 -59 23 -124.5t3 -132.5t-7 -133.5t-5 -125.5q0 -29 11 -59.5t9 -59.5q0 -47 -12 -79.5t-6 -84.5h160l39 23q27 -2 38 -1t33 13v66q-35 -6 -54 22.5t-27.5 76.5t-8.5 110q0 61 4 120.5t8.5 108.5 t4.5 76q0 14 -6.5 49t-12.5 71.5t-10 67.5t0 37h190q25 20 50.5 39.5t39.5 48.5q-6 29 -39.5 39t-76.5 10q-41 0 -82 -4t-62 -4q-16 10 -26 31q23 51 27.5 87t0.5 67.5t-15 64.5t-19 78l18 32l18 5q31 31 44.5 52t19.5 43.5t11 47.5t20 61q39 29 59 72h-59 q-33 -27 -63 -56.5t-58 -58.5q-25 29 -43.5 43.5t-50.5 36.5h-279l-4 -16l-76 -33l-6 -14q-66 -27 -104.5 -61.5t-58 -79t-20.5 -95.5t9 -112q-20 -37 -32.5 -54.5t-18.5 -34t-7 -39t-1 -67.5q-53 -4 -84 -20.5t-47 -71.5zM217 1112q0 27 1 75t9.5 97t23.5 89t46 52 q10 4 41 9.5t43 5.5v20h162q18 -14 35 -20l20 -32l20 -32v-73q0 -31 -10 -70q-12 -8 -13 -36t-2 -65.5t-7 -79.5t-29 -81h-90q-8 -23 -31 -23t-33 23q-16 -4 -16 -21h-121q-18 23 -41 21q0 14 2 26.5t2 26.5q2 23 -5 44.5t-7 43.5zM1049 1622q20 -20 33.5 -45t26.5 -50.5 t26.5 -51t33.5 -45.5l31 -5q14 -16 29.5 -18t31 4t30 16.5t28.5 16.5q23 43 10.5 94t-45.5 84q-33 8 -49 11t-31 5q-18 2 -41.5 1t-83.5 -1q-6 -6 -13 -11t-17 -5z" />
<glyph horiz-adv-x="1601" d="M31 891l12 -33l29 -22l61 -7q8 -6 12.5 -50t8.5 -108.5t6 -140t6 -146.5t10 -129t14 -85l-20 -47l-53 -31l-17 -43l31 -35h156l16 21l8 -19q18 -6 41 -11t44.5 -4t40 10t28.5 34q-18 2 -37.5 11.5t-30.5 23.5l-39 4q-23 70 -22 141q0 74 6 144.5t8 137t-16 124.5l14 37 q-10 0 -12 3t0 8t6 9l6 6q-4 14 -4 33q0 18 3 38.5t9 38t17 30.5h149l17 -15q23 23 63.5 28t71.5 1q12 -12 19 -64.5t9.5 -125t-1 -155.5t-9.5 -158t-15 -130t-20 -74l-51 -22l4 -6l-39 -15q-10 -18 -19 -37.5t-17 -40.5l10 -38h399q39 0 59.5 -3.5t29.5 5t9 32.5v82 q-18 16 -43.5 18.5t-52.5 2.5q-25 0 -47 2t-35 20q-2 16 -3 75.5t-1 141.5t1 173.5t3 170t4 134t6 63.5q33 10 69 1t71 -13l4 -19h215q10 -29 0 -55.5t-21 -52.5q18 -61 25.5 -134t8.5 -148t-2 -148.5t-3 -139.5q0 -25 -11 -40t-28.5 -24t-39 -15.5t-40.5 -12.5 q4 -10 11.5 -35.5t-0.5 -35.5l22 -27h215l23 14q20 -6 43 -6h49q25 0 47.5 -1t38.5 -7v98l-19 21q-49 14 -106 18q-31 78 -35 146.5t4 134t19.5 132t11.5 142.5q0 70 -20.5 135.5t-20.5 126.5q0 23 6 73t12.5 103.5t9.5 100.5t-3 63l-11 9q0 33 3 71.5t3 75.5q0 39 -8 76 t-33 65h-112l-23 15q-86 0 -163.5 -3.5t-163.5 -13.5l-76 -59l-84 59h-279l-4 -16l-76 -33l-6 -14q-121 -47 -164 -138.5t-8 -209.5q-18 -31 -31.5 -50.5t-20.5 -38t-9 -43t2 -63.5q-53 -4 -85 -21.5t-50 -70.5zM318 1074.5q-3 68.5 0.5 141t18.5 132t56 77.5q4 2 15.5 4.5 t26 4.5t26.5 4t18 2v20h162q14 -14 35 -20q10 -16 24.5 -37t22.5 -41h-2q-14 -33 -19.5 -74t-6.5 -82t0 -81t-1 -72q0 -25 -27.5 -50.5t-61.5 -41t-65.5 -16.5t-41.5 26q-14 -2 -15 -21h-121q-18 23 -43 21q2 35 -1 103.5zM862 1022q4 14 9.5 28.5t5.5 28.5q0 39 -1.5 95.5 t4 114t22 106.5t52.5 73q23 14 44.5 27.5t43.5 28.5v-11q2 -4 15.5 -5t29.5 -1t31 1t21 1q6 -12 15 -15t19.5 -7t20.5 -11.5t18 -25.5q10 -23 17.5 -48.5t7.5 -49.5h-2q-4 -66 -8 -116t-15 -110q-2 -10 2.5 -27.5t7.5 -36t3 -34.5t-11 -22h-24q-16 0 -34.5 -2.5t-35 -6.5 t-18.5 -12h-221q-4 10 -9.5 18.5t-9.5 18.5z" />
<glyph unicode="&#xa;" horiz-adv-x="1269" d="M-63 891l10 -33l26 -22l62 -7q8 -8 13 -51t8 -107.5t6.5 -140t6.5 -146.5t9 -128t16 -86l-20 -47l-54 -31l-16 -43l29 -35h155l17 21l8 -19q20 -4 44 -10t44 -6q23 0 39 9t27 36q-16 2 -36 11.5t-30 23.5l-39 4q-41 121 -44 253t32 253l-12 41l12 37q-18 0 -11 11t11 15 q0 35 -1 73t27 67h148l18 -15l19 15q29 0 43 1t23.5 0t19.5 -5.5t31 -16.5q18 -59 23 -124.5t3 -132.5t-7 -133.5t-5 -125.5q0 -29 11 -59.5t9 -59.5q0 -47 -12 -79.5t-6 -84.5h160l39 23q27 -2 38 -1t33 13v66q-35 -6 -54 22.5t-27.5 76.5t-8.5 110q0 61 4 120.5t8.5 108.5 t4.5 76q0 14 -6.5 49t-12.5 71.5t-10 67.5t0 37h190q25 20 50.5 39.5t39.5 48.5q-6 29 -39.5 39t-76.5 10q-41 0 -82 -4t-62 -4q-16 10 -26 31q23 51 27.5 87t0.5 67.5t-15 64.5t-19 78l18 32l18 5q31 31 44.5 52t19.5 43.5t11 47.5t20 61q39 29 59 72h-59 q-33 -27 -63 -56.5t-58 -58.5q-25 29 -43.5 43.5t-50.5 36.5h-279l-4 -16l-76 -33l-6 -14q-66 -27 -104.5 -61.5t-58 -79t-20.5 -95.5t9 -112q-20 -37 -32.5 -54.5t-18.5 -34t-7 -39t-1 -67.5q-53 -4 -84 -20.5t-47 -71.5zM217 1112q0 27 1 75t9.5 97t23.5 89t46 52 q10 4 41 9.5t43 5.5v20h162q18 -14 35 -20l20 -32l20 -32v-73q0 -31 -10 -70q-12 -8 -13 -36t-2 -65.5t-7 -79.5t-29 -81h-90q-8 -23 -31 -23t-33 23q-16 -4 -16 -21h-121q-18 23 -41 21q0 14 2 26.5t2 26.5q2 23 -5 44.5t-7 43.5zM1049 1622q20 -20 33.5 -45t26.5 -50.5 t26.5 -51t33.5 -45.5l31 -5q14 -16 29.5 -18t31 4t30 16.5t28.5 16.5q23 43 10.5 94t-45.5 84q-33 8 -49 11t-31 5q-18 2 -41.5 1t-83.5 -1q-6 -6 -13 -11t-17 -5z" />
<glyph horiz-adv-x="1095" d="M42 282.5q3 -61.5 16.5 -121t31.5 -106.5l45 -16q23 6 43.5 15t38.5 24q27 -27 89.5 -47.5t129 -30.5t122.5 -6t71 26l39 -2l10 19q57 10 114.5 49t106.5 92t87 114.5t55.5 119t11.5 103t-45 65.5q-10 86 -44 139t-80 90t-98.5 66.5t-101.5 68.5l-53 6l-10 19 q-45 8 -89.5 15t-87.5 20l-10 18l-98 20l-10 19q-47 20 -77 74.5t-30 115.5q0 63 37 125t125 97q4 8 20.5 21t26.5 13q123 0 191.5 -19.5t104.5 -48t50 -61t29.5 -61.5t43 -47.5t89.5 -18.5q0 82 4 140.5t-9 96.5t-54 55.5t-129 17.5q-27 20 -49.5 25t-51.5 16l-10 18 l-109 18q-8 -10 -32.5 -14t-53.5 -4t-55.5 1t-38.5 1q-10 -8 -44 -28.5t-72.5 -42t-74.5 -40t-51 -22.5q-12 -76 -23 -123t-18.5 -90t-11.5 -95.5t-2 -138.5q33 -29 53.5 -62.5t42.5 -68.5q23 -2 49.5 -18t36.5 -35q39 -6 54 -39q35 -16 71.5 -25.5t75.5 -11.5l6 -20h133 l11 -14q37 6 75 -5q31 -25 60 -49t53.5 -51t41.5 -59.5t24 -73.5q35 -29 30.5 -75t-28 -94t-56 -90t-55.5 -63l-100 -20l-8 -18q-37 -4 -64 -6.5t-52.5 -3.5t-53 1t-62.5 9l-8 18q-66 20 -105.5 44t-63.5 56.5t-34 78.5t-14 114l-20.5 20.5t-16.5 22.5h-35 q-31 -43 -42 -101.5t-8 -120zM250 2318q10 -74 33.5 -136t54.5 -121.5t66.5 -120t72.5 -128.5q8 -14 16.5 -29.5t20.5 -27.5t28.5 -16t39.5 6q25 41 45 100.5t30 106.5l17 8q10 29 19 57.5t16 57.5q12 6 30.5 38.5t37 70.5t31.5 74t13 48q-6 -6 -16 -12t-21 -6 q-6 -12 -25.5 -43t-42 -63t-43 -58.5t-28.5 -32.5l-4 -27q-14 -8 -29.5 -27.5t-21.5 -33.5q0 -2 -3 -13.5t-8.5 -22.5t-9.5 -16t-8 3t-14 13t-22.5 10t-22.5 10.5t-13 11.5q-4 14 -7 28.5t-7 28.5q-2 6 -33.5 45t-71.5 84t-76 85t-44 48z" />
<glyph d="M57.5 894q1.5 -110 20 -222.5t56.5 -221t97.5 -195.5t144.5 -145.5t197 -72.5l9 -21h69q37 0 72 -16q63 12 123.5 31.5t126.5 23.5q57 41 109.5 95.5t103.5 115t101 124t104 122.5q12 33 27.5 63.5t26.5 63.5t11 66t-20 69q29 86 29.5 171t0.5 173l-28 23 q-4 72 -45 140.5t-102.5 125.5t-134.5 99t-136 61l-8 16l-158 21l-8 16q-27 12 -72 14t-72 -14l-8 -16l-110 -21l-9 -16q-33 -2 -64.5 -7.5t-64.5 -13.5q-25 -35 -62.5 -57.5t-78.5 -32.5q-45 -45 -84 -83t-70.5 -78t-53 -87t-29.5 -114q-12 -90 -10.5 -200zM211 750 q-4 82 1 162.5t22.5 152.5t49 131t81.5 102q20 -29 43.5 -53t37.5 -55l21 8q-14 33 -39 58.5t-45 54.5l12 6q6 55 45 92q12 -49 41 -91t43 -91l21 4q-12 51 -42 94t-42 94l-12 -2q12 10 27.5 18.5t31.5 16.5l12 18l117 23l8 18q20 4 61.5 14.5t84.5 18.5t80.5 7t54.5 -17 q20 2 51 -9.5t62.5 -28.5t60 -36.5t45.5 -32.5q10 -29 25.5 -53t31.5 -49q-55 -16 -119 -16v-23q37 0 70 5t64 14q12 -20 25.5 -39.5t23.5 -42.5q49 -96 73.5 -202t18.5 -212.5t-46 -207.5t-120 -189q-84 -90 -202 -150.5t-237.5 -81t-227 7t-169.5 111.5q-20 27 -43.5 74 t-45 108.5t-38 130t-18.5 138.5zM369 1053q0 -33 18.5 -73t44 -81t51 -80t41.5 -69q12 -23 21.5 -44.5t23 -39t34 -28.5t50.5 -11q43 0 80 15t71 36.5t65.5 46.5t66.5 45q10 6 19.5 12t19.5 11q37 20 81 62t84 92t68.5 102.5t32.5 95.5q4 12 -8 12q-16 4 -29.5 7t-29.5 7 l4 7q-29 20 -70 29.5t-88 13.5q-33 8 -65.5 14t-67.5 6q-51 0 -101 -22q-25 -2 -47 -5.5t-51 -5.5q-31 -2 -85 -9t-106.5 -25.5t-90 -47t-37.5 -73.5zM438 391l123 6l-2 -2q14 -29 33.5 -58.5t44.5 -54t55.5 -41t67.5 -16.5q27 0 46 21.5t34.5 52.5t26 61.5t20.5 49.5l-15 6 q47 6 93.5 14.5t91.5 20.5l-8 20q-16 -4 -33 -8t-33 -8q-6 14 -18.5 40.5t-25.5 53t-26.5 46t-21.5 19.5q-31 0 -60.5 -27.5t-58.5 -61t-56.5 -61.5t-56.5 -28q-14 0 -26 21.5t-22.5 49.5t-17.5 54.5t-7 34.5q0 18 -17 10q-53 -33 -74.5 -82t-23.5 -108l-33 -4v-21z M640 1388.5q1 -59.5 1 -118.5h23q0 59 -1 117.5t11 115.5l-21 4q-14 -59 -13 -118.5zM707 1065q0 47 23.5 80t62.5 51h12q-18 -18 -19 -41q0 -27 13.5 -45t34 -30.5t42 -17.5t39.5 -5q29 0 44.5 14t21.5 34.5t5 45.5t-7 47h14q14 -6 23.5 -16.5t9.5 -28.5q0 -27 -22.5 -64.5 t-54 -72.5t-69.5 -59.5t-69 -24.5q-47 0 -75.5 40t-28.5 93zM772 1335l21 -12q20 31 34.5 55.5t26.5 47t22.5 48t22.5 58.5l-20 8q-12 -33 -22.5 -57.5t-23 -47t-26.5 -46t-35 -54.5zM883 1303l12 -17q53 39 92 68.5t96 64.5l-12 21q-57 -35 -96 -66t-92 -71zM918 1145 q0 18 18 18t18 -18t-18 -19q-18 0 -18 19z" />
<glyph unicode="&#xd;" horiz-adv-x="489" d="M31 20q10 -6 24.5 -14t30.5 -16t31.5 -13.5t25.5 -3.5q25 6 78 2t106.5 -2t92.5 17.5t37 62.5q0 20 -27 30.5t-41 22.5q-27 25 -36 62t-9 72q0 86 -2 172t10 172q0 8 4 47t7.5 92t3.5 113q0 61 -7.5 111t-22.5 84t-44 34q-12 0 -47 -8t-72 -21.5t-64.5 -29t-27.5 -27.5 q2 -25 17.5 -44.5t30.5 -36.5t27.5 -33.5t10.5 -35.5q-10 -82 -11 -160.5t2 -156.5t7 -157t4 -158q0 -53 -17.5 -79t-40 -39t-46 -23.5t-35.5 -35.5z" />
<glyph horiz-adv-x="956" d="M66 -41q16 -4 31.5 -9t31.5 -11l35 28v-2q20 37 60 114t90.5 172t106.5 198.5t106.5 193.5t92.5 154.5t64 85.5q10 47 34.5 91t45.5 87h-4l4 12q14 29 42 58.5t30 52.5l32 59q6 8 10.5 11t6.5 7.5t3 12.5t3 26q-29 41 -56.5 54.5t-74.5 -8.5q0 -10 1 -30t0 -40.5 t-5 -39.5t-13 -28q-78 -80 -136 -185t-108 -221t-97.5 -230.5t-104.5 -213.5q-16 -29 -43 -50t-39 -43.5t-25.5 -54.5t-30 -62.5t-38 -54t-47.5 -30.5q4 -16 -3.5 -48.5t-4.5 -55.5z" />
<glyph horiz-adv-x="1054" d="M78 -10h287l14 -15h90q27 27 37 68q-4 12 -8 25.5t-11 23.5q-37 14 -67 17q-10 180 -8 353t10 353l16 8v21l8 10h154l8 -10l76 -4l8 -17l56 -4q12 -25 19 -62.5t8 -80.5t-2 -84t-11 -68q0 -8 10 -12q-4 -39 -5 -99.5t-8 -120t-23.5 -106.5t-53.5 -59l-10 2 q-16 -14 -29.5 -38.5t-17.5 -47.5l16 -53q12 -2 33 -2q23 0 47 1t44.5 6t29.5 15q8 -10 27.5 -15t42 -6t42.5 -1t33 2l35 22l8 49q-6 27 -18.5 42.5t-23.5 31t-19.5 34.5t-8.5 50q0 129 14.5 249t14.5 249q18 2 22.5 39t1.5 86t-11.5 97t-14.5 71h-90q-12 4 -19 14 q-10 -10 -25 -16.5t-30 -1.5l-8 -17h-102l-11 19q-41 4 -82 9t-81 13q-4 20 -8.5 60t-5.5 86.5t2 95.5t14.5 90t30 68.5t46.5 31.5l11 17l51 16l94 -39l12 2q27 -53 56 -96q23 0 38 -6t25 -29h33l31 23h16l39 26v103q-20 23 -32.5 38t-26 26t-33 19.5t-51.5 18.5l-9 16 q-41 12 -64.5 14.5t-62.5 -12.5q-25 14 -57.5 18.5t-66 1.5t-67.5 -9t-61 -13q-39 -45 -80.5 -73.5t-76.5 -79.5q4 -57 -2 -107.5t-17 -103.5l-51 -57q-2 -12 8.5 -35t19.5 -46.5t13 -43t-8 -21.5q-2 -23 -17.5 -32t-38 -12t-50 -5t-52.5 -10q-4 -23 -7 -38t-1 -38l51 -72 q20 -2 31.5 -3t19 -3t16.5 -8t27 -21q-10 -10 -16 -54t-10 -108.5t-6 -139t-4 -143.5t-2 -126v-80q-29 -27 -51.5 -39t-37 -24.5t-21.5 -29.5t-5 -54z" />
<glyph horiz-adv-x="1132" d="M49 20l8 -38h400q41 0 61.5 -3.5t29.5 5t9 32.5v82q-14 2 -26.5 8.5t-22.5 14.5q-12 0 -30.5 -1t-39.5 -1q-18 0 -34.5 5t-24.5 17q-2 14 -3 74.5t-1 142.5t2 175.5t4 172t4 133t4 60.5q29 10 68 1t69 -13l4 -19h215q10 -29 1 -55.5t-17 -52.5q16 -66 22.5 -137.5 t7.5 -145.5t-1 -146.5t-2 -140.5q0 -43 -23.5 -57t-62.5 -14q-8 -6 -15.5 -11.5t-17.5 -9.5q4 -10 11 -35.5t-1 -35.5l21 -27h215l22 14q43 -12 93 -6t85 -8v98l-16 21q-53 14 -104 18q-35 78 -39 145.5t3 134t19 133t12 142.5q0 39 -6 77t-14 75t-13 73.5t-3 73.5 q2 29 8 69t12 82t8 82t-4 70l-12 9q0 29 3 67.5t3 79.5t-8 79t-33 62h-113l-22 15q-86 0 -165 -3.5t-163 -13.5q-96 -72 -141 -142.5t-63.5 -136t-18.5 -122.5t-8 -104.5t-33 -82t-90 -53.5l-33 -43l14 -37l123 -20q25 -4 31 -32t6 -46v-78q0 -51 -3 -116.5t-6 -135t-9 -131 t-13.5 -107.5t-17.5 -61l-53 -22l2 -6l-37 -15q-10 -20 -19.5 -38.5t-17.5 -39.5zM377 1022q2 14 8 28.5t6 28.5q0 39 -1 95.5t4 114t20.5 106.5t52.5 73q23 14 44 27.5t44 28.5v-11q2 -4 16.5 -5t28.5 -1q16 0 30.5 1t20.5 1q6 -12 15.5 -15t19.5 -7t20.5 -11.5t18.5 -25.5 q10 -23 18.5 -48t6.5 -50q-4 -59 -8.5 -113.5t-12.5 -112.5q-2 -10 1 -27.5t6 -36t3 -34.5t-8 -22h-24q-16 0 -36 -2.5t-36.5 -6.5t-18.5 -12h-221q-14 20 -18 37z" />
<glyph unicode=" "  horiz-adv-x="649" />
<glyph unicode="&#x09;" horiz-adv-x="649" />
<glyph unicode="&#xa0;" horiz-adv-x="649" />
<glyph unicode="!" horiz-adv-x="485" d="M59 86q0 -41 31 -63.5t70 -22.5h116q12 23 37 39t50.5 31.5t44 33t18.5 46.5q0 31 -23.5 55t-57.5 41.5t-70.5 26t-61.5 8.5q-4 0 -19.5 -6.5t-19.5 -8.5q-115 -51 -115 -180zM122 1261.5q1 -77.5 2 -150.5t3 -132t2 -88q0 -18 8 -62.5t21.5 -91.5t29 -88t27.5 -49 q14 113 45 224.5t61.5 222t50 222t19.5 226.5q0 45 -27.5 80t-67.5 52.5t-82 10t-69 -46.5q-10 -16 -15 -65t-7 -118t-1 -146.5z" />
<glyph unicode="&#x22;" horiz-adv-x="610" d="M-2 1087q8 10 36.5 54.5t60.5 95.5t57.5 94t27.5 51q4 14 2 28.5t2 29.5q2 12 11.5 17t20.5 10.5t19.5 11.5t12.5 18q6 20 5 33.5t-1 25.5q0 14 4 33.5t20 50.5q-14 35 -38 66q-31 0 -46.5 -5t-22.5 -15.5t-11 -25.5t-13 -36q-27 -74 -53 -138.5t-47.5 -129t-35 -130 t-11.5 -139.5zM332 1106q10 12 38.5 55t59.5 91t55.5 91t28.5 56q4 16 3 29.5t3 29.5q2 12 11.5 18.5t20.5 10.5t20.5 10t11.5 19q4 20 4 34q0 16 2 31.5t6 33t16 42.5q-8 18 -16 35.5t-25 31.5q-27 0 -41 -5t-23 -16t-15.5 -26.5t-12.5 -34.5q-29 -82 -55.5 -146 t-47 -125.5t-32.5 -125t-12 -139.5z" />
<glyph unicode="#" horiz-adv-x="1216" d="M92 293l31 -23q10 -2 24.5 3.5t20.5 -1.5q6 6 45 7.5t84 1.5t84 -2.5t45 -2.5q-2 -78 -5 -154.5t1 -152.5q25 -14 49.5 -8t46.5 16l19 46l-7 8l-12 -17q6 23 6 43v47l13 13l-11 12q-2 23 -8 46.5t-4 45.5v17l4 12l2 -2l2 28l187 -6l-4 -266q12 -18 18 -41q16 -4 33.5 -3 t34.5 3l22 31q2 8 -1 18.5t-7 18.5l4 8q-6 6 -8 41t-1 76t2 75.5t1 40.5q76 2 157.5 -6t155.5 2q14 23 8 47.5t-16 46.5l-45 19l-8 -4l16 -15q-12 10 -43 11q-31 0 -47 -2l-12 12l-13 -10q-20 -2 -47.5 -8.5t-44.5 -4.5l-16 2l-12 3l2 2l-35 2l4 186q82 -2 160.5 -8.5 t156.5 20.5v68l-30 22q-10 2 -24.5 -4t-20.5 2l-15 -10q-51 12 -112.5 8t-114.5 -4q-4 43 -2 85t4 85t3 84t-5 82q-27 16 -47.5 8t-46.5 -14l-19 -47l6 -6l13 14l2 -2q-2 -4 -6 -10t-4 -10v-68q-4 -4 -8.5 -11.5t8.5 -11.5q2 -23 7 -47t5 -47q0 -12 -4 -28l-2 2l-4 -58 l-185 8l2 293q-6 10 -9 21.5t-7 21.5l-68 -2l-22 -28q-2 -10 5 -24.5t-1 -20.5l8 -15q-8 -59 -5 -123.5t3 -124.5q-84 0 -165 4.5t-161 -0.5q-10 -18 -8 -47.5t15 -46.5l47 -20l6 6l-15 14q23 -10 43 -10h46l12 -10l12 10q23 2 46.5 5t45.5 5h19q10 0 9 -2l-1 -2l49 -4 q-2 -47 -2 -94q0 -45 -4 -92l-287 6q-10 -6 -21.5 -9t-21.5 -8v-67zM520 485v70q16 0 27.5 -6t25.5 -6q10 0 22.5 8t22.5 8l87 -2q0 -12 -5.5 -22.5t-5.5 -20.5t8.5 -22.5t8.5 -22.5v-96q-29 0 -39 5t-27 5q-10 0 -22.5 -7t-22.5 -7h-76v34q0 4 6.5 17.5t6.5 19.5 q0 10 -8.5 22.5t-8.5 22.5z" />
<glyph unicode="$" horiz-adv-x="1146" d="M69 282.5q3 -61.5 16 -121t32 -106.5l45 -16q23 6 43 15t39 24q27 -29 89 -49.5t128.5 -29.5t123 -5t70.5 26l39 -2l11 19q57 10 113 49t106.5 92t87.5 114.5t54 119t12 103t-44 65.5q-8 57 -40.5 116.5t-81 110.5t-104.5 89t-112 52q0 53 1 95t16 90q-12 47 -13 96 q0 49 -2 96l-2 -2l-4 14v15l13 94q14 4 8 11t-8 13q-2 0 -1 3.5t3 3.5q43 -10 64.5 -41t34.5 -66t26.5 -68.5t41.5 -50.5h89q0 80 4 138.5t-9.5 96.5t-54.5 56.5t-129 18.5q-27 20 -49.5 25t-50.5 16l-10 18l-109 18q-8 -10 -32.5 -14t-53.5 -4t-55.5 1t-38.5 1 q-10 -8 -44 -28.5t-73 -42t-75 -40t-50 -22.5q-12 -76 -23.5 -123t-19.5 -90t-11 -95.5t-1 -138.5q31 -29 52.5 -62.5t43.5 -68.5q23 -2 48.5 -18t37.5 -35q39 -6 53 -39q18 -8 38 -15t42 -11q6 -164 -6 -309.5t-14 -305.5q-55 20 -90 46t-54.5 60.5t-27.5 78t-11 98.5 q-10 10 -20 20.5t-16 22.5h-35q-31 -43 -42 -101.5t-8 -120zM253 1255.5q-5 61.5 9 113.5t47 67q18 8 39 14t41 14q4 -18 -2 -26t-8 -25q-6 -41 -9 -84t-3 -84q-2 -51 -1 -102t5 -103l-9 2l-10 19q-45 20 -69.5 76.5t-29.5 118zM469 139l6 623h125q4 -4 5 -7t5 -7h4 q2 -66 5.5 -130.5t3.5 -130.5q0 -33 -14.5 -63.5t-14.5 -58.5v-205q0 -2 -3 -7.5t-3 -9.5q-51 -12 -75 -7t-44 3zM473 1350q0 16 2 33.5t5 34t5 28.5l11 10l-13 12v39h113q4 -14 9 -29.5t5 -31.5q-2 -10 -6 -16.5t-4 -16.5q-10 -111 -12 -218.5t8 -217.5q-31 6 -60.5 12 t-58.5 15v83q0 10 8.5 22.5t8.5 23.5q0 10 -5.5 19t-5.5 19q0 8 -1 31t-1 47q0 27 -1 48.5t-3 27.5v-2q-4 10 -4 27zM692 176l2 559q31 -25 58.5 -47t50 -48t39 -56.5t22.5 -73.5q35 -29 31 -74t-27.5 -93t-56.5 -91t-55 -64q-16 -4 -31.5 -6t-32.5 -6z" />
<glyph unicode="%" horiz-adv-x="1265" d="M68 1104q0 -16 6 -43t15 -55.5t19.5 -55t18.5 -41.5l10 -2q16 -33 42 -51t52 -41h172q2 2 12.5 7t20.5 10.5t19.5 9.5t11.5 4q35 37 72 72q2 18 12 42.5t17 51t7 49.5t-18 37v57q0 14 -17.5 40t-41 52.5t-49 46t-41.5 23.5l-5 10q-8 0 -24.5 2t-34.5 3t-34.5 0t-24.5 -5 h-56l-2 -10q-25 -8 -52.5 -32.5t-51 -56.5t-39.5 -66t-16 -58zM121 1016q-10 27 6 61q18 2 25.5 13.5t10.5 27t5 30.5t8 28q10 18 24.5 31.5t30.5 27.5q12 2 24.5 5t25.5 3v12h63q4 -6 17.5 -11t30 -8t31.5 -5t23 -4l7 -10q12 0 18 -7.5t16 -15.5q-4 -6 -8 -18 q12 -45 20.5 -74t8.5 -55q0 -25 -11.5 -54.5t-35.5 -74.5q-18 -8 -27 -21q-10 -4 -25.5 -8t-21.5 -15h-65q-2 4 -3.5 7.5t-3.5 5.5q-82 0 -131 61q-2 16 -12 28.5t-14 27.5q-18 8 -37 12zM176 2q31 -6 64 -22l36 30v-2q23 43 64 121t89 171t101.5 192.5t103.5 187.5 t92 153.5t71 92.5q6 43 32.5 90t47.5 88l-5 -2l5 12q6 14 18 29.5t23.5 30t20.5 27.5t9 26l33 59q20 4 20 19q1 13 3 36q-18 18 -30.5 33t-26 22t-31 6t-44.5 -13v-31q0 -18 -1 -39t-4 -40t-11 -28q-76 -88 -134 -193.5t-109.5 -217t-99.5 -224t-103 -215.5q-16 -29 -45 -50 t-39 -44q-12 -23 -25.5 -54.5t-31 -62t-38 -55t-45.5 -31.5q4 -14 -4 -46.5t-6 -55.5zM690 291q0 -14 6 -41t15.5 -56.5t19.5 -56t21 -39.5l10 -4q16 -31 39.5 -49t52.5 -41h102t103 10q14 18 33 21q16 18 33.5 36.5t37.5 34.5q2 16 12.5 41t16.5 50.5t6 48.5q0 25 -16 39 v57q0 14 -17.5 41t-41 53.5t-49 46t-44.5 21.5l-2 10q-10 0 -26.5 2t-35 4t-33.5 1t-24 -7h-55l-4 -10q-23 -6 -50.5 -32t-52 -58.5t-41 -65.5t-16.5 -57zM742 234.5q3 15.5 10 29.5q23 2 28.5 26.5t15 54.5t31 55.5t76.5 31.5v12h66q2 -6 15 -11t29.5 -9t33 -6t24.5 -4 l4 -8q14 0 19.5 -7.5t15.5 -17.5q-4 -6 -8 -19q25 -68 30 -130t-49 -126q-6 -6 -13 -9t-11 -11q-12 -4 -26.5 -8t-22.5 -15h-64q-2 6 -12 8.5t-22.5 4.5t-25 3t-18.5 5q-35 25 -53 47.5t-33 61.5q-10 2 -18 6t-19 6q-6 14 -3 29.5z" />
<glyph unicode="&#x26;" horiz-adv-x="1757" d="M121 469q2 -78 18.5 -153.5t51 -137t88 -104.5t127.5 -51q4 -27 28.5 -36.5t62.5 -8t82 9.5t87 19t77.5 21.5t53.5 14.5q20 18 40.5 35.5t43.5 34.5q35 0 49 11t43 21q33 47 60.5 63.5t80.5 -11.5q25 -59 51.5 -116.5t57.5 -113.5l94 -16q-4 -10 19.5 -14.5t54.5 -4.5 q33 0 63.5 2.5t40.5 2.5l6 -21h27l24 29l43 8q4 23 -1 46.5t-23 39.5q-41 0 -73 -1t-66 19q-6 12 -17.5 20.5t-24 14.5t-24.5 12.5t-20 16.5q-16 16 -34 44t-35 58.5t-32.5 59t-23.5 47.5q0 20 23.5 64t54 90t61.5 83t47 43q29 47 49.5 86t30.5 97l41 41q27 4 53.5 11 t50.5 19q4 27 11 55.5t-5 53.5h-79q2 -10 -3.5 -15.5t-13.5 -5.5q-6 0 -12 5.5t-2 15.5h-248q-20 -12 -38.5 -30.5t-29.5 -39.5l9 -39q18 -4 43.5 -9t50 -14.5t43 -24.5t24.5 -38q-14 -61 -42.5 -86.5t-79.5 -52.5q-6 -31 -20.5 -55.5t-33.5 -48.5l-45 -17q-18 6 -56 46 t-77 88t-69.5 93.5t-34.5 63.5q-63 51 -86 93t-20 78t25.5 67.5t50.5 64.5t53.5 66.5t35.5 75.5t-1 93.5t-60 114.5q-18 25 -30.5 36t-26 16.5t-31.5 5.5h-43l-9 16q-29 8 -52 11t-44.5 1t-44.5 -5t-51 -7l-6 -16l-105 -19q-29 -31 -56.5 -52.5t-49 -45t-33.5 -56t-10 -87.5 q0 -29 17.5 -67t40 -78t44 -80t30.5 -71.5t-2 -53t-52 -27.5l-9 -17q-41 -10 -70.5 -21t-55 -25.5t-51 -33t-58.5 -43.5q-23 -53 -34 -124.5t-9 -149.5zM321.5 572.5q2.5 72.5 23 116.5t53 66.5t66.5 39t62.5 36t40.5 54.5h84q20 -20 39 -48t35 -56.5t33.5 -53.5t38.5 -37 q12 -29 22 -62.5t23.5 -65.5t34 -58.5t53.5 -40.5q20 -55 28.5 -86t-4 -53.5t-46.5 -45t-95 -61.5h-258q-8 0 -25.5 15.5t-21.5 19.5l-35 4q-20 16 -39.5 33.5t-42.5 34.5q-16 35 -43 59q-29 117 -26.5 189.5zM555 1232q-2 42 9 78t38 59.5t74 23.5h20t21 -2l43 -31 q12 -29 25.5 -58.5t21.5 -60.5t7 -62.5t-17 -62.5q-16 -6 -28.5 -15t-24 -17.5t-25.5 -14.5t-35 -6q-18 0 -33.5 8t-28 20.5t-32 30t-23.5 33.5q-10 35 -12 77z" />
<glyph unicode="'" horiz-adv-x="333" d="M29 1087q6 10 34.5 54.5t61.5 95.5t58.5 94t27.5 51q2 14 1 28.5t3 29.5q2 12 11.5 17t19.5 10.5t19 11.5t14 18q4 20 3 33.5t-1 25.5q0 14 5 33.5t21 50.5q-8 18 -18 34t-21 32q-31 0 -46 -5t-23.5 -15.5t-12.5 -25.5t-10 -36q-27 -74 -53.5 -138.5t-48 -129t-34.5 -130 t-11 -139.5z" />
<glyph unicode="(" horiz-adv-x="645" d="M5 506q-7 -139 21.5 -269.5t108.5 -222.5q53 -59 109.5 -111.5t109.5 -109.5q31 -10 60.5 -23.5t60.5 -21.5l6 -12q25 -6 39.5 -8t26.5 -2q14 0 28.5 2t36.5 6l6 22q-20 43 -32.5 60.5t-27.5 25.5t-36.5 11.5t-60.5 19.5q-6 2 -14.5 11.5t-17.5 19.5t-18.5 20t-15.5 15 q-109 84 -163 176t-72.5 195.5t-10 218t24.5 241.5q16 14 35.5 53t46.5 90.5t60.5 107.5t76.5 104.5t96.5 84t120.5 43.5l31 39q-4 10 -8 23.5t-2 23.5l-27 21q-27 4 -60.5 -2t-43.5 -37l-45 -4q-61 -45 -122 -92t-124 -88q-31 -66 -62 -121l-12 -6q-49 -98 -86 -231.5 t-44 -272.5z" />
<glyph unicode=")" horiz-adv-x="583" d="M29 -246v-24h34q29 25 59 50t62 48v22l45 13q10 25 30 48t34 50q31 6 50 27.5t34.5 47t30 52.5t34.5 43l4 39l27 23q4 10 6 21t15 15q2 29 2 56v57q8 8 16 16.5t18 14.5q2 18 0 53t-16 51q31 82 36 145.5t5 147.5l-14 4l-15 96l-12 7q4 59 -14.5 107t-55.5 95l-4 35 q-6 16 -23.5 31.5t-33.5 19.5v43l-55 62l-23 2q-4 25 -20.5 43t-26.5 41q-27 10 -48.5 11t-35.5 -30q6 -25 21.5 -48t32 -43.5t29.5 -38t17 -29.5h25q6 -23 16.5 -42.5t20.5 -41.5q33 -23 33 -62l39 -33q6 -25 12 -49t22 -45l4 -45q10 -16 25 -29v-116l-18 -19l18 -22v-142 l-18 -16v-65q-2 4 -6.5 2t-4.5 -7v-96l-12 -6q-6 -29 -12 -57.5t-12 -57.5q-23 -23 -46.5 -62.5t-31.5 -68.5l-21 -16q-6 -35 -35 -51l-26 -47l18 -19l-37 -4q-20 -27 -43.5 -48.5t-46 -44t-43 -46t-37.5 -53.5z" />
<glyph unicode="*" horiz-adv-x="899" d="M8 936l27 -12q41 14 92 51t97 69.5t81 45t43 -24.5l31 4q23 -31 21.5 -75t-7.5 -89t-7 -86t22 -61q43 10 66.5 57t27.5 102.5t-8.5 108.5t-38.5 76q0 12 2 30.5t14 26.5l43 -20v-19q18 -12 27.5 -21t18.5 -15.5t21.5 -10.5t34.5 -8l21 -23l39 -6q20 -23 42.5 -33 t51.5 -24l16 4l13 -4l20 43q-8 14 -10 27.5t-6 27.5q-10 27 -42 40t-65.5 27.5t-60.5 38t-27 70.5q23 0 40.5 14.5t39.5 16.5q18 12 42 26.5t47.5 30t43 33t29.5 35.5q8 18 2 30.5t-20.5 18.5t-32.5 6q-16 0 -29 -8q-25 4 -49.5 10.5t-46.5 18.5q-10 -39 -43 -61.5 t-60 -51.5q-10 4 -19 -5t-17.5 -20.5t-16.5 -20.5t-20 -7q-2 14 -3 42t1 57.5t5 56t7 41.5q-10 23 -19.5 44t-17.5 44q2 6 5 12t1 12q-8 18 -12 41q-10 10 -26.5 12t-30.5 5l-39 -82q18 -55 3.5 -110.5t-28.5 -109.5q23 -10 41 -28.5t-6 -42.5l-57 28l-3 19q-4 6 -37.5 28.5 t-75.5 42t-82 24.5t-54 -23q-10 -18 -2 -40t10 -40l80 -39q2 -25 22.5 -34t38.5 -15q12 6 27 6q16 0 31.5 -5t30 -11.5t24.5 -12.5l12 14q4 -20 0 -38q-35 -33 -77 -44.5t-89 -5.5q-12 -12 -26 -8q-29 -49 -50.5 -63.5t-40 -26.5t-32 -37.5t-21.5 -95.5z" />
<glyph unicode="+" horiz-adv-x="970" d="M63 512l27 -18q6 -2 19.5 3t17.5 -1l12 8q78 -10 159 -6t161 0v-70v-102q0 -51 -2 -94.5t-8 -55.5l6 -72q16 -8 38.5 -6t41.5 13l14 36l-6 7l-11 -13q8 12 9 37v37l10 10l-12 11q-2 18 -4.5 37.5t-2.5 37.5v13v10h5q2 31 1 64.5t5 62.5q0 6 5 17t1 18q86 -4 180 -7t178 3 q8 18 5 38.5t-13 38.5l-39 17l-6 -4l14 -13q-10 10 -37 11q-25 0 -36 -2l-11 8l-10 -8q-18 -2 -36.5 -5.5t-39.5 -3.5h-14l-10 2l4 2q-33 2 -76 1t-67 12l10 325q-4 8 -7 16.5t-8 18.5q-14 0 -27.5 1t-29.5 -1l-18 -24q0 -8 4 -20.5t0 -16.5q4 -6 6 -45t2 -90t-2 -100.5 t-4 -74.5l-4 -2l-359 9q-6 -6 -15 -8.5t-20 -6.5v-55z" />
<glyph unicode="," horiz-adv-x="591" d="M44 110.5q-7 -36.5 5 -55.5l33 -49q18 -2 37.5 -8t38.5 -6q33 0 52 10t37.5 20.5t42 16.5t60.5 0q16 -94 6 -170t-88 -143q-6 0 -19 -7.5t-27.5 -17.5t-28 -19.5t-21.5 -13.5q-6 -12 -12 -24.5t-13 -22.5q23 -31 41 -59q10 0 20.5 -6.5t16.5 -12.5l19.5 19.5l19.5 19.5 h96q10 16 37 17q37 45 61.5 69.5t38 49t18.5 58t5 99.5q29 29 31 64.5t-31 64.5q18 18 14 46t-19 56.5t-34.5 53t-31.5 39.5q-29 4 -53.5 20.5t-43.5 38.5q-57 10 -98 14t-102 4q-20 0 -43 -27.5t-40.5 -64.5t-24.5 -73.5z" />
<glyph unicode="-" horiz-adv-x="962" d="M12 606.5q4 -26.5 21 -39.5q2 -4 32.5 -7t65.5 -5t64.5 -4t31.5 -2q35 -2 72 0t72 2q76 0 147.5 -12.5t149.5 2.5q72 10 92 47t20 98q0 33 -21.5 36t-53.5 3q-25 0 -48.5 -6t-47 -12.5t-46 -8.5t-45.5 4l-139 41q-18 6 -37.5 2t-40 -11t-40 -13t-40.5 -6q-37 0 -72.5 5 t-72.5 5q-23 0 -38 -20.5t-22.5 -46t-3.5 -52z" />
<glyph unicode="." horiz-adv-x="530" d="M130 96.5q5 -53.5 52 -96.5t146 -43q41 0 65.5 30.5t24.5 67.5q0 16 5 35t7 35q2 10 -7 18.5t-9 18.5q2 33 -18.5 52t-51.5 28.5t-63 9.5q-33 0 -58 -6l10 4q-51 -8 -79.5 -54t-23.5 -99.5z" />
<glyph unicode="/" horiz-adv-x="956" d="M66 -41q16 -4 31.5 -9t31.5 -11l35 28v-2q20 37 60 114t90.5 172t106.5 198.5t106.5 193.5t92.5 154.5t64 85.5q10 47 34.5 91t45.5 87h-4l4 12q14 29 42 58.5t30 52.5l32 59q6 8 10.5 11t6.5 7.5t3 12.5t3 26q-29 41 -56.5 54.5t-74.5 -8.5q0 -10 1 -30t0 -40.5 t-5 -39.5t-13 -28q-78 -80 -136 -185t-108 -221t-97.5 -230.5t-104.5 -213.5q-16 -29 -43 -50t-39 -43.5t-25.5 -54.5t-30 -62.5t-38 -54t-47.5 -30.5q4 -16 -3.5 -48.5t-4.5 -55.5z" />
<glyph unicode="0" horiz-adv-x="1122" d="M74 551q0 -31 11 -82t27.5 -105.5t37 -104.5t38.5 -79l23 -6q29 -59 77 -98t101 -76h197q96 0 194 20q12 14 27.5 24.5t36.5 14.5q33 35 66.5 70t70.5 68q6 33 24.5 80t31 96t12.5 94t-31 74v110q0 27 -33 77t-79 101.5t-96 90t-83 43.5l-6 20q-16 0 -49 4t-68 7t-66.5 1 t-45.5 -12h-105l-6 -20q-47 -14 -100.5 -62.5t-99.5 -111t-76.5 -127t-30.5 -111.5zM171 443.5q3 27.5 17 56.5q35 4 49.5 25.5t20.5 51t9 60.5t18 53q23 37 48 61.5t56 53.5q23 4 47.5 11t46.5 5v25h125q6 -12 32 -22.5t57.5 -16.5t61 -11t46.5 -8l10 -18q23 2 37 -13.5 t29 -31.5q-10 -12 -15 -33q6 -31 21.5 -59.5t21.5 -61.5q12 -68 13.5 -113.5t-8 -83.5t-31 -79t-54.5 -98q-14 -8 -27.5 -17.5t-21.5 -23.5q-25 -4 -51.5 -12.5t-40.5 -30.5h-125q-4 16 -14 22q-63 0 -109.5 15.5t-81 44t-60.5 70.5t-50 95q-18 8 -34.5 14.5t-35.5 10.5 q-10 31 -7 58.5z" />
<glyph unicode="1" horiz-adv-x="708" d="M82 877.5q2 -11.5 6 -35.5q27 -4 68 -6t57 -27q25 -4 45 -18q0 -39 -7 -77t-7 -77q0 -129 7 -263t-9 -263q-8 -4 -16.5 -10.5t-16.5 -14.5q-37 2 -62.5 -5t-60.5 -11q2 -18 3 -35t-3 -35q35 0 73 2t76.5 3t75.5 -3t70 -16q16 4 33.5 9t34.5 5q14 0 39.5 -5t50.5 -5 q27 0 45 11t18 44q-18 20 -48 29.5t-56 11.5q-18 25 -27.5 47.5t-14.5 47t-8.5 50t-11.5 54.5q12 33 16.5 83t3.5 103t-4 105.5t-3 91.5l-15 18l12 14q2 2 3 5l-3 -5q-10 -6 -10 11v90q8 12 25.5 20t38 12.5t40 6.5t35.5 4q10 12 22 25.5t26 23.5v31q-10 4 -22.5 15 t-16.5 22h-213q-4 -4 -6.5 -7.5t-8.5 -7.5h-247q-12 -20 -18.5 -30.5t-8.5 -18.5t0 -19.5z" />
<glyph unicode="2" horiz-adv-x="899" d="M72 628.5q2 -24.5 14 -42t45 -19.5l6 -14q45 -12 89 15.5t69 62.5v92q12 18 29.5 33.5t33.5 29.5q49 0 102.5 4.5t98.5 -18.5q25 -37 37 -82t7 -87t-32.5 -73.5t-83.5 -42.5q-8 -12 -18 -31.5t-22.5 -38t-24.5 -33.5t-27 -22l-14 -28q-37 -18 -87 -58t-91 -89.5 t-59.5 -103.5t8.5 -101q27 0 54 5t52 13t46.5 13t39.5 5q-4 2 -1 6.5t7 4.5h121l6 18h264q10 10 21.5 17.5t21.5 13.5q8 27 13 57q18 18 25 33.5t8 33t-1 37t-2 46.5h-63l-33 -52q-35 -16 -72.5 -15t-76.5 1q-4 2 -8.5 5t-6.5 7q-6 0 -25.5 -17t-42 -38.5t-42 -39 t-25.5 -15.5q0 20 15.5 54t38 67.5t47 63.5t42.5 42q12 45 42 80t61 66.5t57.5 65.5t35.5 80t-5 108.5t-68 148.5q-10 4 -21 13.5t-18 19.5q-43 16 -72.5 26.5t-58 16.5t-64.5 7t-89 -3q-14 -2 -27.5 -9t-30.5 -5q-16 -23 -45 -33q-18 -27 -44.5 -51.5t-61.5 -28.5 q-10 -12 -21.5 -24.5t-25.5 -22.5l-19 -72l-14 -6q-4 -20 -10 -46t-4 -50.5z" />
<glyph unicode="3" horiz-adv-x="980" d="M70.5 735q-19.5 -45 11.5 -78l39 -16q45 29 66.5 54.5t32.5 47t21.5 38t36 27.5t75.5 17t141 6l8 -10q45 -10 73 -37q47 2 72 -48t30 -117.5t-10.5 -136t-48.5 -103.5q-6 -2 -36.5 -19.5t-74.5 -43t-94.5 -56.5t-94.5 -58.5t-74.5 -47t-34.5 -23.5q-16 -14 -35.5 -36.5 t-11.5 -47.5q49 -2 76.5 4t47 16.5t41 22.5t58.5 25l8 16q59 14 84 14t40 -7t34.5 -19.5t66.5 -22.5q39 -43 72 -86t47.5 -89t5 -96t-54.5 -112l-24 -8l-17 -31l-20 -6l-25 -33q-49 -12 -93 -33.5t-87 -45t-87 -45t-93 -31.5l-37 -72q39 -33 92 -53q68 14 115 30.5t89 38 t83 48t94 63.5q14 37 46 75t67.5 78t67.5 85t47.5 99t6 117.5t-56.5 141.5l-25 8l-51 74l-41 4l-6 19h-133l31 22q31 23 71.5 65t80.5 102t59.5 134t7.5 161t-76 183q-18 4 -50 18.5t-64.5 28t-60.5 18.5t-40 -12q-61 6 -114.5 -3t-110.5 -13q-4 -2 -5 -8t-3 -10 q-41 -2 -95.5 -31t-97.5 -70t-62.5 -86z" />
<glyph unicode="4" horiz-adv-x="1298" d="M69 44q-3 -34 19 -48h358l9 22h159q27 -23 66 -43q16 -45 16 -94q0 -51 -28 -94q-2 -29 -13.5 -78t-18.5 -101t-5 -97.5t24 -63.5h129q35 29 55.5 46.5t45.5 53.5q-20 39 -28.5 105.5t-8.5 140.5q0 72 6 140.5t12 115.5q27 18 51.5 17.5t50 -9t52.5 -16.5t55 -4 q0 14 16.5 15t36 4t36 17.5t20.5 53.5q4 33 -7.5 57.5t-33.5 46.5q-35 2 -63.5 4.5t-55.5 2.5t-55.5 -2.5t-63.5 -6.5q4 -10 -11 -16t-34.5 -3t-35 17.5t-13.5 46.5q2 47 8 80t9 62.5t2 63.5t-11 83l21 6q10 113 4 220.5t-4 220.5q-16 8 -27.5 26.5t-13.5 34.5 q-29 8 -51.5 11t-39 -2t-28.5 -23.5t-23 -52.5l-16 -11q-8 -29 -21.5 -56.5t-37.5 -45.5q-10 -39 -27 -66l-16 -8q-18 -29 -43 -59.5t-56 -44.5q-18 -41 -41.5 -77t-42.5 -77l-34 -24l-23 -52l-18 -8q-10 -25 -35 -65.5t-53.5 -89t-57.5 -100.5t-46 -97t-20 -79zM296 214.5 q-7 25.5 9.5 60t44 69.5t37.5 51q4 6 16.5 33t26.5 59.5t24.5 60t12.5 38.5q23 14 47.5 31.5t34.5 44.5q6 14 21.5 42.5t35 51t42 30t42.5 -21.5q6 -10 4 -23.5t-5 -31t-1.5 -40t17.5 -53.5l-7 -14l-10 -2q-2 -20 -8 -50t-9 -60.5t0 -58.5t15 -44l-12 -151 q-10 -14 -19.5 -30t-15.5 -32h-272q0 8 -5 21q-59 -6 -66 19.5z" />
<glyph unicode="5" horiz-adv-x="946" d="M68 600q12 -53 14 -92t1 -78t-4 -80t-3 -96q14 -6 25.5 -24.5t15.5 -34.5h123l8 -13l47 -6l10 -18q55 -8 105.5 -31t87.5 -66q18 -4 36.5 -8t34.5 -12q18 -29 48 -61.5t32 -69.5q63 -47 71.5 -111.5t-18 -126t-81 -109.5t-115.5 -63l-8 -20h-127l-41 24l-62 -24 q-23 10 -50.5 20.5t-51.5 -0.5q-20 -14 -47 -24l-10 -15l8 -36q49 -23 67.5 -34.5t33.5 -16.5t41 -6t89 -1l19 17h118l7 24h129q35 31 69.5 61.5t73.5 55.5q31 72 61.5 135.5t45 126.5t3 134t-62.5 157q-10 16 -22.5 27.5t-24.5 22.5t-23.5 25.5t-17.5 36.5 q-10 8 -21.5 20.5t-22.5 23t-24.5 16.5t-27.5 4l-6 20h-103l-16 17h-131q-12 14 -30.5 20t-39 10.5t-41 7.5t-39.5 9v125q14 16 20.5 40.5t8.5 51.5t0 52.5t-4 47.5q10 20 34.5 24.5t52 0.5t54.5 -11t43 -7q72 0 157 7t163 7q29 31 44 56.5t21 51t7 55t1 68.5q-27 0 -43 17 q-20 -18 -37.5 -36t-46.5 -26q-8 12 -14 -1t-8 -17q-72 0 -152 15t-158.5 26.5t-152.5 7.5t-129 -43q-10 -37 -9 -68.5t4 -61.5t3 -61q0 -29 -12 -59z" />
<glyph unicode="6" horiz-adv-x="1148" d="M16 307q25 -43 62 -90t81 -86t94 -64.5t105 -25.5q35 -41 74 -41h94l17 16h125q25 33 65.5 58.5t75.5 48.5l18 45q51 25 72 61.5t29 77.5t14 83t31 77v180q-23 33 -43.5 60.5t-41 51t-44 46t-53.5 49.5l-24 -10t-57.5 -19.5t-68.5 -10.5t-59 20q-4 4 -7.5 8t-9.5 8 q-29 23 -58.5 13.5t-66.5 -13.5q-31 -4 -53 -13.5t-51 -9.5l-33 56q31 37 51.5 53t42 24.5t48 13.5t67.5 19q14 18 33.5 40t39 44.5t36 45t24.5 44.5q41 31 61.5 66t36.5 84q59 12 97.5 38.5t93.5 43.5l53 78l74 22q25 37 72 57v82q-55 2 -100.5 -6t-98.5 -12 q-10 -8 -38 -26.5t-56.5 -38t-52 -36t-25.5 -22.5l-92 -22q-8 -29 -28.5 -39.5t-47.5 -20.5q-10 -20 -22.5 -44.5t-28 -46t-37 -36t-47.5 -14.5l-8 -21q-41 -14 -89.5 -62t-97.5 -115.5t-93 -147.5t-79 -157t-55.5 -143.5t-20.5 -107.5v-213zM118 465q5 29 42 49 q14 39 51 76q-2 16 -3 29.5t-5 29.5q23 6 45 18.5t22 37.5q-8 6 -7 1.5t4 -9.5t4 -8t-7 5v29q27 4 27 27h33q6 -10 6 -9q0 2 -1 8.5t0 9.5t9 -7h111l18 16h117l18 -16h125q0 -18 12.5 -38t30.5 -38.5t38.5 -34.5t35.5 -31l35 -4q2 -10 3 -19t5 -20h-2q-20 -8 -47 -24 q-4 -43 -9.5 -87t-13.5 -87l-70 -70q-2 -27 -22.5 -53.5t-49 -48t-60 -37t-56.5 -17.5q-55 27 -118.5 23t-125.5 -4q-10 25 -29.5 36t-38 23t-28.5 32.5t-4 61.5q-27 8 -44 21l-17 12l-12 18q-13 19 -20 44.5t-2 54.5z" />
<glyph unicode="7" horiz-adv-x="1046" d="M31 584l41 -15l12 29l22 10l13 27l137 149l55 -20l35 20h127q10 -8 33.5 -0.5t49.5 16.5t47.5 14t29.5 -7l-96 -158q-4 -29 -10.5 -45t-28.5 -33q18 -25 19 -49t-8 -47.5t-25.5 -47.5t-32.5 -44q0 -16 1 -37.5t-2.5 -43t-10.5 -40t-21 -31.5q-23 -72 -58.5 -146.5 t-44.5 -145.5l-16 -7l-68 -194l-16 -8q-6 -25 -14 -56.5t-18.5 -63.5t-24 -60.5t-29.5 -49.5v-67h113l8 78q12 14 36.5 48.5t53.5 81t58.5 98.5t55 99t43 84t21.5 53l8 48q6 18 12.5 46.5t13.5 58.5t15 57.5t19 43.5q20 39 45.5 78t48 79t39 84t20.5 93l29 25q4 14 19.5 48 t34 71.5t37 68.5t28.5 39q4 23 19.5 31t35 13t40 12t34.5 30q-41 37 -78 42t-66.5 2t-52.5 -3q-20 0 -28 31q-76 0 -147 -17.5t-142 -17.5h-387l-6 -18l-27 -5q-10 -14 -19.5 -30.5t-17.5 -32.5q10 -16 13 -19.5t-13 -13.5v-114l-14 -19v-102z" />
<glyph unicode="8" horiz-adv-x="929" d="M80 1182.5q8 -68.5 49 -123.5t86 -98t80 -74t33 -47q-61 -23 -113.5 -85.5t-85.5 -144.5t-41 -174t19.5 -172t94 -139t183.5 -78l6 -16h31l27 -17h145q55 0 101 36t79 94.5t51.5 129t19.5 140t-15.5 130t-53.5 97.5q-12 12 -37.5 36.5t-52.5 52.5t-49.5 54.5t-30.5 40.5 q6 20 39 53t70 68t68.5 66t37.5 49q27 88 31 144.5t-15.5 100.5t-61.5 86t-107 105l-43 10l-27 29q-41 0 -86 6t-90 8t-88 -6t-76 -37q-113 -94 -149.5 -175t-28.5 -149.5zM223 1110v178q23 8 34 28.5t17 41.5q43 31 61.5 46t33 20.5t37 0t73.5 -15.5q10 -20 38 -25.5 t48 -9.5q6 -10 16.5 -19t20.5 -18q16 -53 27.5 -80.5t17.5 -42t6 -22.5q0 -6 -4 -20.5t-14.5 -42t-24.5 -82.5q-35 -16 -56.5 -45t-31.5 -64q-18 -6 -36.5 -14.5t-34.5 -18.5q-16 10 -33 22.5t-29 26.5l-27 4q-39 39 -71.5 75t-67.5 77zM272 457q0 23 10.5 56.5t26 69 t29.5 68.5t24 56l17 8q4 66 27 119h30q94 -78 164 -148t99.5 -147.5t11 -170.5t-98.5 -216q-45 -6 -80.5 -10.5t-82.5 -4.5q-16 14 -35 17q-37 33 -57.5 56t-33 49t-18.5 56.5t-14 77.5q-4 16 -11.5 31.5t-7.5 32.5z" />
<glyph unicode="9" horiz-adv-x="1089" d="M80 558.5q-8 -105.5 28.5 -209t114.5 -177.5l31 -6l8 -16q31 -18 68 -24.5t73.5 -2.5t71.5 16.5t66 30.5q25 -2 46 3t44 15l10 17q39 23 85 20.5t91 -2.5l14 -28q-23 -59 -58.5 -106.5t-73 -93.5t-69.5 -98.5t-44 -121.5q-31 -23 -57.5 -56.5t-52 -70.5t-51.5 -74 t-52 -68q-4 -4 -14.5 -19t-22.5 -34.5t-21.5 -36t-9.5 -20.5q0 -47 32 -54.5t69 3.5q41 12 94 56t107.5 105.5t106.5 135t92 145.5t64.5 135.5t24.5 106.5l27 24q16 59 35.5 129t34 143.5t19.5 148.5t-7.5 145.5t-45 133t-92.5 109.5q-25 18 -40 25.5t-28.5 15.5t-27.5 22.5 t-35 49.5q-72 0 -126 -1t-102 -7t-96.5 -17.5t-109.5 -31.5l-8 -19q-100 -49 -152.5 -142t-60.5 -198.5zM252 524q0 37 16.5 82t44 87t63.5 73t73 41l10 16q14 4 27.5 6t25.5 13q55 0 90 -3t84 -16q2 -12 13.5 -21t24.5 -15.5t24.5 -10.5t15.5 -8l39 -53q35 -47 59.5 -88.5 t24.5 -102.5q0 -23 -17.5 -60.5t-43 -73.5t-57.5 -62.5t-58 -28.5q-16 -18 -26.5 -26.5t-35.5 -12.5v-12l-10 -8h-143l-7 20q-25 4 -48 9t-46 12q-16 18 -32.5 32.5t-38.5 24.5q-14 43 -56 78q-4 27 -10 54.5t-6 53.5z" />
<glyph unicode=":" horiz-adv-x="512" d="M82 102q14 -25 28.5 -49t31 -42.5t39 -31t57.5 -12.5q-2 0 2 2q6 2 14 3t16 5l64 13l-2 4q16 10 43 14q4 20 2 31q14 4 22.5 17.5t13.5 29.5t6 33.5t-1 30.5h8q4 4 1 23.5t-9 42t-13.5 41.5t-9.5 26q-10 6 -21.5 15t-15.5 24q-31 20 -53 27t-41.5 6t-43 -6t-56.5 -11 q-12 -12 -18.5 -27.5t-13.5 -31t-17.5 -28.5t-32.5 -20v-129zM82 893q0 -8 1 -26.5t7 -24.5l49 -47q14 -4 25.5 1t20 6t13.5 -4t9 -30h153q4 12 12.5 25.5t22.5 17.5q6 27 9.5 41t3.5 25q0 12 -3.5 27.5t-9.5 45.5q-4 4 -16 8q-6 31 -19 58q-18 0 -35.5 8t-37.5 8h-94 q-16 -14 -33 -25.5t-37 -17.5q-16 -23 -28.5 -45t-12.5 -51z" />
<glyph unicode=";" horiz-adv-x="614" d="M43 90q0 -25 7 -43t23.5 -35.5t43.5 -44.5h143q20 12 41 25.5t40 16.5t35.5 -8t29.5 -46q-10 -43 -30 -94t-36 -97q-20 -16 -32.5 -39.5t-39.5 -31.5q-6 -16 -15 -35.5t-21.5 -36t-30 -27t-37.5 -6.5q-47 -45 -101 -88v-57q29 16 45.5 9t45.5 -9q31 0 85 34t108 82t94 97 t44 78l21 10l65 184l-65 158l-21 10q-10 37 -21 52.5t-25.5 23.5t-31 16.5t-34.5 30.5q-16 2 -36 5t-34 16q-8 -16 -23.5 -17.5t-34 1.5t-35.5 9.5t-30 6.5q-49 0 -74.5 -27t-58.5 -57q-4 -41 -4 -66zM67 890q-1 -13 13 -36t57 -84q25 -10 49.5 -13t46.5 -12q12 -4 15.5 -14 t23.5 -10q29 0 64 13.5t55 35.5q2 2 11.5 15.5t19.5 28.5t18.5 27.5t8.5 14.5v117q-14 23 -26.5 44t-19.5 46q-18 0 -33.5 9t-31.5 9h-141q-8 -14 -17.5 -15t-25.5 -5q-16 -18 -32 -37.5t-32 -36.5q-4 -49 -13 -66.5t-10 -30.5z" />
<glyph unicode="&#x3c;" horiz-adv-x="819" d="M72 512q8 -10 15 -18.5t15 -16.5q45 -8 89.5 -15t87.5 -18l8 -18q18 -4 36.5 -9t38.5 -9l11 -17q23 0 42 -8t35.5 -20.5t34 -24.5t37.5 -19q18 -37 34.5 -57t23 -38.5t1 -41t-27.5 -61.5q25 -14 42 -23.5t34.5 -12.5t39 1t56.5 14l23 -14v82q-18 -2 -25.5 8t-9.5 24.5 t-2 28.5t-6 21l-136 172q-10 4 -19 8t-15 12q-10 2 -28 7.5t-36 11.5t-34.5 13t-22.5 18q-39 4 -48.5 29.5t1.5 58.5q53 4 99 26.5t97 38.5q6 16 18.5 24.5t24.5 19.5t21.5 28.5t9.5 50.5v150h-47q-25 -39 -49.5 -82t-54 -81t-67.5 -63.5t-89 -29.5q-14 -18 -35 -20.5 t-43 -0.5q-16 -10 -32.5 -19.5t-26.5 -25.5q-18 -4 -38 -9t-38 -12q-4 -10 -13.5 -20t-21.5 -14z" />
<glyph unicode="=" horiz-adv-x="1196" d="M82 293l31 -23q10 -2 18 1t19 5l8 -4q6 6 58 8.5t129 0.5t168 -5.5t176 -5.5t154.5 -1t102.5 7q29 4 73 -5t87 -3q14 23 8 47.5t-16 46.5l-45 19l-9 -4l17 -15q-12 8 -44 9.5t-46 -0.5l-13 12l-12 -10q-31 -4 -60.5 -9.5t-60.5 1.5l2 2q-178 14 -350 10t-352 0 q-10 -6 -21.5 -9t-21.5 -8v-67zM85 611.5q3 -29.5 13 -46.5l47 -20l7 6l-15 14q23 -10 43 -10h45l13 -10l12 10q8 0 26.5 3t37 5t35 3t22.5 -3l-2 -2q51 -4 98 -6t96 -12q66 25 134.5 22.5t139 -9.5t140 -9.5t137.5 20.5q0 16 1 33.5t-1 34.5l-31 22q-10 2 -19 -1t-17 -5 l-9 4l-14 -10q-8 0 -63.5 3t-135.5 5t-172 4t-176 2q-82 0 -145.5 -2t-81.5 -8q-4 -2 -25.5 0t-48 4t-51.5 4t-33 2q-10 -18 -7 -47.5z" />
<glyph unicode="&#x3e;" horiz-adv-x="819" d="M72 836q18 0 25 -11.5t10.5 -26t3.5 -28.5q0 -12 4 -16l137 -172q20 -8 35 -21q23 -6 63.5 -18.5t55.5 -30.5q39 -4 48 -29.5t-1 -58.5q-53 -4 -98.5 -27.5t-96.5 -40.5q-8 -12 -19.5 -19t-23.5 -15q-18 -12 -24.5 -47t-8.5 -75t0 -74t2 -40h47q8 14 21.5 25.5t19.5 23.5 q18 37 37 73t43.5 64.5t57 47t79.5 22.5q14 18 35 20.5t43 -0.5q16 10 32.5 19.5t27.5 26.5q41 6 75 18q6 10 14.5 21.5t22.5 15.5l9 29q-8 10 -15.5 18t-15.5 16q-45 8 -89 15.5t-87 17.5l-9 16q-20 4 -37.5 10.5t-37.5 10.5l-8 16q-25 0 -44.5 8.5t-37 20.5t-34 24.5 t-36.5 18.5q-18 37 -33.5 57.5t-24 38t-2 40t30.5 61.5q-39 35 -81 38t-91 -16l-24 15v-82z" />
<glyph unicode="?" horiz-adv-x="745" d="M47 1458q8 -16 14.5 -36.5t6.5 -39.5l12 -8h121q98 41 148 63.5t77 21.5t39 -28.5t33 -84.5l18 -9q2 -37 8 -65.5t7 -54t-8 -50t-38 -53.5l-9 -9t-14 -15.5t-13.5 -15.5t-8.5 -7q-12 -4 -25.5 -8t-19.5 -17h-225l8 -18q-8 -61 -15 -131t-2 -138.5t28.5 -130t78.5 -102.5 q18 29 47 39q0 14 -4 62.5t-8 102.5t-4 101q0 49 6 66h121q10 -16 27 -23l4 23h94q27 20 51 31q20 39 43.5 73.5t52.5 69.5v219q-10 18 -26 25q-10 25 -18.5 49t-16.5 51l-16 8q-35 84 -87.5 124t-121 43t-151.5 -26.5t-177 -84.5q-10 -4 -18.5 -8.5t-18.5 -8.5zM133.5 175 q-24.5 -58 16.5 -120q12 -16 32.5 -35.5t42.5 -19.5h123q12 12 29 18q4 12 15 33t22.5 41.5t20.5 39t9 24.5q0 16 -10 28.5t-20 22.5q-29 27 -49.5 41t-41 20t-47.5 6h-67q-51 -41 -75.5 -99z" />
<glyph unicode="@" horiz-adv-x="1785" d="M203 501.5q2 -108.5 20.5 -221t56 -221t97 -195.5t144.5 -146.5t198 -73.5l8 -21q37 2 72 1t69 -17q63 14 124 33.5t126 21.5l131 92l-45 68q-164 -104 -293 -115.5t-226 40.5t-163.5 155.5t-105.5 227.5t-50.5 255t0 239.5t46 180.5t88.5 80q12 20 29.5 46.5t37 51.5 t42 45.5t44.5 30.5l13 18l116 25l9 18q20 4 61 14.5t84 17.5t80 7q39 0 55 -16q20 2 51 -9.5t63 -29t60.5 -36.5t44.5 -32q23 -57 57.5 -104t63.5 -101q43 -86 51 -177t-4 -183t-38.5 -183t-53.5 -175q-35 4 -69.5 5t-69.5 7q-18 27 -22.5 79t-3.5 118.5t6 142.5t8.5 147.5 t0 135t-17.5 104.5l-84 70q-55 8 -99 13t-84 2t-82 -14.5t-93 -37.5q4 -4 -5.5 -10.5t-11.5 -8.5h-22l-23 -22l-45 -4q-23 -25 -36 -41.5t-18 -33.5t-3 -40t8 -55l-8 -11h127q10 14 27.5 24.5t33.5 10.5q-4 45 18.5 72t49.5 55l24 2q4 8 12.5 14.5t18.5 4.5q16 -16 48 -23.5 t55 -11.5q12 -20 26.5 -38.5t36.5 -33.5q12 -78 -12.5 -133t-71.5 -117l-61 -4q-16 -37 -44 -49t-63 -19t-69.5 -18.5t-63.5 -43.5t-47.5 -96.5t-18.5 -176.5q37 -41 63 -64.5t52.5 -35t61 -14.5t92.5 -3q23 0 49.5 16.5t53 36t48 32.5t33.5 7q2 0 7 -10t13.5 -23.5 t16.5 -25.5t14 -19h92q16 25 56.5 35t68.5 15l-2 -7l4 7q12 2 31 5t31 -3q16 6 36.5 19t26.5 30l70 43q12 31 27.5 63.5t27 64.5t11.5 64q0 35 -21 70q29 86 30 172t1 172l-29 23q-4 74 -45 141t-102.5 124.5t-134 99.5t-136.5 61l-8 16l-158 20l-8 17q-27 14 -72 16 t-71 -16l-8 -17l-111 -20l-8 -16q-70 -4 -129 -21q-51 -72 -141 -90q-45 -45 -84 -82t-71 -77t-53.5 -88t-29.5 -116q-12 -90 -10 -198.5zM820 227q-1 41 28 88q8 14 17 33t20 29q20 23 45.5 39t48.5 33h106l-10 -17q4 -4 6 -21.5t2 -39.5v-41q0 -18 2 -27q2 -10 7.5 -17.5 t7.5 -17.5q4 -25 -8.5 -63.5t-22.5 -63.5q-12 -6 -33.5 -20.5t-25.5 -30.5h-92l-5 14l-20 9q-12 12 -21.5 20t-27.5 4q-23 49 -24 90z" />
<glyph unicode="A" horiz-adv-x="1531" d="M49 72q2 -12 9.5 -25.5t23.5 -44.5q25 -4 52.5 -3t43.5 24q16 2 48 3h22q22 0 46 -1q36 -2 66.5 -8.5t42.5 -18.5l43 4l11 18l82 5q18 23 28 51l-24 53h-117l-10 21l-74 14q-6 16 -6 37q0 23 7 53q13 57 40 120.5t57.5 120t48.5 85.5q14 6 32 8t34 4t31.5 8t25.5 21h369 q16 -10 37.5 -48t43 -90.5t39 -112t27.5 -112.5q10 -48 10 -85v-7q-1 -39 -18 -49q-25 -16 -53.5 -20.5t-56.5 -4.5q-27 0 -49.5 -3t-34.5 -15q-4 -27 3 -50.5t29 -39.5h113l16 14q31 0 71 3t79 3q41 0 78 -4t63 -18l88 18l11 41q-14 33 -43 56.5t-55.5 46t-44.5 48.5 q-12 18 -12 42q0 11 3 22q-10 16 -17.5 35.5t-13.5 38t-13 37t-21 32.5q-2 61 -16.5 122t-34 122.5t-39 121.5t-31.5 122q-31 35 -58.5 126t-54.5 199.5t-54.5 215t-60.5 174.5q-30 21 -55 21q-10 -1 -18 -3q-32 -10 -57 -45t-45.5 -85t-40 -101.5t-38 -95.5t-41.5 -64 q-4 -27 -6 -53.5t2 -53.5q-20 -12 -55 -76.5t-78 -156.5t-89 -199.5t-87 -207t-72.5 -178.5t-46.5 -114q-35 -10 -66.5 -16t-62.5 -22q-4 -36 -6 -52q-1 -8 -1 -15t1 -13zM600 745q-4 23 -4 48q0 35 8 72q14 65 42 129.5t60.5 126t57.5 112.5h51q18 -35 30.5 -76t33.5 -74 q4 -8 13 -13t13 -11q47 -66 63.5 -131.5t16.5 -143.5q-14 -6 -31.5 -14t-25.5 -22q-14 -2 -32 -8q-18 -7 -38 -11q-13 -3 -26 -3q-6 0 -12 1q-18 2 -29 16l-7 -14h-96q-41 0 -88 16z" />
<glyph unicode="B" horiz-adv-x="1275" d="M59 1567l9 -35q6 4 24.5 -6t24.5 -15q12 -6 33 -6q23 0 43 -3t35.5 -13t15.5 -37v-584v-86t2 -98t9 -96t19 -82l-16 -10q0 -42 1 -88q0 -23 0.5 -46.5t-0.5 -47.5q-1 -48 -7 -93t-19 -84l-32 -10l-8 -16l-72 -5v-51l41 -55h127l16 16h84l14 -16q12 0 46 -1t78 -2t94 -1 q49 0 90 2t69.5 6t32.5 12q46 -9 79 -9h6q34 1 87 9q12 25 31.5 46.5t39 41t39 39.5t33.5 45q41 72 65 153t24 161q0 82 -25 160.5t-80 146.5q-20 25 -47 43t-52.5 35.5t-49 38t-39.5 51.5q31 47 77 73.5t82.5 56.5t54.5 74q7 17 7 40q0 36 -17 86q-16 10 -30.5 33.5 t-26.5 50t-23.5 54.5t-19.5 46q-35 23 -67.5 44t-63.5 48l-104 21l-7 18h-182l-6 -23h-20l-7 23h-270l-25 16q-53 0 -91 -4t-85 -14q-27 -27 -41 -53zM434 1419v6q0 39 24 66q26 29 56 55h162q27 0 52.5 -8t53.5 -8l15 -23l12 4q18 -6 45 -30.5t52.5 -55t45 -60.5t19.5 -44 q1 -8 1 -17q0 -27 -5 -59q-6 -43 -18.5 -86t-31 -83t-40.5 -64h-43q-2 23 -21 22q-16 0 -22 -20q-55 -8 -83 -15.5t-53.5 -12.5t-61.5 -8q-22 -2 -57 -2q-24 0 -53 1q-20 25 -41 37zM442 809q0 25 19.5 50.5t38.5 41.5q29 2 56.5 5t55.5 9q4 0 10.5 2.5t10.5 2.5 q20 -4 42.5 -11.5t45.5 -7.5l10 -18q49 -4 82 -10.5t84 -24.5q8 -23 31.5 -29t44.5 -10q25 -31 37 -61.5t20 -62.5t16.5 -64.5t22.5 -65.5l-12 -25q1 -10 1 -20q0 -22 -6 -44q-8 -34 -22 -65.5t-31.5 -63.5t-31.5 -58q-8 -2 -25.5 -18.5t-39 -36t-43 -36t-34.5 -18.5 q-14 -2 -24 -6t-17 -19h-188l-21 -16l-12 6l-4 8l-67 7q-4 14 -16.5 23t-23.5 13z" />
<glyph unicode="C" horiz-adv-x="1439" d="M53 963q0 -104 5 -199.5t16 -196.5l24 -18q4 -49 22.5 -87t41 -71t46 -65.5t38.5 -71.5l-4 -10h41q10 -45 35.5 -69.5t68.5 -43.5l8 -18q33 -4 65 -16.5t54 -37.5l84 -22l6 -21q47 0 83 -3t81 -13q53 12 102.5 14t108.5 2l41 27q16 -1 30 -1q28 0 48 3q28 4 49.5 13.5 t45.5 23.5t64 33q14 35 34 67.5t38.5 66.5t30.5 69.5t12 72.5h-78q-20 -27 -40.5 -52.5t-39.5 -53.5q-16 -2 -52 -25.5t-79 -52.5t-88 -52.5t-77 -25.5l-9 -16q-49 -8 -87 -13.5t-103 -5.5l-14 15h-97l-90 116l-67 21q-10 12 -35 52t-51.5 83t-47 77t-22.5 34v213 q-6 12 -9 15t-3 5q0 4 3 9t11 18q-8 36 -8 63q0 11 1 21q5 32 9 84l18 10q10 53 20.5 107.5t16.5 109.5q2 2 31 42t66.5 91t75.5 100.5t59 67.5h8q57 0 84 57q12 -2 35.5 -3t50.5 1t50.5 7.5t33.5 17.5q43 -23 95 -27t101 -12l11 -19q41 -23 72.5 -52t70.5 -52 q4 -20 23.5 -39.5t38.5 -30.5l20 -67l74 -45l32 41v112q-31 47 -31.5 91.5t-0.5 99.5q-6 6 -11.5 22.5t-10.5 35t-10 34.5t-9 25h-66q-4 -6 -8 -21.5t-10 -32t-13.5 -31t-13.5 -16.5q-39 10 -65 37q-45 4 -70 39q-95 23 -191 23q-16 0 -32 -1q-112 -4 -223 -4 q-49 -31 -100.5 -59.5t-104.5 -52.5l-8 -19q-100 -29 -129 -129q-53 -43 -85 -82t-51.5 -83t-31 -95t-21.5 -117z" />
<glyph unicode="D" horiz-adv-x="1820" d="M75 57q0 -26 29 -57h187l16 14q12 0 47 -3t75 -6t76 -4t48 3q-6 2 -1 6t9 4h193l16 -14h348l17 16h96l6 21q51 2 94 18.5t81 40t75 51t78 52.5q23 47 48 96t38 100q27 10 45 45t27.5 78t11.5 84q1 14 1 26q0 24 -3 40l14 14v301q-33 39 -58.5 90t-51 107.5t-54.5 114 t-67 106.5q-49 18 -90.5 46t-82 56.5t-85 55t-97.5 45.5l-6 18h-250l-14 16h-354l-7 -16l-24 16h-252l-14 -16h-115q-14 -45 -14 -61t9 -22.5t25.5 -11.5t36.5 -30l60 -4l8 -18q39 -8 80 -39q3 -19 3 -42q0 -26 -4 -58q-7 -58 -14.5 -124.5t-7.5 -138.5q0 -70 23 -135 q-8 -18 -10 -68q-1 -19 0 -41q0 -35 2 -77q2 -68 6 -148t7 -158q2 -58 2 -110v-35q-1 -68 -9 -113l-41 -41l-76 -6q6 -4 1 -8t-9 -4h-115q-13 -51 -13 -72zM569 1206q0 106 2 187.5t7 103.5l28 33q10 -1 21 -1q31 0 63 9t67 9q12 0 23 -1l25 17l125 -58l-21 43l74 -32l-4 47 l244 -123l45 -35q8 -20 32.5 -33.5t55 -23t61.5 -18.5t56 -21l10 -68l18 -8q18 -39 47 -70q5 -44 5 -86q0 -21 -1 -42q-4 -62 -13 -123.5t-17.5 -125t-8.5 -129.5l15 -24q-6 -20 -27.5 -59t-47.5 -82t-51.5 -83t-37.5 -65q-29 -12 -52.5 -37.5t-46 -53.5t-48 -53.5 t-58.5 -37.5q-29 -10 -63.5 -15.5t-65.5 -15.5q-12 4 -24 4h-25l-39 -29h-156l-6 21q-39 2 -73.5 11t-69.5 26q-23 43 -31 79q-8 35 -9 71v19q0 28 2 59q3 42 3 97q-10 14 -16 88t-10 177.5t-5.5 224.5t-1.5 227z" />
<glyph unicode="E" horiz-adv-x="1353" d="M41 1569q6 -29 10 -52.5t-8 -52.5h123q18 -23 34.5 -42t32.5 -44q-4 -23 -6 -47t-6 -47q-4 4 -8 0t-4 -8v-272l16 -13l-16 -53q12 -24 15 -90q2 -33 2 -68.5t-2 -73.5q-3 -76 -8 -151.5t-7 -120.5q12 -6 15 -44t3 -85q0 -45 -2 -88t-2 -57q-16 -6 -29.5 -10.5t-24.5 -9.5 t-22.5 -11t-25.5 -18l-39 2l-27 -15q16 -39 23.5 -58.5t19 -30.5t33 -19t68.5 -21q25 8 49 19.5t51 19.5l66 -22l34 22q12 0 40 -1t57 -1q31 0 57.5 4t36.5 13q23 -8 53.5 -9.5t60 -2.5t55 -6t38.5 -19l39 22h362q2 16 10.5 33.5t24.5 24.5l6 45l16 10q10 29 24 58t34 54v66 l-25 4l-16 19h-35q-8 -10 -22.5 -18.5t-30.5 -6.5q-53 -51 -76 -82t-36 -48t-26.5 -23.5t-49.5 -7.5h-27q-31 0 -76 1q-68 2 -186 2l-17 15h-184q-14 25 -43 45v544q41 0 75.5 -2t68.5 -4t70 -4t79 -2q16 -29 26.5 -53.5t20.5 -56.5q4 6 8 0.5t4 -9.5v-100q0 -10 9.5 -21.5 t22.5 -21.5t26.5 -19.5t19.5 -17.5h51q4 25 -5 45.5t-19 42.5q8 25 20 46.5t21 45.5q-17 36 -17 74v6q2 41 2 84q0 53 2 126v24q0 60 -8 116q-12 8 -22.5 23.5t-14.5 32.5h-49q-12 -29 -28.5 -69t-32 -78t-26.5 -65l-11 -26l-250 -22l-16 16q-15 16 -29 25v462l22 17l4 61 q39 20 66 45h272l6 -22q51 0 102.5 -2t104.5 -6l17 -97l78 -80h49l16 23q0 72 -12 126t-25 122l-35 41q-141 0 -272 4t-257 8t-254 8t-263 4z" />
<glyph unicode="F" horiz-adv-x="1308" d="M49 1524q23 -29 46.5 -56.5t45.5 -56.5q29 -2 46.5 0t41.5 12q6 -8 24.5 -33.5t18.5 -35.5t4.5 -78t8.5 -165t8 -207t6 -208q1 -39 1 -74q0 -52 -2 -94q-3 -70 -11 -84q14 -18 21 -55q5 -26 5 -53q0 -12 -1 -23q-3 -39 -15 -72.5t-39 -45.5l-100 -19q-14 -23 -26.5 -47.5 t-22.5 -50.5q14 -33 32 -60q8 2 28.5 -4t25.5 -14h233l14 14q86 0 164 -7q22 -2 44 -2q57 0 114 13l35 54q-20 14 -53 33.5t-68 37t-70 32.5t-61 24q-4 10 -6 45t-3 81t-2 98v50.5v46.5q1 45 3 78t6 39l37 2q-3 15 -3 29q0 19 5 37l84 10q-2 4 1 8t7 4h190 q12 -25 19.5 -53.5t10.5 -58t6 -60.5t9 -57h109q-10 12 -9 46t2 74.5t1 81.5t-8 68l14 43q-12 25 -17.5 54.5t-8.5 61t-7 63.5t-12 63h-80q-6 -33 -8 -59.5t-8.5 -51t-20.5 -47.5t-43 -43q-63 0 -135 4q-11 1 -22 1q-59 0 -109 -19q-29 -12 -39 5t-12 44.5t2 55.5t6 38 q5 29 5 60q0 16 -1 33q-4 50 -11 100.5t-11 100.5q-1 15 -2 28q0 34 8 65q4 10 9 25.5t9 25.5q23 39 68 52.5t96 14.5h15l87 -5q51 -6 86 -6l17 -15h155q29 -53 55.5 -105t49.5 -106q16 -10 31.5 -19t27.5 -22h41l16 23q1 18 1 34q0 32 -3 59q-4 40 -10 74t-13 68.5 t-15 79.5q-20 6 -42 21.5t-40 19.5l-31 -22h-123l-6 20h-557q-12 31 -32.5 41t-45.5 11h-7q-23 0 -45 -5q-26 -6 -50 -10l-9 -20h-96q-10 -8 -23.5 -14.5t-27.5 -12.5z" />
<glyph unicode="G" horiz-adv-x="1662" d="M70 748q4 -123 55 -245t166 -251q33 -39 79 -70.5t70 -72.5q35 -10 65 -21.5t60.5 -22t64.5 -19.5t75 -11l8 -17q29 -18 85 -24q37 -4 78 -4q20 0 40 1q63 3 123.5 16t97.5 36h17q42 0 75 8q39 10 74.5 26.5t71.5 35t81 32.5l35 48q-12 16 -27.5 72.5t-26 129 t-13.5 149.5q-1 17 -1 33q0 57 9 103q10 59 36 88q15 16 35 16q18 0 41 -12q2 -6 8.5 -11t12.5 -9l30 24v103q-16 8 -29.5 18t-25.5 21q-23 0 -77 -2q-39 -2 -80 -2h-35q-60 1 -109 6.5t-61 19.5l-91 -25q-16 -23 -26 -51l33 -45q12 -4 24 -11t23 -15q45 -6 72.5 -15.5 t39 -28t9.5 -48t-13 -74.5q-2 -8 1 -27.5t8.5 -43.5t9.5 -45.5t4 -33.5q-4 -27 -1 -61q2 -25 2 -51v-18q-1 -36 -8.5 -68.5t-31.5 -57.5q-23 -23 -59.5 -37t-73.5 -26.5t-68 -23.5t-43 -30h-201q-29 35 -72 46q-38 10 -73 10h-12q-29 47 -78 98t-90 86l-6 66 q-41 49 -69 114.5t-45 136t-25.5 142t-8.5 131.5l13 10q8 123 40.5 202t88 135t132 100t175.5 96q31 16 58.5 19t60.5 17l10 21q24 4 45 4q19 0 36 -3q36 -7 67.5 -21.5t63 -31t68.5 -24.5q37 -47 80 -101t88 -95q20 35 25 82q3 22 3 46q0 25 -3 51q-6 50 -20.5 97t-32.5 82 l-58 18q-23 -8 -37 -21t-28.5 -25.5t-30.5 -20.5t-41 -6l-16 32l-31 17l-6 10h-105l-24 14h-131l-15 -16h-118q-20 -33 -60 -39l-8 -16q-82 -10 -137 -47t-97 -83t-78 -91.5t-79 -71.5q-66 -145 -103 -274q-34 -118 -34 -229v-23z" />
<glyph unicode="H" horiz-adv-x="1591" d="M80 58q10 -44 35 -85q12 4 35.5 -6t35.5 -16q35 16 64 24.5t58.5 11.5t60 2t71.5 -1q8 0 12.5 -8.5t8.5 -6.5l8 15h145q27 25 46.5 41t37.5 51q-4 6 -26.5 22.5t-48 34t-50 32.5t-30.5 17l-8 35q6 16 11 50t6 70v18q0 27 -2 47q-3 28 -15 36l14 39l-14 21q0 47 1 91t5 91 q51 4 95 10t99 6l6 21h291l19 14l57 -12q10 -76 10 -150q0 -72 -5 -144.5t-12 -145t-9 -150.5q-29 -16 -60 -25.5t-63 -11.5q-10 -10 -19.5 -22.5t-13.5 -24.5l22 -61h95l6 22h368l7 -22h63q15 40 15 64t-17 59q-23 8 -43 11t-43 7q-16 8 -26.5 55t-16.5 103.5t-8 108.5 q-1 26 -1 44t1 27l-21 29q0 41 9 71q10 14 13 46t3 69q0 39 -2 76t-2 59q-10 10 -12.5 20.5t14.5 20.5v70t2 104.5t4 119.5t4 114.5t5 88.5t5 40q64 14 100 47q33 30 33 60q-1 4 -1 6q-4 32 -48.5 56.5t-142.5 24.5l-14 -16h-119l-14 14q-12 0 -41 1t-60 1t-57.5 -4 t-34.5 -12v-57q37 -12 75 -16.5t72 -16.5q27 -39 28 -109v-21q0 -62 -5 -130q-5 -80 -13 -158q-3 -32 -4 -59q0 -40 7 -72l-41 -41l-41 -4q4 -4 0 -8t-8 -4h-242l-14 14h-209q-16 20 -25.5 35.5t-13.5 31t-6 34t-6 44.5l14 23v135l-14 20q16 59 18 118t4 124l29 27 q35 4 70.5 11t56.5 40l-8 39q-37 17 -75 17h-4q-40 -1 -83 -1l-15 -16h-143l-29 16l-65 -16l-47 16q-74 -23 -111 -53q-33 -27 -33 -52v-6q4 -28 50.5 -47.5t140.5 -19.5q0 -73 4 -143v-16q0 -62 -27 -119l23 -70q-4 -6 -8 -15.5t-13 -13.5q-2 -11 -2 -37q0 -19 1 -47 q3 -64 8.5 -150.5t13.5 -182t16 -177.5t16.5 -138t12.5 -62q-6 -16 -24.5 -30.5t-42 -26t-47 -19.5t-42.5 -14l-45 16l-41 -19q-16 -32 -16 -63q-1 -13 2 -26z" />
<glyph unicode="I" horiz-adv-x="755" d="M66 1606q-7 -9 -8 -22q0 -21 18 -52q18 -12 37.5 -17.5t38 -7.5t38 -5t39.5 -13q10 -27 39 -45v-518q2 4 8.5 5t6.5 -7v-414q4 4 10 5t6 -7q0 -43 5 -96.5t5 -106.5t-9 -103t-38 -89q-29 -2 -55.5 -7.5t-52.5 -13.5q-12 -16 -21 -45q4 -8 7 -16t10 -15q49 -4 90 -4 q43 0 84 1t84 2t94 1l16 -16h100l25 16v37q-29 29 -55.5 52.5t-61.5 48.5v159l-16 15v141l-25 23v200l17 10l6 11l-23 6v160l25 34q-23 55 -24 101.5t-1 107.5l25 27l-25 55l23 41l-23 17q8 12 11.5 18t3.5 10t-4 10.5t-11 20.5l21 25q4 27 7 52t11 52q39 16 78 16 q16 23 43.5 43.5t50.5 36.5v51q-4 2 -8 2h-8l-23 23q-16 4 -39.5 -4t-35.5 -19q-10 14 -48 19.5t-84 6.5h-31q-30 0 -58 -1q-42 -2 -58 -2l-24 16q-29 0 -74 4q-13 1 -26 1q-30 0 -57 -7q-38 -8 -56 -30z" />
<glyph unicode="J" horiz-adv-x="858" d="M72 102q-2 -14 -2 -27q0 -21 7 -37q11 -24 45 -29q6 -1 13 -1q32 0 82 19l21 -15h69q27 16 58 17q47 29 91 53t79.5 53t60.5 67t35 91q26 148 26 294q0 8 -1 17q-1 154 -9 306.5t-14 303.5q-1 38 -1 76q0 113 13 223l21 21q35 6 64 18.5t58 32.5v25l-16 16q-39 0 -60.5 1 t-54.5 11l-16 -12h-311l-4 -14h-70q-12 -10 -24.5 -21.5t-22.5 -25.5l22 -25q12 -6 37 -6t52.5 3t53 6t40.5 3l8 -30l-16 -60q6 -18 8 -28.5t2 -18.5t-3 -18.5t-7 -28.5q6 -6 9 -22.5t4 -35t0 -35t-1 -24.5q0 -2 -3 -6t-7 -2q20 -59 25 -133q4 -62 4 -125v-25 q-1 -77 -4 -154q-1 -33 -1 -64q0 -41 2 -79l15 -16q2 -33 7 -84t5 -111q0 -57 -6 -114.5t-25.5 -104.5t-53.5 -76.5t-89 -29.5q-43 0 -71 15.5t-52 49.5h-62q-23 -45 -30 -84z" />
<glyph unicode="K" d="M45 1604l21 -60l94 -8q8 -49 12 -121q4 -71 5 -153q0 -41 1 -84q0 -44 -1 -88q-1 -90 -4 -173t-7 -157t-10 -127q20 -37 26 -101.5t6 -138.5t-4 -144.5t-4 -115.5h-100q-25 -35 -30 -65q-1 -6 -1 -11q0 -25 17 -57h108l16 16h238q8 14 21.5 21.5t29 10.5t31.5 4t31 5v49 q-4 12 -14.5 9t-14.5 -2q-104 57 -141 182q20 39 20 83q-1 7 -1 13q-4 51 -3 101l-16 20q13 37 13 75q0 15 -2 31q-7 54 -9 104v12q0 44 13 83q15 45 77 82q29 -29 65.5 -32t73.5 -15q35 -53 79 -131t84 -162t71.5 -166t42.5 -143q14 -10 20 -18.5t10 -15.5t7.5 -16.5 t9.5 -21.5q16 -35 44.5 -56.5t60.5 -38.5t64.5 -32.5t59.5 -34.5h100l7 25h124l7 -25h86v62q-25 12 -60 27.5t-72.5 31t-74.5 27.5t-66 22q-41 74 -87 140.5t-89 134t-77.5 140.5t-51.5 159q-14 16 -33.5 32.5t-37 34t-30 39t-9.5 45.5l-35 25q-25 76 -43 149q12 20 26.5 38 t29.5 35.5t26.5 35.5t17.5 41q35 29 57.5 52.5t42.5 64.5q45 20 72 45.5t46.5 50.5t37.5 46.5t47 33.5l39 -23h117l16 37l-18 39q-29 2 -66 7t-55 34h-158l-14 16h-135l-17 -39l49 -28l25 -47q-23 -53 -54.5 -102.5t-53.5 -102.5q-45 -16 -69 -40t-28 -73l-18 -8 q-2 -35 -19.5 -45t-50.5 -10l-143 -150l-76 39q0 20 -4 69.5t-7 111t-3 128.5q0 68 9 125.5t28.5 98.5t54.5 51l-184 6l-25 16h-193z" />
<glyph unicode="L" horiz-adv-x="1419" d="M66 1520q0 -25 15 -37.5t38 -18.5l90 -24l20 14q12 -4 24.5 -9t25.5 -11q20 -86 27 -190q4 -66 4 -133q0 -39 -1 -79q-4 -108 -16 -212.5t-29 -190.5q33 -89 37 -191q2 -51 2 -100t-2 -96q-27 -43 -62.5 -67.5t-78.5 -47.5l-19 -55l33 -56q23 0 72 1t103 2q27 0 53 1 q26 0 52 -1q52 -1 81 -5q8 -6 56 -11q47 -5 103 -6h22q43 0 82 3q48 4 60 16q27 -6 41 -9t27 -3q12 0 27.5 3t41.5 9q31 -14 67 -18t73 -4q39 0 75.5 3t71.5 3q23 33 38 86t24.5 110.5t10.5 113.5v15q0 46 -5 81q-16 -14 -58.5 -58.5t-88.5 -90.5t-87 -81q-37 -31 -52 -31 h-3q-16 4 -33.5 10.5t-34 9.5t-33 -1t-28.5 -19h-379q-12 25 -22.5 85.5t-16.5 139.5t-10 166q-3 70 -3 134v32q1 78 5 141.5t12 94.5q2 7 2 22q0 18 -3 48q-5 54 -14 115t-19.5 117t-12.5 77q0 6 5 23.5t13.5 37t15.5 37t11 23.5q25 14 42 21t32.5 8t33 -3t46.5 -10 q12 4 25.5 8t23.5 13q11 31 23 73q5 18 5 34q0 22 -10 40q-47 12 -107 18q-14 2 -27 2q-42 0 -75 -16l-24 -27h-248l-12 21l-25 2q-20 -14 -47 -18.5t-50.5 -11.5t-39.5 -22.5t-16 -49.5z" />
<glyph unicode="M" horiz-adv-x="1810" d="M82 8h70l16 15h356q29 12 41.5 30.5t22.5 44.5l-51 54l-45 6l-35 28q-11 12 -15 64q-4 43 -3 94v24q1 64 4 126.5t6 97.5l1 24q1 23 3 37l2 -6v15l-2 -9l-29 97q23 86 31 161.5t18 163.5l31 29q45 -23 52 -67q4 -28 4 -55q0 -15 -1 -30q16 -23 35.5 -42t40.5 -38v-8 q0 -27 11 -76q13 -57 36 -131.5t50.5 -157.5t56 -159t54 -135.5t42.5 -87.5h28q18 57 47 133t56.5 154.5t48 152.5t20.5 127q23 25 26 56.5t7 62.5l25 24q6 29 15 64t21.5 70.5t30 66.5t37.5 51l47 -20q1 -36 1 -74q0 -57 -2 -117q-2 -76 -2 -154v-52q1 -104 9.5 -205 t32.5 -193l-14 -47l14 -16l-37 -68q-35 -10 -70.5 -19.5t-70.5 -15.5l8 -73q31 -15 70 -21q33 -5 68 -5h13q42 1 83 4t76 3l16 17h127q18 -12 29 -37h84v73l-43 39q-55 4 -89 35t-53.5 76t-26 101.5t-7.5 111.5v54v54v33q0 31 -1 55l-12 9q0 10 -1 46v36.5v38.5q1 38 4 70 t11 38q-4 16 -9 66.5t-11 117t-11 140t-10.5 137t-7.5 106.5t-2 47q8 2 16.5 12.5t16.5 23t17.5 23.5t21.5 17h166q-4 18 -5 39t3 39l-23 -18q-92 16 -182 16q-88 0 -180 -14q-20 -49 -39 -111.5t-38.5 -126t-41 -122t-47.5 -101.5l-19 -8q-4 -31 -8 -63t-31 -54 q-6 -18 -18 -43t-21.5 -51.5t-14.5 -53t3 -45.5q-16 -41 -35.5 -79.5t-44.5 -73.5h-22q-33 35 -72 114.5t-80 178t-82 206t-76.5 199.5t-66.5 155.5t-51 76.5q-20 -4 -44 1t-40 17q-18 -10 -42 -17.5t-46 -2.5l-27 -19l-24 21h-123q6 -28 6 -53v-12q-2 -30 -4 -64l31 -25 h106l18 25q18 -10 35 -28.5t25 -39.5q-8 -98 -19.5 -188.5t-11.5 -190.5q-4 4 -9 1t-5 -7v-215q4 4 9 3t5 -7v-129q-2 -8 -9 -9t-5 -5l14 -33q-10 -53 -27.5 -102.5t-33.5 -102.5q12 -26 12 -56q0 -7 -1 -14q-3 -39 -17.5 -80t-34 -78.5t-35.5 -62.5q-68 -4 -127 -35v-90z " />
<glyph unicode="N" horiz-adv-x="1804" d="M31 1575l2 -14l41 -39q18 0 41.5 -7.5t48 -19.5t47 -27.5t37.5 -29.5l26 -1184q-4 -29 -7 -57.5t-29 -44.5h-146l10 -13l-8 -53l23 -66q27 -12 57 -12h62t58.5 -5t47.5 -23l43 4l10 18q27 14 59.5 19.5t65.5 5.5q35 0 69 -3.5t64 -3.5l15 58q-10 27 -24.5 36t-31 13 t-34 7t-35.5 16l-88 6q-18 27 -27.5 76t-10.5 103v21q0 42 3 80q4 47 12 72q-8 20 -12 83.5t-5 145.5q0 41 -0.5 84t0.5 89q1 91 2 167t2 125l1 49l30 -39q29 -38 67 -90.5t72 -103.5t42 -78q39 -29 70.5 -65.5t62.5 -74.5t60.5 -73t66.5 -57q14 -29 55 -84.5t95.5 -123 t117 -139t120.5 -133t105.5 -104.5t71.5 -51q16 6 32.5 17t31.5 24q-6 41 -13.5 105.5t-13.5 132t-6 126.5t10 95q-6 14 -11 22t-6 13t2 11.5t11 20.5q-4 82 -6 157t-2 146q0 72 3 143.5t9 149.5l-12 25q4 49 4 98q0 51 -2 102q-23 20 -16 37t18 37q16 0 34.5 6t28.5 19 l88 -39l76 41l-94 92h-465l-12 -62l18 -14l84 -4q4 -4 2 -8t11 -6h106q6 -16 11 -26.5t8.5 -20t4.5 -19.5t1 -26l-2 4q-4 -59 -4 -119q1 -7 1 -15q0 -68 5 -133l-23 -6l14 -278l-14 -21q4 -72 8 -133q1 -10 1 -20q0 -52 -17 -107l26 -67l-20 -70t-16 -70q-80 123 -121 264 q-70 4 -97.5 45t-46.5 103q-8 6 -30.5 30.5t-47 52.5t-43 51.5t-20.5 29.5q-18 10 -38.5 31.5t-20.5 44.5l-51 43q-2 8 -29 48t-70 94t-93 116.5t-96 118t-82 96.5t-48 51q-4 0 -16 1t-26 3q-9 1 -17 1h-8q-11 -1 -13 -3h-266zM1485 1221v2v-2z" />
<glyph unicode="O" horiz-adv-x="1636" d="M81 896q-4 -35 -4 -69q-1 -71 17 -143q26 -106 85 -209.5t136.5 -189.5t168.5 -151.5t182 -96.5l8 -21h74t67 -16q66 12 125 31.5t125 23.5l131 92l12 -2q23 20 36 29.5t22.5 17t17.5 20.5t23 44q27 14 55.5 42t55 61.5t48 68.5t31.5 64q-4 2 -8 9t-6 11q12 33 27.5 63.5 t31.5 59.5q2 12 3 30.5t-1 39t-5 40t-11 29.5q29 90 30 169t1 175l-29 23q-2 74 -44 142.5t-104.5 124.5t-135 98t-134.5 61l-8 16l-158 21l-8 16l-82 18l-61 -18l-9 -16l-110 -21l-8 -16q-33 -2 -65 -7.5t-64 -13.5q-25 -35 -62 -57.5t-80 -32.5q-37 -39 -79 -79t-77.5 -84 t-58 -93t-22.5 -106q-66 -92 -79 -198zM364 756v7q0 39 15 54q0 39 6 106.5t22.5 137t44 128t68.5 79.5q8 47 33 73.5t68 44.5l10 17q27 4 53.5 9t50.5 11l6 17q23 4 60 13t74.5 15.5t70.5 6.5t45 -15q20 2 38 -4t35 -16t33.5 -20.5t35.5 -16.5q20 -35 53 -37q25 -61 54 -98 t52 -84q47 -96 48 -192v-9q0 -92 -20 -183q-20 -95 -50.5 -191.5t-44.5 -190.5q-49 -55 -97.5 -103.5t-101.5 -78.5q-54 -29 -116 -33h-14q-57 0 -124 26q8 -12 14 -23q3 -5 1.5 -5t-7.5 6q-31 0 -53 13t-40.5 26.5t-38 23t-44.5 0.5q-35 10 -69.5 49t-64.5 94.5t-54.5 119 t-37 121t-14.5 102.5zM756 236q12 -5 16 -7q-4 9 -9 13q-2 1 -3 1q-3 0 -4 -7z" />
<glyph unicode="P" horiz-adv-x="1230" d="M18 31q14 -20 29 -31h346l17 16h192l23 25v35q-53 18 -88 33.5t-82 44.5v198l22 23v260l-20 24q23 55 60.5 69.5t84.5 14.5q48 0 102 -1h5q51 0 100 24l10 16q47 12 76 21.5t51.5 24t46 34t58.5 51.5q-2 23 6 45.5t33 32.5q12 45 29 87t44 81v18q0 53 -10 101 q-12 56 -59 102l-2 70q-33 14 -39 55q-53 29 -97 76l-67 21l-6 20h-156l-14 16l-203 -18v2q-40 13 -83 13h-6q-46 -1 -89 -6t-79 -9t-60 2l-11 -23l-41 23l-32 -2l-29 -23l-12 -41l16 -49q37 -4 74 -7t73 -9q12 -18 19.5 -42t1.5 -46q-12 -4 -16 -36q-2 -22 -2 -49v-23 q2 -40 4 -78.5t2 -53.5l-25 -37l25 -34v-193q-16 -4 -25 -25v-34l25 -6v-177q-8 0 -15.5 -7t-9.5 -15q0 -117 -1 -223.5t-17 -218.5l-58 -58l-33 -4q2 -6 -9 -20.5t-26.5 -29.5t-30.5 -28.5t-22 -21.5zM455 844v323l24 33l-22 78q14 10 19 46t6 78v28q0 28 -1 54 q-2 40 -2 56l31 23v6l166 16q51 -53 119.5 -95t124.5 -97l4 -45l22 -11l4 -104l2 -33q-4 -18 -6 -37.5t-4 -38.5q-16 -20 -35.5 -50t-40 -61.5t-39 -63t-28.5 -54.5q-18 -8 -37 -13t-39 -8q-23 -16 -34 -23t-20.5 -10t-23.5 -3q-12 0 -39 -2l-8 -21h-113z" />
<glyph unicode="Q" horiz-adv-x="1636" d="M55 900q-5 -38 -5 -76q0 -61 14 -122q22 -98 75.5 -192t123 -177t149.5 -150.5t155 -112.5q8 -20 4 -37t-7 -38.5t1 -51t31 -74.5q16 -31 59 -75t93.5 -85t101.5 -71.5t84 -32.5l14 -27l238 -24l203 24l14 27q37 10 54.5 24.5t26.5 30.5t14 35.5t22 38.5q4 33 18 59 l25 37q10 43 13 66q1 7 1 14q0 13 -4 24q-6 15 -22.5 30.5t-45.5 45.5q-35 2 -55 2t-36.5 -6t-32 -19.5t-35.5 -35.5v-121q23 -35 38 -76q-2 -8 -23.5 -24.5t-49 -34t-53 -31.5t-37.5 -18q-41 16 -123 49t-164 76t-140 91q-50 42 -50 85q0 6 1 12l-51 57q33 4 51.5 0 t47.5 -16q63 12 123.5 31.5t125.5 23.5l132 92l12 -2q23 20 35 29.5t21 17t17.5 20.5t24.5 44q27 14 56.5 42t55 60.5t46 67.5t33.5 66q-6 2 -9.5 9l-5.5 11q10 33 26.5 63.5t33.5 59.5q2 12 3 31.5t-1 39t-5.5 38t-11.5 30.5q29 90 30 169t1 175l-29 23q-14 76 -54 144.5 t-97.5 123.5t-127 95t-138.5 63l-9 16l-157 21l-9 16q-29 8 -43 12t-28 4q-12 0 -27.5 -4t-44.5 -12l-8 -16l-111 -21l-8 -16q-33 -2 -65.5 -7.5t-63.5 -13.5q-53 -72 -141 -90q-39 -39 -81 -79t-77 -84t-57.5 -93t-22.5 -106q-68 -94 -82 -194zM341 756v5q0 41 15 56 q0 39 6.5 106.5t22.5 137t43 128t70 79.5q6 47 31.5 73.5t68.5 44.5l10 17q27 4 52.5 9t52.5 11l6 17q23 4 59.5 13t74.5 15.5t69 6.5q33 0 47 -15q20 2 37.5 -4t35 -16t34 -20.5t34.5 -16.5q16 -33 53 -37q23 -61 53.5 -98t53.5 -84q47 -96 47 -193q0 -96 -20.5 -191 t-50 -191.5t-44.5 -190.5q-49 -57 -99 -106.5t-105.5 -78t-119.5 -30.5h-8q-61 0 -137 33q0 12 2 10t3 -7.5t-1 -8.5t-8 8q-33 0 -50 8t-30.5 16t-28 12.5t-38.5 -4.5q-35 10 -70 49t-64.5 94.5t-54 119t-38 121t-14.5 102.5z" />
<glyph unicode="R" horiz-adv-x="1579" d="M76 57q6 -18 17 -34.5t26 -30.5h225l4 22l31 -24l72 24q10 -12 34.5 -17t53 -7t55.5 -1t41 3q2 0 9 -6t3 -11l45 19l37 55q-23 25 -35 57q-35 16 -71 17h-78q-18 25 -38 50.5t-32 55.5q14 29 18.5 70t4.5 84q0 45 -3 87t-3 77q-8 10 -11.5 15t-2.5 9t5 9.5t11 17.5 q-11 39 -11 73q0 21 4 39q11 48 29 113q31 0 53 23h199l18 14q25 -2 56 -16l8 -19q49 -8 76.5 -48t39 -98t12.5 -129v-47q0 -47 -1 -93q-2 -68 -4 -128v-22q0 -44 6 -76q6 -31 19.5 -58.5t28.5 -54t30.5 -52t25.5 -56.5q12 -6 40 -24.5t58.5 -40t59.5 -42t45 -30.5h154 q20 39 63 55v37q-25 20 -45 22t-42.5 6.5t-52.5 21t-69 65.5q-49 59 -66.5 126.5t-22.5 137.5q-4 58 -4 117v24v12q0 64 -9 126q-10 68 -39 130t-94 113l-37 4l-10 19q-44 10 -62 40q-11 17 -10 37q0 16 6 35q47 8 80 22.5t61 55.5q37 0 65 35t38 89q6 30 6 63q0 27 -4 55 q-8 64 -42 125t-95.5 109t-157.5 69l-8 20h-158l-20 17q-18 -14 -25 -15q-4 0 -27 15h-81l-17 -17h-217l-8 -22h-98l-7 22h-108l-17 -51l21 -43l37 -22q16 8 37.5 17t44.5 3q8 -35 27.5 -52t31.5 -37.5t10 -54.5t-34 -100q6 -35 8 -65.5t3 -61t3 -62.5t10 -67q-6 -4 -11 -59 t-10 -137t-10.5 -181.5t-10.5 -192.5t-9 -170t-8 -114l24 -24h-153l-29 -25zM506 1171q-2 16 -2 33q0 22 3 46q5 44 14 88t21.5 87t24.5 76q61 31 111 34h15q41 -1 78 -13q44 -16 85 -47t86 -72q2 -4 11.5 -12.5t18.5 -17.5t16 -18t7 -16h-2q0 -8 -5 -15t-9 -13 q-2 -25 2 -50.5t4 -50.5q0 -12 -8 -41.5t-18.5 -64.5t-21.5 -65.5t-15 -43.5q-43 -23 -67 -35t-46 -18q-25 -6 -59 -6q-33 0 -105 2q-20 0 -43.5 8t-46.5 10q-14 31 -33 56q0 41 -5 79.5t-11 79.5z" />
<glyph unicode="S" horiz-adv-x="1126" d="M58 282q3 -62 16.5 -121t31.5 -106l46 -16q23 6 43 15t38 24q27 -27 89 -48q60 -20 128 -30q48 -7 91 -7q17 0 33 1q56 4 71 26l39 -2l10 19q57 10 113.5 49t107 92t87 114.5t54.5 119.5q13 43 12 78q0 12 -1 24q-6 46 -43 66q-12 86 -46 139t-79 90t-97 66.5t-102 68.5 l-53 6l-10 19q-45 8 -89 15t-87 20l-10 18l-99 20l-10 19q-47 20 -78 74.5t-31 115.5q0 63 37 125t127 97q4 8 20.5 21t26.5 13q123 0 192 -19.5t104.5 -48t49 -61t29 -61.5t43 -47.5t90.5 -18.5q0 83 4 141q1 15 2 27q0 40 -10 69q-14 38 -55 55.5t-129 17.5 q-27 20 -49.5 25t-50.5 16l-11 18l-108 18q-8 -10 -33 -14t-53 -4q-29 0 -55.5 1t-38.5 1q-10 -8 -44 -28.5t-73 -42t-75 -40t-50 -22.5q-12 -76 -23.5 -123t-19.5 -90q-8 -44 -11 -96q-2 -32 -2 -75q0 -29 1 -63q31 -29 52 -62.5t44 -68.5q23 -2 48.5 -18t37.5 -35 q39 -6 53 -39q35 -16 72 -25.5t76 -11.5l6 -20h133l10 -14q12 2 25 2q24 0 51 -7q31 -25 59.5 -49t53 -51t42 -59.5t23.5 -73.5q31 -26 31 -66v-9q-4 -46 -27.5 -94t-56.5 -90t-56 -63l-100 -20l-8 -18q-37 -4 -63.5 -6.5t-52 -3.5t-53.5 1t-62 9l-9 18q-66 20 -106.5 44 t-63 56.5t-33 78.5t-14.5 114q-10 10 -20 20.5t-17 22.5h-34q-31 -44 -43 -102q-9 -46 -9 -94q0 -13 1 -26z" />
<glyph unicode="T" horiz-adv-x="1646" d="M70 1650q2 -52 4 -110t3 -110v-32q0 -30 -1 -48l24 -39h45l17 65l82 92q10 0 38.5 -1t59.5 -1t56.5 3.5t31.5 13.5q34 -12 59 -12q5 0 11 1q28 3 73 13q-4 4 0.5 8t8.5 4h112q31 -43 44 -101q14 -58 16 -120v-26q0 -48 -6 -97q-8 -61 -15 -113q0 -4 -2 -20t-3 -35.5 t-3 -39t-2 -32.5q14 -10 10 -19t-10 -20v-133l12 -18q-12 -53 -12 -141q0 -86 -7 -175.5t-28.5 -165t-73.5 -104.5q-27 6 -52 1t-52 -9q0 -10 -10.5 -8t-14.5 8v-113l138 62q12 -20 30.5 -28.5t40 -10.5t43 0t41.5 2l17 14l90 -41q18 14 48 16.5t61.5 -0.5t63.5 -5t56 6 l29 -15v47q-12 16 -35 29.5t-48.5 24t-50 19.5t-42.5 18q-12 20 -20.5 45.5t-15.5 50t-14.5 46t-19.5 38.5q14 55 18.5 118.5t7.5 134t8 144.5t21 150l-22 49q4 27 7 74t5 104t5 117.5t6 113t7.5 89t10.5 49.5q37 17 79 17h13q49 -3 96 -3l15 -14h88q8 12 12 14h162 q14 -8 28.5 -37t29.5 -59.5t30.5 -54t34.5 -23.5l18 22q-4 31 -7 77t-6 95.5t-6.5 95.5t-7.5 76l-45 17q-23 -6 -37 -13.5t-25 -14.5t-22.5 -18.5t-27.5 -25.5h-162q-6 -2 -7 -6t-7 -8h-160l-19 14q-22 -3 -57 -3q-17 0 -38 1q-62 2 -124.5 5t-111 7t-50.5 2q-61 0 -123 -5 t-124 -6h-13q-55 -1 -109 7q-60 8 -116 33l-102 60q-1 -14 -1 -33.5t1 -45.5z" />
<glyph unicode="U" horiz-adv-x="1802" d="M63 1550l11 -45q33 -10 64.5 -15t64.5 -15q27 -37 31 -99q2 -23 2 -47q0 -41 -4 -83q-6 -68 -16.5 -132.5t-10.5 -107.5l8 -486q0 -68 21.5 -115t51 -85.5t61.5 -76.5t56 -87q61 -35 118 -66t110 -53.5t103 -35.5q43 -11 84 -11h13q102 2 185.5 36.5t143 74.5t92.5 73 l32 33l37 -14l18 -29q-10 -12 -14 -31.5t-6 -40t-1 -41t5 -35.5l53 -16q31 14 76 30q30 11 56 12q12 0 24 -3l10 -19q25 -10 40 -14t29.5 -3t30 5t37.5 8q4 16 4 32q0 23 -8 46q-29 6 -44 8t-26.5 7.5t-23.5 15.5t-35 33q-2 10 -12 46t-21.5 77t-20.5 75.5t-9 40.5 q3 100 21 204q14 85 15 168q0 19 -1 38q-4 123 -6 241q-1 51 0 103q0 69 1 139l19 10q4 48 16 90q8 30 7 63q0 15 -1 30l13 18l78 6l6 19q25 2 48.5 11.5t39.5 23.5l-2 61q-10 8 -33 12q-24 4 -50 5q-13 0 -25.5 0.5t-24.5 -0.5q-24 -1 -35 -1l-15 -16q-58 0 -118 -3h-15 q-52 0 -100 19l-49 -16l-37 16q-23 -6 -36 -13t-22.5 -16.5t-17.5 -21.5t-22 -31l4 -53h127l30 -20q32 -102 40 -216q5 -65 4 -129q0 -50 -2 -100q-6 -114 -21.5 -228t-30.5 -216l2 -23q0 -8 3 -29.5t4 -44t-1 -41t-12 -22.5q0 -20 -1 -43.5t-8 -46t-21.5 -39t-39.5 -20.5 q-23 -35 -36 -50.5t-26 -24.5t-30.5 -17.5t-48.5 -26.5h-13q-54 0 -102 -14q-54 -16 -122 -17q-31 20 -62 53q-53 8 -89 33t-64.5 57.5t-55 69.5t-59.5 70q-42 172 -70 362q-19 132 -20 255q0 54 4 106q-8 14 -12.5 20t-5.5 9.5t3.5 7.5t10.5 14l-10 172l12 8l53 127l170 45 l6 37q-18 8 -37.5 12t-38.5 9l-10 18q-70 6 -122 8q-26 1 -51.5 1t-50.5 -1q-50 -2 -104.5 -4t-123.5 -2q-33 -33 -46 -72z" />
<glyph unicode="V" horiz-adv-x="1390" d="M52 1532q11 -33 55.5 -69t113.5 -62q12 -35 21.5 -68t25.5 -65l-22 -25q16 -27 53 -117t81 -212.5t93 -263t91 -267.5t72 -226.5t40 -138.5q16 -10 42 -16q11 -3 20 -3q12 0 22 5q43 37 74.5 119t57.5 188.5t48.5 225t47 231.5t54 206t68.5 148v107q0 63 11.5 123.5 t40 106.5t85.5 54l10 19q23 6 44.5 13.5t39.5 19.5v34q-41 23 -88 39l-8 -16q-14 2 -39 2q-23 0 -47 -1t-45.5 -6t-34.5 -15q-29 8 -51 16t-43.5 14t-47.5 8q-9 1 -18 1q-19 0 -40 -3l-25 -57l25 -47h120q25 -45 26 -118v-10q-1 -68 -13 -140q-14 -78 -39 -150t-51 -112 q0 -66 -12.5 -125.5t-29 -116.5t-31.5 -115.5t-20 -122.5l-38 -20q-29 18 -49.5 60t-39 96.5t-34 115t-30.5 116.5t-33.5 102t-41.5 71q-4 51 -19.5 101.5t-30.5 100.5t-23 101q-2 16 -2 32q0 36 12 73l43 4l30 22h43l17 17q4 16 -2 34.5t-10 34.5h-439l-10 14q-17 1 -32 1 q-48 0 -70 -15q-21 -14 -21 -36q0 -8 3 -17z" />
<glyph unicode="W" horiz-adv-x="2437" d="M57 1554l23 -63q53 -37 85 -51.5t50 -31.5t28.5 -49t18.5 -104q8 -8 20.5 -42.5t28 -85t30.5 -108.5t28.5 -112.5t23.5 -96.5t15 -58q27 -16 54 -68.5t56 -123.5t56.5 -153.5t53 -160.5t49 -143.5t44.5 -102.5q49 0 106 20q35 70 67 152q-4 14 7.5 56t28 91.5t33 97.5 t22.5 75l19 10q35 59 53 128.5t34.5 139.5t37 134.5t61.5 113.5q6 -2 14 40t15.5 93t13.5 96t8 51l29 -301q4 -39 22.5 -117.5t46 -177t61.5 -207t66.5 -207t60 -175t44.5 -113.5h69q6 8 28 57t51.5 118t62.5 148.5t60.5 150.5t46 124t20.5 70q16 23 29.5 47t37.5 37 q31 84 55.5 178t53.5 188t67.5 182.5t98.5 159.5q63 14 129 43v78l-60 41h-303q-14 12 -18 14t-21 -14h-135l-26 -41v-37l69 -26l29 8q16 -14 34.5 -26.5t37.5 -22.5l24 -43q-14 -29 -23.5 -68t-17.5 -81l-16 -84t-19 -79l-28 -24q0 -4 -17.5 -56.5t-45 -129t-59.5 -166 t-59.5 -165t-45.5 -125.5l-19 -50l-23 72q-22 73 -56 184.5t-71.5 246.5t-67.5 259q-31 124 -47 222q-10 58 -9 95q0 24 4 39q35 19 74 19h3q40 -1 84 -1q4 18 4 39q0 23 -6 41h-311l-16 16h-232l-10 -53l123 -65v-181q-23 -23 -32 -51t-11 -60t0 -63.5t2 -60.5 q-39 -66 -74 -167t-67.5 -210t-65.5 -212t-65 -173l-17 178q2 4 -7 38t-23.5 83t-33 105.5t-37 105.5t-33.5 86t-24 47q-2 10 -5 27.5t3 27.5q-6 6 -15 36t-21.5 72t-25.5 90t-25.5 94t-23.5 84t-18 57q-8 25 9.5 40t44 25t54.5 14t40 9v36q-12 20 -49 31.5t-89.5 16 t-111.5 4.5t-114.5 -2t-98.5 -5.5t-64 -3.5q-16 -16 -29.5 -38.5t-19.5 -45.5z" />
<glyph unicode="X" horiz-adv-x="1527" d="M86 1581q-1 -12 -1 -23q0 -18 2 -32q3 -26 15 -51q43 -4 64.5 -34t26.5 -71l18 -10l4 -66l70 -69l28 -4l41 -43l21 -66l18 -10l19 -58q29 -18 56.5 -37.5t37.5 -54.5l6 2q6 -8 10 -20t2 -23q29 -6 45.5 -23.5t21.5 -39t-3 -44t-31 -40.5q-6 -20 -9 -30.5t-7 -18.5 t-12.5 -17.5t-24.5 -25.5q4 -23 -9.5 -49.5t-29.5 -42.5q-2 -53 -21.5 -83t-43 -57.5t-42 -62.5t-18.5 -98q-29 -23 -57.5 -42.5t-61.5 -39.5l-33 22h-26l-39 -41v-86l14 2l31 -41h184l8 -12l68 -4l6 -21h180q14 59 21.5 81t6.5 37.5t-8 38t-22 81.5l-57 68q18 25 27.5 51 t29.5 49q-4 12 4.5 41t18.5 60.5t20.5 61t14.5 48.5l41 43h43q18 -18 43.5 -65.5t51 -101.5t46 -104.5t27.5 -74.5l32 -25q10 -29 21.5 -56.5t19.5 -55.5q-8 -25 -19 -47.5t-20 -47.5q4 -16 14.5 -32.5t26.5 -24.5l84 -4l9 -19l43 -6q16 0 50 -2t71.5 -4t76.5 -4t64 -2 l47 125q-20 27 -32.5 45t-26 28.5t-35 15.5t-60.5 7q-25 29 -44 58.5t-52 52.5q-12 27 -34.5 75t-49.5 97t-53.5 89t-44.5 50l-19 82q-18 12 -32.5 27.5t-27.5 32t-28.5 30.5t-36.5 25l-16 51q8 29 21.5 46t28.5 29.5t28.5 23.5t23.5 30q43 84 83 154.5t85 133t102.5 118 t135.5 108.5v49q-16 16 -50 32.5t-59 10.5q0 10 -36.5 13t-84.5 3q-45 0 -90 -2t-59 -2q-16 -16 -18.5 -14t-22.5 14q-47 -12 -79 -40.5t-46 -75.5q6 -20 24.5 -40t36.5 -28q4 -27 29 -41v-121q0 -4 -5 -11t-11 -15.5t-12.5 -15.5t-8.5 -9q-18 -23 -26.5 -42t-14.5 -38.5 t-12 -38t-18 -39.5q-6 -10 -15.5 -17t-17.5 -15l2 -23l-8 -12h-45l-56 112l-39 23l-6 29q-14 8 -29.5 31.5t-30.5 50t-28.5 52t-19.5 42.5v94q14 18 38.5 37.5t47.5 23.5q8 29 2 56.5t-15 54.5l-63 16q-34 -18 -66 -18h-7q-36 2 -77 2l-24 16q-59 0 -107.5 -4t-105.5 -14z M373 143h14q0 -9 -6 -9h-1q-7 1 -7 9z" />
<glyph unicode="Y" horiz-adv-x="1462" d="M41 1645q-3 -11 -3 -21q0 -12 4 -24q7 -21 17 -37q12 -6 24.5 -11.5t25.5 -9.5q10 4 18 6l16 4q23 4 40.5 1t35.5 -19q0 -14 7 -34.5t19.5 -42t26 -40t25.5 -24.5l20 -140q18 -20 34 -52t28 -66.5t19.5 -70.5t9.5 -63q27 -31 50 -94t43.5 -143t37 -169t28 -171t15.5 -150 q2 -35 2 -61.5t-2 -44.5q-41 -31 -85 -60q-41 -28 -88 -28h-6q-16 2 -33.5 3t-39.5 3v-49q23 4 36 0t29 -14l19 -11q20 -12 47.5 -0.5t81.5 15.5l6 20l47 -18l-8 -27h139l6 23h174q27 -18 50.5 -24.5t54.5 -6.5h18q10 0 27 2v72l-43 36h-96l-19 -45q-37 27 -63.5 36 t-71.5 14v43l35 30q-16 35 -30.5 66t-27 59.5t-21.5 57t-13 57.5q-5 26 -5 52q0 32 7 64q12 60 59 128l-16 43q16 12 31.5 26.5t31.5 30.5q4 39 33 68.5t59 52.5q6 51 27.5 91t50.5 73.5t61.5 64.5t63.5 64v98l18 10q18 102 99 180h139q20 34 59 52q-41 63 -94 83.5 t-114 20.5q-59 0 -126 -10t-137 -10v-84q21 2 39 2q58 0 81 -25q24 -26 24 -81q0 -15 -2 -32l-27 -4q-41 -57 -80 -127.5t-85 -138t-101 -122t-129 -79.5q-23 16 -38 41t-30 56q-12 33 -23.5 68.5t-21.5 74.5q-23 78 -51.5 158t-85.5 141q12 25 26.5 46.5t24.5 45.5l70 23 l-4 6q14 8 43 12v37l-64 -4l-33 27h-446zM940 59h8h-6h-2z" />
<glyph unicode="Z" horiz-adv-x="1507" d="M92 195q-4 -31 -4 -55q0 -45 12 -66q18 -33 60 -38q14 -2 30 -2q32 0 72 7q62 10 135 10l37 23q49 0 88 4q11 1 23 1q31 0 69 -7l7 -21h106l12 23l9 -19q35 -18 59 -25t47 -7q25 0 50.5 5t62.5 11q20 14 57 14h10q44 -2 80 -2l8 -12q43 -6 72 -39h63q18 41 33 73.5 t31 61.5t39.5 56.5t58.5 58.5v102h-55q-55 -45 -124 -77.5t-120 -77.5h-198l-7 -21h-100l-6 21h-293l-4 -19q-14 -6 -30.5 -14t-32.5 -4q-20 35 -37 60.5t12 47.5q4 25 25.5 69t49 89t56.5 81t49 46v47q-25 14 -37 35q12 16 31.5 24.5t38.5 12.5q12 10 16 29.5t4 35.5 q23 20 34 43t22 49q39 2 60.5 28t33.5 59.5t16 70.5t11 66l32 24l4 64q23 16 68 72.5t92 122t85 127t48 85.5l-47 54h-794l-9 20l-57 4q0 14 -18 14h-4q-22 -2 -33 -2q4 -27 -15.5 -52t-42.5 -38q-8 -27 -19 -52.5t-18.5 -51t-10.5 -52t3 -53.5h41q31 43 76 64.5t98 26.5 l9 18h143l14 14h160l18 19h27l14 18h93q8 -14 15 -27.5t11 -27.5q-10 -37 -25.5 -72t-25.5 -69l29 -27l-19 -25h-37l-30 -20q-8 -41 -26.5 -83t-61.5 -56q-16 -41 -45 -69t-58 -58l-8 -84q-33 -4 -57 -25q-10 -37 -11 -68q-10 -12 -34.5 -59t-50 -100.5t-47 -100.5 t-25.5 -61q-20 -16 -45 -47t-48.5 -64.5t-41 -67.5t-23.5 -59zM870 1362q-1 2 -1 5q1 5 3 11q4 10 11 11q0 -3 -2 -17q-2 -10 -7 -11q-2 0 -4 1z" />
<glyph unicode="[" horiz-adv-x="761" d="M-17 928.5q1 -103.5 3 -180t6 -99.5v-465l20 -32l-20 -70q23 -41 21.5 -78t2.5 -84l2 -41q-4 -25 -11 -49.5t-15 -48.5l20 -33v-100l49 -37q31 0 110 3t169 4t174 0t129 -9q2 0 7 -6t1 -6h99l16 43q-20 45 -66 55q-20 23 -43 35q-39 -10 -82 -11.5t-87 0.5t-88 5.5 t-85 3.5l-4 20h-147q-25 25 -29 46.5t-1 43t7 43t0 47.5l-10 9l12 153q-23 45 -18.5 101.5t4.5 103.5q2 8 7 7t7 5q0 20 1 57t1 74q0 39 -2 74t-8 51l-26 31v86l18 22q2 27 -2 78t-10 112.5t-13.5 127t-13.5 122t-9 99.5t-3 59l67 58v145q23 23 47.5 31t50 9t54.5 -2t57 -3 l6 21q49 0 93.5 -1.5t85.5 -1.5q43 0 86 4.5t90 14.5l8 16l57 17q-4 18 -7 41.5t7 40.5h-270q-57 -14 -146 -15l-6 -20q-78 0 -147.5 -3t-145.5 -14q-25 -20 -49 -34q-10 -8 -16 -75t-9 -166t-5 -215t-1 -219.5z" />
<glyph unicode="\" horiz-adv-x="940" d="M61 -424q18 -41 43 -41q27 0 62 12l47 -14q53 23 117.5 18.5t124.5 -4.5l6 23q96 0 186 3t187 11l22 56v-2q0 59 -2 172.5t-4 251t-4 287t1 282.5t10.5 234.5t21.5 144.5q-20 57 -19.5 122.5t-3.5 129.5v-2l-6 16v20q0 29 6 59.5t10 61.5q16 6 9 14.5t-13 16.5v88 q18 23 11 35t-19 43q-53 20 -116.5 17t-121.5 -3l-6 21h-127l-28 -21q-23 18 -71 24.5t-101 6.5t-101.5 -4t-68.5 -6l-15 -33l17 -23q16 8 34.5 5t38 -11l39 -16t39.5 -8l8 -17l41 -4l13 -12q14 0 49 -2t73.5 -1t69.5 4t37 11q37 -18 74 -16t78 2q2 -6 8 -21.5t12 -34 t10 -35t2 -20.5q-31 -98 -33.5 -210.5t7.5 -233.5t26.5 -244t27.5 -238.5t9 -220t-28 -188.5q-12 -43 -13 -109q0 -68 -2 -131t-15 -108t-54 -45l-9 -17l-77 -6l-9 -12h-335l-39 -23q-33 2 -64 -8t-63 -18z" />
<glyph unicode="]" horiz-adv-x="647" d="M39 1090q10 6 19.5 10t19.5 8q4 12 23.5 42t43 62.5t44 59t26.5 31.5l6 28q29 16 39 44t25 55q2 4 6 10t10 2q2 -10 12.5 -15.5t22.5 -8.5t22.5 -8t14.5 -15q4 -14 7 -28.5t7 -29.5q2 -8 33 -46t69.5 -83t74.5 -84t46 -47q-10 74 -32.5 136.5t-54 122t-67.5 120 t-73 127.5q-8 14 -16.5 30.5t-20.5 28t-27.5 14.5t-39.5 -7q-27 -45 -44.5 -99.5t-31.5 -105.5l-17 -8q-23 -59 -34 -115q-10 -8 -30 -41t-38 -71t-31.5 -72.5t-13.5 -46.5z" />
<glyph unicode="^" horiz-adv-x="1527" d="M35 -326q6 -35 0 -67q6 -4 17 -13.5t20 -9.5l30 8l9 -4l14 9q66 -6 130 -4.5t129 7t128 9.5t129 2q94 -4 197.5 -12.5t207 -14.5t203.5 -6q102 0 195 16q35 6 76 -4t82 -4q12 23 8 48.5t-15 46.5l-47 18l-6 -6l14 -12q-12 10 -43 10t-45 -2q-10 10 -34.5 5t-40.5 -9 q-10 -2 -20.5 -5.5t-20.5 -1.5l-17 3l-12 2l2 2q-49 4 -98 3t-97 13q-29 -10 -105.5 -14t-180 -5t-221 1t-225 4t-194.5 4t-128 2q-10 -6 -20.5 -10.5t-20.5 -8.5z" />
<glyph unicode="_" horiz-adv-x="497" d="M68 1577q25 -43 31.5 -58.5t8 -23.5t1.5 -16t10 -37q4 -10 14 -15.5t22.5 -8.5t21.5 -8t13 -15q4 -14 7.5 -28.5t7.5 -29.5q2 -10 34.5 -48t71.5 -82t74 -82t45 -48q-10 74 -33.5 136.5t-54.5 122t-67.5 120t-73.5 127.5q-10 18 -17.5 32.5t-17.5 24t-26.5 12.5t-43.5 -3 q-10 -16 -19 -34t-9 -38z" />
<glyph unicode="a" horiz-adv-x="849" d="M57 700h125q10 18 27.5 21.5t36.5 11.5q-4 25 0 41.5t14 29.5t24.5 26.5t26.5 29.5q23 -2 31 8.5t25 12.5q16 -2 30 -17l74 -18q12 -23 27.5 -41.5t36.5 -30.5q4 -30 4 -49q0 -11 -1 -17q-3 -20 -14.5 -35.5t-30 -32.5t-42.5 -54l-62 -4q0 -16 -28.5 -40t-66.5 -49.5 t-75 -50t-53 -39.5q-35 -33 -52.5 -63.5t-24.5 -63t-7 -71.5v-88q10 -12 29.5 -31.5t41 -38t42 -33t34.5 -14.5q86 0 120 4t52.5 14.5t39 29t79.5 46.5q16 -12 30.5 -23.5t14.5 -33.5l23 -23h90q16 25 41.5 29t46.5 23l27 2v79l-103 17q-16 23 -20 75q-3 42 -3 93v26 q1 68 6 146t6 152v36q0 54 -2 100q-3 62 -15 99l-82 70q-58 8 -108 13q-28 3 -61 3q-26 0 -55 -2q-16 -2 -29.5 -9.5t-31.5 -4.5q-16 -16 -35.5 -21.5t-40.5 -15.5l2 -4l-16 -15h-25l-20 -22l-47 -4l-37.5 -43.5t-16.5 -29.5q-3 -10 -3 -23q0 -5 1 -13q2 -22 9 -61zM287 266 v5q0 39 26 83q2 2 7.5 12.5t11.5 20.5t11 19.5t7 11.5q20 18 45 35.5t47 33.5h107q-4 -10 -10 -16q4 -4 6 -22.5t4 -40t2 -41.5v-25q0 -10 6 -17.5t6 -17.5q0 -33 -8 -64.5t-23 -62.5q-10 -6 -32.5 -21.5t-24.5 -29.5h-94l-2 14q-12 8 -23 9q-10 12 -20 20t-27 4 q-20 49 -22 90z" />
<glyph unicode="b" horiz-adv-x="980" d="M40 1478q10 -28 29 -52t37 -48q14 -18 14 -45q0 -9 -1 -18q-10 -70 -10 -176t3 -224t5 -233q1 -38 1 -73q0 -69 -3 -124q0 -16 -1 -56t-2 -90q-1 -51 -2 -105v-52.5v-48.5q1 -47 4 -81t9 -40l-14 -12q49 0 84.5 3t80.5 15l11 125l12 -21q12 -20 30.5 -44.5t39 -45 t36.5 -20.5l11 -12q59 0 111.5 4t107.5 12q25 29 54.5 44.5t55.5 54.5q27 2 45.5 19.5t30.5 37.5q55 86 87 168t35 164q0 8 1 16q0 74 -26 150q-28 84 -91 174q-2 4 -18 17t-36.5 28.5t-40 31t-28.5 21.5h-100l-7 7l-7 7q-16 1 -31 1q-36 0 -61 -4q-35 -5 -59.5 -19t-47 -41 t-55.5 -66l22 -14q29 8 51.5 22.5t44 28t46 22.5t57.5 9q16 -14 35.5 -27.5t40.5 -21.5l8 -17q35 -10 48 -22t36 -35q8 -41 13 -80t16 -78l4 9q14 -25 18 -70q2 -20 2 -42q0 -27 -3 -57q-5 -54 -18.5 -110.5t-34 -106t-48 -83t-60.5 -39.5l-8 -17q-23 -4 -45 -14t-47 -16 q-90 47 -161.5 116.5t-100.5 169.5q4 10 11 23.5t9 23.5q10 68 12 128.5t17 132.5q2 8 8 32.5t11.5 52t7.5 52t0 30.5q-6 16 -17.5 30.5t-17.5 30t-6 32.5q0 16 14 39v63q0 29 14 61l-22 82l22 82l-14 41q4 25 12 71q9 46 13 96q3 35 2 67v29q-2 46 -17 69q-23 16 -55 17 h-20q-20 0 -37 -1q-39 -35 -68 -52t-76 -32q-16 -32 -16 -56q0 -11 3 -20z" />
<glyph unicode="c" horiz-adv-x="909" d="M62 518q-1 -18 -1 -36q0 -54 13 -101q8 -31 25.5 -58.5t33.5 -54.5q20 -31 33.5 -69.5t32 -74.5t49.5 -60.5t86 -28.5l6 -21q39 0 71.5 -1t62.5 -2q15 0 30 -1q14 0 30 1q30 1 68 5q8 14 19.5 23.5t27.5 11.5q18 16 40 31.5t46 19.5q18 25 43 35q8 23 21.5 41.5 t38.5 26.5v49h-47q-12 -8 -26.5 -15.5t-23.5 -21.5h-104l-78 -63h-151q-29 27 -65 62.5t-52.5 70.5t-21.5 91q-2 28 -2.5 58t2.5 62q5 64 20.5 131t41 122.5t62.5 92.5t82 41l8 16h117q6 -16 23.5 -24.5t33.5 -12.5q25 -33 37.5 -61.5t26.5 -46.5q15 -19 39 -23q4 -1 9 -1 q24 0 69 16v81q-31 20 -54.5 55.5t-48.5 63.5q-18 6 -35.5 13.5t-31.5 23.5h-293q-20 -23 -50 -38t-61 -31.5t-59.5 -37t-46.5 -51.5q-23 -39 -40.5 -87t-45.5 -83q-4 -65 -10 -139z" />
<glyph unicode="d" horiz-adv-x="1163" d="M47 510q-2 -21 -2 -40q0 -24 3 -44q5 -37 15 -80l17 -8q6 -80 36.5 -129t73.5 -83t96.5 -61.5t106.5 -64.5h178q12 8 37 24.5t51.5 35t48 35t27.5 26.5h27q14 -35 20 -80l35 -41q25 -2 49 -2q36 0 68 5q23 4 47 4q33 0 68 -7q45 24 58 50q9 17 9 33q0 7 -2 13 q-6 20 -23.5 30.5t-35.5 8.5q-20 -4 -41 -11t-43 -1q-31 27 -42 89t-13 143q-1 25 -1 52q-1 58 3 120q6 91 10 174q3 66 3 122v27q-1 66 -16 98q19 58 23 118q2 33 2 64q0 28 -1 56q-3 60 -4 118v8q0 56 13 111l2 -2q2 26 2 51q0 19 -1 39q-3 45 -17 88q-26 23 -50 30 q-21 6 -42 6h-6q-24 -1 -48 -6t-55 -7l-6 -16l-102 -19v-47l16 -20l64 -19q18 -20 21 -48t7 -52q4 6 8 1t4 -9v-162q-1 -37 5 -95q3 -33 4 -64q0 -23 -2 -44q-4 -51 -26 -85q-16 -26 -51 -26q-11 0 -24 3q-14 14 -33.5 23t-37.5 13l-7 19q-67 0 -117 6q-15 2 -31 2 q-38 0 -83 -10q0 -6 -9 -11.5t-23.5 -11.5t-28 -13t-19.5 -15l-80 -33q-8 -41 -32.5 -92.5t-51.5 -79.5q4 -23 -7 -46.5t-28 -39.5q-6 -18 3.5 -39t15.5 -37q-6 -12 -15.5 -23.5t-19.5 -21.5zM268 356v254q0 4 5.5 10.5t9.5 10.5q23 23 28.5 54.5t7.5 59.5l17 9l6 47 q25 18 45.5 41.5t38.5 48.5h182q12 -14 28.5 -30.5t33 -34t29 -36t12.5 -36.5l16 -9q10 -35 21 -57l18 -6v-49v-80t-1 -79t-3 -38l-4 2t-4 -2q0 -27 -7.5 -73t-20.5 -92t-34.5 -82.5t-50.5 -49.5q-20 -8 -44 -11t-46 -7q-8 -19 -27 -19q-5 0 -10 2q-27 6 -57.5 21.5t-59 36 t-41.5 26.5q-8 14 -19 36t-21.5 44.5t-18.5 45t-10 38.5z" />
<glyph unicode="e" horiz-adv-x="864" d="M40 461q3 -55 11 -109.5t15 -81.5q23 -14 25.5 -29.5t8.5 -37.5l15 -8l18 -60q25 -18 46.5 -38.5t37.5 -45.5q61 -27 84 -38t45 -14q13 -2 30 -2q12 0 26 1q36 2 124 2q43 37 64.5 44t43 17.5t55.5 37t102 102.5v45l-22.5 9t-25.5 11q-10 -23 -27.5 -26.5t-39.5 -8.5 l-21 -30l-34 -4q-16 -25 -39 -20t-50 -1q6 -4 1 -8t-9 -4q-18 0 -40.5 -3t-43 -2t-38 9t-27.5 29q-35 10 -61.5 36.5t-49.5 53.5q-4 29 -7 55.5t-13 52.5l-17 8v154q31 25 60 53h84q6 -4 8 -7t6 -5h174l8 -18l39 -5q-2 -12 19.5 -14t52.5 1t61.5 8t46.5 10l21 20 q8 39 13 53.5t5 24.5t-5 24.5t-13 55.5l-14 8q-12 49 -37 76.5t-52.5 46t-53 33t-42.5 36.5q-59 8 -111.5 12.5t-115.5 4.5l-164 -101q-6 -29 -26.5 -47t-43.5 -34q-12 -45 -32.5 -88t-32.5 -89q-29 -10 -37 -55q-6 -33 -6 -71q0 -14 1 -29zM330 743q14 20 26.5 40t24.5 38 q37 12 61 37h131q10 0 15.5 -12t7.5 -21q8 -2 14 -3t13 -1q8 -10 22 -37t14 -39q0 -10 -9 -22t-22.5 -21.5t-27.5 -15.5t-25 -6h-88q-6 0 -5 6t-7 6h-94q-25 27 -51 51z" />
<glyph unicode="f" horiz-adv-x="772" d="M-61 20l10 -38h399q39 0 60 -4q5 -1 10 -1q13 0 19 7q9 8 9 32v82q-12 2 -25 8.5t-24 14.5q-12 0 -30.5 -1t-38.5 -1q-18 0 -35 5t-25 17q-2 14 -3 75q-1 30 -1 65.5t1 76.5q1 82 2 175.5t3 173t4 133t5 59.5q18 5 37 5q16 0 32 -4q35 -9 70 -13l4 -19h131q12 33 35 58 v59l-58 23l-24 -23h-221q-4 8 -9.5 17.5t-9.5 19.5q21 77 21 137q0 12 -1 23q-3 43 -3 81q0 23 1 43q3 56 33.5 107t128.5 111q-6 -10 4.5 -13.5t26.5 -3.5q18 0 36.5 1t29.5 1l112 -82q12 0 25.5 -4t27 -9t27 -8t25.5 1q23 20 43.5 41.5t30.5 50.5q-10 27 -17.5 48.5 t-28.5 43.5h-112l-23 15q-86 0 -163.5 -3.5t-163.5 -13.5q-96 -72 -141.5 -142.5t-63 -136t-18.5 -123t-8 -104.5t-32.5 -81.5t-91.5 -53.5l-32 -43l16 -37l123 -20q23 -4 29 -32t6 -46v-80q0 -51 -3.5 -115.5t-6.5 -135t-9 -132t-13 -106.5t-18 -60l-53 -22 q6 -10 -10 -15.5t-25 -5.5q-8 -20 -18 -38.5t-18 -39.5z" />
<glyph unicode="g" horiz-adv-x="1062" d="M66 -406q4 -45 6 -124q41 -63 89 -83t120 -24l6 -20q14 0 38.5 -3.5t50 -5.5t48 -1t35.5 10q57 0 119 4q9 1 18 1q51 0 96 -20q150 31 221.5 102.5t80.5 163.5q2 16 2 33q0 78 -38 162q-45 102 -131 193h-153l-15 14q-23 0 -55.5 -2t-65 -5t-62.5 -5t-44 -2q-35 0 -77 -2 q-4 -1 -8 -1q-37 0 -62 23q-8 19 -8 36q0 15 7 28q15 28 42.5 45.5t62.5 23.5t60 4q27 27 57.5 34t67 16.5t82.5 32t104 81.5q10 45 20.5 81t16.5 69.5t6 70.5t-6 86q-16 14 -26.5 34t-14.5 40l18 33l49 4l11 16q13 -2 24 -2q48 0 75 27q25 26 25 71q0 14 -2 29 q-10 -4 -14 3t-5 16.5t0 18.5t1 13h-131l-6 -18q-23 -6 -41.5 -11t-34.5 -5q-14 0 -29.5 8t-33.5 26q-59 6 -115 19l-6 20h-164l-23 15h-104q-16 -29 -35.5 -61t-52.5 -46q-20 -39 -42 -74.5t-30 -78.5l-18 -7v-208q23 -23 21.5 -42.5t2.5 -43.5q4 -27 30 -63t38 -64 q23 -14 41 -30t28 -42q-16 -35 -52 -44q-25 -6 -49 -6q-11 0 -21 1q-16 -33 -29 -90q-12 -48 -12 -91q0 -10 1 -19q3 -52 29 -85q19 -23 56 -23q16 0 37 5l26 -45q-72 -51 -103.5 -81t-41.5 -61q-8 -22 -8 -53v-21zM247 544v23q0 22 1 45q0 2 7 15.5t9 17.5q20 39 39 79 t35 81h57v20l11 -6l8 -12l172 -33q16 -70 31.5 -126t18.5 -108q1 -10 1 -19q0 -43 -13 -88q-14 -54 -57 -118q-14 -4 -22 -15t-15 -21q-23 -8 -46 -18.5t-48 -14.5l-14 6l-2 8q-23 -2 -43.5 8.5t-37.5 26.5t-30.5 35.5t-21.5 38.5q-4 10 -5 25.5t-4.5 31.5t-9.5 29.5 t-20 19.5q0 35 -1 69zM250 -322l18 7q12 41 31.5 68.5t69.5 33.5l8 16q27 10 56.5 22.5t51.5 31.5q57 0 90 -1t57.5 -2t50.5 -4.5t69 -9.5q2 -10 10 -15t18 -7q27 -29 40.5 -51.5t17.5 -44.5q3 -16 3 -32q0 -8 -1 -16q-2 -26 -6 -61q-29 -35 -61 -75t-66 -66 q-10 -8 -21.5 -11.5t-23 -6.5t-19.5 -7t-14 -16h-246q-12 20 -39 30.5t-52.5 32t-39.5 62.5q-8 22 -8 56q0 29 6 66z" />
<glyph unicode="h" horiz-adv-x="1058" d="M61 1507q0 -16 9 -47l22 -2q8 -16 29.5 -27.5t36.5 -31.5q0 -164 4 -319.5t6 -312.5q1 -52 1 -105q0 -106 -3 -212q-4 -160 -19 -327q-14 -18 -43 -29l-18 -43l10 -37q54 -20 115 -20h27q76 6 147 6l-4 8l22 12l-34 -2l51 62q-18 6 -39 7t-39 1l-29 33v168t11 168 q10 0 14 8q0 9 -2 37q-1 19 -1 42v25q1 39 4 81t14.5 76t29.5 54.5t49 14.5l21 18h133q49 -47 70.5 -71.5t27.5 -50t4 -63.5t-2 -110q4 4 10 3t6 -7v-74t-16 -69q12 -33 31 -60v-188l-23 -25q-39 -4 -76 -18q-4 -16 2.5 -33.5t14.5 -32.5l65 -8l15 -2l6 -4h225 q16 10 27.5 29t17.5 37q-12 27 -33 49l-61 4q-14 12 -19 58q-6 45 -8 111q-1 44 -1 93v50q0 38 0.5 75.5t-0.5 73.5q-1 72 -8 134t-21 97l-29 20q-6 39 -25.5 56.5t-48.5 40.5l-59 4q-29 10 -70 10h-78q-33 -23 -83 -52.5t-93 -29.5q0 51 -4 107.5t-4 111.5t6 109.5 t27 101.5l-17 25l23 51l-23 59l17 48q-29 98 -36 133.5t-21 35.5q-12 0 -48 -21.5t-122 -33.5l-7 -14l-69 -19q-14 -31 -15 -47z" />
<glyph unicode="i" horiz-adv-x="489" d="M31 27q8 -6 23.5 -14.5t30.5 -16.5t31 -14q10 -4 18 -3q5 0 9 1q14 3 37 3q17 1 40 -1q33 -3 67 -3q19 1 39 1q54 2 93.5 17t37.5 62q-2 23 -29 33t-39 21q-29 25 -37 61.5t-8 71.5q0 43 -1 67.5t-2 44t1 43t8 66.5q0 8 4 47t7.5 92t3.5 113q0 61 -7.5 111.5t-23 84 t-41.5 33.5q-12 0 -48 -8t-73 -21.5t-64.5 -29t-25.5 -27.5q2 -25 16.5 -44t30.5 -36.5t28.5 -34t10.5 -34.5q-10 -81 -11 -141v-30q0 -44 2 -86q3 -56 7 -114.5t4 -138.5q0 -53 -18.5 -79t-41 -39t-45 -23.5t-34.5 -34.5zM123 1264q0 -63 41 -93t90 -31h4q47 0 86 26 q41 26 41 75q0 37 -41 60.5t-90 27.5q-10 1 -20 1q-37 0 -70 -12q-41 -15 -41 -54z" />
<glyph unicode="j" horiz-adv-x="415" d="M-66 -250q0 -47 43 -47q41 0 65 14.5t39 36t28.5 48t35.5 51.5q8 10 14.5 16t14.5 16q35 45 62.5 96.5t47 101.5t30 93t10.5 70q0 43 -1 70.5t-2.5 51t1 50t8.5 69.5q0 8 4 47t7 92.5t3 112.5q0 61 -7 111.5t-22.5 84.5t-42.5 34q-12 0 -48 -8.5t-72.5 -21.5t-64.5 -28.5 t-26 -27.5q2 -25 16.5 -44.5t31 -37t29 -33.5t9.5 -35q-4 -18 -5 -37.5t-3 -38.5q-4 -23 -5 -39t1 -32q-1 -30 -1 -56.5t1 -49.5q2 -44 5 -85t6.5 -86t3.5 -106q-1 -35 -1 -65v-29q1 -41 5 -72q-20 -55 -57.5 -100.5t-73 -80t-62.5 -61t-27 -45.5zM82 1257q0 -63 41 -93.5 t90 -30.5t90 26.5t41 75.5q0 37 -41 60.5t-90 27.5q-10 1 -20 1q-37 0 -70 -12q-41 -16 -41 -55z" />
<glyph unicode="k" horiz-adv-x="1060" d="M45 1522l18 -49q88 -6 121 -17.5t38 -31t-6 -49t-11 -72.5q14 -16 12 -42t-8 -56.5t-11 -61.5t1 -53q-11 -42 -13 -96q0 -9 -1 -18q1 -46 7 -92q8 -56 20.5 -107.5t29.5 -84.5q-4 -39 -9.5 -63.5t-7.5 -46t-1 -46t7 -61.5q2 4 6.5 1t4.5 -7v-113q0 -4 -5.5 -1t-9.5 -5 q-1 -57 5 -98q3 -20 3 -38q-1 -16 -3 -30q-6 -28 -28 -44.5t-79 -22.5q-16 -18 -23 -43q6 -20 14.5 -41t28.5 -33h217q4 4 5.5 8t7.5 6h90q12 8 22.5 21.5t14.5 30.5q-16 31 -44 47t-46 45q0 18 1 44.5t-2 55.5t-9.5 54.5t-18.5 41.5l8 27q45 31 86 47q15 6 31 6 q29 0 63 -18q6 -20 9.5 -31.5t7.5 -20t10 -18.5t20 -27l7 -47q41 -43 47 -67.5t-6.5 -43t-35 -37t-36.5 -46.5q12 -18 29.5 -34.5t35.5 -29.5h312q14 8 27.5 22t17.5 30q-10 31 -25 51q-25 4 -50.5 8t-49.5 14q-66 104 -116 209t-97 217q12 43 32.5 86t45 84t50 81t46.5 75 h106q10 16 17.5 33.5t11.5 36.5q-10 27 -22.5 42t-27.5 24t-33.5 15.5t-39.5 16.5l-106 -31l-8 -18q-35 0 -63 2t-52.5 -2t-46 -16.5t-43.5 -39.5q14 -39 37 -61q54 -14 72 -43q11 -19 12 -41q0 -12 -4 -26q-10 -38 -38 -79.5t-62 -79.5t-67.5 -70t-52.5 -48h-26 q-23 37 -30.5 121t-8.5 180q0 96 5 185t9 136l12 17q-10 10 -15 46t-9 84t-6 102.5t-3 104.5t-3 88t-7 54q-42 10 -78 14q-18 2 -38 2t-41 -2q-35 -29 -74 -43t-74 -43z" />
<glyph unicode="l" horiz-adv-x="538" d="M43 1536l14 -51q23 -4 44.5 -11.5t39.5 -23.5q4 -16 8.5 -65.5t7.5 -118t3 -148.5q0 -78 -1 -148.5t-5 -128t-11 -81.5q29 -139 29 -285v-285q0 -43 -24.5 -57t-63.5 -14q-8 -6 -15.5 -11.5t-17.5 -9.5l11.5 -34.5t0.5 -36.5l19 -27h217l23 14q14 -4 41.5 -5t56.5 -2 t51.5 -2t26.5 -5v98l-17 21q-53 14 -104 18q-33 77 -37 145q-1 25 -1 49q0 43 4 85q7 66 18.5 134t11.5 142q0 37 -6.5 76t-14.5 77q-8 39 -13 75q-4 26 -4 51q0 10 1 20q0 2 5 47t10 100.5t8 102.5t1 53l-10 9q0 14 -2 43.5t-2 60.5t4 57.5t15 36.5q-2 23 -4.5 44.5 t-6.5 43.5l-2 15q0 10 -6 10l19 24q-57 0 -104.5 -4t-100.5 -12l-8 -16q-31 -8 -62 -24.5t-47 -45.5z" />
<glyph unicode="m" horiz-adv-x="1501" d="M43 829q-1 -5 -1 -10q0 -17 12 -32q14 -19 33 -35.5t37 -25.5l17 -9q27 -14 28 -41t-5 -59.5t-14 -68.5q-3 -13 -2 -26q0 -22 8 -41q-16 -58 -16 -118q0 -25 2 -50q10 -86 14 -170q-27 -14 -48.5 -21t-35 -17.5t-15.5 -29t13 -55.5q4 -14 24.5 -23t34.5 -11 q13 -12 27 -14h7q11 0 23 4q16 4 31.5 9t32.5 7q-4 4 0 7t8 3h131l14 27l29 10v67q-23 16 -44 34t-42 38q0 39 -7 98.5t-8 119.5v13q0 54 8 103q9 55 44 90v78q0 37 9 63.5t35 43t79 22.5q0 8 14.5 11t32.5 3t35.5 -2t23.5 -2q25 -29 53.5 -56.5t28.5 -68.5q2 -123 5 -241.5 t3 -239.5q-12 -4 -16 -14.5t-3 -25.5t3 -30.5t2 -27.5q-16 -6 -41.5 -21.5t-42.5 -7.5v-45q10 -8 19.5 -16.5t17.5 -18.5l78 -6q-2 -4 1 -7t7 -5h123l18 14l58 4q10 12 24.5 20.5t28.5 12.5v67q-23 4 -43.5 9.5t-42.5 13.5q0 166 4 313.5t21 307.5q25 23 49 43t57 30l10 17 q18 2 37 2t39 -2l8 -17l62 -6q29 -35 71 -67v-101q12 6 16.5 -11t3.5 -41t-4 -48.5t-3 -34.5q-2 -10 -9 -10q-6 0 -6 -2t4 -10.5t8.5 -17.5t7.5 -16t3 -9q0 -47 8 -105q6 -42 6 -79q0 -13 -1 -27q-3 -50 -27.5 -83.5t-90.5 -33.5q-14 -20 -39 -35v-47q23 -8 37 -37 q51 0 113 4q10 1 19 1q51 0 89 -19l23 6l16 12l23 2q2 8 8 9t12 1q8 0 14.5 1.5t8.5 7.5q3 8 3 15.5t-3 13.5q-6 14 -10 24q-4 14 -12.5 25.5t-18.5 23.5t-19.5 26.5t-11.5 34.5q0 8 -3 28t-6 41.5t-4 40.5t-1 26l2 14v-2q8 16 11 77.5t3 133.5q0 74 -1 138.5t-1 86.5 q-10 16 -18 35.5t-12 42.5q-29 29 -60 54.5t-59 54.5h-168q-16 -18 -31.5 -24.5t-38.5 -12.5l-8 -17q-43 -12 -66.5 -30.5t-60.5 -34.5l-45 18l-10 41l-37 37l-27 4q2 10 -8 19.5t-14 15.5q-22 3 -43 3q-29 0 -55 -5q-46 -8 -95 -17l-8 -16l-106 -18l-7 -17q-23 -8 -47 -13 t-49 1l4 12q-25 29 -39 54h-118q-18 -14 -33 -27.5t-31 -32.5q-2 -20 -14.5 -27.5t-26.5 -12.5t-27.5 -10t-17.5 -22z" />
<glyph unicode="n" horiz-adv-x="1034" d="M74 88v-11q0 -19 4 -48q25 -23 58.5 -21t62.5 2l6 -20h190q8 16 16.5 29.5t14.5 29.5q-8 35 -32.5 44t-53.5 24v131q8 2 12 10t8 14v246q0 121 17 244q4 4 15 14t23.5 21.5t23 20.5t14.5 11q12 4 23 9.5t20 15.5h131q31 -37 50 -50t29.5 -18.5t13.5 -12.5t3 -32t-2 -75 t-2 -142q16 6 20 -16.5t2 -55t-6 -65.5t-4 -45q-6 -10 -9 -13t-3 -7q0 -2 3 -6.5t9 -14.5v-186q-18 -16 -39.5 -17.5t-44.5 -3.5q-8 -27 -29 -35v-32q12 -14 32 -18.5t34 -18.5h213l12 -15h29l2 66l21 31l-56 45l-6 76q0 -4 -5 -1t-5 9v137l-15 24q16 47 19 110q2 29 2 60 q0 34 -2 70q-4 68 -10 133.5t-9 116.5q-35 29 -63.5 59.5t-73.5 42.5l-10 17l-49 14q-11 3 -20 3h-4q-10 -1 -26 -6t-50 -11q-10 -16 -26.5 -24.5t-37.5 -10.5q-23 -18 -48.5 -29.5t-51.5 -21.5l4 -11q-8 -10 -23 -10q-12 0 -26.5 4t-26.5 11.5t-18 13.5v94h-82l-23 -33 q-35 -16 -67.5 -33.5t-67.5 -33.5v-56q29 -12 45 -20t25.5 -18.5t12.5 -27.5t3 -50q6 2 11 -6.5t-1 -12.5q-8 -6 -11 -34.5t-3 -65.5q0 -35 2 -68.5t2 -52.5l20 -6v-96l-20 -6v-201q-31 -18 -51.5 -26.5t-31.5 -20t-13 -31.5z" />
<glyph unicode="o" horiz-adv-x="1017" d="M60 574q-5 -35 -6 -72q0 -40 6 -81q12 -79 42 -171q25 -18 39.5 -44t36 -54.5t63.5 -59.5t121 -59l7 -17q37 -6 65 -11q16 -3 35 -3q15 0 31 2q0 8 17.5 11t37.5 3q23 0 43 -2t27 -2q18 23 40.5 28t47.5 9l4 8t4 9q43 6 87 48t79 98t57 116q20 54 19 91v7q0 25 -6.5 49.5 t-10.5 48.5l-16 21l-33 223q-70 72 -117 113t-97 60.5t-115.5 24.5t-172.5 5q-18 -18 -38.5 -24.5t-45 -14.5t-51.5 -23.5t-55 -48.5q-63 -74 -99 -144t-46 -144zM250 464q-1 12 -1 24q0 24 3 46q4 34 14 60q4 6 13.5 18.5t9.5 16.5q12 43 21 83t25.5 70.5t48.5 50t87 23.5 v21h98q8 -12 15.5 -16.5t13.5 -4.5q8 0 15.5 1t15.5 -3q14 -6 28.5 -23.5t28.5 -38t27.5 -39t25.5 -30.5q4 -14 5 -31.5t4.5 -35t11.5 -30t24 -18.5q0 -72 -6 -139.5t-30 -136.5q-10 -33 -28 -56.5t-28 -58.5q-12 -43 -34.5 -61.5t-46 -26.5t-41 -13t-19.5 -20h-115 q-16 14 -37.5 31.5t-43 37t-38 41t-18.5 44.5q-2 18 -6 47t-27 35q-6 27 -10 61.5t-6 70.5z" />
<glyph unicode="p" horiz-adv-x="1150" d="M52 836q-4 -10 -4 -23q0 -20 11 -47h70l39 22q14 0 28.5 -9t22.5 -19v-502q-6 -4 -7 -57.5t-1 -134.5q0 -80 1 -175.5t3 -182.5t3 -152.5t1 -85.5l-18 -25q-29 -2 -65 -7t-56 -28v-55q44 -15 88 -15h5q46 1 97 1q-2 6 17.5 7t51.5 -1t73 -4t84 -2l75 53v33 q-29 6 -59.5 12t-60.5 6q-18 47 -25 134q-3 49 -3 99q0 38 2 76q5 88 17.5 161t28.5 91q25 2 54.5 -7t60 -16.5t55.5 -7.5q27 0 41 19q30 -3 57 -3q40 0 71 7q52 12 94 40t78 70t83 95q0 18 -2 38.5t-1 41t9 38t29 27.5q0 10 1 30.5t0 43t-4 43t-10 29.5l15 41 q-14 18 -19.5 48.5t-11.5 68.5t-16.5 81t-34 82t-66.5 73t-112 56l-11 17l-63 6q0 8 -13.5 11t-29.5 3t-32.5 -1t-24.5 -1l-15 -16h-94q-2 -4 -23.5 -16.5t-48 -28t-50 -28.5t-29.5 -16l-27 7l-4 45q-10 -4 -13.5 13t-5.5 24q-27 10 -39 15t-32 -11l-78 -6 q-29 -23 -61.5 -39.5t-58.5 -37t-37 -48.5zM412 223v439l18 6q4 20 15.5 28.5t21.5 24.5q14 23 28.5 47.5t32 45t40 31.5t57.5 7v22h86l6 -18q33 0 64.5 -24.5t59 -59.5t48 -71.5t29.5 -61.5q12 -40 12 -88q0 -15 -1 -30q-5 -65 -5 -118q0 -6 -4 -10h-9q-2 -37 -11 -79 t-26.5 -81.5t-43 -74.5t-56.5 -58q-12 -10 -24.5 -16t-20.5 -21q-49 -13 -78 -13h-4q-29 1 -50.5 8.5t-45 19.5t-66.5 20q0 6 -9 22.5t-21.5 37t-24.5 38t-18 27.5z" />
<glyph unicode="q" horiz-adv-x="1013" d="M16 545v-24q0 -39 4 -79q7 -51 11 -102q18 -25 24 -41t9.5 -31.5t3.5 -34.5q0 -18 6 -45q25 -23 48 -46t58 -31l60 -68l100 -18q18 -14 43 -13.5t57 0.5l6 -20h134q8 14 24.5 23.5t30.5 9.5q16 0 26.5 -9.5t6.5 -31.5q-10 -57 -12.5 -117t-2.5 -117q0 -59 -3 -118.5 t-13 -116.5q-27 -12 -45 -41q-29 -2 -51 -2q-20 0 -43 -17l-17 -51q10 -14 22.5 -26.5l24.5 -24.5l84 -4q14 -10 55.5 -13.5t90.5 -3.5t96 2t72 2q25 14 41 24.5t23 24t7 33.5q0 19 -6 54q-14 14 -38.5 17t-49 4t-42 4t-19.5 16v90l20 32q0 25 -2 55.5t-3 60.5t3 58.5 t17 51.5q-4 35 -9.5 66.5t-5.5 66.5q8 4 12.5 44t6.5 100q1 39 1 84v46q-1 70 -2 135.5t-2 115.5t-1 71q0 47 8 86t16 77t9 79v5q0 38 -13 87l-49 14l-53 -16l-9 -17q-29 -8 -62.5 -1t-70.5 21.5t-73.5 30t-69.5 24.5q-23 6 -44 6q-9 0 -18 -1q-28 -4 -49 -29q-10 2 -18 2 h-19l-8 -18l-78 -18l-8 -17q-23 -8 -40 -15t-32.5 -15.5t-30.5 -17.5t-34 -21q-12 -27 -27.5 -49.5t-19.5 -51.5q-37 -43 -51.5 -91t-16.5 -99zM201 387v154q10 18 19 42.5t18.5 49t17.5 46t18 34.5q14 18 44 48t66 58.5t70.5 49t59.5 20.5q16 0 31.5 -6t32.5 -11 q20 -27 57 -36q55 -66 79.5 -118t29.5 -95q3 -18 3 -35q0 -23 -5 -44q-7 -36 -16 -71t-12 -69q-1 -7 -1 -13q0 -29 12 -63q-20 -63 -59 -115.5t-86 -99.5h-127l-9 -15q-20 4 -40.5 10.5t-41.5 6.5q-18 20 -37.5 38.5t-41.5 34.5q-10 14 -21 27q-8 27 -22 39q-6 25 -14.5 68 t-24.5 65z" />
<glyph unicode="r" horiz-adv-x="741" d="M63 41q6 -10 13.5 -20.5t15.5 -20.5q20 0 73.5 -2t110.5 -2q59 0 109.5 4t67.5 16q12 -6 22 -16v47l-31 35q-10 2 -26.5 5t-31.5 9t-25.5 16.5t-10.5 24.5v582q0 23 26.5 48.5t43.5 39.5h141q2 -2 9.5 -16.5t22.5 -28.5t30 -10q16 4 26 22l10 19q8 27 13.5 43t6.5 30v5 q0 11 -3 23q-4 15 -12 44q-35 14 -46.5 21.5t-20.5 10.5t-26.5 4t-62.5 1q-27 -27 -43 -37t-53 -14l-52 -45l-28 -2l-4 -21l-6 107l8 10h-56l-14 -12h-104q-16 -18 -41 -44t-38.5 -50.5t-3 -46t65.5 -34.5q23 -47 28 -65.5t3 -29.5t-8 -23.5t-6 -46.5v-162q0 -6 7 -15.5 t11 -13.5q6 -8 8 -57q1 -24 1 -50.5t-1 -54.5q-2 -56 -8 -105.5t-14 -58.5q-12 -12 -29.5 -13t-32 -3t-25 -11t-10.5 -36z" />
<glyph unicode="s" horiz-adv-x="716" d="M66 192q4 -28 14 -73q20 -23 35 -47q43 -20 66.5 -36t41 -25t32.5 -13q12 -3 32 -3h10q27 1 70 6t114 15l19 10q20 9 45.5 24.5t54.5 35.5t47 45l2 178v13q0 12 1 25t1 26v12q2 -6 2 -18q0 18 -2 18q-4 78 -40 133t-122 68l-10 16l-51 4q0 8 -8 12q-35 0 -71 -2h-7 q-32 0 -57 17q-4 12 -13.5 21.5t-19.5 20.5t-17.5 27.5t-7.5 42.5q0 45 30 88.5t79 43.5q8 14 29 18q41 -12 76.5 -51t52.5 -80q20 -4 34.5 -19.5t24.5 -31.5h59q12 35 16.5 55t3.5 36.5t-7.5 36t-14.5 52.5q-25 18 -41 27.5t-33.5 15.5t-36 10t-44.5 12l-9 17q-4 0 -15 1 t-25 3q-9 1 -16 1h-7q-10 -1 -12 -3h-97l-4 -19q-18 0 -32.5 -7t-28.5 -18t-28.5 -21.5t-30.5 -16.5q-29 -35 -44.5 -82t-16.5 -97v-6q-1 -48 13 -92q14 -48 45 -79q31 -2 48 -33q29 -12 67 -19l6 -18h133q49 0 74 -17.5t31 -60.5t6 -131q0 -27 -13.5 -51.5t-33 -44 t-44 -32.5t-46.5 -17l-15 12h-84q-14 -10 -28.5 -11t-30.5 1q-12 12 -18 28q16 6 34 21q-16 49 -34.5 97t-40.5 95h-45q-20 -41 -31.5 -66.5t-15.5 -47.5q-2 -11 -2 -24.5t2 -27.5zM651 385q2 0 2 -18q0 12 -2 18z" />
<glyph unicode="t" horiz-adv-x="757" d="M29 946q0 -12 6 -15t17 -4t25.5 -5t26.5 -23l48 -8q0 -61 -2.5 -131t-5.5 -142.5t-7 -143.5t-8 -132l-12 -16q12 -27 19 -75t21.5 -95t38 -84t68.5 -39l8 -17q33 -14 65 -17q16 -2 31.5 -1.5t31.5 1.5q30 3 62 8t64 9q20 16 45 24.5t41 29.5q40 2 58 14q20 13 19 33 q0 17 -11 39q-12 24 -35 47v-8q-4 -4 -19.5 -15.5t-21.5 -11.5q-57 0 -89 -3t-54.5 0t-44 15.5t-58.5 40.5q-8 27 -13 79t-9 116.5t-7 133t-4 130t-2 108t-2 64.5q0 4 10.5 19.5t14.5 19.5h180q18 0 42 -5t44.5 -3t33.5 16t11 55q-2 39 -13 52.5t-40 37.5h-176l-29 -20 q-31 10 -46 25.5t-21 36t-9 44t-10 48.5h-53l-14 -13l-23 -2q0 -20 -2 -28q-12 -4 -21.5 -15.5t-19.5 -26t-24.5 -28.5t-34.5 -23l-17 -24l-28 -10q0 2 -6 2q-2 -16 -20.5 -35t-18.5 -29z" />
<glyph unicode="u" horiz-adv-x="1001" d="M57 928q29 -16 58.5 -31.5t62.5 -26.5q0 -45 -1 -80.5t-11 -76.5q-4 4 -7 0t-3 -8v-367q18 -23 19 -47.5t-4 -48t-11 -46t0 -40.5q16 -23 37.5 -47.5t31.5 -51.5q20 -8 38 -19t40 -22l6 -18h97l22 22q39 -2 61.5 11.5t42.5 26.5q20 14 44 22q10 3 22 3q20 0 47 -7v-8 q0 -33 15 -70l59 -14q16 6 33.5 9t36.5 7l8 16q49 4 81.5 16.5t61.5 59.5q-6 20 -17.5 37.5t-21.5 36.5q-29 0 -49 14q-10 33 0 56.5t10 52.5q0 14 -7 28.5t-7 28.5v28q0 80 9 162q11 98 34 183q-10 35 -10 51q0 18 3 30.5t8 26t5 41.5q-2 23 -10 45.5t-12 44.5 q-8 4 -21.5 2t-26.5 -2q-12 0 -23 3.5t-15 19.5q-12 0 -42 -2t-61 -2t-57.5 4t-32.5 14q-23 -10 -46.5 -18t-39.5 -19.5t-22.5 -31t4.5 -49.5l98 -17q4 -6 15.5 -15t23.5 -20.5t21.5 -20.5t9.5 -16v-415q0 -12 -9.5 -49t-24 -75t-29.5 -67.5t-28 -29.5h-161l-52 41l-18 55 l-18 8v516q8 12 13 28.5t10 32t12.5 27.5t21.5 17v84q-16 2 -31 20h-135l-22 14h-136v-67z" />
<glyph unicode="v" horiz-adv-x="1007" d="M63 918q10 -25 23.5 -41.5t29 -27.5t33 -21.5t35.5 -24.5q16 -55 30.5 -117.5t39.5 -116.5q8 -20 24.5 -37.5t26.5 -35.5q12 -29 17.5 -49.5t11.5 -42t16 -48t35 -67.5q12 -23 12 -58q0 -33 13 -57q41 -92 75.5 -131t63.5 -39q31 0 56.5 32t47 83t42 114.5t40 124 t38 112.5t36.5 83v90t5 67.5t18.5 63.5t41.5 78l31 8q14 14 37 19q2 25 2 49v51h-227q-25 -16 -35 -33.5t-6 -48.5q19 -17 19 -66q-1 -10 -1 -20q-4 -66 -21.5 -144.5t-40 -156.5t-38.5 -126t-19 -52h-34l-11 47q-12 47 -27.5 105.5t-31.5 109.5t-27 61q-4 45 -15 70t-21 66 q20 45 27 84.5t16 87.5l-23 16h-328q-10 -12 -14 -17.5t-7 -9.5t-6 -11t-10 -23z" />
<glyph unicode="w" horiz-adv-x="1568" d="M66 889q0 -23 11 -37t24.5 -26.5t27.5 -26t25 -31.5q29 -61 59.5 -151.5t66 -183.5t74.5 -176t82 -128q2 -45 19.5 -69.5t25.5 -59.5h45q31 49 49.5 112.5t37 128t40 125t58.5 105.5h16q10 -8 24.5 -40t32 -77t36 -98t32.5 -102.5t24.5 -89t14.5 -60.5q12 -10 25.5 -20.5 t29.5 -18.5l43 17q20 29 30.5 58.5t19 58t20.5 56t37 54.5q-2 18 19.5 73.5t56 127t77.5 151.5t86 148.5t78 114.5t55 53l-4 6q18 14 41 12v43q-10 6 -20 16.5t-15 22.5h-143l-22 14q-11 1 -21 1q-31 0 -58 -9t-53 -9q-9 0 -18 1l-14 -45l16 -56q43 -30 59 -74 q13 -35 14 -75q0 -9 -1 -19q-4 -50 -24.5 -103.5t-49.5 -102.5t-61.5 -91t-63.5 -71h-41q-17 33 -17 64v9q0 29 -9 58q-8 20 -23.5 49t-31 59.5t-28 59.5t-12.5 45l-4 88q-12 14 -18 35q10 16 21.5 28.5t25.5 24.5h119q14 29 16 62.5t-24 56.5h-207l-6 -23h-121l-21 -14 q0 -14 11.5 -27.5t26.5 -28t29.5 -29.5t16.5 -34q1 -6 1 -13q0 -34 -16 -86q-20 -62 -49.5 -129t-62.5 -124t-53 -84h-35l-29 47q-4 2 -17 27.5t-29.5 64.5t-36 84t-35 85t-26.5 69t-13 35q14 39 44 53t66 27q-4 4 0 7t12.5 5t15.5 3t9 1l-6 47q-20 0 -40.5 2t-35.5 14h-192 l-6 21h-88q-18 -16 -33 -40q-12 -20 -12 -40v-8z" />
<glyph unicode="x" horiz-adv-x="1003" d="M75 914q5 -24 27.5 -48t49.5 -47l18 -59l51 -37q6 -18 23.5 -42t37 -48.5t35 -47t19.5 -38.5q14 -8 23.5 -21.5t17.5 -27.5l22 -9q6 -10 9.5 -22t7.5 -25q-10 -23 -26.5 -44t-33.5 -38l-4 -26l-16 -6q-4 -27 -12.5 -55.5t-36.5 -41.5q-6 -35 -25.5 -53t-36.5 -47 q-35 -4 -58.5 -9t-49.5 -28l-11 -37l15 -43q6 -2 23.5 -4t21.5 -10h119l2 10q0 -10 12 -10h170v47l-16 8l-7 11l-43 10l-14 30q8 33 13.5 43.5t8.5 17.5t4 24.5t1 64.5q16 14 26.5 22.5t17.5 17.5t13 20.5t16 33.5q18 14 37 13t41 -5q12 -51 43 -95t41 -95q16 -6 25 -27 q-4 -20 -12.5 -37.5t-14.5 -37.5q10 -35 37 -66q57 0 105.5 3t101.5 13q10 6 22.5 21t16.5 29q-29 33 -62.5 64.5t-38.5 78.5l-14 8q-12 45 -35.5 76t-48 55.5t-43 49t-22.5 59.5q-35 16 -35 45t35 45q4 12 20.5 44t36.5 65.5t40.5 60t31.5 28.5l18 74q14 12 31.5 20.5 t33 17.5t30 21.5t22.5 28.5q-4 14 -16.5 31.5t-29 28t-32.5 10.5q-14 0 -25 -23h-98q-6 6 -12 12.5t-14 10.5l-27 -21h-88q-10 -10 -20.5 -22t-16.5 -27q4 -27 14 -49h105v-76q-14 -10 -22.5 -32.5t-22 -50t-39 -57.5t-72.5 -50l-18 4l-15 49h-47q10 18 8 40t-8 42 q-29 6 -51.5 23.5t-28.5 37t8.5 36t61.5 18.5q16 23 43 32v46q-20 10 -24.5 23t-10.5 32h-141l-4 -19l-4 21h-64q-27 0 -57 12q-58 -11 -76 -31q-15 -15 -14 -34q0 -5 1 -10z" />
<glyph unicode="y" horiz-adv-x="1095" d="M53 -553q29 -51 63 -68.5t83 -37.5l10 14h170l6 20q31 2 67.5 56.5t77.5 142.5t83 200.5t82 233.5t76 240t64.5 220t47 175t24.5 102q18 18 44 40t47.5 45.5t34.5 51.5q8 17 8 35q0 11 -3 23q-25 14 -53 39h-108q-4 -4 -7.5 -8t-7.5 -8h-137l-18 16q-16 -8 -29.5 -21.5 t-24.5 -27.5q45 -37 92 -68q31 -20 35 -66q1 -11 1 -22q0 -38 -10 -82q-13 -59 -38.5 -124.5t-53.5 -124t-53.5 -105.5t-37.5 -70q-8 14 -18.5 51t-19.5 77t-16.5 75t-9.5 45q-4 2 -21.5 38t-39 81t-39.5 86t-23 53q10 33 35 51.5t53 28.5q6 22 6 43t-6 43l-16 2l-20 21 h-269l-20 16l-49 -16l-11 -39l11 -31q33 -23 55.5 -53.5t26.5 -71.5l16 -10q8 -41 32.5 -120t57.5 -162t69 -154.5t66 -98.5l25 -117q35 -27 39 -74q1 -11 1 -22q0 -39 -11 -86q-15 -59 -42.5 -124.5t-54 -127t-47 -115t-20.5 -85.5q-10 -8 -19.5 -16.5t-21.5 -12.5 q-31 14 -43.5 28.5t-16.5 27t-6 22.5t-12 17t-36 11.5t-75 4.5q-12 -27 -24.5 -52.5t-20.5 -54.5z" />
<glyph unicode="z" horiz-adv-x="1028" d="M66 37q12 -29 32 -49l47 -17l17 15h416l6 20h288l25 17q16 53 33 107.5t33 107.5q-16 35 -48 57q-18 -10 -32.5 -17.5t-24.5 -14.5t-21.5 -18.5t-23.5 -29.5l-18 -4q-10 -12 -16.5 -19.5t-12.5 -11.5t-16.5 -8t-28.5 -6l-23 -29q-23 -8 -46 -1t-46 11l-43 -14l-14 12 h-160l-14 -12q-18 6 -13 33t19 57.5t33.5 58t29.5 40.5q47 51 114 123.5t132.5 152.5t119.5 161t77 150l-29 43h-573q-33 47 -84 68l-37 -16q-28 -63 -48 -134q-13 -43 -12 -86q0 -27 5 -53h71q23 29 46.5 57.5t45.5 57.5l7 -19q33 -4 65.5 -7t67.5 -9l6 -18h96 q10 -6 18.5 -17.5t12.5 -21.5l-27 -25q-2 -18 -27.5 -58t-58.5 -84t-65.5 -83t-49.5 -51l-4 -25q-37 -25 -59.5 -62.5t-42.5 -78.5q-18 -6 -34.5 -35t-33 -62.5t-34 -64.5t-35.5 -41z" />
<glyph unicode="{" horiz-adv-x="788" d="M43 758l6 -27l35 -24l74 22q27 -14 77 -22.5t82 -10.5l13 -12l4 12h57q18 -16 47 -26l31 -52l51 -18q4 -27 12.5 -45t17.5 -35.5t18.5 -36t17.5 -43.5l8 -4v-74l-10 -6v-24t-15 -43l-10 -6q-47 -117 -93 -235t-81 -238l8 -19q-4 -43 16.5 -76.5t49 -63.5t60.5 -55.5 t54 -54.5q23 -2 50.5 -10t44.5 -25h51q14 41 16 71t-30 65h-70q-4 0 -5 3l-1 3l-41 4q-16 23 -43 40t-45 40v114q37 61 61.5 127t46 133.5t45 133t58.5 127.5v161q-33 41 -63 81t-56 85q-16 10 -40 18.5t-46 4.5l-6 10l-29 4l-8 6l4 2h-70q-12 4 -25.5 22.5t3.5 31.5 q29 -2 61.5 6t48.5 32h62q68 41 94.5 93.5t26.5 126.5q0 2 2 5t6 1q10 29 1 69.5t-27.5 81.5t-44 78t-48.5 57q-12 63 -28.5 118t-22.5 106t4 101t51 108q41 18 78 18h84l22 25q2 25 4.5 41t1.5 30.5t-8.5 28.5t-25.5 33q-29 2 -61.5 1t-59.5 -11l-6 -11q-55 -25 -102.5 -84 t-74 -124.5t-26.5 -125.5q0 -59 39 -84q10 -76 35.5 -140t49.5 -128.5t34 -132.5t-8 -147q-14 -10 -32 -25.5t-22 -32.5q-33 -20 -62.5 -34.5t-64.5 -24.5q-4 -2 -8 -2q-2 0 -2 -6q-12 0 -32.5 1t-43.5 1t-43 -3t-28 -12l-6 2l-5 -12q-39 4 -72.5 1t-62.5 -32z" />
<glyph unicode="|" horiz-adv-x="835" d="M62 -506q1 -14 8.5 -27.5t25.5 -31.5q29 -4 60.5 -3t60.5 13l6 10q66 31 112 96.5t67.5 133t18.5 123t-36 63.5q-10 78 -34.5 141.5t-47 126t-34 130t6.5 153.5q12 10 31 24.5t23 32.5q18 10 38.5 23.5t43.5 21.5q2 0 11 2t18.5 5.5t16.5 6.5t7 7q8 0 33.5 -2t53.5 0 t50.5 8t24.5 18q35 -4 69.5 -2t63.5 31l10 31l-8 26l-35 25l-74 -23q-12 6 -32.5 12.5t-43 10.5t-45 6t-38.5 4l-13 12v-12h-61l-47 25l-31 53l-51 16q-4 27 -11.5 46.5t-16.5 37t-19.5 36t-18.5 42.5l-8 4q0 31 1 47.5t3 29.5t7 28.5t16 42.5l12 6q43 119 89 234.5 t83 238.5l-10 16q4 51 -17.5 86t-52.5 61.5t-63.5 50.5t-46.5 54q-23 2 -49.5 10.5t-43.5 24.5h-51q-14 -41 -17 -70.5t34 -64.5h69l3 -2t3 -4l39 -4q18 -25 43 -40.5t45 -41.5v-113q-37 -59 -74.5 -149.5t-67.5 -187.5t-49.5 -189t-19.5 -158q33 -41 64 -82t57 -84 q16 -10 40 -17t46 -3l6 -13l27 -2l6 -8h68l22 -16q6 -6 6 -21q0 -12 -8 -18q-29 4 -59.5 -5t-50.5 -32h-60q-68 -41 -99.5 -108.5t-30.5 -141.5t32 -143.5t88 -118.5q10 -55 24.5 -109.5t23.5 -104.5t7 -94t-24.5 -76t-69.5 -50.5t-129 -18.5l-22 -24q0 -25 -2.5 -41.5 t-1.5 -30.5z" />
<glyph unicode="}" horiz-adv-x="671" d="M25 1072q-2 -36 32 -44q14 4 20.5 23.5t15.5 42t31.5 41t72.5 18.5q41 0 73.5 -14.5t60 -34t55.5 -40t57.5 -30.5t64.5 -7t80 30q35 20 48 48t11 53.5t-14 44t-28.5 21.5t-33 -13.5t-24.5 -63.5q12 -27 4 -40t-25.5 -17.5t-40 1t-36.5 15.5q-20 14 -36 34.5t-32 40 t-35.5 36t-46.5 22.5q-25 6 -51 6h-49q-41 0 -81 -30.5t-65.5 -68.5t-27.5 -74z" />
<glyph unicode="~" horiz-adv-x="1435" d="M70 469q2 -57 9 -98t18.5 -70t21.5 -53.5t18 -49t10 -59.5q43 -41 90.5 -78.5t108.5 -48.5q-4 -4 1 -8t9 -4q27 0 68 -1t63 15l45 -14q37 12 77 23.5t76 29t64.5 45t43.5 72.5q-8 20 -17 37q-43 -23 -88 -33t-86 -39q-35 0 -55.5 1t-44.5 -15q-25 4 -45 16 q-25 39 -48.5 56.5t-45 25.5t-39 16.5t-30.5 31t-20.5 66.5t-7.5 126l15 18q-20 57 -9 114.5t40.5 110t71.5 96.5t85 74l43 33q39 -20 81 -17t85 3l41 33l10 73q-23 33 -51 64q-43 -4 -81 -1t-75 21q-10 31 -25.5 57.5t-43.5 43.5q-4 12 0 33.5t12 44t19.5 44t21.5 31.5 q6 70 26.5 94.5t49 35t62.5 21.5t67 52l18 -20h94q86 -92 122 -184.5t3 -217.5q-4 -14 -20.5 -41.5t-35 -57.5t-31.5 -52.5t-11 -28.5q25 -66 39 -96.5t21.5 -45t9.5 -22.5t1 -28.5t-3.5 -60.5t-2.5 -118l21 -22q-8 -57 4 -109.5t25 -105.5h57v-52l-55 -8q-14 -23 -25.5 -47 t-19.5 -51q14 -35 38.5 -62.5t47.5 -56.5h231l51 51v33l-24 19q-80 2 -114 33.5t-41 80.5t0 106.5t9 112.5l21 5v34l-19 6l-16 56q6 23 17.5 43t19.5 43q-23 57 -5.5 99t60.5 83h170v98l-8 -2q-25 14 -35 37h-90l-18 -12q-16 6 -26.5 12t-22 11.5t-23.5 7.5t-33 0 q-14 29 -34.5 51t-35.5 49q27 33 36 73t22 79q-12 12 -17.5 32.5t-1.5 36.5l-8 8q-4 35 -6 58.5t-14 54.5q-35 18 -66 61t-55 74l-92 10l-35 29h-115l-8 12q-14 4 -35.5 2t-45 -6t-48.5 -7t-43 -1q-14 -20 -31.5 -25.5t-38.5 -11.5q-18 -6 -43.5 -34.5t-50 -63.5 t-47.5 -67.5t-35 -49.5l-18 -6v-168q12 -18 34.5 -45t46 -55.5t41 -57t19.5 -51.5q0 -14 -8 -27.5t-19 -21.5h-114q-12 -29 -34 -39t-38 -31l-29 -2q0 -20 -8 -37.5t-28 -27.5q0 -16 2 -38t0 -43.5t-10.5 -39.5t-26.5 -29q4 -8 11 -23.5t-9 -19.5q-8 -84 -6 -141z" />
<glyph unicode="&#xa1;" horiz-adv-x="778" d="M51 836q18 0 25.5 -11.5t10.5 -26t3 -28.5q0 -12 4 -16l137 -172q20 -8 35 -21q23 -6 64 -18.5t55 -30.5q39 -4 48 -29.5t-1 -58.5q-53 -4 -98 -27.5t-96 -40.5q-8 -12 -19.5 -19t-23.5 -15q-18 -12 -24.5 -47t-8.5 -75t0 -74t2 -40h47q8 14 21.5 25.5t19.5 23.5 q18 37 36.5 73t43 64.5t57.5 47t80 22.5q14 18 34.5 20.5t43.5 -0.5q16 10 32.5 19.5t26.5 26.5q41 6 76 18q6 10 14.5 21.5t22.5 15.5l8 29q-8 10 -15 18t-16 16q-45 8 -89 15.5t-87 17.5l-8 16q-20 4 -37.5 10.5t-38.5 10.5l-8 16q-25 0 -44 8.5t-36.5 20.5t-34 24.5 t-37.5 18.5q-18 37 -33.5 57.5t-23.5 38t-2 40t31 61.5q-39 35 -81 38t-91 -16l-25 15v-82z" />
<glyph unicode="&#xa2;" horiz-adv-x="868" d="M47 550q-6 -73 10.5 -144.5t61.5 -137.5q27 -39 37 -74.5t25.5 -66.5t45 -54.5t92.5 -37.5l7 -21h77q0 -20 2.5 -50t1.5 -59.5t-8.5 -57t-25.5 -42.5q12 -23 17 -47t22 -49q16 4 33.5 6t33.5 4q4 10 7 20.5t12 20.5l4 240q20 0 41.5 6t44.5 10q0 2 26.5 20.5t58.5 40 t59.5 40t31.5 20.5q4 20 22.5 41t36.5 27v49h-47q-29 -12 -49 -37h-104l-78 -63h-39q0 61 -2 152t-1 187.5t8 183.5t26 138q-8 23 -10.5 43.5t-0.5 42.5h60q10 -12 25.5 -22.5t31.5 -14.5q14 -20 24.5 -41.5t22.5 -41t28.5 -35t45.5 -21.5l59 23v81q-31 27 -53 59t-49 60 q-20 6 -35.5 15.5t-32.5 21.5h-127l-2 23l-2 -2q-2 12 1 34.5l6 45t4.5 42t-1.5 23.5l3 68l10 14l-17 47q-25 8 -42 14t-33 6q-14 0 -29.5 -9t-32.5 -31q25 -47 34 -77t9 -59q0 -27 -5 -57.5t-11 -81.5h-58q-18 -23 -47.5 -38t-60.5 -31.5t-60.5 -37t-48.5 -51.5 q-39 -63 -64.5 -133.5t-31.5 -143.5zM254 459q0 63 7 117.5t24.5 101.5t48.5 91t78 89q0 -57 -1 -115.5t7 -115.5q2 -16 8 -37t6 -37l2 -399h-43q-27 25 -63.5 62.5t-51.5 70.5q-16 35 -19 84t-3 88z" />
<glyph unicode="&#xa3;" horiz-adv-x="1521" d="M35 140q-12 -54 15.5 -87t85 -46t126 -8t137 26.5t117.5 56.5q55 -10 125 -26.5t127 -6.5l45 -20q10 6 21.5 9t23.5 7l39 -27q70 -4 121 -1t97 12.5t95.5 27t116.5 43.5l10 29l41 21q-4 12 1 30.5t13.5 38t18.5 38t16 30.5q-4 33 -19 73.5t-31.5 75.5t-30.5 60l-13 24 q-2 2 -17.5 20.5t-44 39t-58 27.5t-60.5 -14.5t-51 -86.5l12 -12l-14 -21l12 -41l8 -4q6 -18 26.5 -38.5t42 -39t39 -33t17.5 -20.5q-6 -61 -45 -91t-97.5 -39t-128 -2t-136 21.5t-121.5 32t-86 27.5q16 66 35.5 129t37 127.5t29.5 129t15 134.5q55 -2 104 -15.5t96 -19.5 t93 3t96 50q45 37 54 85.5t-1 88t-31.5 65.5t-40.5 19q-20 -8 -56 -21t-44 -40q2 -2 4 -17.5t5 -35t6 -37t7 -25.5l-65 -20q-39 23 -97.5 30t-103.5 17q10 16 8 42t-6 44q23 43 42.5 97t42 108.5t50 104.5t65.5 83t89 43t123 -12q-12 -12 -20.5 -27.5t-14.5 -32.5 q23 -55 62.5 -70.5t78.5 -5t69 42t35 73.5t-23.5 89.5t-106.5 86.5q-29 16 -65 28t-70 8q-100 -12 -178 -36.5t-138.5 -71.5t-103.5 -118t-74 -175q-16 -63 -27.5 -126.5t-44.5 -123.5q-31 8 -58.5 11t-59.5 -3l-27 21q-6 2 -34 3t-58.5 0t-57 -6t-32.5 -14q-47 -10 -77 -23 t-69 -42v-84q0 -37 25 -76q18 -8 43.5 -10t46.5 8q10 20 15 30.5t7 18.5t1 19.5t-3 33.5q31 18 72 17.5t84 -10t83 -16.5t71 -1q-27 -63 -39.5 -130.5t-22.5 -136.5t-22.5 -137.5t-38.5 -131.5q-23 2 -64 2q-39 0 -84 -1t-85 -4t-62 -10q-74 -78 -86 -132zM154 127 q-4 18 16 18q10 0 31 -4q4 -4 10 -4q10 -2 23.5 -4t25.5 -4h-2q-10 -12 -25.5 -20.5t-33.5 -4.5q-6 2 -25.5 7.5t-19.5 15.5z" />
<glyph unicode="&#xa4;" horiz-adv-x="1439" d="M-6 662q29 -16 42 -19.5t46 2.5l10 -4l35 6l6 -80l25 -18q4 -45 22.5 -82t42 -71t46 -68.5t36.5 -73.5l-2 -10h39q10 -41 38 -69t66 -44l9 -18q35 -4 65.5 -16.5t52.5 -37.5l84 -22l7 -21h374l41 27q45 -2 74 3t53.5 14.5t49 22.5t61.5 32q14 33 33.5 66.5t38 67.5 t31 68.5t12.5 73.5h-76q-20 -27 -41 -52.5t-39 -53.5q-23 -4 -57.5 -28t-76.5 -51.5t-84 -51t-79 -25.5l-8 -16q-47 -8 -94.5 -13.5t-96.5 -5.5l-14 15h-96l-90 116l-68 21q-45 55 -82 119.5t-74 126.5v159q121 -2 245 -8t249 -11t248 -6t243 11q18 23 10 47.5t-22 46.5 l-59 19l-10 -5l22 -14q-27 10 -59 10q-31 0 -60 -2l-16 13q-14 -8 -38 -13.5t-48.5 -7.5t-49 -1t-40.5 3l4 2q-311 18 -619 19q-10 41 -6 82t8 84l19 10q53 -4 134 -8t173 -7.5t189.5 -4.5t187.5 0t166 7.5t125 18.5v68q-29 16 -42.5 19t-45.5 -3q-6 6 -16.5 2t-14.5 -8 q-209 12 -418 14t-418 0q23 125 89.5 226.5t158.5 193.5q31 -2 56.5 13.5t35.5 43.5q16 -2 41 -3t49.5 0t46 7.5t33.5 18.5q47 -23 97.5 -27t99.5 -12l10 -19q41 -23 74 -52t69 -52q8 -23 25.5 -41t36.5 -29l20 -67l74 -45l33 41v112q-29 45 -30 93.5t-1 97.5l-41 55h-65 l-45 -39q-10 6 -30 15.5t-41.5 20.5t-39.5 21.5t-25 18.5q-111 27 -222 22.5t-224 -4.5q-49 -31 -100.5 -59.5t-104.5 -52.5l-8 -19q-100 -29 -129 -129q-49 -39 -80 -77.5t-51.5 -81.5t-32.5 -93.5t-22 -109.5q-37 4 -74 9t-74 3q-16 -20 -12 -48t20 -46l64 -21l6 7l-18 14 l49 -6l6 -183q-33 -2 -64.5 -5t-62.5 -11v-67z" />
<glyph unicode="&#xa5;" d="M57.5 894q1.5 -110 20 -222.5t56.5 -221t97.5 -195.5t144.5 -145.5t197 -72.5l9 -21h69q37 0 72 -16q63 12 123.5 31.5t126.5 23.5q57 41 109.5 95.5t103.5 115t101 124t104 122.5q12 33 27.5 63.5t26.5 63.5t11 66t-20 69q29 86 29.5 171t0.5 173l-28 23 q-4 72 -45 140.5t-102.5 125.5t-134.5 99t-136 61l-8 16l-158 21l-8 16q-27 12 -72 14t-72 -14l-8 -16l-110 -21l-9 -16q-33 -2 -64.5 -7.5t-64.5 -13.5q-25 -35 -62.5 -57.5t-78.5 -32.5q-45 -45 -84 -83t-70.5 -78t-53 -87t-29.5 -114q-12 -90 -10.5 -200zM211 750 q-4 82 1 162.5t22.5 152.5t49 131t81.5 102q20 -29 43.5 -53t37.5 -55l21 8q-14 33 -39 58.5t-45 54.5l12 6q6 55 45 92q12 -49 41 -91t43 -91l21 4q-12 51 -42 94t-42 94l-12 -2q12 10 27.5 18.5t31.5 16.5l12 18l117 23l8 18q20 4 61.5 14.5t84.5 18.5t80.5 7t54.5 -17 q20 2 51 -9.5t62.5 -28.5t60 -36.5t45.5 -32.5q10 -29 25.5 -53t31.5 -49q-55 -16 -119 -16v-23q37 0 70 5t64 14q12 -20 25.5 -39.5t23.5 -42.5q49 -96 73.5 -202t18.5 -212.5t-46 -207.5t-120 -189q-84 -90 -202 -150.5t-237.5 -81t-227 7t-169.5 111.5q-20 27 -43.5 74 t-45 108.5t-38 130t-18.5 138.5zM369 1053q0 -33 18.5 -73t44 -81t51 -80t41.5 -69q12 -23 21.5 -44.5t23 -39t34 -28.5t50.5 -11q43 0 80 15t71 36.5t65.5 46.5t66.5 45q10 6 19.5 12t19.5 11q37 20 81 62t84 92t68.5 102.5t32.5 95.5q4 12 -8 12q-16 4 -29.5 7t-29.5 7 l4 7q-29 20 -70 29.5t-88 13.5q-33 8 -65.5 14t-67.5 6q-51 0 -101 -22q-25 -2 -47 -5.5t-51 -5.5q-31 -2 -85 -9t-106.5 -25.5t-90 -47t-37.5 -73.5zM438 391l123 6l-2 -2q14 -29 33.5 -58.5t44.5 -54t55.5 -41t67.5 -16.5q27 0 46 21.5t34.5 52.5t26 61.5t20.5 49.5l-15 6 q47 6 93.5 14.5t91.5 20.5l-8 20q-16 -4 -33 -8t-33 -8q-6 14 -18.5 40.5t-25.5 53t-26.5 46t-21.5 19.5q-31 0 -60.5 -27.5t-58.5 -61t-56.5 -61.5t-56.5 -28q-14 0 -26 21.5t-22.5 49.5t-17.5 54.5t-7 34.5q0 18 -17 10q-53 -33 -74.5 -82t-23.5 -108l-33 -4v-21z M640 1388.5q1 -59.5 1 -118.5h23q0 59 -1 117.5t11 115.5l-21 4q-14 -59 -13 -118.5zM707 1065q0 47 23.5 80t62.5 51h12q-18 -18 -19 -41q0 -27 13.5 -45t34 -30.5t42 -17.5t39.5 -5q29 0 44.5 14t21.5 34.5t5 45.5t-7 47h14q14 -6 23.5 -16.5t9.5 -28.5q0 -27 -22.5 -64.5 t-54 -72.5t-69.5 -59.5t-69 -24.5q-47 0 -75.5 40t-28.5 93zM772 1335l21 -12q20 31 34.5 55.5t26.5 47t22.5 48t22.5 58.5l-20 8q-12 -33 -22.5 -57.5t-23 -47t-26.5 -46t-35 -54.5zM883 1303l12 -17q53 39 92 68.5t96 64.5l-12 21q-57 -35 -96 -66t-92 -71zM918 1145 q0 18 18 18t18 -18t-18 -19q-18 0 -18 19z" />
<glyph unicode="&#xa6;" horiz-adv-x="389" d="M106 141q4 -2 9.5 -15t11.5 -29.5t11 -32t9 -19.5q16 4 33 8t35 2q0 4 8 21.5t8 19.5l13 561q2 20 -6.5 43t-36.5 21q-20 -2 -26.5 -21.5t-6.5 -35.5q2 -39 4 -79t-2 -79q0 -33 -14.5 -62.5t-14.5 -58.5l-6 -205q0 -10 -9 -21.5t-20 -17.5zM125 1597q4 -8 14.5 -25.5 t19.5 -36.5t14 -37.5t1 -31.5q-14 -49 -21.5 -115.5t-9.5 -136t1 -136t10 -115.5q2 -12 4 -32t8 -38.5t16.5 -32.5t26.5 -16q12 -2 25.5 2t13.5 20l8 240q0 6 9 22.5t9 22.5q-10 47 -10 94q0 49 -4 98v-2q-6 33 0 62t10 61l11 11l-13 12q2 16 1.5 44t13.5 38 q-6 10 -10.5 22.5t-8.5 24.5q-25 8 -42 14t-34 6q-14 0 -29.5 -9t-33.5 -30z" />
<glyph unicode="&#xa7;" horiz-adv-x="1126" d="M256 178q2 -37 10 -72.5t19 -64.5l28 -10q29 8 49 24q16 -16 54.5 -29.5t79.5 -18.5t74.5 -3t41.5 16l25 -2l6 11q51 8 102.5 54t84 101.5t41 105.5t-26.5 68q-10 82 -52 119t-92 66q45 27 84 71.5t62.5 92t25.5 87.5t-28 56q-6 53 -27.5 86t-53.5 56.5t-72 45t-83 49.5 q-29 4 -55.5 9.5t-52.5 11.5l-6 12l-60 13l-6 10q-29 14 -47.5 47t-18.5 70q0 39 23 75.5t76 59.5q4 4 13 12t15 8q76 0 118 -11t63.5 -28.5t30 -38t17.5 -38t25.5 -28.5t55.5 -11q0 49 2 84.5t-6.5 58t-33 34t-77.5 11.5q-16 10 -29.5 15t-29.5 10l-9 10l-65 12 q-4 -6 -19.5 -8t-33 -3t-33.5 0t-23 1q-6 -4 -26.5 -16.5t-45 -25.5t-46 -25.5t-29.5 -14.5q-8 -45 -14.5 -74t-11.5 -55.5t-7 -58t0 -82.5q18 -16 30.5 -37t26.5 -43q14 -2 30 -11.5t24 -21.5q23 -4 33 -23q16 -8 26 -10q-12 -8 -32.5 -19.5t-41 -23.5t-38 -21.5 t-25.5 -11.5q-4 -27 -9 -44t-10.5 -32.5t-7.5 -32t-2 -36.5q2 -43 6 -81t18.5 -69.5t41 -59.5t74.5 -50q20 -10 42.5 -16.5t45.5 -6.5l4 -12h82l6 -10q25 4 45 -2q37 -31 68.5 -60.5t39.5 -81.5q20 -16 18.5 -44.5t-16 -57.5t-34 -55.5t-33.5 -38.5l-62 -12l-4 -11 q-45 -4 -71.5 -6t-69.5 6l-6 11q-39 12 -63.5 26.5t-38 34.5t-20.5 48t-9 69q-6 6 -12.5 12t-10.5 14h-20q-18 -27 -25.5 -62.5t-5.5 -72.5zM362 768q0 39 23 76t76 59q4 4 13 12.5t15 8.5q68 0 108 -9.5t62.5 -23.5t32.5 -31.5t18.5 -35t18 -32t29.5 -20.5 q2 -20 -6.5 -43.5t-22.5 -46.5t-29.5 -41t-25.5 -29l-62 -12l-4 -6v2q-29 4 -55.5 9t-52.5 11l-6 13l-60 12l-6 10q-29 14 -47.5 47t-18.5 70z" />
<glyph unicode="&#xa8;" d="M57.5 894q1.5 -110 20 -222.5t56.5 -221t97.5 -195.5t144.5 -145.5t197 -72.5l9 -21h69q37 0 72 -16q63 12 123.5 31.5t126.5 23.5q57 41 109.5 95.5t103.5 115t101 124t104 122.5q12 33 27.5 63.5t26.5 63.5t11 66t-20 69q29 86 29.5 171t0.5 173l-28 23 q-4 72 -45 140.5t-102.5 125.5t-134.5 99t-136 61l-8 16l-158 21l-8 16q-27 12 -72 14t-72 -14l-8 -16l-110 -21l-9 -16q-33 -2 -64.5 -7.5t-64.5 -13.5q-25 -35 -62.5 -57.5t-78.5 -32.5q-45 -45 -84 -83t-70.5 -78t-53 -87t-29.5 -114q-12 -90 -10.5 -200zM211 750 q-4 82 1 162.5t22.5 152.5t49 131t81.5 102q20 -29 43.5 -53t37.5 -55l21 8q-14 33 -39 58.5t-45 54.5l12 6q6 55 45 92q12 -49 41 -91t43 -91l21 4q-12 51 -42 94t-42 94l-12 -2q12 10 27.5 18.5t31.5 16.5l12 18l117 23l8 18q20 4 61.5 14.5t84.5 18.5t80.5 7t54.5 -17 q20 2 51 -9.5t62.5 -28.5t60 -36.5t45.5 -32.5q10 -29 25.5 -53t31.5 -49q-55 -16 -119 -16v-23q37 0 70 5t64 14q12 -20 25.5 -39.5t23.5 -42.5q49 -96 73.5 -202t18.5 -212.5t-46 -207.5t-120 -189q-84 -90 -202 -150.5t-237.5 -81t-227 7t-169.5 111.5q-20 27 -43.5 74 t-45 108.5t-38 130t-18.5 138.5zM369 1053q0 -33 18.5 -73t44 -81t51 -80t41.5 -69q12 -23 21.5 -44.5t23 -39t34 -28.5t50.5 -11q43 0 80 15t71 36.5t65.5 46.5t66.5 45q10 6 19.5 12t19.5 11q37 20 81 62t84 92t68.5 102.5t32.5 95.5q4 12 -8 12q-16 4 -29.5 7t-29.5 7 l4 7q-29 20 -70 29.5t-88 13.5q-33 8 -65.5 14t-67.5 6q-51 0 -101 -22q-25 -2 -47 -5.5t-51 -5.5q-31 -2 -85 -9t-106.5 -25.5t-90 -47t-37.5 -73.5zM438 391l123 6l-2 -2q14 -29 33.5 -58.5t44.5 -54t55.5 -41t67.5 -16.5q27 0 46 21.5t34.5 52.5t26 61.5t20.5 49.5l-15 6 q47 6 93.5 14.5t91.5 20.5l-8 20q-16 -4 -33 -8t-33 -8q-6 14 -18.5 40.5t-25.5 53t-26.5 46t-21.5 19.5q-31 0 -60.5 -27.5t-58.5 -61t-56.5 -61.5t-56.5 -28q-14 0 -26 21.5t-22.5 49.5t-17.5 54.5t-7 34.5q0 18 -17 10q-53 -33 -74.5 -82t-23.5 -108l-33 -4v-21z M640 1388.5q1 -59.5 1 -118.5h23q0 59 -1 117.5t11 115.5l-21 4q-14 -59 -13 -118.5zM707 1065q0 47 23.5 80t62.5 51h12q-18 -18 -19 -41q0 -27 13.5 -45t34 -30.5t42 -17.5t39.5 -5q29 0 44.5 14t21.5 34.5t5 45.5t-7 47h14q14 -6 23.5 -16.5t9.5 -28.5q0 -27 -22.5 -64.5 t-54 -72.5t-69.5 -59.5t-69 -24.5q-47 0 -75.5 40t-28.5 93zM772 1335l21 -12q20 31 34.5 55.5t26.5 47t22.5 48t22.5 58.5l-20 8q-12 -33 -22.5 -57.5t-23 -47t-26.5 -46t-35 -54.5zM883 1303l12 -17q53 39 92 68.5t96 64.5l-12 21q-57 -35 -96 -66t-92 -71zM918 1145 q0 18 18 18t18 -18t-18 -19q-18 0 -18 19z" />
<glyph unicode="&#xa9;" d="M57.5 895q1.5 -109 20 -222.5t56.5 -221t97.5 -195.5t144.5 -146.5t197 -72.5l9 -21h71q35 0 70 -16q63 12 123.5 31.5t126.5 23.5l131 92l-45 66q-84 -53 -180.5 -78.5t-191.5 -16.5t-181 53t-150 128q-18 25 -39.5 85t-41 129t-36 134.5t-28.5 102.5q12 16 19.5 59 t13.5 100.5t15 121t25.5 120.5t43 102t67.5 64q6 51 36 83t77 52l12 18l117 23l8 18q20 4 61.5 14.5t84.5 18.5t80.5 7t54.5 -17q20 2 51 -9.5t63.5 -28.5t61 -36.5t45.5 -32.5q23 -57 57.5 -104t61.5 -100q47 -92 44 -178.5t-31 -168t-66.5 -164.5t-65.5 -169h-25l-47 -62 q-4 0 -25.5 -14t-49 -30.5t-55 -32t-44.5 -15.5l-6 -10l-25 -2q4 -4 1 -6t-7 -2h-80l-8 8h-57l-53 69l-39 11q-16 14 -27.5 33.5t-21 39t-18.5 38t-23 34.5v125q-10 20 -7.5 60t7.5 65l10 6q8 33 13 64.5t9 64.5q12 6 28.5 28.5t35 50.5t37 54.5t35.5 42.5q39 -4 55 33 q8 0 21.5 -1t28.5 0t28.5 5t19.5 10q25 -16 56.5 -17t60.5 -5l6 -12q31 -23 60.5 -54.5t58.5 -48.5l12 -39l43 -26l21 24q4 25 -0.5 46.5t-9.5 43t-9 43t0 45.5l-24 33h-39l-27 -24q-53 31 -86 43t-65.5 15t-74.5 0t-114 -3q-29 -16 -59.5 -32.5t-61.5 -33.5l-4 -10 q-59 -16 -76 -76q-35 -29 -53 -51t-28.5 -47t-15.5 -54.5t-13 -68.5l-23 -22q0 -20 -1 -52t0 -66t4 -64.5t10 -49.5l14 -12q-2 -16 7 -40t22.5 -48.5t30 -47t26.5 -36.5l-2 -6h22l23 -43l39 -23l6 -12q29 -4 57.5 -20.5t61.5 -22.5l4 -12h219l25 14q43 -4 72.5 9t66.5 34 q16 35 42.5 80t22.5 82h-10l51 8q-8 -16 -16 -31.5t-14 -32.5q0 -2 1 -1l1 1q2 2 3 4.5t3 4.5q2 4 4 7t4 7q4 6 16.5 23.5t16.5 21.5q-12 -4 -19 -4q33 57 77 129t85 146.5t69.5 149t28.5 142.5l-28 23q-4 72 -45 140.5t-102.5 125.5t-134.5 99t-136 61l-8 16l-158 21l-8 16 q-27 12 -72 14t-72 -14l-8 -16l-110 -21l-9 -16q-33 -2 -64.5 -7.5t-64.5 -13.5q-25 -35 -61.5 -57.5t-79.5 -32.5q-45 -47 -84 -84t-69.5 -76t-53 -87t-30.5 -115q-12 -90 -10.5 -199z" />
<glyph unicode="&#xaa;" d="M57.5 894q1.5 -110 20 -222.5t56.5 -221t97.5 -195.5t144.5 -145.5t197 -72.5l9 -21h69q37 0 72 -16q63 12 123.5 31.5t126.5 23.5q57 41 109.5 95.5t103.5 115t101 124t104 122.5q12 33 27.5 63.5t26.5 63.5t11 66t-20 69q29 86 29.5 171t0.5 173l-28 23 q-4 72 -45 140.5t-102.5 125.5t-134.5 99t-136 61l-8 16l-158 21l-8 16q-27 12 -72 14t-72 -14l-8 -16l-110 -21l-9 -16q-33 -2 -64.5 -7.5t-64.5 -13.5q-25 -35 -62.5 -57.5t-78.5 -32.5q-45 -45 -84 -83t-70.5 -78t-53 -87t-29.5 -114q-12 -90 -10.5 -200zM211 750 q-4 82 1 162.5t22.5 152.5t49 131t81.5 102q20 -29 43.5 -53t37.5 -55l21 8q-14 33 -39 58.5t-45 54.5l12 6q6 55 45 92q12 -49 41 -91t43 -91l21 4q-12 51 -42 94t-42 94l-12 -2q12 10 27.5 18.5t31.5 16.5l12 18l117 23l8 18q20 4 61.5 14.5t84.5 18.5t80.5 7t54.5 -17 q20 2 51 -9.5t62.5 -28.5t60 -36.5t45.5 -32.5q10 -29 25.5 -53t31.5 -49q-55 -16 -119 -16v-23q37 0 70 5t64 14q12 -20 25.5 -39.5t23.5 -42.5q49 -96 73.5 -202t18.5 -212.5t-46 -207.5t-120 -189q-84 -90 -202 -150.5t-237.5 -81t-227 7t-169.5 111.5q-20 27 -43.5 74 t-45 108.5t-38 130t-18.5 138.5zM369 1053q0 -33 18.5 -73t44 -81t51 -80t41.5 -69q12 -23 21.5 -44.5t23 -39t34 -28.5t50.5 -11q43 0 80 15t71 36.5t65.5 46.5t66.5 45q10 6 19.5 12t19.5 11q37 20 81 62t84 92t68.5 102.5t32.5 95.5q4 12 -8 12q-16 4 -29.5 7t-29.5 7 l4 7q-29 20 -70 29.5t-88 13.5q-33 8 -65.5 14t-67.5 6q-51 0 -101 -22q-25 -2 -47 -5.5t-51 -5.5q-31 -2 -85 -9t-106.5 -25.5t-90 -47t-37.5 -73.5zM438 391l123 6l-2 -2q14 -29 33.5 -58.5t44.5 -54t55.5 -41t67.5 -16.5q27 0 46 21.5t34.5 52.5t26 61.5t20.5 49.5l-15 6 q47 6 93.5 14.5t91.5 20.5l-8 20q-16 -4 -33 -8t-33 -8q-6 14 -18.5 40.5t-25.5 53t-26.5 46t-21.5 19.5q-31 0 -60.5 -27.5t-58.5 -61t-56.5 -61.5t-56.5 -28q-14 0 -26 21.5t-22.5 49.5t-17.5 54.5t-7 34.5q0 18 -17 10q-53 -33 -74.5 -82t-23.5 -108l-33 -4v-21z M640 1388.5q1 -59.5 1 -118.5h23q0 59 -1 117.5t11 115.5l-21 4q-14 -59 -13 -118.5zM707 1065q0 47 23.5 80t62.5 51h12q-18 -18 -19 -41q0 -27 13.5 -45t34 -30.5t42 -17.5t39.5 -5q29 0 44.5 14t21.5 34.5t5 45.5t-7 47h14q14 -6 23.5 -16.5t9.5 -28.5q0 -27 -22.5 -64.5 t-54 -72.5t-69.5 -59.5t-69 -24.5q-47 0 -75.5 40t-28.5 93zM772 1335l21 -12q20 31 34.5 55.5t26.5 47t22.5 48t22.5 58.5l-20 8q-12 -33 -22.5 -57.5t-23 -47t-26.5 -46t-35 -54.5zM883 1303l12 -17q53 39 92 68.5t96 64.5l-12 21q-57 -35 -96 -66t-92 -71zM918 1145 q0 18 18 18t18 -18t-18 -19q-18 0 -18 19z" />
<glyph unicode="&#xab;" horiz-adv-x="1529" d="M78 512l33 -35q43 -8 87 -15t89 -18l8 -16q18 -4 36.5 -10t39.5 -10l10 -15q47 -4 77.5 -31.5t71.5 -42.5q18 -37 35 -57t23 -37.5t1 -40t-30 -61.5q37 -37 82 -38t92 15l21 -14v84q-18 -2 -25.5 8t-8.5 24.5l-2 29t-7 20.5q-41 53 -84 99t-86 93q-10 2 -27.5 6.5 t-36 10.5t-35 14t-22.5 19q-41 2 -46 28.5t1 59.5q53 4 98 26.5t98 38.5q6 14 17.5 20.5t23.5 14.5q18 12 25.5 47t8.5 74t-1 72.5t-2 42.5h-47q-8 -14 -21.5 -25.5t-21.5 -24.5q-18 -39 -36.5 -73.5t-42 -62t-56.5 -46t-82 -22.5q-10 -14 -25.5 -17.5t-34 -5.5t-39 -10 t-38.5 -35q-35 -6 -76 -18q-4 -10 -12.5 -20.5t-22.5 -14.5zM772 526l33 -34q43 -6 88 -13.5t88 -19.5l8 -17q18 -4 38 -9t40 -9l8 -16q41 0 78 -28t72 -46q20 -39 36.5 -59.5t22.5 -38t0 -39t-31 -60.5q35 -35 80 -35q47 0 94 13l25 -15v84q-18 -2 -25.5 8.5t-10.5 23.5 t-4 27.5t-7 22.5l-135 172q-23 6 -35 21q-23 6 -64 18t-57 31q-31 4 -46 31.5t3 56.5q53 4 98 26.5t97 39.5q37 45 52 64t19 40.5t2 56.5t-2 111h-47q-8 -16 -20.5 -26.5t-20.5 -24.5q-18 -37 -36.5 -73t-43 -63.5t-57.5 -46t-82 -22.5q-12 -20 -33.5 -21.5t-44.5 0.5 q-16 -10 -30.5 -19t-26.5 -26q-18 -4 -37.5 -9t-40.5 -11q-4 -10 -12 -20.5t-23 -14.5z" />
<glyph unicode="&#xac;" horiz-adv-x="2043" d="M0 63q14 -18 37.5 -28t49.5 -11t49.5 9t37.5 30q12 -20 34.5 -29t47.5 -9t48.5 10t35.5 28q12 -20 33.5 -30t46.5 -10t46 10t34 30q35 -39 88 -38q53 0 86 41q18 -20 43.5 -30.5t50.5 -10.5q27 0 51.5 10t42.5 33v2q35 -43 90.5 -56.5t107.5 1t89 57t37 114.5 q0 76 -43 120t-99.5 54.5t-114 -10t-85.5 -74.5q-41 -16 -88 -13t-82 26q-39 -27 -87 -26t-87 26q-35 -25 -80 -25t-80 25q-37 -27 -85 -28t-83 28q-35 -29 -86 -29t-86 29v-10q14 -20 37.5 -30.5t49.5 -11.5t49.5 9t37.5 30q12 -20 34.5 -29t47.5 -9t48.5 10t35.5 28 q12 -20 33.5 -30t46.5 -10t46 10t34 30q35 -39 88 -38q53 0 86 41q33 -37 78 -41.5t82 20.5q-4 -8 -5.5 -16.5t-3.5 -18.5q-37 -14 -75.5 -12t-73.5 25q-41 -25 -88 -25t-88 25q-35 -25 -80 -25t-80 25q-37 -27 -85 -28t-83 28q-35 -29 -86 -29t-86 29v-11 q14 -20 37.5 -30.5t49.5 -11.5t49.5 9.5t37.5 30.5q12 -20 34.5 -30.5t47.5 -9.5t48.5 11.5t35.5 30.5q12 -20 33.5 -30.5t44.5 -10.5q25 0 47 9.5t35 29.5q16 -18 39.5 -27.5t48.5 -9.5t47 9.5t39 29.5q33 -35 71.5 -40t75.5 18v-19v-16q-78 -27 -145 16q-39 -27 -88 -26 q-47 0 -88 24q-35 -25 -80 -24q-45 0 -80 24q-37 -27 -85 -27.5t-83 27.5q-35 -29 -86 -28q-51 0 -86 28v-10q14 -20 37.5 -30.5t48.5 -10.5q27 0 50.5 10.5t37.5 30.5q12 -23 34.5 -33t47.5 -9t48.5 11.5t35.5 30.5q12 -20 33.5 -30.5t44.5 -10.5q25 0 47 9.5t35 29.5 q16 -18 39.5 -27.5t48.5 -9.5t47 9.5t39 29.5q33 -37 71.5 -41t79.5 19q4 -20 9 -31q-41 -16 -82 -15.5t-78 23.5q-39 -27 -87 -26t-87 26q-35 -25 -80 -25t-80 25q-37 -25 -85 -26t-83 28q-35 -29 -86 -30t-86 28v-10q14 -20 37.5 -30.5t48.5 -10.5q27 0 50.5 10t37.5 31 q12 -23 34.5 -33t47.5 -9t48.5 11t35.5 31q12 -20 33.5 -30.5t46.5 -10.5t46 10t34 31q35 -39 88 -40t86 40q35 -39 81 -42t83 29q4 -8 9 -15t9 -13q-39 -29 -90 -28t-92 26q-39 -23 -88 -23q-47 0 -86 25q-35 -25 -80 -25t-80 25q-37 -27 -85 -28t-83 28q-35 -29 -86 -29 t-86 29v-13zM43 1145l4 -27q23 -12 43.5 -13t36.5 -3t29.5 -12.5t23.5 -36.5q-10 -35 -12 -100.5t0 -137.5t6 -138.5t6 -103.5q-23 -12 -42 -18t-31.5 -15.5t-13.5 -25.5t11 -49q4 -12 21.5 -20.5t30.5 -10.5q10 -10 23.5 -11t26.5 2t28.5 8t27.5 7q-4 4 0 6.5t8 2.5h115 l14 24l25 8v60q-20 16 -39.5 31.5t-36.5 31.5q0 35 -6 87t-7 105.5t7 102.5t39 80v70q0 33 8 55t30.5 36.5t69.5 20.5q0 8 12.5 10.5t28.5 2.5t32 -1.5t22 -1.5q23 -27 47 -51t24 -59q2 -109 5.5 -214.5t3.5 -211.5q-10 -2 -14.5 -12.5t-4.5 -22.5t2 -26.5t2 -24.5 q-12 -6 -35.5 -19.5t-38.5 -7.5v-39q23 -14 33 -30l70 -7q-4 -4 0 -7t6 -3h109l16 13l51 4q8 10 21.5 17t25.5 11v60q-18 4 -37.5 9t-38.5 11q0 147 2.5 276.5t18.5 272.5q23 18 44.5 36.5t49.5 29.5l10 14q33 2 68 0l6 -14l55 -7q31 -37 64 -59v-90q10 6 13 -8.5t2 -36 t-3 -44t-2 -30.5q-2 -8 -8 -8q-4 0 -4 -2q2 -4 10 -23.5t8 -23.5q0 -43 7.5 -93.5t5.5 -94.5t-25 -73.5t-80 -29.5q-14 -18 -33 -31v-41q20 -8 31 -32q45 0 100.5 4t96.5 -17l20 -30l15 10l18 2q10 39 9 63.5t-7 44t-14.5 39t-12.5 49.5q0 6 -3 23.5t-5 37t-3 37t-1 23.5 l2 13v-3q6 14 9 68.5t3 118.5q0 63 -1 120.5t-1 77.5q-25 37 -26 70q-27 25 -53.5 48.5t-51.5 47.5h-149q-14 -16 -28.5 -21t-33.5 -11l-8 -15q-37 -10 -57.5 -26.5t-52.5 -30.5l-41 16l-9 35l-32 33l-25 4q2 8 -6 17.5t-12 13.5q-47 4 -87 -3.5t-83 -13.5l-9 -14l-94 -16 l-6 -15q-18 -8 -39.5 -12t-44.5 2l4 10q-23 23 -35 47h-104q-16 -12 -29.5 -24t-27.5 -29q-2 -16 -17.5 -27.5t-34 -21.5t-36 -21.5t-25.5 -27.5zM846 127q0 2 6 6l6 4q6 2 17.5 8.5t23.5 10.5t23 4q10 0 14 -8q-4 -6 -15.5 -12.5t-25.5 -11.5t-27.5 -8t-19.5 -3zM850 186 q2 6 16.5 9.5t29.5 4.5t27.5 -3.5t12.5 -12.5q-4 -4 -16.5 -7t-25.5 -4t-24.5 0t-17.5 3zM852 248l4 8q16 4 39 -8t39 -19l4 -8l-2 -8q-14 -4 -44 10.5t-40 24.5zM885 305l8 6q2 0 13.5 -8t23.5 -18.5t21.5 -21.5t9.5 -17q-2 0 -8.5 -3t-8.5 -3q-4 2 -13 11l-19.5 19.5 t-18.5 20.5t-8 14zM889 86q0 4 7 12t15.5 15.5t15.5 13.5t9 6q4 0 8 -3t6 -5q0 -4 -7 -11.5t-16 -15.5t-18.5 -13t-13.5 -5zM922 43q0 2 6 13.5t13 23.5t13.5 21.5t8.5 11.5t4 2t4 2l8 -2q4 -8 0 -20.5t-12.5 -26t-17.5 -24.5t-15 -15l-8 4zM938 319l10 5q2 0 5 -4l3 -3 q4 -4 16.5 -22.5t12.5 -22.5q0 -8 -10 -12q-2 0 -5 3t-5 3l-13 19q-4 8 -9 16t-5 18zM944 174q-2 27 10.5 52.5t53.5 25.5q43 0 65.5 -30.5t-6.5 -69.5q-10 -12 -24.5 -16.5t-28 -1.5t-23.5 13.5t-10 26.5t11.5 25.5t21.5 9.5q12 0 18 -8t-2 -25q-10 2 -14 8q-6 -8 0 -13 t14 -5t15.5 6t5.5 23q0 10 -10.5 20t-26.5 10q-14 0 -26.5 -9t-16.5 -27.5t6 -45.5q-8 -23 -19.5 -9.5t-13.5 40.5zM990 77.5q1 14.5 5 26t15 11.5q2 -4 3 -7.5t3 -7.5v-12t-1 -21.5t-3 -21.5t-4 -12l-9 -2q-4 4 -7 18t-2 28.5zM997 305q0 4 2 25.5t7 21.5h10q4 -10 6 -23.5 t2 -23.5v-29q-2 -16 -9 -15t-14 15q-4 16 -4 29zM1030 96q0 14 10 19q4 -4 10.5 -16.5t11.5 -28t9 -30t4 -20.5q-2 0 -5 -1t-5 -1q-6 2 -15.5 16.5t-14.5 31t-5 30.5zM1036 270q0 2 2 8l2 5l13 22q2 4 10 16.5t12 10.5l10 -4q0 -4 -5 -16.5t-11 -25t-13 -21.5t-12 -9z M1057 119q2 6 10 14q6 0 13 -7t13.5 -16.5t11.5 -18.5t5 -13l-10 -8q-6 0 -22.5 20.5t-20.5 28.5zM1073 254q10 6 25.5 20.5t25.5 12.5l6 -8q-4 -10 -23.5 -26.5t-29.5 -14.5q-4 8 -4 16zM1079 145l6 15q8 0 19.5 -6.5t23 -14.5t20.5 -17.5t11 -15.5h-2q-2 -2 -3 -4t-3 -4 t-7 0t-5 4q-16 10 -31.5 20.5t-28.5 22.5zM1085 209q-4 8 5.5 17.5t23.5 16.5t28.5 11t20.5 2l4 -8q-6 -6 -16 -13.5t-22.5 -13.5t-24.5 -10t-19 -2zM1090.5 185q5.5 5 20.5 8.5t36 -0.5q4 0 12 -5v-10q-4 -4 -16.5 -6t-20.5 -2q-25 0 -31 5t-0.5 10zM1167 291 q16 -25 42 -38t52.5 -15t52 8t44.5 35q35 -39 89 -42t87 40q12 -20 34.5 -29.5t45.5 -9.5q25 0 46 10t34 31q14 -20 36.5 -30.5t48 -11.5t48 9t37.5 31q12 -23 35.5 -33t49 -9t50.5 11.5t37 30.5l-2 2v10q-35 -29 -86 -29t-86 29q-35 -29 -84 -29q-47 0 -82 29 q-35 -25 -82 -25q-45 0 -80 25q-41 -25 -88 -25t-88 25q-39 -27 -95.5 -26t-95.5 26zM1180 70q16 -23 40.5 -33t51 -11t52.5 9t42 33q35 -39 89 -42t87 40q12 -20 34.5 -29.5t45.5 -9.5q25 0 46.5 10t33.5 31q14 -20 36.5 -30.5t48 -11.5t48.5 9t37 31q12 -23 35.5 -33 t49 -9t50.5 11.5t37 30.5h-2v12q-35 -29 -86 -29t-86 29q-35 -29 -84 -29q-47 0 -82 29q-35 -25 -82 -25q-45 0 -80 25q-39 -27 -88 -27q-47 0 -88 25q-39 -23 -92 -23q-51 0 -90 25zM1196 113q37 -33 86 -34t82 40q35 -39 89 -41t87 41q12 -20 34.5 -29.5t45.5 -9.5 q25 0 46.5 10t33.5 31q12 -23 35.5 -33t48.5 -10t48 10t38 31q12 -23 35.5 -33t49 -9t50.5 11.5t37 30.5h-2v10q-35 -29 -86 -29t-86 29q-35 -29 -84 -29q-47 0 -82 29q-35 -25 -82 -25q-45 0 -80 25q-41 -25 -88 -25t-88 25q-37 -23 -81 -21.5t-83 17.5zM1198 229l4 -20 q41 -23 82 -25t76 41q35 -39 89 -42t87 40q12 -20 34.5 -29.5t45.5 -9.5q25 0 46 10.5t34 30.5q14 -20 36.5 -30.5t47.5 -10.5q27 0 49 10.5t37 30.5q12 -23 35.5 -33t49 -9t50.5 11.5t37 30.5h-2v11q-35 -29 -86 -29t-86 29q-35 -29 -84 -29q-47 0 -82 29q-35 -25 -82 -25 q-45 0 -80 25q-41 -25 -88 -25t-88 25q-37 -25 -80 -24t-82 17zM1206 156q35 -25 81 -23t75 39q35 -39 89 -41t87 41q12 -18 34.5 -28.5t46 -11.5t45.5 9.5t34 30.5q14 -20 36.5 -30.5t47.5 -10.5q27 0 49 10.5t37 30.5q12 -23 35.5 -33t49 -9t50.5 11.5t37 30.5h-2v10 q-35 -29 -86 -28q-51 0 -86 28q-35 -29 -84 -28q-47 0 -82 28q-35 -25 -82 -24q-45 0 -80 24q-41 -25 -88 -24q-47 0 -88 24q-35 -23 -76 -24.5t-78 14.5zM1346 856q16 -27 30 -41q41 -8 79 -16t77 -19l8 -18q10 -4 18.5 -6t18.5 -6q12 -4 33 -9l8 -18q23 0 38 -8 t31.5 -20.5t32 -25t31.5 -20.5q16 -35 33 -61q4 -10 9 -19.5t9 -19.5q6 -18 2 -41t-26 -68q14 -10 23 -16l18 -12q14 -8 32 -13q29 -6 86 15l25 -19v101q-16 -2 -22.5 6t-8.5 24q-2 8 -2 15v14q-2 8 -2 14t-4 11l-123 184q-20 10 -31 22q-23 6 -59.5 18.5t-48.5 35.5 q-33 2 -41 25.5t0 58.5q23 4 44.5 11t41.5 17q23 10 44.5 21.5t45.5 19.5q6 18 16.5 26.5t22.5 22.5q6 6 29.5 37t48 68t38 68.5t-2.5 37.5l-84 37h-52q-10 -23 -21 -44t-24 -44q-10 -23 -22 -44t-25 -42q-29 -41 -61.5 -66.5t-79.5 -29.5q-10 -16 -20.5 -19.5t-26.5 -3.5 h-21q-16 -10 -30.5 -21t-24.5 -28q-16 -4 -33.5 -9t-33.5 -11q-6 -14 -13.5 -23.5t-19.5 -13.5z" />
<glyph unicode="&#xad;" horiz-adv-x="962" d="M12 606.5q4 -26.5 21 -39.5q2 -4 32.5 -7t65.5 -5t64.5 -4t31.5 -2q35 -2 72 0t72 2q76 0 147.5 -12.5t149.5 2.5q72 10 92 47t20 98q0 33 -21.5 36t-53.5 3q-25 0 -48.5 -6t-47 -12.5t-46 -8.5t-45.5 4l-139 41q-18 6 -37.5 2t-40 -11t-40 -13t-40.5 -6q-37 0 -72.5 5 t-72.5 5q-23 0 -38 -20.5t-22.5 -46t-3.5 -52z" />
<glyph unicode="&#xae;" d="M59 883q0 -92 14.5 -193.5t38 -194t56.5 -166t70 -110.5q29 -29 61.5 -42t56.5 -42q55 -6 99.5 -4t87.5 10.5t86 19.5t96 23q45 49 98.5 85t94.5 89l-21 60q-25 -16 -42 -33.5t-31.5 -36t-29 -39t-32.5 -41.5q-29 -2 -51.5 -7l-45 -10t-47 -9t-55.5 -4 q-4 -14 -21.5 -22.5t-27.5 -12.5q-14 4 -45 16t-62.5 25.5t-57 26t-30.5 18.5q-59 82 -90.5 197.5t-38 239.5t11 242.5t56.5 207.5q14 35 37.5 64.5t47.5 57t45.5 55t33.5 58.5q33 14 92 48t123.5 60.5t124 35t90.5 -28.5l158 -33l6 -14q41 -16 80 -31.5t80 -34.5 q4 -29 22.5 -49.5t44.5 -34.5q39 -115 65.5 -202t38 -159.5t6.5 -136t-30 -132t-69 -149.5t-109 -188q-23 -35 -41.5 -63.5t-40 -53t-50 -43t-71.5 -30.5l-29 -37l-73 -16l-43 14v-33h-66l-6 21q-23 -6 -48.5 -10.5t-51 -12.5t-48 -20t-36.5 -33q-2 -2 9 -9t27.5 -14.5 t33 -12.5t26.5 -5h285l41 39q76 8 117.5 37t70.5 63.5t57.5 68.5t75.5 56l109 226l18 6q0 49 8 95t18.5 90t19.5 86t9 85q0 86 -21.5 200.5t-67.5 221t-118.5 186.5t-173.5 97l-8 16q-25 6 -40 12t-29.5 10.5t-32 6.5t-41.5 4l-6 18h-131l-9 10q-31 10 -69.5 1t-67.5 -13 q-29 -31 -67.5 -41t-77.5 -8l-8 -16q-88 -41 -133.5 -75t-76 -69t-60 -72.5t-87.5 -84.5q-8 -23 -13 -46.5t-5 -48.5q-35 -39 -49.5 -114.5t-14.5 -167.5zM459 459q8 -23 20 -33h111l2 10l16 -12l35 12q6 -6 18.5 -8t26.5 -3t27 -1q14 0 20 2q2 -2 6 -4t0 -4l23 8l18 29 q-12 16 -16 26q-18 10 -35.5 9t-38.5 -1q-10 12 -20 25.5t-15 28.5q6 14 8.5 34.5t2.5 43.5t-1 44t-1 37q-10 10 -8.5 11.5t8.5 13.5q-10 33 -5 56.5t15 56.5q16 0 26 10h99l10 8q16 -4 27 -8l4 -10q37 -6 50 -46t14 -91.5t-2 -102.5t3 -80q6 -31 23.5 -55.5t27.5 -52.5 q6 -4 20.5 -13.5t30 -19.5t30 -20.5t22.5 -16.5h76q7 19 30 29v18q-12 8 -21 9t-20.5 4.5t-26 11.5t-34.5 32q-37 45 -41 97.5t-5 104.5t-11.5 101.5t-59.5 88.5l-18 2l-6 8q-47 10 -33 57q23 4 39 10.5t31 28.5q29 0 44 37t8 84t-41 91t-106 58l-4 11h-78l-10 8 q-10 -8 -12 -8t-12 8h-41l-9 -8h-108l-4 -11h-49l-4 11h-54l-8 -25l10 -22l19 -11q8 4 18 9.5t21 1.5q6 -16 15 -25.5t15.5 -20t5 -28t-17.5 -49.5q8 -33 6 -62.5t6 -64.5q-4 -4 -8 -60.5t-7 -128t-7 -140.5t-6 -97l10 -13h-74l-14 -10zM672 1014q-4 35 7 82t23 82 q61 29 101.5 10t85.5 -60l15 -15t11 -17t-8 -15q-2 -12 1 -24.5t3 -24.5q0 -6 -4 -21.5t-10 -31.5t-11 -31.5t-7 -21.5q-39 -23 -56 -27q-12 -4 -30 -4q-16 0 -52 2q-10 0 -22 4t-23 4q-4 8 -8 14.5t-8 14.5q0 20 -2 38.5t-6 41.5z" />
<glyph unicode="&#xaf;" horiz-adv-x="1464" d="M27 891l10 -33l29 -22l61 -7q8 -8 12 -51t7.5 -107.5t6.5 -140t7 -146.5t10 -128t16 -86l-20 -47l-53 -31l-17 -43l29 -35h156l16 21l8 -19q18 -6 42 -11t45.5 -4t39 10t27.5 34q-18 2 -37 11.5t-29 23.5l-39 4q-41 119 -44 253t32 253l-12 41l12 37q-10 0 -12 3t0 8t6 9 l6 6q-4 14 -4 33q0 18 3 38.5t9 38t17 30.5q76 0 142 -4.5t140 -12.5l39 -29q-10 -10 -21.5 -50t-22.5 -97t-21.5 -124.5t-17.5 -129t-12 -113t-5 -75.5q-29 -27 -42.5 -49.5t-16.5 -46t-1 -50t7 -63.5h286l15 -15h88q14 12 23 31t16 37l-8.5 25.5t-10.5 23.5q-16 6 -33.5 9 t-33.5 8q-18 39 -22.5 128t0.5 193.5t12 208.5t12 176q8 -2 11 3t3 11q0 8 1 15.5t7 9.5h156l8 -10l76 -4l8 -17l53 -4q14 -25 20.5 -62.5t8.5 -79.5t-2 -82t-10 -71q-2 -8 10 -12q-2 -18 -3 -56t-4 -82t-9.5 -90t-16.5 -83t-26.5 -57.5t-41.5 -14.5q-18 -16 -31.5 -39.5 t-15.5 -46.5l15 -53q10 -2 32.5 -3t47 1t45 7t30.5 15l35 -20h111l35 22l8 49q-8 27 -19.5 42.5l-23 31t-19.5 34.5t-8 50q0 127 14.5 248t14.5 250q18 2 22 39t1 86t-11 97t-14 71h-90l-21 14q-10 -10 -25.5 -16.5t-27.5 -1.5l-8 -17h-103l-10 19q-43 4 -84 9t-82 13 q-12 66 -18 113t0 114q18 18 22 51t9.5 66t18.5 58.5t50 29.5l8 17l51 16l95 -39l14 2q10 -27 24.5 -50.5t30.5 -45.5h11l53 -35h33l30 23h15l39 26v103q-29 33 -38.5 45t-18.5 18t-25.5 12.5t-59.5 26.5l-10 16q-43 10 -64.5 13.5t-60.5 -11.5q-16 8 -53 13.5t-77 4.5 t-75 -6t-49 -14q-16 -18 -33.5 -33.5t-33.5 -29.5q-18 16 -38 28.5t-38 26.5h-279l-4 -16l-76 -33l-6 -14q-123 -47 -166 -138.5t-8 -209.5q-16 -31 -29.5 -50.5t-21.5 -39t-10 -44t2 -61.5q-55 -4 -86 -20.5t-47 -71.5zM309 1112v74t8.5 96t23.5 90t46 53q4 2 15.5 4.5 t25.5 4.5t26.5 4t18.5 2v20h162q8 -8 16 -12t19 -8q37 -23 53 -44.5t19 -46t-3 -52t-12 -64.5q-4 -4 -11 -12.5t-16.5 -17.5t-16.5 -17t-7 -10q-4 -12 3 -43t15 -64t11.5 -59.5t-11.5 -30.5q-2 -20 -15 -21.5t-32.5 5t-42 11.5t-45.5 -3q-10 -25 -32.5 -24t-32.5 24 q-16 -2 -17 -21h-119q-18 23 -41 21q-2 14 0 26.5t5 26.5q0 23 -6.5 44.5t-6.5 43.5z" />
<glyph unicode="&#xb0;" horiz-adv-x="620" d="M82 1421q0 -14 5 -38.5t13.5 -50t17.5 -49t17 -36.5l10 -2q14 -29 37 -46t47 -36h90q45 0 93 11q16 16 30 18l31.5 31.5t32.5 31.5q2 16 11 38t15.5 45.5t6.5 43.5q-1 21 -15 35v51q0 12 -15 36t-37.5 47.5t-46.5 42t-38 20.5l-2 10q-8 0 -23.5 2t-32 3t-31.5 0t-22 -5 h-47l-4 -10q-23 -6 -47 -28.5t-45.5 -51.5t-36 -59.5t-14.5 -53.5zM131 1343q-8 27 4 54q16 2 23.5 12t10.5 24.5t4 29t7 24.5q10 16 22.5 27.5t26.5 25.5q10 2 22.5 5t22.5 3v11h58q2 -6 14 -10.5t26.5 -7.5t29 -5t22.5 -4l4 -8q10 2 17.5 -6.5t13.5 -14.5q-2 -4 -6 -16 q4 -14 10 -27.5t10 -27.5q6 -33 6 -54q0 -20 -4 -38.5t-14 -38t-25 -46.5q-16 -6 -24 -18q-10 -4 -22.5 -7t-20.5 -13h-58q0 4 -6 10q-59 0 -89 27.5t-52 76.5q-10 4 -16.5 7t-16.5 5z" />
<glyph unicode="&#xb1;" horiz-adv-x="647" d="M39 1090q10 6 19.5 10t19.5 8q4 12 23.5 42t43 62.5t44 59t26.5 31.5l6 28q29 16 39 44t25 55q2 4 6 10t10 2q2 -10 12.5 -15.5t22.5 -8.5t22.5 -8t14.5 -15q4 -14 7 -28.5t7 -29.5q2 -8 33 -46t69.5 -83t74.5 -84t46 -47q-10 74 -32.5 136.5t-54 122t-67.5 120 t-73 127.5q-8 14 -16.5 30.5t-20.5 28t-27.5 14.5t-39.5 -7q-27 -45 -44.5 -99.5t-31.5 -105.5l-17 -8q-23 -59 -34 -115q-10 -8 -30 -41t-38 -71t-31.5 -72.5t-13.5 -46.5z" />
<glyph unicode="&#xb2;" horiz-adv-x="454" d="M31 111q0 -35 26.5 -63t60.5 -40t68.5 -5t51.5 40q25 -25 31.5 -64.5t0.5 -82.5t-20 -83t-33 -67q-6 -10 -17.5 -16t-21.5 -13.5t-17 -15.5t-7 -23l2 -34h30q8 16 24.5 25t35 17.5l37 17t30.5 22.5q57 59 83 127.5t27 134t-17.5 123t-49 96.5t-71.5 54t-82 -3 q-4 2 -8.5 3t-10.5 -1q-86 -37 -119.5 -76t-33.5 -73z" />
<glyph unicode="&#xb3;" horiz-adv-x="495" d="M55 -385l29 -8q16 12 34.5 16t38 6t38 3t34.5 12q53 29 97.5 73.5t72 100t36.5 117t-5 122.5q-4 16 -14 39t-25.5 42.5t-34 33.5t-39.5 14q-6 0 -13 -2t-15 2q-6 6 -17 7q-74 0 -123 -29t-66 -68t3 -79t86 -60q23 -8 45.5 -6t38.5 18q16 -33 10 -72.5t-24.5 -78.5 t-45 -72t-53.5 -53q-8 -6 -20 -9t-25.5 -7.5t-24 -9.5t-12.5 -17z" />
<glyph unicode="&#xb4;" horiz-adv-x="526" d="M80 1491q0 -33 23.5 -57.5t57.5 -42t69.5 -25.5t62.5 -8q4 0 19.5 6t19.5 8q114 51 114 182q0 41 -31.5 62.5t-68.5 21.5h-117q-12 -23 -36.5 -39t-49 -31.5t-44 -32.5t-19.5 -44zM117 145q0 -45 27.5 -80.5t67.5 -53t81 -11.5t69 47q29 45 29 98h-2q0 152 -5 301.5 t-5 303.5q0 16 -9.5 60t-22.5 92t-28.5 88t-27.5 50q-14 -115 -44 -226.5t-61 -221.5q-29 -111 -49 -221.5t-20 -225.5z" />
<glyph unicode="&#xb5;" d="M57.5 894q1.5 -110 20 -222.5t56.5 -221t97.5 -195.5t144.5 -145.5t197 -72.5l9 -21h69q37 0 72 -16q63 12 123.5 31.5t126.5 23.5q57 41 109.5 95.5t103.5 115t101 124t104 122.5q12 33 27.5 63.5t26.5 63.5t11 66t-20 69q29 86 29.5 171t0.5 173l-28 23 q-4 72 -45 140.5t-102.5 125.5t-134.5 99t-136 61l-8 16l-158 21l-8 16q-27 12 -72 14t-72 -14l-8 -16l-110 -21l-9 -16q-33 -2 -64.5 -7.5t-64.5 -13.5q-25 -35 -62.5 -57.5t-78.5 -32.5q-45 -45 -84 -83t-70.5 -78t-53 -87t-29.5 -114q-12 -90 -10.5 -200zM211 750 q-4 82 1 162.5t22.5 152.5t49 131t81.5 102q20 -29 43.5 -53t37.5 -55l21 8q-14 33 -39 58.5t-45 54.5l12 6q6 55 45 92q12 -49 41 -91t43 -91l21 4q-12 51 -42 94t-42 94l-12 -2q12 10 27.5 18.5t31.5 16.5l12 18l117 23l8 18q20 4 61.5 14.5t84.5 18.5t80.5 7t54.5 -17 q20 2 51 -9.5t62.5 -28.5t60 -36.5t45.5 -32.5q10 -29 25.5 -53t31.5 -49q-55 -16 -119 -16v-23q37 0 70 5t64 14q12 -20 25.5 -39.5t23.5 -42.5q49 -96 73.5 -202t18.5 -212.5t-46 -207.5t-120 -189q-84 -90 -202 -150.5t-237.5 -81t-227 7t-169.5 111.5q-20 27 -43.5 74 t-45 108.5t-38 130t-18.5 138.5zM369 1053q0 -33 18.5 -73t44 -81t51 -80t41.5 -69q12 -23 21.5 -44.5t23 -39t34 -28.5t50.5 -11q43 0 80 15t71 36.5t65.5 46.5t66.5 45q10 6 19.5 12t19.5 11q37 20 81 62t84 92t68.5 102.5t32.5 95.5q4 12 -8 12q-16 4 -29.5 7t-29.5 7 l4 7q-29 20 -70 29.5t-88 13.5q-33 8 -65.5 14t-67.5 6q-51 0 -101 -22q-25 -2 -47 -5.5t-51 -5.5q-31 -2 -85 -9t-106.5 -25.5t-90 -47t-37.5 -73.5zM438 391l123 6l-2 -2q14 -29 33.5 -58.5t44.5 -54t55.5 -41t67.5 -16.5q27 0 46 21.5t34.5 52.5t26 61.5t20.5 49.5l-15 6 q47 6 93.5 14.5t91.5 20.5l-8 20q-16 -4 -33 -8t-33 -8q-6 14 -18.5 40.5t-25.5 53t-26.5 46t-21.5 19.5q-31 0 -60.5 -27.5t-58.5 -61t-56.5 -61.5t-56.5 -28q-14 0 -26 21.5t-22.5 49.5t-17.5 54.5t-7 34.5q0 18 -17 10q-53 -33 -74.5 -82t-23.5 -108l-33 -4v-21z M640 1388.5q1 -59.5 1 -118.5h23q0 59 -1 117.5t11 115.5l-21 4q-14 -59 -13 -118.5zM707 1065q0 47 23.5 80t62.5 51h12q-18 -18 -19 -41q0 -27 13.5 -45t34 -30.5t42 -17.5t39.5 -5q29 0 44.5 14t21.5 34.5t5 45.5t-7 47h14q14 -6 23.5 -16.5t9.5 -28.5q0 -27 -22.5 -64.5 t-54 -72.5t-69.5 -59.5t-69 -24.5q-47 0 -75.5 40t-28.5 93zM772 1335l21 -12q20 31 34.5 55.5t26.5 47t22.5 48t22.5 58.5l-20 8q-12 -33 -22.5 -57.5t-23 -47t-26.5 -46t-35 -54.5zM883 1303l12 -17q53 39 92 68.5t96 64.5l-12 21q-57 -35 -96 -66t-92 -71zM918 1145 q0 18 18 18t18 -18t-18 -19q-18 0 -18 19z" />
<glyph unicode="&#xb6;" horiz-adv-x="999" d="M53 20l8 -38h400q41 0 61.5 -3.5t29.5 5t9 32.5v82q-20 16 -46 18.5t-52 2.5q-25 0 -46.5 2t-33.5 20q-2 14 -3 73.5t-1 141.5t1 174.5t3 171t4 134t6 63.5q33 10 69 1t68 -13l5 -19h131l32 -59q-14 -59 -18 -123.5t-2 -131.5t6 -134.5t8 -128.5q8 -135 2 -213 t-21.5 -122t-40 -64.5t-53 -42t-59.5 -54.5t-59 -100q-12 -29 8 -37t51 -6t63.5 13t47.5 24q59 53 109.5 124.5t90.5 139.5q16 27 27.5 97.5t18 161.5t9.5 194.5t3 197.5v170v113q0 88 -16.5 120.5t-47 34.5t-77 -13t-103.5 -21l-24 -23h-222q-6 8 -10 17.5t-8 19.5 q16 61 17 110.5t0 92.5t-1 80t14.5 72.5t48.5 71.5t99 75q-6 -10 4 -13.5t27 -3.5q18 0 36.5 1t28.5 1l113 -82q14 0 27.5 -4t26 -9t25.5 -8t25 1q23 20 43.5 41.5t30.5 50.5q-8 27 -15 48.5t-28 43.5h-112l-23 15q-86 0 -165 -3.5t-163 -13.5q-96 -72 -141 -142.5 t-62.5 -136t-18.5 -123t-8 -104.5t-32.5 -81.5t-91.5 -53.5l-33 -43l15 -37l122 -20q12 -12 19.5 -64.5t9.5 -125t0 -156.5t-7 -158t-14.5 -130t-19.5 -73l-53 -22l2 -6l-37 -15q-20 -35 -37 -78z" />
<glyph unicode="&#xb7;" horiz-adv-x="598" d="M63 584q0 -35 7.5 -61.5t19.5 -61.5q4 -10 13.5 -20.5t13.5 -22.5q2 -2 9 -9.5t15.5 -14.5t15.5 -13t9 -6q8 -4 31.5 -13.5t29.5 -15.5l4 -6q16 -4 33 -8t35 0q0 6 8 7t19 1q12 0 23 -1t16 -1q10 10 21 12t24 6l6 9q35 6 54 33.5t36 56.5q20 39 25.5 71.5t2 64.5 t-11.5 65.5t-14 76.5q-31 31 -55.5 53.5t-65.5 36.5q-6 12 -26.5 16.5t-43.5 4.5t-44 -2t-29 -2q-12 -10 -23.5 -13.5t-23 -7.5t-23.5 -12t-29 -27q-14 -16 -28.5 -32.5t-26.5 -32.5q-2 -2 -6 -20.5t-9 -41t-8.5 -43t-3.5 -26.5z" />
<glyph unicode="&#xb8;" horiz-adv-x="1224" d="M-98 997l18 -45l27 -4l8 -16l27 -4q20 -35 33.5 -93.5t19.5 -132t6 -155.5t-3 -160t-8 -146.5t-12 -115.5q-25 -16 -45 -39t-39 -47q12 -12 29 -21.5t35 -14.5t35.5 -2t29.5 19h224q10 12 20 26.5t17 31.5l-17 41q-61 33 -82.5 72.5t-21.5 84.5t13 92.5t22.5 92.5t6.5 88 t-36 78l16 51l-16 37l16 49q-20 55 -32.5 132t-11.5 158t18.5 156.5t58.5 130.5q4 63 39 110.5t94 70.5l8 16l70 16l51 -20q6 -18 15.5 -36.5t25.5 -33.5q2 -33 12.5 -58.5t22.5 -50t21.5 -52t9.5 -62.5q0 -8 -8.5 -29.5t-18.5 -46t-19.5 -50t-11.5 -40.5l-41 -33 q-35 -4 -72.5 -8t-62.5 -39v-114l15 8q41 -4 75.5 2t73.5 2q25 -35 33 -62.5t4 -52t-18.5 -49t-34.5 -57.5v-80l37 -21v-112l20 -21q0 -12 2 -42.5t4 -63.5t0 -60.5t-8 -33.5v-93l-18 -22l-86 -19q6 -12 12 -30.5t0 -32.5l20 -21q12 2 35 3q23 0 47.5 -1.5t47 -6.5t32.5 -15 q10 10 33.5 15t51.5 7.5t53.5 1.5t39.5 -4q27 18 51 50q-16 47 -47.5 61t-74.5 29v121q14 16 14 18t-14 16q0 63 5 132t-20 128q27 111 22 222.5t-13.5 223.5t-4.5 226.5t49 231.5q20 10 39 26.5t35 34.5h111q27 -23 61 -37q14 -20 21.5 -48t7.5 -52l37 -31h92l72 53l16 56 q-16 35 -43 64.5t-55 56.5l-31 -3q-8 14 -48 20.5t-89 7.5t-93 -1t-63 -2l-37 -22q-18 0 -39.5 -9.5t-43 -18.5t-39 -15.5t-27.5 -2.5l-25 31q-55 20 -102 34.5t-93 17.5t-95.5 -6t-110.5 -34q-10 -33 -35 -57t-55 -41l-13 -41q-49 -41 -77.5 -100.5t-53.5 -118.5 q14 -55 11 -100t-43 -90l-93 -21z" />
<glyph unicode="&#xb9;" horiz-adv-x="1693" d="M36.5 736.5q16.5 -154.5 110 -308.5t256.5 -328q47 -8 92.5 -18t86.5 -37q8 -4 12 11.5t4 19.5q0 10 -6 22.5t-12 20.5q-47 63 -97.5 114.5t-91.5 126.5q-25 43 -51.5 109t-47 141.5t-32.5 156.5t-9 155.5t25.5 137t69.5 101.5q2 41 33 95.5t76 104.5t97 88t95 50l10 19 q27 8 45.5 16t38 12t41 5t54.5 -3l10 -10q119 -20 195.5 -57t123.5 -86t74 -108.5t48.5 -125t45 -136.5t64.5 -140h88v-33q-16 -20 -32.5 -35.5t-41.5 -25.5l-16 2q-16 -47 -29.5 -82t-1.5 -82l43 -6l-82 -50q-18 -111 -40.5 -169t-58.5 -100t-86 -84t-124 -120l-119 -34 l-8 -21q-63 0 -126 1t-124 7q-6 -8 -8 -20.5t1 -23.5t12 -18t22 -3l26 -47h158q43 -35 95 -45.5t104 -30.5l28 51q4 -33 44 -68.5t100.5 -71.5t132 -69t139.5 -58.5t125 -42t86 -16.5q23 -6 58.5 -9t70.5 -3l8 -12l45 -6l6 -21h105l14 -14q72 -6 134.5 -1t122 17.5 t119.5 27.5t128 28l8 16q31 0 56.5 14.5t49 32.5t48 35.5t55.5 28.5q0 6 4 14t12 12l-92 8q-10 -31 -66.5 -40t-124 -8t-130 6t-88.5 5l-15 15h-147l-6 22h-160l-10 13l-51 6l-9 16q-57 8 -113.5 16.5t-111.5 20.5l-10 16l-127 21l-8 16q-39 14 -78 22.5t-80 14.5l-8 17 q-35 2 -64.5 16t-58.5 29.5t-58.5 26.5t-64.5 5v27q18 31 38.5 59.5t43.5 57.5q141 53 243.5 170.5t154.5 263t47 302.5t-76 290l-19 8q-2 33 -20.5 65.5t-38.5 55.5q-37 16 -67 42.5t-30 69.5q-47 35 -81.5 59.5t-71.5 44t-79 34t-99 26.5l-8 19q-37 6 -90.5 12t-106.5 8 t-102.5 -2t-79.5 -18l-9 -19q-33 -6 -56 -12t-44.5 -15.5t-44 -20.5t-51.5 -25l-12 -29q-23 -23 -54.5 -38t-60.5 -24q-147 -201 -210 -367.5t-46.5 -321z" />
<glyph unicode="&#xba;" d="M57.5 894q1.5 -110 20 -222.5t56.5 -221t97.5 -195.5t144.5 -145.5t197 -72.5l9 -21h69q37 0 72 -16q63 12 123.5 31.5t126.5 23.5q57 41 109.5 95.5t103.5 115t101 124t104 122.5q12 33 27.5 63.5t26.5 63.5t11 66t-20 69q29 86 29.5 171t0.5 173l-28 23 q-4 72 -45 140.5t-102.5 125.5t-134.5 99t-136 61l-8 16l-158 21l-8 16q-27 12 -72 14t-72 -14l-8 -16l-110 -21l-9 -16q-33 -2 -64.5 -7.5t-64.5 -13.5q-25 -35 -62.5 -57.5t-78.5 -32.5q-45 -45 -84 -83t-70.5 -78t-53 -87t-29.5 -114q-12 -90 -10.5 -200zM211 750 q-4 82 1 162.5t22.5 152.5t49 131t81.5 102q20 -29 43.5 -53t37.5 -55l21 8q-14 33 -39 58.5t-45 54.5l12 6q6 55 45 92q12 -49 41 -91t43 -91l21 4q-12 51 -42 94t-42 94l-12 -2q12 10 27.5 18.5t31.5 16.5l12 18l117 23l8 18q20 4 61.5 14.5t84.5 18.5t80.5 7t54.5 -17 q20 2 51 -9.5t62.5 -28.5t60 -36.5t45.5 -32.5q10 -29 25.5 -53t31.5 -49q-55 -16 -119 -16v-23q37 0 70 5t64 14q12 -20 25.5 -39.5t23.5 -42.5q49 -96 73.5 -202t18.5 -212.5t-46 -207.5t-120 -189q-84 -90 -202 -150.5t-237.5 -81t-227 7t-169.5 111.5q-20 27 -43.5 74 t-45 108.5t-38 130t-18.5 138.5zM369 1053q0 -33 18.5 -73t44 -81t51 -80t41.5 -69q12 -23 21.5 -44.5t23 -39t34 -28.5t50.5 -11q43 0 80 15t71 36.5t65.5 46.5t66.5 45q10 6 19.5 12t19.5 11q37 20 81 62t84 92t68.5 102.5t32.5 95.5q4 12 -8 12q-16 4 -29.5 7t-29.5 7 l4 7q-29 20 -70 29.5t-88 13.5q-33 8 -65.5 14t-67.5 6q-51 0 -101 -22q-25 -2 -47 -5.5t-51 -5.5q-31 -2 -85 -9t-106.5 -25.5t-90 -47t-37.5 -73.5zM438 391l123 6l-2 -2q14 -29 33.5 -58.5t44.5 -54t55.5 -41t67.5 -16.5q27 0 46 21.5t34.5 52.5t26 61.5t20.5 49.5l-15 6 q47 6 93.5 14.5t91.5 20.5l-8 20q-16 -4 -33 -8t-33 -8q-6 14 -18.5 40.5t-25.5 53t-26.5 46t-21.5 19.5q-31 0 -60.5 -27.5t-58.5 -61t-56.5 -61.5t-56.5 -28q-14 0 -26 21.5t-22.5 49.5t-17.5 54.5t-7 34.5q0 18 -17 10q-53 -33 -74.5 -82t-23.5 -108l-33 -4v-21z M640 1388.5q1 -59.5 1 -118.5h23q0 59 -1 117.5t11 115.5l-21 4q-14 -59 -13 -118.5zM707 1065q0 47 23.5 80t62.5 51h12q-18 -18 -19 -41q0 -27 13.5 -45t34 -30.5t42 -17.5t39.5 -5q29 0 44.5 14t21.5 34.5t5 45.5t-7 47h14q14 -6 23.5 -16.5t9.5 -28.5q0 -27 -22.5 -64.5 t-54 -72.5t-69.5 -59.5t-69 -24.5q-47 0 -75.5 40t-28.5 93zM772 1335l21 -12q20 31 34.5 55.5t26.5 47t22.5 48t22.5 58.5l-20 8q-12 -33 -22.5 -57.5t-23 -47t-26.5 -46t-35 -54.5zM883 1303l12 -17q53 39 92 68.5t96 64.5l-12 21q-57 -35 -96 -66t-92 -71zM918 1145 q0 18 18 18t18 -18t-18 -19q-18 0 -18 19z" />
<glyph unicode="&#xbb;" horiz-adv-x="1488" d="M57 836q18 0 25.5 -11.5t10.5 -26t4 -27.5t5 -17l138 -172q20 -8 34 -21q10 -4 27.5 -8t35 -10t34 -14.5t22.5 -16.5q39 -4 47.5 -29.5t-2.5 -58.5q-53 -4 -98 -27.5t-96 -40.5q-8 -12 -19.5 -19t-23.5 -15q-16 -12 -23.5 -47t-8.5 -75t1 -74t2 -40h47q8 14 20.5 25.5 t20.5 23.5q18 37 35.5 73t42 64.5t58.5 47t81 22.5q14 18 34.5 20.5t43.5 -0.5q16 10 31.5 19.5t27.5 26.5q35 6 76 18q4 10 13.5 21.5t23.5 15.5l6 29q-14 20 -31 34q-43 8 -87 15.5t-89 17.5l-8 16q-18 4 -36.5 10.5t-39.5 10.5l-8 16q-25 0 -44 8.5t-35.5 20.5t-34 24.5 t-37.5 18.5q-16 37 -33 57.5t-24 38t-1 40t31 61.5q-41 35 -82 38t-92 -16l-25 15v-82zM752 850q18 2 25 -8.5t10.5 -23.5t4.5 -27.5t7 -22.5l135 -172q20 -8 35 -21q23 -6 63.5 -18t57.5 -31q31 -4 46 -31.5t-3 -56.5q-53 -4 -98.5 -26.5t-96.5 -38.5q-8 -14 -18.5 -21.5 t-24.5 -15.5q-18 -12 -24.5 -48t-7.5 -76t1 -73t2 -39h47q8 16 20.5 26.5t20.5 25.5q18 37 37 72.5t43.5 63t57 46t82.5 22.5q12 20 33.5 21.5t43.5 -0.5q16 10 30.5 19.5t27.5 25.5q18 4 37.5 9t39.5 11q4 10 12.5 20.5t22.5 14.5l11 31l-33 33q-43 8 -88 15t-88 19l-9 17 q-18 4 -36.5 10t-40.5 8l-9 17q-39 0 -76.5 27.5t-72.5 45.5q-20 39 -35.5 59.5t-22 38t0 39t28.5 60.5q-25 14 -43 22.5t-36.5 11.5t-41 0t-53.5 -13q-14 4 -24 16v-84z" />
<glyph unicode="&#xbc;" d="M57.5 894q1.5 -110 20 -222.5t56.5 -221t97.5 -195.5t144.5 -145.5t197 -72.5l9 -21h69q37 0 72 -16q63 12 123.5 31.5t126.5 23.5q57 41 109.5 95.5t103.5 115t101 124t104 122.5q12 33 27.5 63.5t26.5 63.5t11 66t-20 69q29 86 29.5 171t0.5 173l-28 23 q-4 72 -45 140.5t-102.5 125.5t-134.5 99t-136 61l-8 16l-158 21l-8 16q-27 12 -72 14t-72 -14l-8 -16l-110 -21l-9 -16q-33 -2 -64.5 -7.5t-64.5 -13.5q-25 -35 -62.5 -57.5t-78.5 -32.5q-45 -45 -84 -83t-70.5 -78t-53 -87t-29.5 -114q-12 -90 -10.5 -200zM211 750 q-4 82 1 162.5t22.5 152.5t49 131t81.5 102q20 -29 43.5 -53t37.5 -55l21 8q-14 33 -39 58.5t-45 54.5l12 6q6 55 45 92q12 -49 41 -91t43 -91l21 4q-12 51 -42 94t-42 94l-12 -2q12 10 27.5 18.5t31.5 16.5l12 18l117 23l8 18q20 4 61.5 14.5t84.5 18.5t80.5 7t54.5 -17 q20 2 51 -9.5t62.5 -28.5t60 -36.5t45.5 -32.5q10 -29 25.5 -53t31.5 -49q-55 -16 -119 -16v-23q37 0 70 5t64 14q12 -20 25.5 -39.5t23.5 -42.5q49 -96 73.5 -202t18.5 -212.5t-46 -207.5t-120 -189q-84 -90 -202 -150.5t-237.5 -81t-227 7t-169.5 111.5q-20 27 -43.5 74 t-45 108.5t-38 130t-18.5 138.5zM369 1053q0 -33 18.5 -73t44 -81t51 -80t41.5 -69q12 -23 21.5 -44.5t23 -39t34 -28.5t50.5 -11q43 0 80 15t71 36.5t65.5 46.5t66.5 45q10 6 19.5 12t19.5 11q37 20 81 62t84 92t68.5 102.5t32.5 95.5q4 12 -8 12q-16 4 -29.5 7t-29.5 7 l4 7q-29 20 -70 29.5t-88 13.5q-33 8 -65.5 14t-67.5 6q-51 0 -101 -22q-25 -2 -47 -5.5t-51 -5.5q-31 -2 -85 -9t-106.5 -25.5t-90 -47t-37.5 -73.5zM438 391l123 6l-2 -2q14 -29 33.5 -58.5t44.5 -54t55.5 -41t67.5 -16.5q27 0 46 21.5t34.5 52.5t26 61.5t20.5 49.5l-15 6 q47 6 93.5 14.5t91.5 20.5l-8 20q-16 -4 -33 -8t-33 -8q-6 14 -18.5 40.5t-25.5 53t-26.5 46t-21.5 19.5q-31 0 -60.5 -27.5t-58.5 -61t-56.5 -61.5t-56.5 -28q-14 0 -26 21.5t-22.5 49.5t-17.5 54.5t-7 34.5q0 18 -17 10q-53 -33 -74.5 -82t-23.5 -108l-33 -4v-21z M640 1388.5q1 -59.5 1 -118.5h23q0 59 -1 117.5t11 115.5l-21 4q-14 -59 -13 -118.5zM707 1065q0 47 23.5 80t62.5 51h12q-18 -18 -19 -41q0 -27 13.5 -45t34 -30.5t42 -17.5t39.5 -5q29 0 44.5 14t21.5 34.5t5 45.5t-7 47h14q14 -6 23.5 -16.5t9.5 -28.5q0 -27 -22.5 -64.5 t-54 -72.5t-69.5 -59.5t-69 -24.5q-47 0 -75.5 40t-28.5 93zM772 1335l21 -12q20 31 34.5 55.5t26.5 47t22.5 48t22.5 58.5l-20 8q-12 -33 -22.5 -57.5t-23 -47t-26.5 -46t-35 -54.5zM883 1303l12 -17q53 39 92 68.5t96 64.5l-12 21q-57 -35 -96 -66t-92 -71zM918 1145 q0 18 18 18t18 -18t-18 -19q-18 0 -18 19z" />
<glyph unicode="&#xbd;" d="M57.5 894q1.5 -110 20 -222.5t56.5 -221t97.5 -195.5t144.5 -145.5t197 -72.5l9 -21h69q37 0 72 -16q63 12 123.5 31.5t126.5 23.5q57 41 109.5 95.5t103.5 115t101 124t104 122.5q12 33 27.5 63.5t26.5 63.5t11 66t-20 69q29 86 29.5 171t0.5 173l-28 23 q-4 72 -45 140.5t-102.5 125.5t-134.5 99t-136 61l-8 16l-158 21l-8 16q-27 12 -72 14t-72 -14l-8 -16l-110 -21l-9 -16q-33 -2 -64.5 -7.5t-64.5 -13.5q-25 -35 -62.5 -57.5t-78.5 -32.5q-45 -45 -84 -83t-70.5 -78t-53 -87t-29.5 -114q-12 -90 -10.5 -200zM211 750 q-4 82 1 162.5t22.5 152.5t49 131t81.5 102q20 -29 43.5 -53t37.5 -55l21 8q-14 33 -39 58.5t-45 54.5l12 6q6 55 45 92q12 -49 41 -91t43 -91l21 4q-12 51 -42 94t-42 94l-12 -2q12 10 27.5 18.5t31.5 16.5l12 18l117 23l8 18q20 4 61.5 14.5t84.5 18.5t80.5 7t54.5 -17 q20 2 51 -9.5t62.5 -28.5t60 -36.5t45.5 -32.5q10 -29 25.5 -53t31.5 -49q-55 -16 -119 -16v-23q37 0 70 5t64 14q12 -20 25.5 -39.5t23.5 -42.5q49 -96 73.5 -202t18.5 -212.5t-46 -207.5t-120 -189q-84 -90 -202 -150.5t-237.5 -81t-227 7t-169.5 111.5q-20 27 -43.5 74 t-45 108.5t-38 130t-18.5 138.5zM369 1053q0 -33 18.5 -73t44 -81t51 -80t41.5 -69q12 -23 21.5 -44.5t23 -39t34 -28.5t50.5 -11q43 0 80 15t71 36.5t65.5 46.5t66.5 45q10 6 19.5 12t19.5 11q37 20 81 62t84 92t68.5 102.5t32.5 95.5q4 12 -8 12q-16 4 -29.5 7t-29.5 7 l4 7q-29 20 -70 29.5t-88 13.5q-33 8 -65.5 14t-67.5 6q-51 0 -101 -22q-25 -2 -47 -5.5t-51 -5.5q-31 -2 -85 -9t-106.5 -25.5t-90 -47t-37.5 -73.5zM438 391l123 6l-2 -2q14 -29 33.5 -58.5t44.5 -54t55.5 -41t67.5 -16.5q27 0 46 21.5t34.5 52.5t26 61.5t20.5 49.5l-15 6 q47 6 93.5 14.5t91.5 20.5l-8 20q-16 -4 -33 -8t-33 -8q-6 14 -18.5 40.5t-25.5 53t-26.5 46t-21.5 19.5q-31 0 -60.5 -27.5t-58.5 -61t-56.5 -61.5t-56.5 -28q-14 0 -26 21.5t-22.5 49.5t-17.5 54.5t-7 34.5q0 18 -17 10q-53 -33 -74.5 -82t-23.5 -108l-33 -4v-21z M640 1388.5q1 -59.5 1 -118.5h23q0 59 -1 117.5t11 115.5l-21 4q-14 -59 -13 -118.5zM707 1065q0 47 23.5 80t62.5 51h12q-18 -18 -19 -41q0 -27 13.5 -45t34 -30.5t42 -17.5t39.5 -5q29 0 44.5 14t21.5 34.5t5 45.5t-7 47h14q14 -6 23.5 -16.5t9.5 -28.5q0 -27 -22.5 -64.5 t-54 -72.5t-69.5 -59.5t-69 -24.5q-47 0 -75.5 40t-28.5 93zM772 1335l21 -12q20 31 34.5 55.5t26.5 47t22.5 48t22.5 58.5l-20 8q-12 -33 -22.5 -57.5t-23 -47t-26.5 -46t-35 -54.5zM883 1303l12 -17q53 39 92 68.5t96 64.5l-12 21q-57 -35 -96 -66t-92 -71zM918 1145 q0 18 18 18t18 -18t-18 -19q-18 0 -18 19z" />
<glyph unicode="&#xbe;" d="M57.5 894q1.5 -110 20 -222.5t56.5 -221t97.5 -195.5t144.5 -145.5t197 -72.5l9 -21h69q37 0 72 -16q63 12 123.5 31.5t126.5 23.5q57 41 109.5 95.5t103.5 115t101 124t104 122.5q12 33 27.5 63.5t26.5 63.5t11 66t-20 69q29 86 29.5 171t0.5 173l-28 23 q-4 72 -45 140.5t-102.5 125.5t-134.5 99t-136 61l-8 16l-158 21l-8 16q-27 12 -72 14t-72 -14l-8 -16l-110 -21l-9 -16q-33 -2 -64.5 -7.5t-64.5 -13.5q-25 -35 -62.5 -57.5t-78.5 -32.5q-45 -45 -84 -83t-70.5 -78t-53 -87t-29.5 -114q-12 -90 -10.5 -200zM211 750 q-4 82 1 162.5t22.5 152.5t49 131t81.5 102q20 -29 43.5 -53t37.5 -55l21 8q-14 33 -39 58.5t-45 54.5l12 6q6 55 45 92q12 -49 41 -91t43 -91l21 4q-12 51 -42 94t-42 94l-12 -2q12 10 27.5 18.5t31.5 16.5l12 18l117 23l8 18q20 4 61.5 14.5t84.5 18.5t80.5 7t54.5 -17 q20 2 51 -9.5t62.5 -28.5t60 -36.5t45.5 -32.5q10 -29 25.5 -53t31.5 -49q-55 -16 -119 -16v-23q37 0 70 5t64 14q12 -20 25.5 -39.5t23.5 -42.5q49 -96 73.5 -202t18.5 -212.5t-46 -207.5t-120 -189q-84 -90 -202 -150.5t-237.5 -81t-227 7t-169.5 111.5q-20 27 -43.5 74 t-45 108.5t-38 130t-18.5 138.5zM369 1053q0 -33 18.5 -73t44 -81t51 -80t41.5 -69q12 -23 21.5 -44.5t23 -39t34 -28.5t50.5 -11q43 0 80 15t71 36.5t65.5 46.5t66.5 45q10 6 19.5 12t19.5 11q37 20 81 62t84 92t68.5 102.5t32.5 95.5q4 12 -8 12q-16 4 -29.5 7t-29.5 7 l4 7q-29 20 -70 29.5t-88 13.5q-33 8 -65.5 14t-67.5 6q-51 0 -101 -22q-25 -2 -47 -5.5t-51 -5.5q-31 -2 -85 -9t-106.5 -25.5t-90 -47t-37.5 -73.5zM438 391l123 6l-2 -2q14 -29 33.5 -58.5t44.5 -54t55.5 -41t67.5 -16.5q27 0 46 21.5t34.5 52.5t26 61.5t20.5 49.5l-15 6 q47 6 93.5 14.5t91.5 20.5l-8 20q-16 -4 -33 -8t-33 -8q-6 14 -18.5 40.5t-25.5 53t-26.5 46t-21.5 19.5q-31 0 -60.5 -27.5t-58.5 -61t-56.5 -61.5t-56.5 -28q-14 0 -26 21.5t-22.5 49.5t-17.5 54.5t-7 34.5q0 18 -17 10q-53 -33 -74.5 -82t-23.5 -108l-33 -4v-21z M640 1388.5q1 -59.5 1 -118.5h23q0 59 -1 117.5t11 115.5l-21 4q-14 -59 -13 -118.5zM707 1065q0 47 23.5 80t62.5 51h12q-18 -18 -19 -41q0 -27 13.5 -45t34 -30.5t42 -17.5t39.5 -5q29 0 44.5 14t21.5 34.5t5 45.5t-7 47h14q14 -6 23.5 -16.5t9.5 -28.5q0 -27 -22.5 -64.5 t-54 -72.5t-69.5 -59.5t-69 -24.5q-47 0 -75.5 40t-28.5 93zM772 1335l21 -12q20 31 34.5 55.5t26.5 47t22.5 48t22.5 58.5l-20 8q-12 -33 -22.5 -57.5t-23 -47t-26.5 -46t-35 -54.5zM883 1303l12 -17q53 39 92 68.5t96 64.5l-12 21q-57 -35 -96 -66t-92 -71zM918 1145 q0 18 18 18t18 -18t-18 -19q-18 0 -18 19z" />
<glyph unicode="&#xbf;" d="M57.5 894q1.5 -110 20 -222.5t56.5 -221t97.5 -195.5t144.5 -145.5t197 -72.5l9 -21h69q37 0 72 -16q63 12 123.5 31.5t126.5 23.5q57 41 109.5 95.5t103.5 115t101 124t104 122.5q12 33 27.5 63.5t26.5 63.5t11 66t-20 69q29 86 29.5 171t0.5 173l-28 23 q-4 72 -45 140.5t-102.5 125.5t-134.5 99t-136 61l-8 16l-158 21l-8 16q-27 12 -72 14t-72 -14l-8 -16l-110 -21l-9 -16q-33 -2 -64.5 -7.5t-64.5 -13.5q-25 -35 -62.5 -57.5t-78.5 -32.5q-45 -45 -84 -83t-70.5 -78t-53 -87t-29.5 -114q-12 -90 -10.5 -200zM211 750 q-4 82 1 162.5t22.5 152.5t49 131t81.5 102q20 -29 43.5 -53t37.5 -55l21 8q-14 33 -39 58.5t-45 54.5l12 6q6 55 45 92q12 -49 41 -91t43 -91l21 4q-12 51 -42 94t-42 94l-12 -2q12 10 27.5 18.5t31.5 16.5l12 18l117 23l8 18q20 4 61.5 14.5t84.5 18.5t80.5 7t54.5 -17 q20 2 51 -9.5t62.5 -28.5t60 -36.5t45.5 -32.5q10 -29 25.5 -53t31.5 -49q-55 -16 -119 -16v-23q37 0 70 5t64 14q12 -20 25.5 -39.5t23.5 -42.5q49 -96 73.5 -202t18.5 -212.5t-46 -207.5t-120 -189q-84 -90 -202 -150.5t-237.5 -81t-227 7t-169.5 111.5q-20 27 -43.5 74 t-45 108.5t-38 130t-18.5 138.5zM369 1053q0 -33 18.5 -73t44 -81t51 -80t41.5 -69q12 -23 21.5 -44.5t23 -39t34 -28.5t50.5 -11q43 0 80 15t71 36.5t65.5 46.5t66.5 45q10 6 19.5 12t19.5 11q37 20 81 62t84 92t68.5 102.5t32.5 95.5q4 12 -8 12q-16 4 -29.5 7t-29.5 7 l4 7q-29 20 -70 29.5t-88 13.5q-33 8 -65.5 14t-67.5 6q-51 0 -101 -22q-25 -2 -47 -5.5t-51 -5.5q-31 -2 -85 -9t-106.5 -25.5t-90 -47t-37.5 -73.5zM438 391l123 6l-2 -2q14 -29 33.5 -58.5t44.5 -54t55.5 -41t67.5 -16.5q27 0 46 21.5t34.5 52.5t26 61.5t20.5 49.5l-15 6 q47 6 93.5 14.5t91.5 20.5l-8 20q-16 -4 -33 -8t-33 -8q-6 14 -18.5 40.5t-25.5 53t-26.5 46t-21.5 19.5q-31 0 -60.5 -27.5t-58.5 -61t-56.5 -61.5t-56.5 -28q-14 0 -26 21.5t-22.5 49.5t-17.5 54.5t-7 34.5q0 18 -17 10q-53 -33 -74.5 -82t-23.5 -108l-33 -4v-21z M640 1388.5q1 -59.5 1 -118.5h23q0 59 -1 117.5t11 115.5l-21 4q-14 -59 -13 -118.5zM707 1065q0 47 23.5 80t62.5 51h12q-18 -18 -19 -41q0 -27 13.5 -45t34 -30.5t42 -17.5t39.5 -5q29 0 44.5 14t21.5 34.5t5 45.5t-7 47h14q14 -6 23.5 -16.5t9.5 -28.5q0 -27 -22.5 -64.5 t-54 -72.5t-69.5 -59.5t-69 -24.5q-47 0 -75.5 40t-28.5 93zM772 1335l21 -12q20 31 34.5 55.5t26.5 47t22.5 48t22.5 58.5l-20 8q-12 -33 -22.5 -57.5t-23 -47t-26.5 -46t-35 -54.5zM883 1303l12 -17q53 39 92 68.5t96 64.5l-12 21q-57 -35 -96 -66t-92 -71zM918 1145 q0 18 18 18t18 -18t-18 -19q-18 0 -18 19z" />
<glyph unicode="&#xc0;" horiz-adv-x="1531" d="M49 72.5q2 -11.5 9.5 -25.5t23.5 -45q25 -4 52.5 -3t43.5 24q16 2 48 3t68 -1t66.5 -8.5t42.5 -18.5l43 4l11 18l82 5q18 23 28 51l-24 53h-117l-10 21l-74 14q-12 33 1 90t40 120.5t57.5 120t48.5 85.5q14 6 32 8t34 4t31.5 8t25.5 21h369q16 -10 37.5 -48t43 -90.5 t39 -112t28 -112.5t9.5 -92t-18 -49q-25 -16 -53.5 -20.5t-56.5 -4.5q-27 0 -49.5 -3t-34.5 -15q-4 -27 3 -50.5t29 -39.5h113l16 14q31 0 71 3t79 3q41 0 78 -4t63 -18l88 18l11 41q-14 33 -43 56.5t-55.5 46t-44 49t-9.5 63.5q-10 16 -17.5 35.5t-13.5 38t-13 37t-21 32.5 q-2 61 -16.5 122t-34 122.5t-39 121.5t-31.5 122q-31 35 -58.5 126t-54.5 199.5t-54.5 215t-60.5 174.5q-41 29 -72.5 18.5t-57 -45.5t-46 -85t-40 -101.5t-38 -95.5t-41.5 -64q-4 -27 -6 -53.5t2 -53.5q-20 -12 -55 -76.5t-78 -156.5t-89 -199.5t-87 -207t-72.5 -178.5 t-46.5 -114q-35 -10 -66.5 -16t-62.5 -22q-4 -35 -6 -51.5t0 -28zM600 745q-10 55 4 120t42 129.5t60.5 126t57.5 112.5h51q18 -35 30.5 -76t33.5 -74q4 -8 13 -13t13 -11q47 -66 63.5 -131.5t16.5 -143.5q-14 -6 -31.5 -14t-25.5 -22q-14 -2 -32.5 -8.5t-38 -10.5t-37 -2 t-29.5 16l-7 -14h-96q-41 0 -88 16z" />
<glyph unicode="&#xc1;" horiz-adv-x="1531" d="M49 72.5q2 -11.5 9.5 -25.5t23.5 -45q25 -4 52.5 -3t43.5 24q16 2 48 3t68 -1t66.5 -8.5t42.5 -18.5l43 4l11 18l82 5q18 23 28 51l-24 53h-117l-10 21l-74 14q-12 33 1 90t40 120.5t57.5 120t48.5 85.5q14 6 32 8t34 4t31.5 8t25.5 21h369q16 -10 37.5 -48t43 -90.5 t39 -112t28 -112.5t9.5 -92t-18 -49q-25 -16 -53.5 -20.5t-56.5 -4.5q-27 0 -49.5 -3t-34.5 -15q-4 -27 3 -50.5t29 -39.5h113l16 14q31 0 71 3t79 3q41 0 78 -4t63 -18l88 18l11 41q-14 33 -43 56.5t-55.5 46t-44 49t-9.5 63.5q-10 16 -17.5 35.5t-13.5 38t-13 37t-21 32.5 q-2 61 -16.5 122t-34 122.5t-39 121.5t-31.5 122q-31 35 -58.5 126t-54.5 199.5t-54.5 215t-60.5 174.5q-41 29 -72.5 18.5t-57 -45.5t-46 -85t-40 -101.5t-38 -95.5t-41.5 -64q-4 -27 -6 -53.5t2 -53.5q-20 -12 -55 -76.5t-78 -156.5t-89 -199.5t-87 -207t-72.5 -178.5 t-46.5 -114q-35 -10 -66.5 -16t-62.5 -22q-4 -35 -6 -51.5t0 -28zM600 745q-10 55 4 120t42 129.5t60.5 126t57.5 112.5h51q18 -35 30.5 -76t33.5 -74q4 -8 13 -13t13 -11q47 -66 63.5 -131.5t16.5 -143.5q-14 -6 -31.5 -14t-25.5 -22q-14 -2 -32.5 -8.5t-38 -10.5t-37 -2 t-29.5 16l-7 -14h-96q-41 0 -88 16zM731 1722l45 -53q35 31 73 54.5t77 47t76.5 48t70.5 57.5l-49 49q-31 -33 -67.5 -57.5t-75.5 -48t-77 -46t-73 -51.5z" />
<glyph unicode="&#xc2;" horiz-adv-x="1531" d="M49 72.5q2 -11.5 9.5 -25.5t23.5 -45q25 -4 52.5 -3t43.5 24q16 2 48 3t68 -1t66.5 -8.5t42.5 -18.5l43 4l11 18l82 5q18 23 28 51l-24 53h-117l-10 21l-74 14q-12 33 1 90t40 120.5t57.5 120t48.5 85.5q14 6 32 8t34 4t31.5 8t25.5 21h369q16 -10 37.5 -48t43 -90.5 t39 -112t28 -112.5t9.5 -92t-18 -49q-25 -16 -53.5 -20.5t-56.5 -4.5q-27 0 -49.5 -3t-34.5 -15q-4 -27 3 -50.5t29 -39.5h113l16 14q31 0 71 3t79 3q41 0 78 -4t63 -18l88 18l11 41q-14 33 -43 56.5t-55.5 46t-44 49t-9.5 63.5q-10 16 -17.5 35.5t-13.5 38t-13 37t-21 32.5 q-2 61 -16.5 122t-34 122.5t-39 121.5t-31.5 122q-31 35 -58.5 126t-54.5 199.5t-54.5 215t-60.5 174.5q-41 29 -72.5 18.5t-57 -45.5t-46 -85t-40 -101.5t-38 -95.5t-41.5 -64q-4 -27 -6 -53.5t2 -53.5q-20 -12 -55 -76.5t-78 -156.5t-89 -199.5t-87 -207t-72.5 -178.5 t-46.5 -114q-35 -10 -66.5 -16t-62.5 -22q-4 -35 -6 -51.5t0 -28zM600 745q-10 55 4 120t42 129.5t60.5 126t57.5 112.5h51q18 -35 30.5 -76t33.5 -74q4 -8 13 -13t13 -11q47 -66 63.5 -131.5t16.5 -143.5q-14 -6 -31.5 -14t-25.5 -22q-14 -2 -32.5 -8.5t-38 -10.5t-37 -2 t-29.5 16l-7 -14h-96q-41 0 -88 16zM616 1696l46 -49q49 43 100 84t94 92q29 -41 70 -74t59 -82l62 25q-10 29 -24.5 49t-31 36.5t-34 32t-35.5 37.5q-8 8 -17.5 26.5t-21 32t-24.5 16.5t-28 -19q-43 -63 -100 -109.5t-115 -97.5z" />
<glyph unicode="&#xc3;" horiz-adv-x="1531" d="M49 72.5q2 -11.5 9.5 -25.5t23.5 -45q25 -4 52.5 -3t43.5 24q16 2 48 3t68 -1t66.5 -8.5t42.5 -18.5l43 4l11 18l82 5q18 23 28 51l-24 53h-117l-10 21l-74 14q-12 33 1 90t40 120.5t57.5 120t48.5 85.5q14 6 32 8t34 4t31.5 8t25.5 21h369q16 -10 37.5 -48t43 -90.5 t39 -112t28 -112.5t9.5 -92t-18 -49q-25 -16 -53.5 -20.5t-56.5 -4.5q-27 0 -49.5 -3t-34.5 -15q-4 -27 3 -50.5t29 -39.5h113l16 14q31 0 71 3t79 3q41 0 78 -4t63 -18l88 18l11 41q-14 33 -43 56.5t-55.5 46t-44 49t-9.5 63.5q-10 16 -17.5 35.5t-13.5 38t-13 37t-21 32.5 q-2 61 -16.5 122t-34 122.5t-39 121.5t-31.5 122q-31 35 -58.5 126t-54.5 199.5t-54.5 215t-60.5 174.5q-41 29 -72.5 18.5t-57 -45.5t-46 -85t-40 -101.5t-38 -95.5t-41.5 -64q-4 -27 -6 -53.5t2 -53.5q-20 -12 -55 -76.5t-78 -156.5t-89 -199.5t-87 -207t-72.5 -178.5 t-46.5 -114q-35 -10 -66.5 -16t-62.5 -22q-4 -35 -6 -51.5t0 -28zM600 745q-10 55 4 120t42 129.5t60.5 126t57.5 112.5h51q18 -35 30.5 -76t33.5 -74q4 -8 13 -13t13 -11q47 -66 63.5 -131.5t16.5 -143.5q-14 -6 -31.5 -14t-25.5 -22q-14 -2 -32.5 -8.5t-38 -10.5t-37 -2 t-29.5 16l-7 -14h-96q-41 0 -88 16z" />
<glyph unicode="&#xc4;" horiz-adv-x="1531" d="M49 72.5q2 -11.5 9.5 -25.5t23.5 -45q25 -4 52.5 -3t43.5 24q16 2 48 3t68 -1t66.5 -8.5t42.5 -18.5l43 4l11 18l82 5q18 23 28 51l-24 53h-117l-10 21l-74 14q-12 33 1 90t40 120.5t57.5 120t48.5 85.5q14 6 32 8t34 4t31.5 8t25.5 21h369q16 -10 37.5 -48t43 -90.5 t39 -112t28 -112.5t9.5 -92t-18 -49q-25 -16 -53.5 -20.5t-56.5 -4.5q-27 0 -49.5 -3t-34.5 -15q-4 -27 3 -50.5t29 -39.5h113l16 14q31 0 71 3t79 3q41 0 78 -4t63 -18l88 18l11 41q-14 33 -43 56.5t-55.5 46t-44 49t-9.5 63.5q-10 16 -17.5 35.5t-13.5 38t-13 37t-21 32.5 q-2 61 -16.5 122t-34 122.5t-39 121.5t-31.5 122q-31 35 -58.5 126t-54.5 199.5t-54.5 215t-60.5 174.5q-41 29 -72.5 18.5t-57 -45.5t-46 -85t-40 -101.5t-38 -95.5t-41.5 -64q-4 -27 -6 -53.5t2 -53.5q-20 -12 -55 -76.5t-78 -156.5t-89 -199.5t-87 -207t-72.5 -178.5 t-46.5 -114q-35 -10 -66.5 -16t-62.5 -22q-4 -35 -6 -51.5t0 -28zM470 1916q5 -52 49 -95t138 -43q39 0 62.5 30.5t23.5 65.5q0 16 5.5 35t7.5 35q2 10 -7.5 18t-9.5 18q2 33 -17.5 52.5t-48 29t-61.5 9.5q-31 0 -53 -7l10 4q-49 -8 -76.5 -54t-22.5 -98zM600 745 q-10 55 4 120t42 129.5t60.5 126t57.5 112.5h51q18 -35 30.5 -76t33.5 -74q4 -8 13 -13t13 -11q47 -66 63.5 -131.5t16.5 -143.5q-14 -6 -31.5 -14t-25.5 -22q-14 -2 -32.5 -8.5t-38 -10.5t-37 -2t-29.5 16l-7 -14h-96q-41 0 -88 16zM943 1916q5 -52 49 -95t138 -43 q39 0 63 30.5t24 65.5q0 16 5 35t7 35q2 10 -7.5 18t-9.5 18q2 33 -17 52.5t-48 29t-62 9.5q-31 0 -53 -7l10 4q-49 -8 -76.5 -54t-22.5 -98z" />
<glyph unicode="&#xc5;" horiz-adv-x="1531" d="M49 72.5q2 -11.5 9.5 -25.5t23.5 -45q25 -4 52.5 -3t43.5 24q16 2 48 3t68 -1t66.5 -8.5t42.5 -18.5l43 4l11 18l82 5q18 23 28 51l-24 53h-117l-10 21l-74 14q-12 33 1 90t40 120.5t57.5 120t48.5 85.5q14 6 32 8t34 4t31.5 8t25.5 21h369q16 -10 37.5 -48t43 -90.5 t39 -112t28 -112.5t9.5 -92t-18 -49q-25 -16 -53.5 -20.5t-56.5 -4.5q-27 0 -49.5 -3t-34.5 -15q-4 -27 3 -50.5t29 -39.5h113l16 14q31 0 71 3t79 3q41 0 78 -4t63 -18l88 18l11 41q-14 33 -43 56.5t-55.5 46t-44 49t-9.5 63.5q-10 16 -17.5 35.5t-13.5 38t-13 37t-21 32.5 q-2 61 -16.5 122t-34 122.5t-39 121.5t-31.5 122q-31 35 -58.5 126t-54.5 199.5t-54.5 215t-60.5 174.5q-41 29 -72.5 18.5t-57 -45.5t-46 -85t-40 -101.5t-38 -95.5t-41.5 -64q-4 -27 -6 -53.5t2 -53.5q-20 -12 -55 -76.5t-78 -156.5t-89 -199.5t-87 -207t-72.5 -178.5 t-46.5 -114q-35 -10 -66.5 -16t-62.5 -22q-4 -35 -6 -51.5t0 -28zM600 745q-10 55 4 120t42 129.5t60.5 126t57.5 112.5h51q18 -35 30.5 -76t33.5 -74q4 -8 13 -13t13 -11q47 -66 63.5 -131.5t16.5 -143.5q-14 -6 -31.5 -14t-25.5 -22q-14 -2 -32.5 -8.5t-38 -10.5t-37 -2 t-29.5 16l-7 -14h-96q-41 0 -88 16z" />
<glyph unicode="&#xc6;" horiz-adv-x="1914" d="M40 100.5q-1 -16.5 1 -29t9 -25.5t24 -44q25 -4 51.5 -3t44.5 24q16 2 48 3t68 -1t66.5 -8.5t42.5 -18.5l43 4l11 18l81 5l29 51l-27 53h-116l-10 21l-74 14q-8 55 6 112.5t39.5 112.5t56.5 107.5t55 99.5q33 20 59.5 38.5t55.5 47.5h150q18 -25 23 -55.5t3 -64.5 t-7 -67.5t-7 -60.5q12 -6 15 -44t3 -85q0 -45 -2 -88t-2 -57q-33 -14 -53 -19.5t-49 -29.5l-39 2l-27 -15l27 -69q23 -33 52.5 -41t64.5 -19q25 8 49 19.5t51 19.5l64 -22l36 22q12 0 40 -1t57 -1q31 0 57.5 4t36.5 13q23 -8 53.5 -9.5t60 -2.5t55 -6t38.5 -19l39 22h360 q4 16 12.5 32.5t24.5 25.5l4 45l18 10q10 29 24 58t34 54v66l-25 4l-16 19h-35q-8 -10 -22.5 -18.5t-30.5 -6.5q-57 -51 -80 -83t-33 -49.5t-20.5 -23.5t-44.5 -6q-33 0 -101.5 2t-197.5 2l-17 15h-184l-35 45l-10 499l92 11q18 -18 42 -23.5t51.5 -4.5t55 5t54.5 4 q16 -23 28.5 -52.5t18.5 -57.5q4 6 8 0.5t4 -9.5v-100q14 -23 34.5 -44t43.5 -36h51q4 25 -5 45.5t-19 42.5l41 92q-18 39 -16.5 80t1.5 84q0 55 3 126t-11 140l-25 23l-10 33h-49q-12 -29 -18.5 -61.5t-15.5 -65.5t-23.5 -62.5t-40.5 -48.5h-174l-11 15l-65 4 q-14 25 -45 41v462l22 17l4 61q39 20 66 45h272l7 -22q51 0 102 -2t104 -6q2 -25 5.5 -49.5t11.5 -47.5l76 -80h51l16 23q8 63 -9 124.5t-28 123.5l-37 41h-657q-14 20 -44 30.5t-64.5 13.5t-67.5 0t-53 -9q-41 -37 -60.5 -86.5t-35 -100.5t-35 -100t-58.5 -88 q-2 -27 -4 -53.5t2 -53.5q-20 -12 -55 -76.5t-78 -156.5t-89 -199.5t-87 -207t-74 -178.5t-47 -114q-33 -10 -65.5 -16t-63.5 -22q-4 -35 -5 -51.5zM586 877q0 8 10 31.5t24.5 51t28 52t19.5 37.5q4 10 18 40.5t30.5 65.5t32 62.5t21.5 31.5q8 -6 6 -44t-5 -82t-5 -81.5 t4 -44.5q10 0 10 -8q0 -6 -3 -15t-7 -19.5t-4 -16.5q2 -8 11 -15.5t9 -13.5v-84v-12l-4 -6q-2 2 -24 2h-47h-49h-29q-10 0 -18.5 4t-18.5 6q-2 14 -6 28.5t-4 29.5z" />
<glyph unicode="&#xc7;" horiz-adv-x="1439" d="M53 963q0 -104 5 -199.5t16 -196.5l24 -18q4 -49 22.5 -87t41 -71t46 -65.5t38.5 -71.5l-4 -10h41q10 -45 35.5 -69.5t68.5 -43.5l8 -18q33 -4 65 -16.5t54 -37.5l80 -22q0 -4 4 -17q2 -12 12.5 -17t22.5 -9t24.5 -8t22.5 -11q23 -18 49.5 -52t46 -73.5t25.5 -79.5 t-10 -71q-18 16 -40 18t-44 -6q-63 -20 -84 -60t-7.5 -79t56.5 -67.5t104 -28.5q10 0 23.5 -1t23.5 9q59 4 92 35.5t50 91.5q14 55 7 112.5t-32 109.5t-62.5 97t-82.5 76q47 8 89 9t95 1l41 27q49 -2 77.5 2t50 13.5t45.5 23.5t64 33q14 35 34 67.5t38.5 66.5t30.5 69.5 t12 72.5h-78q-20 -27 -40.5 -52.5t-39.5 -53.5q-16 -2 -52 -25.5t-79 -52.5t-88 -52.5t-77 -25.5l-9 -16q-49 -8 -87 -13.5t-103 -5.5l-14 15h-97l-90 116l-67 21q-10 12 -35 52t-51.5 83t-47 77t-22.5 34v213q-6 12 -9 15t-3 5q0 4 3 9t11 18q-12 51 -7 83.5t9 84.5l18 10 q10 53 20.5 107.5t16.5 109.5q2 2 31 42t66.5 91t75.5 100.5t59 67.5q63 -4 92 57q12 -2 35.5 -3t50.5 1t50.5 7.5t33.5 17.5q43 -23 95 -27t101 -12l11 -19q41 -23 72.5 -52t70.5 -52q4 -20 23.5 -39.5t38.5 -30.5l20 -67l74 -45l32 41v112q-31 47 -31.5 91.5t-0.5 99.5 q-25 29 -41 55h-66q-12 -25 -45 -39q-39 10 -65 37q-45 4 -70 39q-111 27 -222.5 22.5t-223.5 -4.5q-49 -31 -100.5 -59.5t-104.5 -52.5l-8 -19q-100 -29 -129 -129q-53 -43 -85 -82t-51.5 -83t-31 -95t-21.5 -117z" />
<glyph unicode="&#xc8;" horiz-adv-x="1353" d="M41 1569q6 -29 10 -52.5t-8 -52.5h123q18 -23 34.5 -42t32.5 -44q-4 -23 -6 -47t-6 -47q-4 4 -8 0t-4 -8v-272l16 -13l-16 -53q12 -25 15 -90.5t0 -142t-8 -151.5t-7 -120q12 -6 15 -44t3 -85q0 -45 -2 -88t-2 -57q-16 -6 -29.5 -10.5t-24.5 -9.5t-22.5 -11t-25.5 -18 l-39 2l-27 -15q16 -39 23.5 -58.5t19 -30.5t33 -19t68.5 -21q25 8 49 19.5t51 19.5l66 -22l34 22q12 0 40 -1t57 -1q31 0 57.5 4t36.5 13q23 -8 53.5 -9.5t60 -2.5t55 -6t38.5 -19l39 22h362q2 16 10.5 33.5t24.5 24.5l6 45l16 10q10 29 24 58t34 54v66l-25 4l-16 19h-35 q-8 -10 -22.5 -18.5t-30.5 -6.5q-53 -51 -76 -82t-36 -48t-26.5 -23.5t-49 -7.5t-103.5 1t-186 2l-17 15h-184q-14 25 -43 45v544h108q14 -29 35 -40t45.5 -14t51 -1t53.5 2q16 -29 26.5 -53.5t20.5 -56.5q4 6 8 0.5t4 -9.5v-100q0 -10 9.5 -21.5t22.5 -21.5t26.5 -19.5 t19.5 -17.5h51q4 25 -5 45.5t-19 42.5q8 25 20 46.5t21 45.5q-18 39 -16.5 80t1.5 84q0 53 2 126t-8 140q-12 8 -22.5 23.5t-14.5 32.5h-49q-12 -29 -18.5 -61.5t-15.5 -65.5t-23.5 -62.5t-40.5 -48.5h-174l-11 15l-65 4q-14 25 -45 41v462l22 17l4 61q39 20 66 45h272 l6 -22q51 0 102.5 -2t104.5 -6l17 -97l78 -80h49l16 23q0 72 -12 126t-25 122l-35 41h-659q-12 18 -31.5 27.5t-41 11.5t-44 1t-43.5 -1l-14 -15h-213zM489 1925q27 -8 63 -26.5t69.5 -41t62.5 -48t41 -48.5l57 33q-18 31 -51 61.5t-73 57t-78.5 47t-69.5 31.5z" />
<glyph unicode="&#xc9;" horiz-adv-x="1353" d="M41 1569q6 -29 10 -52.5t-8 -52.5h123q18 -23 34.5 -42t32.5 -44q-4 -23 -6 -47t-6 -47q-4 4 -8 0t-4 -8v-272l16 -13l-16 -53q12 -25 15 -90.5t0 -142t-8 -151.5t-7 -120q12 -6 15 -44t3 -85q0 -45 -2 -88t-2 -57q-16 -6 -29.5 -10.5t-24.5 -9.5t-22.5 -11t-25.5 -18 l-39 2l-27 -15q16 -39 23.5 -58.5t19 -30.5t33 -19t68.5 -21q25 8 49 19.5t51 19.5l66 -22l34 22q12 0 40 -1t57 -1q31 0 57.5 4t36.5 13q23 -8 53.5 -9.5t60 -2.5t55 -6t38.5 -19l39 22h362q2 16 10.5 33.5t24.5 24.5l6 45l16 10q10 29 24 58t34 54v66l-25 4l-16 19h-35 q-8 -10 -22.5 -18.5t-30.5 -6.5q-53 -51 -76 -82t-36 -48t-26.5 -23.5t-49 -7.5t-103.5 1t-186 2l-17 15h-184q-14 25 -43 45v544h108q14 -29 35 -40t45.5 -14t51 -1t53.5 2q16 -29 26.5 -53.5t20.5 -56.5q4 6 8 0.5t4 -9.5v-100q0 -10 9.5 -21.5t22.5 -21.5t26.5 -19.5 t19.5 -17.5h51q4 25 -5 45.5t-19 42.5q8 25 20 46.5t21 45.5q-18 39 -16.5 80t1.5 84q0 53 2 126t-8 140q-12 8 -22.5 23.5t-14.5 32.5h-49q-12 -29 -18.5 -61.5t-15.5 -65.5t-23.5 -62.5t-40.5 -48.5h-174l-11 15l-65 4q-14 25 -45 41v462l22 17l4 61q39 20 66 45h272 l6 -22q51 0 102.5 -2t104.5 -6l17 -97l78 -80h49l16 23q0 72 -12 126t-25 122l-35 41h-659q-12 18 -31.5 27.5t-41 11.5t-44 1t-43.5 -1l-14 -15h-213z" />
<glyph unicode="&#xca;" horiz-adv-x="1353" d="M41 1569q6 -29 10 -52.5t-8 -52.5h123q18 -23 34.5 -42t32.5 -44q-4 -23 -6 -47t-6 -47q-4 4 -8 0t-4 -8v-272l16 -13l-16 -53q12 -25 15 -90.5t0 -142t-8 -151.5t-7 -120q12 -6 15 -44t3 -85q0 -45 -2 -88t-2 -57q-16 -6 -29.5 -10.5t-24.5 -9.5t-22.5 -11t-25.5 -18 l-39 2l-27 -15q16 -39 23.5 -58.5t19 -30.5t33 -19t68.5 -21q25 8 49 19.5t51 19.5l66 -22l34 22q12 0 40 -1t57 -1q31 0 57.5 4t36.5 13q23 -8 53.5 -9.5t60 -2.5t55 -6t38.5 -19l39 22h362q2 16 10.5 33.5t24.5 24.5l6 45l16 10q10 29 24 58t34 54v66l-25 4l-16 19h-35 q-8 -10 -22.5 -18.5t-30.5 -6.5q-53 -51 -76 -82t-36 -48t-26.5 -23.5t-49 -7.5t-103.5 1t-186 2l-17 15h-184q-14 25 -43 45v544h108q14 -29 35 -40t45.5 -14t51 -1t53.5 2q16 -29 26.5 -53.5t20.5 -56.5q4 6 8 0.5t4 -9.5v-100q0 -10 9.5 -21.5t22.5 -21.5t26.5 -19.5 t19.5 -17.5h51q4 25 -5 45.5t-19 42.5q8 25 20 46.5t21 45.5q-18 39 -16.5 80t1.5 84q0 53 2 126t-8 140q-12 8 -22.5 23.5t-14.5 32.5h-49q-12 -29 -18.5 -61.5t-15.5 -65.5t-23.5 -62.5t-40.5 -48.5h-174l-11 15l-65 4q-14 25 -45 41v462l22 17l4 61q39 20 66 45h272 l6 -22q51 0 102.5 -2t104.5 -6l17 -97l78 -80h49l16 23q0 72 -12 126t-25 122l-35 41h-659q-12 18 -31.5 27.5t-41 11.5t-44 1t-43.5 -1l-14 -15h-213zM395 1729l45 -50q47 41 89 98.5t77 114.5q31 -27 58.5 -54.5t60.5 -53.5q8 -8 23.5 -16.5t30 -17.5t26.5 -19.5t14 -22.5 l66 8q-4 31 -19.5 49.5t-34.5 30.5q-25 14 -40 24.5t-28 20.5t-27.5 23.5t-37.5 36.5q-8 8 -25.5 24.5t-36 30.5t-36.5 18t-31 -14q-39 -63 -83 -127t-91 -104z" />
<glyph unicode="&#xcb;" horiz-adv-x="1353" d="M41 1569q6 -29 10 -52.5t-8 -52.5h123q18 -23 34.5 -42t32.5 -44q-4 -23 -6 -47t-6 -47q-4 4 -8 0t-4 -8v-272l16 -13l-16 -53q12 -25 15 -90.5t0 -142t-8 -151.5t-7 -120q12 -6 15 -44t3 -85q0 -45 -2 -88t-2 -57q-16 -6 -29.5 -10.5t-24.5 -9.5t-22.5 -11t-25.5 -18 l-39 2l-27 -15q16 -39 23.5 -58.5t19 -30.5t33 -19t68.5 -21q25 8 49 19.5t51 19.5l66 -22l34 22q12 0 40 -1t57 -1q31 0 57.5 4t36.5 13q23 -8 53.5 -9.5t60 -2.5t55 -6t38.5 -19l39 22h362q2 16 10.5 33.5t24.5 24.5l6 45l16 10q10 29 24 58t34 54v66l-25 4l-16 19h-35 q-8 -10 -22.5 -18.5t-30.5 -6.5q-53 -51 -76 -82t-36 -48t-26.5 -23.5t-49 -7.5t-103.5 1t-186 2l-17 15h-184q-14 25 -43 45v544h108q14 -29 35 -40t45.5 -14t51 -1t53.5 2q16 -29 26.5 -53.5t20.5 -56.5q4 6 8 0.5t4 -9.5v-100q0 -10 9.5 -21.5t22.5 -21.5t26.5 -19.5 t19.5 -17.5h51q4 25 -5 45.5t-19 42.5q8 25 20 46.5t21 45.5q-18 39 -16.5 80t1.5 84q0 53 2 126t-8 140q-12 8 -22.5 23.5t-14.5 32.5h-49q-12 -29 -18.5 -61.5t-15.5 -65.5t-23.5 -62.5t-40.5 -48.5h-174l-11 15l-65 4q-14 25 -45 41v462l22 17l4 61q39 20 66 45h272 l6 -22q51 0 102.5 -2t104.5 -6l17 -97l78 -80h49l16 23q0 72 -12 126t-25 122l-35 41h-659q-12 18 -31.5 27.5t-41 11.5t-44 1t-43.5 -1l-14 -15h-213zM545 1788l41 -53q39 29 80.5 67.5t78.5 73.5l-49 49q-35 -35 -75.5 -71.5t-75.5 -65.5zM760 1778l20 -66 q41 12 67.5 30.5t48.5 38t42 41t49 44.5l-41 53q-25 -18 -45 -38.5t-40.5 -40t-44 -36t-56.5 -26.5z" />
<glyph unicode="&#xcc;" horiz-adv-x="798" d="M61 512q8 -10 15.5 -18.5t15.5 -16.5q45 -8 89 -15t87 -18l8 -18q18 -4 37 -9t39 -9l10 -17q23 0 42.5 -8t36 -20.5t34 -24.5t37.5 -19q18 -37 34.5 -57t22.5 -38.5t1 -41t-27 -61.5q25 -14 42 -23.5t34.5 -12.5t39 1t56.5 14l22 -14v82q-18 -2 -25 8t-9.5 24.5 t-2.5 28.5t-6 21l-135 172q-10 4 -19.5 8t-15.5 12q-10 2 -27.5 7.5t-36 11.5t-34.5 13t-23 18q-39 4 -48 29.5t1 58.5q53 4 99.5 26.5t97.5 38.5q6 16 18.5 24.5t24.5 19.5t21.5 28.5t9.5 50.5v150h-47q-25 -39 -49.5 -82t-54.5 -81t-67.5 -63.5t-89.5 -29.5 q-14 -18 -34.5 -20.5t-42.5 -0.5q-16 -10 -32.5 -19.5t-27.5 -25.5q-18 -4 -37.5 -9t-38.5 -12q-4 -10 -13 -20t-21 -14z" />
<glyph unicode="&#xcd;" horiz-adv-x="755" d="M65.5 1605.5q-18.5 -22.5 10.5 -73.5q18 -12 37.5 -17.5t38 -7.5t38 -5t39.5 -13q10 -27 39 -45v-518q2 4 8.5 5t6.5 -7v-414q4 4 10 5t6 -7q0 -43 5 -96.5t5 -106.5t-9 -103t-38 -89q-29 -2 -55.5 -7.5t-52.5 -13.5q-12 -16 -21 -45q4 -8 7 -16t10 -15q49 -4 90 -4 q43 0 84 1t84 2t94 1l16 -16h100l25 16v37q-29 29 -55.5 52.5t-61.5 48.5v159l-16 15v141l-25 23v200l17 10l6 11l-23 6v160l25 34q-23 55 -24 101.5t-1 107.5l25 27l-25 55l23 41l-23 17q8 12 11.5 18t3.5 10t-4 10.5t-11 20.5l21 25q4 27 7 52t11 52q39 16 78 16 q16 23 43.5 43.5t50.5 36.5v51q-4 2 -8 2h-8l-23 23q-16 4 -39.5 -4t-35.5 -19q-10 14 -48 19.5t-84.5 6.5t-88.5 -1t-58 -2l-24 16q-29 0 -74 3.5t-83 -5t-56.5 -31zM244 1776l53 -45q27 31 57.5 55t61 49t60 51.5t52.5 61.5l-57 37q-23 -33 -51.5 -58.5t-59 -49.5 t-61.5 -48.5t-55 -52.5z" />
<glyph unicode="&#xce;" horiz-adv-x="755" d="M65.5 1605.5q-18.5 -22.5 10.5 -73.5q18 -12 37.5 -17.5t38 -7.5t38 -5t39.5 -13q10 -27 39 -45v-518q2 4 8.5 5t6.5 -7v-414q4 4 10 5t6 -7q0 -43 5 -96.5t5 -106.5t-9 -103t-38 -89q-29 -2 -55.5 -7.5t-52.5 -13.5q-12 -16 -21 -45q4 -8 7 -16t10 -15q49 -4 90 -4 q43 0 84 1t84 2t94 1l16 -16h100l25 16v37q-29 29 -55.5 52.5t-61.5 48.5v159l-16 15v141l-25 23v200l17 10l6 11l-23 6v160l25 34q-23 55 -24 101.5t-1 107.5l25 27l-25 55l23 41l-23 17q8 12 11.5 18t3.5 10t-4 10.5t-11 20.5l21 25q4 27 7 52t11 52q39 16 78 16 q16 23 43.5 43.5t50.5 36.5v51q-4 2 -8 2h-8l-23 23q-16 4 -39.5 -4t-35.5 -19q-10 14 -48 19.5t-84.5 6.5t-88.5 -1t-58 -2l-24 16q-29 0 -74 3.5t-83 -5t-56.5 -31zM139 1810l49 -49q51 53 98.5 89t100.5 71q8 -12 23.5 -30.5t31 -40t26.5 -41t15 -31.5l66 16 q-4 20 -19.5 46t-36 52.5t-40 51t-33.5 43.5q-8 10 -21.5 12t-23.5 -4q-63 -41 -117.5 -82t-118.5 -103z" />
<glyph unicode="&#xcf;" horiz-adv-x="755" d="M65.5 1605.5q-18.5 -22.5 10.5 -73.5q18 -12 37.5 -17.5t38 -7.5t38 -5t39.5 -13q10 -27 39 -45v-518q2 4 8.5 5t6.5 -7v-414q4 4 10 5t6 -7q0 -43 5 -96.5t5 -106.5t-9 -103t-38 -89q-29 -2 -55.5 -7.5t-52.5 -13.5q-12 -16 -21 -45q4 -8 7 -16t10 -15q49 -4 90 -4 q43 0 84 1t84 2t94 1l16 -16h100l25 16v37q-29 29 -55.5 52.5t-61.5 48.5v159l-16 15v141l-25 23v200l17 10l6 11l-23 6v160l25 34q-23 55 -24 101.5t-1 107.5l25 27l-25 55l23 41l-23 17q8 12 11.5 18t3.5 10t-4 10.5t-11 20.5l21 25q4 27 7 52t11 52q39 16 78 16 q16 23 43.5 43.5t50.5 36.5v51q-4 2 -8 2h-8l-23 23q-16 4 -39.5 -4t-35.5 -19q-10 14 -48 19.5t-84.5 6.5t-88.5 -1t-58 -2l-24 16q-29 0 -74 3.5t-83 -5t-56.5 -31zM223 1821l45 -54q31 27 58.5 59t54.5 63.5t54.5 61t58.5 52.5l-37 57q-35 -25 -63.5 -55.5t-55.5 -63 t-54.5 -63.5t-60.5 -57zM436 1800l29 -61q43 20 78 41.5t62.5 46t53 56.5t50.5 73l-58 37q-23 -37 -44 -64.5t-45.5 -49t-55.5 -40t-70 -39.5z" />
<glyph unicode="&#xd0;" horiz-adv-x="1820" d="M75 61.5q-3 -28.5 29 -61.5h187l16 14q12 0 47 -3t75 -6t76 -4t48 3q-6 2 -1 6t9 4h193l16 -14h348l17 16h96l6 21q51 2 94 18.5t81 40t75 51t78 52.5q23 47 48 96t38 100q27 10 45 45t27.5 78t11.5 84t-2 66l14 14v301q-33 39 -58.5 90t-51 107.5t-54.5 114t-67 106.5 q-49 18 -90.5 46t-82 56.5t-85 55t-97.5 45.5l-6 18h-250l-14 16h-354l-7 -16l-24 16h-252l-14 -16h-115q-14 -45 -14 -61t9 -22.5t25.5 -11.5t36.5 -30l60 -4l8 -18q39 -8 80 -39q6 -41 -1 -99.5t-14.5 -125t-7.5 -138.5q0 -70 23 -135l-13 -27q-57 -8 -114.5 -4 t-110.5 -14v-66q6 -4 17.5 -15t21.5 -9q6 0 18.5 6t18.5 -2q8 6 27.5 8t43 1t46 -3t34.5 -2q14 -68 22.5 -147.5t9.5 -161.5t-5 -163t-18 -151l-41 -41l-76 -6q6 -4 1 -8t-9 -4h-115q-10 -39 -13 -67.5zM564 1349.5q1 73.5 14 147.5l28 33q41 -4 84 8t90 8l25 17h125v20h43 l6 -20h182l45 -35q8 -20 43 -52t76 -65t82 -61.5t66 -40.5l10 -68l18 -8q18 -39 47 -70q8 -66 4 -128t-13 -123.5t-17.5 -125t-8.5 -129.5l15 -24q-6 -20 -27.5 -59t-47.5 -82t-51.5 -83t-37.5 -65q-29 -12 -52.5 -37.5t-47 -53.5t-48 -53.5t-57.5 -37.5 q-29 -10 -63.5 -15.5t-65.5 -15.5q-12 4 -24 4h-25l-39 -29h-156l-6 21q-39 2 -73.5 11t-69.5 26q-23 45 -31 80t-9 70.5t2 76.5t3 98q-12 16 -17 58.5t-6 90.5t0 94t1 71q23 0 46 3t45.5 5t45 0t43.5 -12l88 6q6 23 6 47q0 27 -12 47l-47 19l-7 -5l15 -14q-12 10 -43 10 t-45 -2q-6 6 -13.5 11.5t-11.5 -9.5q-4 0 -24.5 -3t-43 -6t-40 -2t-17.5 11q6 74 4 146.5t-4 146.5t-1 147.5z" />
<glyph unicode="&#xd1;" horiz-adv-x="1804" d="M53 86l19 -66q27 -12 57 -12h59q31 0 58.5 -5t48.5 -23l43 4l10 18q29 14 61.5 19.5t65.5 5.5q35 0 69 -3.5t64 -3.5l17 58q-10 27 -23.5 36t-30 13t-34 7t-33.5 16l-86 6q-18 27 -24.5 76t-4.5 103t8 101t17 72q-6 20 -7 69.5t4 111t13 130t20.5 129t26.5 103.5t31 57 q33 -41 76 -79t57 -89q37 -29 67.5 -65.5t58 -74.5t56.5 -73t64 -57q12 -29 50 -84.5t89 -123t109.5 -139t112.5 -133t99 -104.5t70 -51q16 6 33.5 17t32.5 24q-2 41 -6.5 105.5t-6.5 132t0 127t15 94.5q-6 14 -9.5 22t-4.5 13t2 11.5t12 20.5q0 82 2 157t7 146.5t11 143 t17 149.5l-13 25q6 49 9.5 99t5.5 101q-23 20 -14 37t20 37q16 0 34.5 6t28.5 19l86 -39l78 41l-88 92h-465l-16 -62l18 -14l84 -4q4 -4 1 -8t9 -6h107q6 -16 10 -26.5t7 -20t4 -19.5t-1 -26l-2 4q-8 -66 -9 -133.5t-3 -133.5l-23 -6v-278l-16 -21q0 -72 1 -133t-23 -127 l22 -67q-10 -35 -22.5 -70t-20.5 -70q-76 127 -106 264q-70 4 -95.5 45t-40.5 103q-8 6 -29.5 30.5t-44 52.5t-40 51.5t-19.5 29.5q-16 10 -36.5 31.5t-18.5 44.5l-49 43q0 8 -25.5 48t-64.5 94t-86 116.5t-90 118t-77 96.5t-46 51q-4 0 -16.5 1t-26 3t-24.5 1t-13 -3h-266 l-41 -41v-76l39 -39q18 0 41.5 2t48 1t46 -6t34.5 -19l-37 -1184q-4 -29 -9.5 -57.5t-33.5 -44.5h-146l10 -13zM1503 1221v2v-2z" />
<glyph unicode="&#xd2;" horiz-adv-x="1636" d="M81 896.5q-13 -105.5 13.5 -212t85 -210t136 -189.5t168.5 -151.5t182 -96.5l8 -21h74t67 -16q66 12 125 31.5t125 23.5l131 92l12 -2q23 20 36 29.5t22.5 17t17.5 20.5t23 44q27 14 55.5 42t55 61.5t48 68.5t31.5 64q-4 2 -8 9t-6 11q12 33 27.5 63.5t31.5 59.5 q2 12 3 30.5t-1 39t-5 40t-11 29.5q29 90 30 169t1 175l-29 23q-2 74 -44 142.5t-104.5 124.5t-135 98t-134.5 61l-8 16l-158 21l-8 16l-82 18l-61 -18l-9 -16l-110 -21l-8 -16q-33 -2 -65 -7.5t-64 -13.5q-25 -35 -62 -57.5t-80 -32.5q-37 -39 -79 -79t-77.5 -84t-58 -93 t-22.5 -106q-66 -92 -79 -197.5zM363.5 756q-1.5 45 15.5 61q0 39 6 106.5t22.5 137t44 128t68.5 79.5q8 47 33 73.5t68 44.5l10 17q27 4 53.5 9t50.5 11l6 17q23 4 60 13t74.5 15.5t70.5 6.5t45 -15q20 2 38 -4t35 -16t33.5 -20.5t35.5 -16.5q20 -35 53 -37q25 -61 54 -98 t52 -84q47 -96 48 -192.5t-19.5 -191.5t-51 -191.5t-44.5 -190.5q-49 -55 -97.5 -103.5t-101.5 -78t-115.5 -33.5t-138.5 26q8 -12 13.5 -23t-5.5 1q-31 0 -53 13t-40.5 26.5t-38 23t-44.5 0.5q-35 10 -69.5 49t-64.5 94.5t-54.5 119t-37.5 121t-14.5 102.5zM739 1747 l45 -53q31 25 67 51.5t73 51t72.5 47.5t64.5 46l-41 54q-59 -43 -138 -94.5t-143 -102.5zM756 236q12 -5 16 -7q-4 8 -9 12.5t-7 -5.5z" />
<glyph unicode="&#xd3;" horiz-adv-x="1636" d="M81 896.5q-13 -105.5 13.5 -212t85 -210t136 -189.5t168.5 -151.5t182 -96.5l8 -21h74t67 -16q66 12 125 31.5t125 23.5l131 92l12 -2q23 20 36 29.5t22.5 17t17.5 20.5t23 44q27 14 55.5 42t55 61.5t48 68.5t31.5 64q-4 2 -8 9t-6 11q12 33 27.5 63.5t31.5 59.5 q2 12 3 30.5t-1 39t-5 40t-11 29.5q29 90 30 169t1 175l-29 23q-2 74 -44 142.5t-104.5 124.5t-135 98t-134.5 61l-8 16l-158 21l-8 16l-82 18l-61 -18l-9 -16l-110 -21l-8 -16q-33 -2 -65 -7.5t-64 -13.5q-25 -35 -62 -57.5t-80 -32.5q-37 -39 -79 -79t-77.5 -84t-58 -93 t-22.5 -106q-66 -92 -79 -197.5zM363.5 756q-1.5 45 15.5 61q0 39 6 106.5t22.5 137t44 128t68.5 79.5q8 47 33 73.5t68 44.5l10 17q27 4 53.5 9t50.5 11l6 17q23 4 60 13t74.5 15.5t70.5 6.5t45 -15q20 2 38 -4t35 -16t33.5 -20.5t35.5 -16.5q20 -35 53 -37q25 -61 54 -98 t52 -84q47 -96 48 -192.5t-19.5 -191.5t-51 -191.5t-44.5 -190.5q-49 -55 -97.5 -103.5t-101.5 -78t-115.5 -33.5t-138.5 26q8 -12 13.5 -23t-5.5 1q-31 0 -53 13t-40.5 26.5t-38 23t-44.5 0.5q-35 10 -69.5 49t-64.5 94.5t-54.5 119t-37.5 121t-14.5 102.5zM709 1796 l41 -53q31 23 62.5 56.5t62 67.5t62 63.5t62.5 45.5l-32 62q-37 -20 -70 -51t-63.5 -65t-61.5 -67.5t-63 -58.5zM756 236q12 -5 16 -7q-4 8 -9 12.5t-7 -5.5z" />
<glyph unicode="&#xd4;" horiz-adv-x="1636" d="M81 896.5q-13 -105.5 13.5 -212t85 -210t136 -189.5t168.5 -151.5t182 -96.5l8 -21h74t67 -16q66 12 125 31.5t125 23.5l131 92l12 -2q23 20 36 29.5t22.5 17t17.5 20.5t23 44q27 14 55.5 42t55 61.5t48 68.5t31.5 64q-4 2 -8 9t-6 11q12 33 27.5 63.5t31.5 59.5 q2 12 3 30.5t-1 39t-5 40t-11 29.5q29 90 30 169t1 175l-29 23q-2 74 -44 142.5t-104.5 124.5t-135 98t-134.5 61l-8 16l-158 21l-8 16l-82 18l-61 -18l-9 -16l-110 -21l-8 -16q-33 -2 -65 -7.5t-64 -13.5q-25 -35 -62 -57.5t-80 -32.5q-37 -39 -79 -79t-77.5 -84t-58 -93 t-22.5 -106q-66 -92 -79 -197.5zM363.5 756q-1.5 45 15.5 61q0 39 6 106.5t22.5 137t44 128t68.5 79.5q8 47 33 73.5t68 44.5l10 17q27 4 53.5 9t50.5 11l6 17q23 4 60 13t74.5 15.5t70.5 6.5t45 -15q20 2 38 -4t35 -16t33.5 -20.5t35.5 -16.5q20 -35 53 -37q25 -61 54 -98 t52 -84q47 -96 48 -192.5t-19.5 -191.5t-51 -191.5t-44.5 -190.5q-49 -55 -97.5 -103.5t-101.5 -78t-115.5 -33.5t-138.5 26q8 -12 13.5 -23t-5.5 1q-31 0 -53 13t-40.5 26.5t-38 23t-44.5 0.5q-35 10 -69.5 49t-64.5 94.5t-54.5 119t-37.5 121t-14.5 102.5zM631 1798 l33 -57q49 27 99 68.5t85 88.5q37 -35 76 -70.5t67 -66.5l49 49q-35 35 -83 79t-89 85q-12 12 -27.5 11.5t-25.5 -17.5q-29 -47 -80 -94t-104 -76zM756 236q12 -5 16 -7q-4 8 -9 12.5t-7 -5.5z" />
<glyph unicode="&#xd5;" horiz-adv-x="1329" d="M-31 877q25 -4 39.5 -8.5t24.5 -10.5t18 -17.5t23 -31.5v-160l-21 -4v-33l21 -6q0 -16 -1 -45t-2 -53.5t-4.5 -36.5t-5.5 4l-8 -98q12 -8 17.5 -37t5.5 -66q0 -35 -1 -66.5t-1 -45.5l-35 -51q-33 -16 -68 -41q-4 -29 0 -56l23 -24h299l24 -15l56 17q12 39 12 57t-12 57 q-29 6 -58.5 19.5t-58.5 24.5q-4 68 -10 173t-11.5 226t-7.5 245t1 229t13.5 180t30.5 95q0 27 8.5 62t25 65.5t41 52t59.5 21.5q23 27 54.5 17.5t49.5 -31.5q12 -2 27.5 -4t1.5 -13q20 -39 42.5 -52t63.5 -23q6 -29 -1 -61t-9 -62q-2 -63 0 -114.5t-6 -91.5t-37 -68.5 t-92 -47.5l-33 -43l14 -37l123 -20q12 -12 19.5 -64.5t9.5 -125t0 -155.5t-8.5 -158t-15.5 -130t-19 -74l-51 -22l2 -6l-37 -15q-20 -35 -37 -78l8 -38h399q41 0 61.5 -3.5t30 5t9.5 32.5v82q-20 16 -46 18.5t-52 2.5q-25 0 -46.5 2t-33.5 20q-4 16 -5 77t-1 142 q0 82 2 174.5t4 170t5 132t5 62.5q33 10 68.5 1t68.5 -13l4 -19h131l35 58v59l-55 23l-25 -23h-221q-8 6 -12 16.5t-6 20.5q16 63 18 113.5t-1 92.5t-3 79t14.5 71.5t48 69.5t101.5 76q-6 -10 4 -13.5t27 -3.5q18 0 36.5 1t28.5 1l113 -82q14 0 27.5 -4t25.5 -9t25.5 -8 t25.5 1q23 20 43.5 41.5t30.5 50.5q-8 25 -17.5 48.5t-25.5 43.5h-113l-22 15q-72 0 -125 4t-98.5 0t-88.5 -21.5t-92 -58.5q-25 16 -39 47q-10 4 -18 9t-16 13h-91l-22 15q-23 0 -52.5 -4t-60 -7.5t-58.5 -5.5t-48 2l-4 -2l-23 -24l-39 -10q-2 -4 -10 -13.5t-17.5 -17.5 t-18.5 -14.5t-15 -1.5q-12 -18 -28.5 -43t-34 -49.5t-38 -45t-41.5 -32.5q-8 -70 -22 -138.5t-8 -138.5l-19 -8l-16 -103q-35 -4 -68 -16q-16 -31 -2 -65z" />
<glyph unicode="&#xd6;" horiz-adv-x="1636" d="M81 896.5q-13 -105.5 13.5 -212t85 -210t136 -189.5t168.5 -151.5t182 -96.5l8 -21h74t67 -16q66 12 125 31.5t125 23.5l131 92l12 -2q23 20 36 29.5t22.5 17t17.5 20.5t23 44q27 14 55.5 42t55 61.5t48 68.5t31.5 64q-4 2 -8 9t-6 11q12 33 27.5 63.5t31.5 59.5 q2 12 3 30.5t-1 39t-5 40t-11 29.5q29 90 30 169t1 175l-29 23q-2 74 -44 142.5t-104.5 124.5t-135 98t-134.5 61l-8 16l-158 21l-8 16l-82 18l-61 -18l-9 -16l-110 -21l-8 -16q-33 -2 -65 -7.5t-64 -13.5q-25 -35 -62 -57.5t-80 -32.5q-37 -39 -79 -79t-77.5 -84t-58 -93 t-22.5 -106q-66 -92 -79 -197.5zM358 760q4 41 21 57q0 39 6 106.5t22.5 137t44 128t68.5 79.5q8 47 33 73.5t68 44.5l10 17q27 4 53.5 9t50.5 11l6 17q23 4 60 13t74.5 15.5t70.5 6.5t45 -15q20 2 38 -4t35 -16t33.5 -20.5t35.5 -16.5q20 -35 53 -37q25 -61 54 -98t52 -84 q47 -96 48 -192.5t-19.5 -191.5t-51 -191.5t-44.5 -190.5q-98 -115 -210 -155t-259 -27q-45 4 -77 10t-75 24q-53 23 -94 68t-71.5 99.5t-50 114.5t-27 113.5t-3.5 94.5zM441 1916q5 -52 49.5 -95t138.5 -43q39 0 61.5 30.5t22.5 65.5q0 16 6 35t8 35q0 10 -9 18t-7 18 q2 33 -17.5 52.5t-49.5 29t-62 9.5q-31 0 -54 -7l13 4q-49 -8 -77 -54t-23 -98zM914.5 1916q5.5 -52 49.5 -95t138 -43q39 0 61.5 30.5t22.5 65.5q0 16 6 35t8 35q0 10 -9 18t-7 18q2 33 -17.5 52.5t-49.5 29t-62 9.5q-31 0 -54 -7l13 4q-49 -8 -77 -54t-22.5 -98z" />
<glyph unicode="&#xd7;" horiz-adv-x="970" d="M145 215l39 -43l31 4q10 16 27 27q0 8 29.5 36.5t69.5 63.5t81 69t65 54q25 -29 59 -70t70.5 -84t71.5 -81.5t60 -61.5q20 4 32.5 22.5t20.5 34.5l-15 39l-4 2t-4 -2v-16q-6 20 -16 31.5t-27 27.5q0 4 2 8.5t-2 6.5q-18 4 -45.5 28.5t-38.5 42.5h4q-27 33 -50 64t-48 63 q2 0 2 2q0 4 -4 2q41 31 77 65t77 62q4 23 23.5 37.5t41.5 18.5l51 51q-6 23 -23.5 34t-35.5 19q-10 -4 -19.5 -7t-19.5 -5q-4 -4 2 -8h16q-12 0 -32.5 -17.5t-28.5 -25.5h-14v-13q-18 -20 -33.5 -37.5t-38.5 -33.5v2q-27 -20 -52.5 -43t-53.5 -43h-7q-25 31 -53.5 69.5 t-59 77.5t-64.5 71t-68 48l-41 -37l6 -31q6 -6 13 -12t13 -14q6 -2 36 -33t64 -69t65.5 -74.5t41.5 -51.5q0 -2 -2 -2v-2q-33 -29 -75 -59.5t-82.5 -64t-76.5 -69.5t-57 -73z" />
<glyph unicode="&#xd8;" horiz-adv-x="1636" d="M81 896.5q-13 -105.5 13.5 -212t85 -210t136 -189.5t168.5 -151.5t182 -96.5l8 -21h74t67 -16q66 12 125 31.5t125 23.5l131 92l12 -2q23 20 36 29.5t22.5 17t17.5 20.5t23 44q27 14 55.5 42t55 61.5t48 68.5t31.5 64q-4 2 -8 9t-6 11q12 33 27.5 63.5t31.5 59.5 q2 12 3 30.5t-1 39t-5 40t-11 29.5q29 90 30 169t1 175l-29 23q-2 74 -44 142.5t-104.5 124.5t-135 98t-134.5 61l-8 16l-158 21l-8 16l-82 18l-61 -18l-9 -16l-110 -21l-8 -16q-33 -2 -65 -7.5t-64 -13.5q-25 -35 -62 -57.5t-80 -32.5q-37 -39 -79 -79t-77.5 -84t-58 -93 t-22.5 -106q-66 -92 -79 -197.5zM363.5 756q-1.5 45 15.5 61q0 39 6 106.5t22.5 137t44 128t68.5 79.5q8 47 33 73.5t68 44.5l10 17q27 4 53.5 9t50.5 11l6 17q23 4 60 13t74.5 15.5t70.5 6.5t45 -15q20 2 38 -4t35 -16t33.5 -20.5t35.5 -16.5q20 -35 53 -37q25 -61 54 -98 t52 -84q47 -96 48 -192.5t-19.5 -191.5t-51 -191.5t-44.5 -190.5q-49 -55 -97.5 -103.5t-101.5 -78t-115.5 -33.5t-138.5 26q8 -12 13.5 -23t-5.5 1q-31 0 -53 13t-40.5 26.5t-38 23t-44.5 0.5q-35 10 -69.5 49t-64.5 94.5t-54.5 119t-37.5 121t-14.5 102.5zM756 236 q12 -5 16 -7q-4 8 -9 12.5t-7 -5.5z" />
<glyph unicode="&#xd9;" horiz-adv-x="1802" d="M63 1550l11 -45q33 -10 64.5 -15t64.5 -15q27 -37 31 -98.5t-2.5 -130t-16.5 -133t-10 -107.5l8 -486q0 -68 21.5 -115t51 -85.5t61.5 -76.5t56 -87q61 -35 118 -66t110 -53.5t103 -35.5t97 -11q102 2 185.5 36.5t143 74.5t92.5 73l32 33l37 -14l18 -29 q-10 -12 -14 -31.5t-6 -40t-1 -41t5 -35.5l53 -16q31 14 76 30.5t80 8.5l10 -19q25 -10 40 -14t29.5 -3t30 5t37.5 8q10 39 -4 78q-29 6 -44 8t-26.5 7.5t-23.5 15.5t-35 33q-2 10 -12 46t-21.5 77t-20.5 75.5t-9 40.5q4 100 21.5 204t13.5 206q-4 123 -5.5 241.5t0.5 241.5 l19 10q4 47 15.5 89.5t6.5 93.5l13 18l78 6l6 19q25 2 48.5 11.5t39.5 23.5l-2 61q-10 8 -33 12t-49.5 5t-50 0t-35.5 -1l-15 -16q-59 0 -118.5 -3t-114.5 19l-49 -16l-37 16q-23 -6 -36 -13t-22.5 -16.5t-17.5 -21.5t-22 -31l4 -53h127l30 -20q31 -102 39.5 -216t2 -228.5 t-21.5 -228.5t-30 -216l2 -23q0 -8 3 -29.5t4 -44t-1 -41t-12 -22.5q0 -20 -1 -43.5t-8 -46t-21.5 -39t-39.5 -20.5q-23 -35 -36 -50.5t-26 -24.5t-30.5 -17.5t-48.5 -26.5q-61 2 -114.5 -14.5t-122.5 -16.5q-31 20 -62 53q-53 8 -89 33t-64.5 57.5t-55 69.5t-59.5 70 q-23 86 -28 177t-2 184t11.5 184.5t14.5 177.5q-8 14 -12.5 20t-5.5 9.5t3.5 7.5t10.5 14l-11 172l13 8l53 127l170 45l6 37q-18 8 -37.5 12t-38.5 9l-10 18q-70 6 -135.5 8t-131 0t-132 -4t-135.5 -2q-33 -33 -46 -72zM698 1911q35 -16 79 -41t88 -52.5t82 -56t59 -53.5 l53 41q-25 31 -68 63.5t-91 62.5t-94 55.5t-79 41.5z" />
<glyph unicode="&#xda;" horiz-adv-x="1802" d="M63 1550l11 -45q33 -10 64.5 -15t64.5 -15q27 -37 31 -98.5t-2.5 -130t-16.5 -133t-10 -107.5l8 -486q0 -68 21.5 -115t51 -85.5t61.5 -76.5t56 -87q61 -35 118 -66t110 -53.5t103 -35.5t97 -11q102 2 185.5 36.5t143 74.5t92.5 73l32 33l37 -14l18 -29 q-10 -12 -14 -31.5t-6 -40t-1 -41t5 -35.5l53 -16q31 14 76 30.5t80 8.5l10 -19q25 -10 40 -14t29.5 -3t30 5t37.5 8q10 39 -4 78q-29 6 -44 8t-26.5 7.5t-23.5 15.5t-35 33q-2 10 -12 46t-21.5 77t-20.5 75.5t-9 40.5q4 100 21.5 204t13.5 206q-4 123 -5.5 241.5t0.5 241.5 l19 10q4 47 15.5 89.5t6.5 93.5l13 18l78 6l6 19q25 2 48.5 11.5t39.5 23.5l-2 61q-10 8 -33 12t-49.5 5t-50 0t-35.5 -1l-15 -16q-59 0 -118.5 -3t-114.5 19l-49 -16l-37 16q-23 -6 -36 -13t-22.5 -16.5t-17.5 -21.5t-22 -31l4 -53h127l30 -20q31 -102 39.5 -216t2 -228.5 t-21.5 -228.5t-30 -216l2 -23q0 -8 3 -29.5t4 -44t-1 -41t-12 -22.5q0 -20 -1 -43.5t-8 -46t-21.5 -39t-39.5 -20.5q-23 -35 -36 -50.5t-26 -24.5t-30.5 -17.5t-48.5 -26.5q-61 2 -114.5 -14.5t-122.5 -16.5q-31 20 -62 53q-53 8 -89 33t-64.5 57.5t-55 69.5t-59.5 70 q-23 86 -28 177t-2 184t11.5 184.5t14.5 177.5q-8 14 -12.5 20t-5.5 9.5t3.5 7.5t10.5 14l-11 172l13 8l53 127l170 45l6 37q-18 8 -37.5 12t-38.5 9l-10 18q-70 6 -135.5 8t-131 0t-132 -4t-135.5 -2q-33 -33 -46 -72zM817 1729l21 -66q59 20 108 54t95 72t93.5 74.5 t100.5 63.5l-29 62q-53 -27 -99 -64t-92 -75t-94.5 -70.5t-103.5 -50.5z" />
<glyph unicode="&#xdb;" horiz-adv-x="1802" d="M63 1550l11 -45q33 -10 64.5 -15t64.5 -15q27 -37 31 -98.5t-2.5 -130t-16.5 -133t-10 -107.5l8 -486q0 -68 21.5 -115t51 -85.5t61.5 -76.5t56 -87q61 -35 118 -66t110 -53.5t103 -35.5t97 -11q102 2 185.5 36.5t143 74.5t92.5 73l32 33l37 -14l18 -29 q-10 -12 -14 -31.5t-6 -40t-1 -41t5 -35.5l53 -16q31 14 76 30.5t80 8.5l10 -19q25 -10 40 -14t29.5 -3t30 5t37.5 8q10 39 -4 78q-29 6 -44 8t-26.5 7.5t-23.5 15.5t-35 33q-2 10 -12 46t-21.5 77t-20.5 75.5t-9 40.5q4 100 21.5 204t13.5 206q-4 123 -5.5 241.5t0.5 241.5 l19 10q4 47 15.5 89.5t6.5 93.5l13 18l78 6l6 19q25 2 48.5 11.5t39.5 23.5l-2 61q-10 8 -33 12t-49.5 5t-50 0t-35.5 -1l-15 -16q-59 0 -118.5 -3t-114.5 19l-49 -16l-37 16q-23 -6 -36 -13t-22.5 -16.5t-17.5 -21.5t-22 -31l4 -53h127l30 -20q31 -102 39.5 -216t2 -228.5 t-21.5 -228.5t-30 -216l2 -23q0 -8 3 -29.5t4 -44t-1 -41t-12 -22.5q0 -20 -1 -43.5t-8 -46t-21.5 -39t-39.5 -20.5q-23 -35 -36 -50.5t-26 -24.5t-30.5 -17.5t-48.5 -26.5q-61 2 -114.5 -14.5t-122.5 -16.5q-31 20 -62 53q-53 8 -89 33t-64.5 57.5t-55 69.5t-59.5 70 q-23 86 -28 177t-2 184t11.5 184.5t14.5 177.5q-8 14 -12.5 20t-5.5 9.5t3.5 7.5t10.5 14l-11 172l13 8l53 127l170 45l6 37q-18 8 -37.5 12t-38.5 9l-10 18q-70 6 -135.5 8t-131 0t-132 -4t-135.5 -2q-33 -33 -46 -72zM635 1829l41 -53q72 49 154.5 109.5t156.5 113.5 q35 -61 73 -118.5t64 -123.5l62 25q-29 76 -75 142.5t-81 137.5q-8 16 -22.5 19.5t-28.5 -6.5q-78 -55 -172 -123t-172 -123z" />
<glyph unicode="&#xdc;" horiz-adv-x="1802" d="M61 1550l11 -45q31 -10 62.5 -15t64.5 -15q25 -37 24 -99q0 -61 -10 -129.5t-24.5 -133t-16.5 -107.5l-22 -486q-4 -68 14 -115t46 -85.5t58.5 -76.5t53.5 -87q121 -72 238.5 -93.5t260.5 -21.5l31 -25l106 43q14 18 45 42t68 45.5t73 38t60 22.5l35 -14l18 -29 q-20 -25 -25 -72t1 -76l51 -16q31 14 77 30.5t81 8.5l10 -19q23 -10 38 -14t29.5 -3t30 5t39.5 8q4 16 4 39t-6 39q-29 6 -43 8t-25.5 7.5t-23.5 15.5t-33 33q-2 10 -9 46t-16.5 77t-16.5 75.5t-7 40.5q6 49 18.5 100.5t27 103.5t24.5 103.5t12 102.5q4 123 9 241.5 t16 241.5l18 10q8 47 10 89.5t2 93.5l15 18l77 6l9 19q23 2 46.5 11.5t43.5 23.5v61q-8 8 -31.5 12t-49.5 5t-50.5 0t-36.5 -1l-17 -16q-59 0 -117.5 -3t-113.5 19l-51 -16l-35 16q-23 -6 -36 -13t-22.5 -16.5t-19.5 -21.5t-24 -31v-53h129l28 -20q25 -102 29 -216 t-5 -228.5t-27.5 -228.5t-39.5 -216l-20 -23q0 -8 1 -29.5t1 -43.5q0 -23 -3 -41.5t-13 -22.5q0 -20 -3.5 -43.5t-11.5 -46t-23.5 -39t-39.5 -20.5q-25 -35 -39.5 -50.5t-28.5 -24.5t-31.5 -17.5t-50.5 -26.5q-61 2 -114.5 -14.5t-124.5 -16.5q-16 10 -29.5 23.5t-28.5 29.5 q-53 8 -88 33t-61.5 57.5t-50 69.5t-56.5 70q-16 86 -15 177t9 184t21.5 184.5t25.5 177.5q-8 14 -12 20t-4 8q0 4 4 8.5t12 14.5v172l12 8l50 172h184l8 37q-33 14 -76 21l-10 18q-137 14 -264 8t-270 -6q-14 -16 -26.5 -33.5t-23.5 -38.5zM507 1916q5 -52 49 -95t138 -43 q39 0 61.5 30.5t22.5 65.5q0 16 6.5 35t8.5 35q0 10 -8.5 18t-8.5 18q2 33 -17.5 52.5t-49 29t-62.5 9.5q-31 0 -53 -7l12 4q-49 -8 -76.5 -54t-22.5 -98zM980 1916q5 -52 49 -95t138 -43q39 0 61.5 30.5t22.5 65.5q0 16 6.5 35t8.5 35q0 10 -8.5 18t-8.5 18 q2 33 -17.5 52.5t-49 29t-62.5 9.5q-31 0 -53 -7l12 4q-49 -8 -76.5 -54t-22.5 -98z" />
<glyph unicode="&#xdd;" horiz-adv-x="1462" d="M45 1638q-4 -16 2 -36.5t16 -34.5q23 -12 46 -19q37 10 61.5 13.5t54.5 -25.5q-2 -12 5.5 -33.5t19.5 -43t25.5 -39t25.5 -23.5l21 -142q18 -20 33.5 -52t27.5 -67.5t20.5 -70.5t8.5 -61q59 -70 94 -164.5t35 -186.5l-25 -41q0 -8 5 -37.5t14.5 -71.5t18.5 -91.5 t17.5 -97.5t12.5 -87t2 -61q-57 -45 -117.5 -48t-132.5 3v-37q27 2 44 -6t36.5 -20.5t46 -21.5t76.5 -5l6 22l57 -20l-8 -25h129l6 21h180q37 -25 69 -28t73 -1v66l-39 32h-90l-21 -47q-20 14 -35.5 23.5t-31 15.5t-33 9t-41.5 5v50l33 30q-20 39 -40 79t-16 85l-14 6l37 4 v52l-21 20q6 16 16.5 29.5t20.5 23.5q-8 23 -12 47.5t-8 47.5l-11 -5l-8 19q-4 16 5.5 37.5t19.5 36.5l-17 45q16 12 33 26.5t33 30.5q4 41 33.5 69.5t58.5 51.5q2 25 13.5 44t23.5 39.5t22.5 41t14.5 47.5q8 6 15 19.5t14.5 25.5t12.5 19.5t11 0.5q23 10 40 24.5t34 31.5 v100l20 10q8 53 35 99.5t66 81.5h139q8 16 22.5 28.5t30.5 20.5q-37 57 -88 76.5t-112 19.5q-59 0 -125 -9.5t-131 -9.5v-73q88 10 118.5 -26t20.5 -120l-29 -4q-41 -55 -80 -111.5t-82 -109.5l-6 -59q-31 -37 -55 -80l-33 -2q-8 -37 -27.5 -57.5t-60.5 -14.5 q-18 -25 -53 -35l-43 31l-29 55l43 6v35q-18 6 -36.5 11.5t-39.5 9.5q-29 43 -42 96t-24 106.5t-29.5 103.5t-55.5 91q12 25 27.5 47.5t25.5 48.5l66 21l-5 6q20 14 46 14v27l-60 -4l-33 26h-440zM489 1380h27q0 12 -8 21.5t-19 15.5v-37zM610 1767q10 10 17.5 13.5 t21.5 5.5q16 35 41 64.5t47 60.5q4 6 9.5 24.5t9.5 22.5q16 16 32 24l5 27q27 16 52 63.5t42 75.5q8 4 24 9q29 53 35 73.5t3 32.5t-11 27.5t-8 58.5q-20 0 -41 16q-10 -18 -17.5 -24t-27.5 -14q-16 -51 -36 -101.5t-34 -103.5q-4 -4 -16 -8q-10 -29 -18.5 -57.5 t-14.5 -57.5q-23 -14 -33 -31.5t-15 -37t-10 -38t-16 -32.5q-18 -27 -29.5 -44.5t-11.5 -48.5zM930 66h28q-4 -14 -16 -11.5t-12 11.5z" />
<glyph unicode="&#xdf;" horiz-adv-x="1142" d="M38 909.5q1 -16.5 5 -32.5q25 -4 39 -7.5t24.5 -9.5t18.5 -18.5t22 -32.5v-160l-20 -4v-33l20 -6v-125q0 -6 -5 -9t-7 3l-8 -98q12 -8 17.5 -37t5.5 -66q0 -35 -1.5 -66.5t-1.5 -45.5l-34 -51q-16 -10 -34 -20.5t-34 -20.5q-4 -29 0 -56l23 -24h299l24 -15l55 17 q6 20 9.5 33.5t3.5 23.5q0 12 -3 24.5t-10 32.5q-29 6 -58.5 19.5t-57.5 24.5q-4 68 -10.5 174t-11.5 226t-7 245t1 229t13.5 179t30.5 95q0 27 8 62t24.5 65.5t41 52t59.5 21.5q18 23 43 21t48.5 -12.5t39.5 -22.5l17 -12q31 -23 68.5 -32t74.5 -20q10 10 29 11 q18 0 26 -11q23 16 47 13q53 -25 73 -60t23 -76t-4.5 -85t-7.5 -87l-96 -102q-55 -16 -106 -16l-19 -35h-98q-8 -35 -28.5 -79t-39 -92t-29 -97.5t0 -91.5t49.5 -75.5t119 -50.5l6 -18q45 0 79.5 3t62.5 0t52.5 -17.5t48.5 -51.5v-94q0 -45 -10 -85t-38.5 -68.5t-86.5 -40.5 l-14 12q-12 2 -33.5 0t-44 -5t-41 -5t-26.5 0l-19 28l35 21q-16 49 -34.5 97t-41.5 95h-45q-20 -41 -30.5 -66.5t-13.5 -48t1 -50t10 -74.5q10 -10 18.5 -22.5t16.5 -24.5q8 -4 26.5 -15.5t39 -24t37 -22.5t20.5 -10q63 0 119.5 1t108 12.5t96.5 38t86 79.5l4 178v10 q0 12 1 26.5t1 25.5v14q-4 78 -41 133t-123 68l-8 16l-54 4q2 4 -1 7t-7 5q-43 0 -75.5 2.5t-56 14.5t-40 37.5t-28.5 70.5q4 4 5 29t1 31q16 6 33.5 25.5t33.5 29.5q-4 23 6.5 44.5t26.5 35.5q84 2 125 22.5t65.5 51t45 69.5t63.5 78l4 41l12 12q0 61 -6 114.5t-10 113.5 q-23 33 -49.5 62.5t-54.5 56.5l-27 4l-35 45q-49 8 -112.5 5t-128 -8.5t-122 -9.5t-96.5 4l-4 -2l-22 -24l-39 -10q-2 -4 -10.5 -13.5t-17.5 -17.5t-18 -14.5t-16 -1.5q-12 -18 -27.5 -43t-33.5 -49.5t-38.5 -46t-41.5 -31.5q-8 -70 -22.5 -138.5t-8.5 -138.5l-18 -8 l-16 -103q-31 -2 -68 -16q-8 -16 -7 -32.5z" />
<glyph unicode="&#xe0;" horiz-adv-x="849" d="M57 700h125q10 18 27.5 21.5t36.5 11.5q-4 25 0 41.5t14 29.5t24.5 26.5t26.5 29.5q23 -2 31 8.5t25 12.5q16 -2 30 -17l74 -18q12 -23 27.5 -41.5t36.5 -30.5q6 -45 3 -75.5t-14.5 -57.5t-30 -53.5t-42.5 -63.5l-62 -4q0 -16 -28.5 -30.5t-66.5 -27.5t-75 -28.5 t-53 -30.5q-35 -33 -52.5 -63.5t-24.5 -63t-7 -71.5v-88q10 -12 29.5 -31.5t41 -38t42 -33t34.5 -14.5q86 0 120 4t52.5 14.5t39 29t79.5 46.5q16 -12 30.5 -23.5t14.5 -33.5l23 -23h90q16 25 41.5 29t46.5 23l27 2v79l-103 17q-16 23 -20 75t-3 119.5t6 145.5t6 151.5 t-2 136t-15 99.5l-82 70q-59 8 -108.5 13t-115.5 1q-16 -2 -29.5 -9.5t-31.5 -4.5q-16 -16 -35.5 -21.5t-40.5 -15.5l2 -4l-16 -15h-25l-20 -22l-47 -4l-37.5 -43.5t-16.5 -29.5t-2 -36.5t9 -60.5zM287 266q-2 41 26 88q2 2 7.5 12.5t11.5 20.5t11 19.5t7 11.5 q20 18 45 35.5t47 33.5h107q-4 -10 -10 -16q4 -4 6 -22.5t4 -40t2 -41.5v-25q0 -10 6 -17.5t6 -17.5q0 -33 -8 -64.5t-23 -62.5q-10 -6 -32.5 -21.5t-24.5 -29.5h-94l-2 14q-12 8 -23 9q-10 12 -20 20t-27 4q-20 49 -22 90zM293 1147q53 -33 107.5 -60.5t105.5 -62.5l39 53 q-51 37 -106.5 64.5t-108.5 62.5z" />
<glyph unicode="&#xe1;" horiz-adv-x="849" d="M57 700h125q10 18 27.5 21.5t36.5 11.5q-4 25 0 41.5t14 29.5t24.5 26.5t26.5 29.5q23 -2 31 8.5t25 12.5q16 -2 30 -17l74 -18q12 -23 27.5 -41.5t36.5 -30.5q6 -45 3 -75.5t-14.5 -57.5t-30 -53.5t-42.5 -63.5l-62 -4q0 -16 -28.5 -30.5t-66.5 -27.5t-75 -28.5 t-53 -30.5q-35 -33 -52.5 -63.5t-24.5 -63t-7 -71.5v-88q10 -12 29.5 -31.5t41 -38t42 -33t34.5 -14.5q86 0 120 4t52.5 14.5t39 29t79.5 46.5q16 -12 30.5 -23.5t14.5 -33.5l23 -23h90q16 25 41.5 29t46.5 23l27 2v79l-103 17q-16 23 -20 75t-3 119.5t6 145.5t6 151.5 t-2 136t-15 99.5l-82 70q-59 8 -108.5 13t-115.5 1q-16 -2 -29.5 -9.5t-31.5 -4.5q-16 -16 -35.5 -21.5t-40.5 -15.5l2 -4l-16 -15h-25l-20 -22l-47 -4l-37.5 -43.5t-16.5 -29.5t-2 -36.5t9 -60.5zM287 266q-2 41 26 88q2 2 7.5 12.5t11.5 20.5t11 19.5t7 11.5 q20 18 45 35.5t47 33.5h107q-4 -10 -10 -16q4 -4 6 -22.5t4 -40t2 -41.5v-25q0 -10 6 -17.5t6 -17.5q0 -33 -8 -64.5t-23 -62.5q-10 -6 -32.5 -21.5t-24.5 -29.5h-94l-2 14q-12 8 -23 9q-10 12 -20 20t-27 4q-20 49 -22 90zM293 1077l41 -53q49 35 103.5 62.5t107.5 60.5 l-37 57q-53 -35 -107.5 -62.5t-107.5 -64.5z" />
<glyph unicode="&#xe2;" horiz-adv-x="849" d="M57 700h125q10 18 27.5 21.5t36.5 11.5q-4 25 0 41.5t14 29.5t24.5 26.5t26.5 29.5q23 -2 31 8.5t25 12.5q16 -2 30 -17l74 -18q12 -23 27.5 -41.5t36.5 -30.5q6 -45 3 -75.5t-14.5 -57.5t-30 -53.5t-42.5 -63.5l-62 -4q0 -16 -28.5 -30.5t-66.5 -27.5t-75 -28.5 t-53 -30.5q-35 -33 -52.5 -63.5t-24.5 -63t-7 -71.5v-88q10 -12 29.5 -31.5t41 -38t42 -33t34.5 -14.5q86 0 120 4t52.5 14.5t39 29t79.5 46.5q16 -12 30.5 -23.5t14.5 -33.5l23 -23h90q16 25 41.5 29t46.5 23l27 2v79l-103 17q-16 23 -20 75t-3 119.5t6 145.5t6 151.5 t-2 136t-15 99.5l-82 70q-59 8 -108.5 13t-115.5 1q-16 -2 -29.5 -9.5t-31.5 -4.5q-16 -16 -35.5 -21.5t-40.5 -15.5l2 -4l-16 -15h-25l-20 -22l-47 -4l-37.5 -43.5t-16.5 -29.5t-2 -36.5t9 -60.5zM160 1114l59 -33q16 31 41 56.5t47 52.5q31 -37 60.5 -67.5t58.5 -59.5 l47 49q-33 31 -67.5 70t-73.5 86q-12 16 -28.5 15t-27.5 -19q-23 -39 -56.5 -71t-59.5 -79zM287 266q-2 41 26 88q2 2 7.5 12.5t11.5 20.5t11 19.5t7 11.5q20 18 45 35.5t47 33.5h107q-4 -10 -10 -16q4 -4 6 -22.5t4 -40t2 -41.5v-25q0 -10 6 -17.5t6 -17.5q0 -33 -8 -64.5 t-23 -62.5q-10 -6 -32.5 -21.5t-24.5 -29.5h-94l-2 14q-12 8 -23 9q-10 12 -20 20t-27 4q-20 49 -22 90z" />
<glyph unicode="&#xe3;" horiz-adv-x="849" d="M57 700h125q10 18 27.5 21.5t36.5 11.5q-4 25 0 41.5t14 29.5t24.5 26.5t26.5 29.5q23 -2 31 8.5t25 12.5q16 -2 30 -17l74 -18q12 -23 27.5 -41.5t36.5 -30.5q6 -45 3 -75.5t-14.5 -57.5t-30 -53.5t-42.5 -63.5l-62 -4q0 -16 -28.5 -30.5t-66.5 -27.5t-75 -28.5 t-53 -30.5q-35 -33 -52.5 -63.5t-24.5 -63t-7 -71.5v-88q10 -12 29.5 -31.5t41 -38t42 -33t34.5 -14.5q86 0 120 4t52.5 14.5t39 29t79.5 46.5q16 -12 30.5 -23.5t14.5 -33.5l23 -23h90q16 25 41.5 29t46.5 23l27 2v79l-103 17q-16 23 -20 75t-3 119.5t6 145.5t6 151.5 t-2 136t-15 99.5l-82 70q-59 8 -108.5 13t-115.5 1q-16 -2 -29.5 -9.5t-31.5 -4.5q-16 -16 -35.5 -21.5t-40.5 -15.5l2 -4l-16 -15h-25l-20 -22l-47 -4l-37.5 -43.5t-16.5 -29.5t-2 -36.5t9 -60.5zM201 1057l59 -33q16 31 30.5 62.5t37.5 58.5q12 -23 27.5 -48.5t35 -49 t43 -39t51.5 -15.5q31 0 55.5 22.5t44 53.5t33 63.5t21.5 55.5l-64 20q-4 -6 -13 -30.5t-22.5 -50t-27.5 -46t-27 -20.5q-16 0 -33.5 19.5t-35 46t-30.5 52t-21 38.5q-18 31 -44 13t-50.5 -52.5t-44 -72.5t-25.5 -48zM287 266q-2 41 26 88q2 2 7.5 12.5t11.5 20.5t11 19.5 t7 11.5q20 18 45 35.5t47 33.5h107q-4 -10 -10 -16q4 -4 6 -22.5t4 -40t2 -41.5v-25q0 -10 6 -17.5t6 -17.5q0 -33 -8 -64.5t-23 -62.5q-10 -6 -32.5 -21.5t-24.5 -29.5h-94l-2 14q-12 8 -23 9q-10 12 -20 20t-27 4q-20 49 -22 90z" />
<glyph unicode="&#xe4;" horiz-adv-x="845" d="M33 1208q0 -63 41 -94t90 -31q51 0 92 27t41 76h-2q0 37 -41 60.5t-90 27.5t-90 -11.5t-41 -54.5zM76 700h127q10 18 26.5 21.5t36.5 11.5q-10 47 13.5 70.5t52.5 56.5q20 -2 29.5 8.5t25.5 12.5q14 -2 31 -17l74 -18q10 -23 25 -41.5t38 -30.5q4 -45 1 -65.5t-13.5 -36 t-28.5 -32.5t-45 -54l-61 -4q0 -16 -29 -40t-67 -49.5t-74.5 -50t-53.5 -39.5q-35 -33 -52 -63.5t-23.5 -63t-6.5 -71.5v-88q10 -12 29 -31.5t40.5 -38t43 -33t35.5 -14.5q86 0 118.5 4t51 14.5t40 29t81.5 46.5q16 -12 30.5 -23.5t14.5 -33.5l22 -23h90q14 25 40 29t48 23 l27 2v79l-104 17q-16 23 -20.5 75t-3.5 119.5t6 145.5t6 151.5t-2 136t-15 99.5l-82 70q-59 8 -108.5 13t-114.5 1q-16 -2 -29.5 -9.5t-32.5 -4.5q-16 -16 -35.5 -21.5t-39.5 -15.5l4 -4l-19 -15h-24l-21 -22l-47 -4q-25 -29 -37 -43.5t-16 -29.5t-1 -36.5t9 -60.5z M306.5 266q-1.5 41 25.5 88q2 2 7 12.5t11 20.5t12.5 19.5t8.5 11.5q18 18 43.5 35.5t48.5 33.5h106q-4 -4 -6 -8t-6 -8q4 -4 7 -22.5t4 -40t1 -41.5v-25q2 -10 8.5 -17.5t6.5 -17.5h-2q0 -33 -8.5 -64.5t-22.5 -62.5q-10 -6 -31.5 -21.5t-25.5 -29.5h-95v14q-16 8 -24 9 q-10 12 -20.5 20t-26.5 4q-20 49 -21.5 90zM498 1210q0 -63 41 -93t90 -31t90 26t41 76q0 37 -41 60.5t-90 27.5t-90 -11.5t-41 -54.5z" />
<glyph unicode="&#xe5;" horiz-adv-x="849" d="M57 700h125q10 18 27.5 21.5t36.5 11.5q-4 25 0 41.5t14 29.5t24.5 26.5t26.5 29.5q23 -2 31 8.5t25 12.5q16 -2 30 -17l74 -18q12 -23 27.5 -41.5t36.5 -30.5q6 -45 3 -75.5t-14.5 -57.5t-30 -53.5t-42.5 -63.5l-62 -4q0 -16 -28.5 -30.5t-66.5 -27.5t-75 -28.5 t-53 -30.5q-35 -33 -52.5 -63.5t-24.5 -63t-7 -71.5v-88q10 -12 29.5 -31.5t41 -38t42 -33t34.5 -14.5q86 0 120 4t52.5 14.5t39 29t79.5 46.5q16 -12 30.5 -23.5t14.5 -33.5l23 -23h90q16 25 41.5 29t46.5 23l27 2v79l-103 17q-16 23 -20 75t-3 119.5t6 145.5t6 151.5 t-2 136t-15 99.5l-82 70l-31 4q12 12 23.5 23t23.5 22q2 16 11 37.5t15.5 45t5.5 44t-16 34.5v52q0 12 -15 35.5t-36.5 47t-45 42t-38.5 20.5l-4 10q-6 0 -21.5 2t-32 3t-31.5 0t-21 -5h-50l-2 -10q-23 -6 -47 -28.5t-45.5 -51t-37 -59.5t-15.5 -53q0 -14 5 -39t13.5 -50.5 t18.5 -49t18 -36.5l11 -2q8 -16 18 -28.5t25 -22.5q-14 -8 -28.5 -12t-31.5 -12l2 -4l-16 -15h-25l-20 -22l-47 -4l-37.5 -43.5t-16.5 -29.5t-2 -36.5t9 -60.5zM219 1098q-8 25 6 53q16 2 22.5 12.5t9.5 24.5t5 28.5t8 24.5q10 16 21.5 27.5l25.5 25.5q10 2 22.5 5.5 t22.5 3.5v10h60q2 -6 14.5 -10.5t26.5 -7.5t28.5 -5t20.5 -4l6 -8q10 2 17.5 -6t13.5 -15q-6 -6 -6 -16q4 -14 10 -27.5t8 -27.5q6 -33 7 -53.5t-3 -39t-14 -38t-27 -45.5q-6 -4 -12 -8.5t-10 -10.5q-10 -4 -21.5 -6t-19.5 -10q-16 2 -33 2h-31l-4 4q-59 0 -89 27.5 t-52 76.5q-16 10 -33 13zM287 266q-2 41 26 88q2 2 7.5 12.5t11.5 20.5t11 19.5t7 11.5q20 18 45 35.5t47 33.5h107q-4 -10 -10 -16q4 -4 6 -22.5t4 -40t2 -41.5v-25q0 -10 6 -17.5t6 -17.5q0 -33 -8 -64.5t-23 -62.5q-10 -6 -32.5 -21.5t-24.5 -29.5h-94l-2 14q-12 8 -23 9 q-10 12 -20 20t-27 4q-20 49 -22 90z" />
</font>
</defs>
</svg>
