<?xml version="1.0" standalone="no"?>
<!DOCTYPE svg PUBLIC "-//W3C//DTD SVG 1.1//EN" "http://www.w3.org/Graphics/SVG/1.1/DTD/svg11.dtd" >
<svg xmlns="http://www.w3.org/2000/svg">
<metadata></metadata>
<defs>
<font id="uglyquaitalic" horiz-adv-x="2048" >
<font-face units-per-em="2048" ascent="1638" descent="-410" />
<missing-glyph horiz-adv-x="649" />
<glyph />
<glyph />
<glyph horiz-adv-x="682" />
<glyph horiz-adv-x="940" d="M1024 1575q-10 14 -28.5 27.5t-40 22.5t-43 15.5t-40.5 6.5l-12 -2h2l-78 -15l-10 -16l-84 -19l-8 -16q-104 -25 -161.5 -96.5t-93.5 -162.5t-62.5 -188.5t-69.5 -170.5l-53 -17q-20 16 -54 25.5t-59 3.5q-10 -14 -22.5 -40t-6.5 -44l50 -31q55 20 77.5 13t24.5 -30.5 t-12.5 -59.5t-33 -73.5t-35.5 -71.5t-21 -56l-72 -54q10 -29 0 -87t-32.5 -132t-53.5 -155.5t-61.5 -155.5t-59.5 -134.5t-47 -88.5l-17 -9q-6 -18 -16 -41.5t-25.5 -44t-35 -35t-42 -12.5t-36.5 26t-6 44h-56q-4 -12 -17 -22.5t-26 -14.5q-14 -43 -14 -76q0 -35 16 -75 q10 -10 31 -14.5t43.5 -5.5t44 0t33.5 3q59 6 118.5 63.5t108.5 135.5t84 158.5t45 132.5l17 8q57 209 136 404.5t148 398.5q63 57 133 63t154 -2q8 -25 29 -47q-10 -35 -22.5 -67.5t-28.5 -65.5q10 -43 -3.5 -91t-32 -99.5t-30.5 -103.5t0 -103q-18 -55 -39.5 -127 t-17.5 -131q-16 -20 -30.5 -45t-25.5 -50l11 -37q-8 -14 -19.5 -26t-25.5 -21q-10 -8 1 -17t21 -1l62 39q10 20 30.5 71.5t44 105.5t46 101t36.5 62q8 82 27.5 166t42 168t47.5 166.5t45 164.5l14 4v74q-23 20 -51 25.5t-59 1.5t-60.5 -14.5t-54.5 -20.5l4 -8l-41 -8 q-16 10 -38.5 17t-43.5 5l-26 64q12 47 33.5 93t44 90t43 88t30.5 87q35 23 62.5 50.5l56.5 56.5h104q31 -39 83.5 -52.5t93.5 2.5q16 39 16 74v76zM383 -190q-10 -2 -16.5 5t-9.5 17t-4 21.5t-1 17.5q-6 6 -14 12t-12 15q-8 -31 -26.5 -37t-33.5 -27l13 -31q-4 -8 -1 -18 t13 -10h88l2 22q0 4 1 10.5t1 2.5z" />
<glyph horiz-adv-x="940" d="M1024 1575q-10 14 -28.5 27.5t-40 22.5t-43 15.5t-40.5 6.5l-12 -2h2l-78 -15l-10 -16l-84 -19l-8 -16q-104 -25 -161.5 -96.5t-93.5 -162.5t-62.5 -188.5t-69.5 -170.5l-53 -17q-20 16 -54 25.5t-59 3.5q-10 -14 -22.5 -40t-6.5 -44l50 -31q55 20 77.5 13t24.5 -30.5 t-12.5 -59.5t-33 -73.5t-35.5 -71.5t-21 -56l-72 -54q10 -29 0 -87t-32.5 -132t-53.5 -155.5t-61.5 -155.5t-59.5 -134.5t-47 -88.5l-17 -9q-6 -18 -16 -41.5t-25.5 -44t-35 -35t-42 -12.5t-36.5 26t-6 44h-56q-4 -12 -17 -22.5t-26 -14.5q-14 -43 -14 -76q0 -35 16 -75 q10 -10 31 -14.5t43.5 -5.5t44 0t33.5 3q59 6 118.5 63.5t108.5 135.5t84 158.5t45 132.5l17 8q57 209 136 404.5t148 398.5q63 57 133 63t154 -2q8 -25 29 -47q-10 -35 -22.5 -67.5t-28.5 -65.5q10 -43 -3.5 -91t-32 -99.5t-30.5 -103.5t0 -103q-18 -55 -39.5 -127 t-17.5 -131q-16 -20 -30.5 -45t-25.5 -50l11 -37q-8 -14 -19.5 -26t-25.5 -21q-10 -8 1 -17t21 -1l62 39q10 20 30.5 71.5t44 105.5t46 101t36.5 62q8 82 27.5 166t42 168t47.5 166.5t45 164.5l14 4v74q-23 20 -51 25.5t-59 1.5t-60.5 -14.5t-54.5 -20.5l4 -8l-41 -8 q-16 10 -38.5 17t-43.5 5l-26 64q12 47 33.5 93t44 90t43 88t30.5 87q35 23 62.5 50.5l56.5 56.5h104q31 -39 83.5 -52.5t93.5 2.5q16 39 16 74v76zM383 -190q-10 -2 -16.5 5t-9.5 17t-4 21.5t-1 17.5q-6 6 -14 12t-12 15q-8 -31 -26.5 -37t-33.5 -27l13 -31q-4 -8 -1 -18 t13 -10h88l2 22q0 4 1 10.5t1 2.5z" />
<glyph horiz-adv-x="940" d="M1024 1575q-10 14 -28.5 27.5t-40 22.5t-43 15.5t-40.5 6.5l-12 -2h2l-78 -15l-10 -16l-84 -19l-8 -16q-104 -25 -161.5 -96.5t-93.5 -162.5t-62.5 -188.5t-69.5 -170.5l-53 -17q-20 16 -54 25.5t-59 3.5q-10 -14 -22.5 -40t-6.5 -44l50 -31q55 20 77.5 13t24.5 -30.5 t-12.5 -59.5t-33 -73.5t-35.5 -71.5t-21 -56l-72 -54q10 -29 0 -87t-32.5 -132t-53.5 -155.5t-61.5 -155.5t-59.5 -134.5t-47 -88.5l-17 -9q-6 -18 -16 -41.5t-25.5 -44t-35 -35t-42 -12.5t-36.5 26t-6 44h-56q-4 -12 -17 -22.5t-26 -14.5q-14 -43 -14 -76q0 -35 16 -75 q10 -10 31 -14.5t43.5 -5.5t44 0t33.5 3q59 6 118.5 63.5t108.5 135.5t84 158.5t45 132.5l17 8q57 209 136 404.5t148 398.5q63 57 133 63t154 -2q8 -25 29 -47q-10 -35 -22.5 -67.5t-28.5 -65.5q10 -43 -3.5 -91t-32 -99.5t-30.5 -103.5t0 -103q-18 -55 -39.5 -127 t-17.5 -131q-16 -20 -30.5 -45t-25.5 -50l11 -37q-8 -14 -19.5 -26t-25.5 -21q-10 -8 1 -17t21 -1l62 39q10 20 30.5 71.5t44 105.5t46 101t36.5 62q8 82 27.5 166t42 168t47.5 166.5t45 164.5l14 4v74q-23 20 -51 25.5t-59 1.5t-60.5 -14.5t-54.5 -20.5l4 -8l-41 -8 q-16 10 -38.5 17t-43.5 5l-26 64q12 47 33.5 93t44 90t43 88t30.5 87q35 23 62.5 50.5l56.5 56.5h104q31 -39 83.5 -52.5t93.5 2.5q16 39 16 74v76zM383 -190q-10 -2 -16.5 5t-9.5 17t-4 21.5t-1 17.5q-6 6 -14 12t-12 15q-8 -31 -26.5 -37t-33.5 -27l13 -31q-4 -8 -1 -18 t13 -10h88l2 22q0 4 1 10.5t1 2.5z" />
<glyph unicode="&#xa;" horiz-adv-x="1056" d="M1417 1559q-23 25 -53 40q-4 -8 -10 1.5t-6 13.5q-74 23 -154 6.5t-129 -80.5q-51 -8 -84 6.5t-74 48.5q-111 2 -176 -4t-110.5 -30.5t-82 -71.5t-87.5 -127q-23 -33 -40.5 -63.5t-19.5 -71.5l-16 -8q-20 -80 -58 -192t-74 -227.5t-57.5 -223t-9.5 -177.5 q-84 -141 -115 -297q6 -6 3 -30.5t-10 -60.5t-17 -78t-20.5 -81.5t-17.5 -71.5t-9 -48l-47 -39l-49 14q-18 -8 -38 -17t-36 -20l-19 -51q4 -20 15.5 -40.5t27.5 -33.5h107q27 20 47 39t38.5 37.5t37 39t41.5 48.5q0 98 22.5 190.5t49 181.5t49 177t22.5 178q43 59 75 133 t42 146l16 8q10 49 26.5 100t33 102.5t27.5 101.5t11 95q45 45 61.5 104.5t35.5 119.5l14 8q20 68 44 94.5t51.5 36.5t60 16t71.5 33q16 -8 31.5 -21.5t24.5 -29.5l-35 -74q12 -47 9 -74.5t-11 -74.5l-15 -7q-23 -53 -40 -92t-27 -98l-14 -8q-12 -57 -34 -111.5t-34 -112.5 l-14 -6q-12 -55 -31 -110.5t-37 -110.5t-30.5 -110.5t-12.5 -110.5l-18 -6q-10 -55 -36 -147.5t-58.5 -188.5t-69.5 -180t-68 -121h-110l-21 -14v-50q16 -33 45 -51q33 -6 54.5 -4t39 8t35 14.5t41.5 18.5q12 31 37 72t47.5 85t38.5 87t10 74l29 22q8 41 24.5 84t40.5 78 q0 117 38 225.5t84 215t85 214t39 221.5q18 18 32.5 49t14.5 60l27 31q4 41 15.5 76.5t41.5 64.5q8 33 21.5 73t48.5 58q4 2 27.5 11.5t50 20.5t48 19t21.5 10h86q29 -35 37 -76.5t17 -84.5h24l29 20z" />
<glyph horiz-adv-x="1095" d="M1051 1294q14 51 20 106.5t-7 101.5t-49 75t-106 29l-14 -15h-125l-4 -18l-61 -19l-9 -16q-37 -12 -77.5 -49t-76.5 -77t-62.5 -72.5t-35.5 -36.5q-14 -49 -37.5 -105.5t-49 -113t-46 -110.5t-28.5 -104q-29 -178 -69 -366.5t-81 -362.5l-16 -8q-4 -49 -16.5 -103.5 t-26 -108.5t-24.5 -104t-13 -93l-17 -9q-27 -57 -79 -82q-37 20 -53.5 30.5t-31 15t-34.5 4.5h-66l-37 -37v-60q25 -8 41.5 -20t35 -24.5t40 -23t53.5 -16.5q31 12 62 17l8 16q63 20 96 50t53.5 65t37 74.5t49.5 80.5q0 33 11 81t25.5 100.5t29.5 102.5t22 91l20 4 q0 35 19.5 125t49 207t66.5 245t72 241.5t64.5 198.5t43.5 114l17 8l14 31q37 14 52.5 27.5t23.5 23.5t12 19.5t17.5 15.5t41 9t83.5 3l-7 -37q-6 -37 -14 -84t-15 -92t-7 -63l-52 -43q-12 -47 -21 -96.5t-11 -98.5l-17 -6q-10 -25 -20 -43.5t-17.5 -35.5t-8.5 -36.5 t9 -46.5q-6 -23 -17 -48.5t-30 -41.5q-4 -14 -19.5 -57t-36 -102.5t-43 -129t-38.5 -135.5t-22.5 -124t5 -94t43 -44t91.5 22q68 35 117 81t108 87l31 68l-8 47q-39 6 -74 -14q-10 -20 -31.5 -43t-44.5 -27l-31 6v158l19 8q4 57 23.5 106.5t43 98.5t43 102.5t25.5 122.5 l31 23q12 35 35 63q-2 14 10 61.5t30.5 102.5t38 104.5t33.5 67.5l4 45z" />
<glyph horiz-adv-x="1454" d="M2431 -817v108q-16 16 -42 29.5t-48 13.5l-121 -41l-53 17l-80 -35q-37 8 -72 20.5t-71 16.5l-11 18q-43 4 -67.5 6t-44 9.5t-41 20.5t-58.5 42h-123l-69 80q-39 6 -74 19.5t-67.5 27.5t-65.5 25.5t-70 13.5q-23 29 -66.5 50.5t-80.5 23.5q-35 47 -61.5 73.5t-55 42 t-65.5 23.5t-90 18q0 12 -42 33t-96.5 43.5t-107.5 40t-74 23.5l-10 18q-35 2 -72 15.5t-63 39.5q33 35 72.5 53.5t82.5 28t85 15.5t81 16t73 29.5t56 58.5l55 21l11 20q174 72 287.5 188.5t175 252t74 277.5t-17.5 265t-98.5 214t-169 126t-229.5 1t-280 -161 q-59 -8 -122 -45t-120 -91t-109.5 -121.5t-92.5 -138.5t-65.5 -140.5t-31.5 -126.5l-16 -8q-25 -102 -14.5 -174t45 -133.5t89 -119t117.5 -126.5l74 -21q20 -25 11 -34t-26.5 -13t-35 -9t-15.5 -22l-114 -22l-8 -15h-117l-33 -24q-41 4 -82 -13.5t-72 -45.5l-28 -66l10 -66 l43 -41q31 -8 62.5 -17t60.5 -21q35 10 68.5 26.5t64.5 34.5q6 -6 16.5 0t6.5 14q59 -18 104 -38.5t109 -28.5l55 -47h123q20 -23 54 -34t62 -11q4 -6 61.5 -40t142.5 -81t185.5 -99.5t191.5 -95.5t159.5 -70.5t89.5 -23.5l8 -18q41 -14 66 -41l196 -39l10 -21l48 -6l40 -37 h383l29 25q20 -2 42 4t40 14q0 12 5 15.5t11 3.5q8 0 14.5 1t8.5 7zM1315 1178q0 -111 -29 -204t-77 -176t-109.5 -161t-126.5 -158q-4 0 -31 -16.5t-66.5 -41t-87 -53t-89.5 -52t-73.5 -39t-41.5 -13.5l-35 -26h-129q-20 29 -45 48t-53 38q-20 70 -26.5 113.5t-4.5 80.5 t9 80t13 113q20 25 28.5 40t11.5 28.5t5 28.5t13 40q10 20 29.5 42.5t31.5 43.5q23 37 33 77t29 76q16 33 56 74t89 81t99 74t85 50l8 18q43 12 76 25.5t80 9.5v25h119q43 -35 71.5 -62.5t50 -56.5t41 -63.5t44.5 -85.5z" />
<glyph unicode="&#xd;" horiz-adv-x="495" d="M461 924q18 27 10 43t-27.5 22t-44 4t-41.5 -12h-118q-25 -14 -52.5 -28.5t-46 -33t-22.5 -41t18 -55.5q25 -4 50.5 -9t50.5 -15v-117q0 -10 -12.5 -23.5t-26 -30t-22.5 -37t-5 -40.5q-8 -10 -20 -14q-4 -18 -6.5 -38t-4.5 -38q-4 -37 -30.5 -98.5t-52 -131t-40 -138 t8.5 -116.5q14 -8 20 -18q51 -2 86 5t80 13l8 17q18 -2 35.5 9t36 24.5t36 26t36.5 12.5q23 20 45 41.5t41 44.5l5 22q5 21 -5 35q-8 10 -25.5 9t-31 -5t-15.5 -4q-16 -31 -51 -50.5t-64 -37.5q-18 23 -26 41q4 14 15 53t26.5 90t34 106.5t35 103.5t29.5 80t19 36 q2 41 13.5 76.5t21.5 69.5t19.5 70t9.5 77z" />
<glyph horiz-adv-x="940" d="M1024 1575q-10 14 -28.5 27.5t-40 22.5t-43 15.5t-40.5 6.5l-12 -2h2l-78 -15l-10 -16l-84 -19l-8 -16q-104 -25 -161.5 -96.5t-93.5 -162.5t-62.5 -188.5t-69.5 -170.5l-53 -17q-20 16 -54 25.5t-59 3.5q-10 -14 -22.5 -40t-6.5 -44l50 -31q55 20 77.5 13t24.5 -30.5 t-12.5 -59.5t-33 -73.5t-35.5 -71.5t-21 -56l-72 -54q10 -29 0 -87t-32.5 -132t-53.5 -155.5t-61.5 -155.5t-59.5 -134.5t-47 -88.5l-17 -9q-6 -18 -16 -41.5t-25.5 -44t-35 -35t-42 -12.5t-36.5 26t-6 44h-56q-4 -12 -17 -22.5t-26 -14.5q-14 -43 -14 -76q0 -35 16 -75 q10 -10 31 -14.5t43.5 -5.5t44 0t33.5 3q59 6 118.5 63.5t108.5 135.5t84 158.5t45 132.5l17 8q57 209 136 404.5t148 398.5q63 57 133 63t154 -2q8 -25 29 -47q-10 -35 -22.5 -67.5t-28.5 -65.5q10 -43 -3.5 -91t-32 -99.5t-30.5 -103.5t0 -103q-18 -55 -39.5 -127 t-17.5 -131q-16 -20 -30.5 -45t-25.5 -50l11 -37q-8 -14 -19.5 -26t-25.5 -21q-10 -8 1 -17t21 -1l62 39q10 20 30.5 71.5t44 105.5t46 101t36.5 62q8 82 27.5 166t42 168t47.5 166.5t45 164.5l14 4v74q-23 20 -51 25.5t-59 1.5t-60.5 -14.5t-54.5 -20.5l4 -8l-41 -8 q-16 10 -38.5 17t-43.5 5l-26 64q12 47 33.5 93t44 90t43 88t30.5 87q35 23 62.5 50.5l56.5 56.5h104q31 -39 83.5 -52.5t93.5 2.5q16 39 16 74v76zM383 -190q-10 -2 -16.5 5t-9.5 17t-4 21.5t-1 17.5q-6 6 -14 12t-12 15q-8 -31 -26.5 -37t-33.5 -27l13 -31q-4 -8 -1 -18 t13 -10h88l2 22q0 4 1 10.5t1 2.5z" />
<glyph horiz-adv-x="940" d="M1024 1575q-10 14 -28.5 27.5t-40 22.5t-43 15.5t-40.5 6.5l-12 -2h2l-78 -15l-10 -16l-84 -19l-8 -16q-104 -25 -161.5 -96.5t-93.5 -162.5t-62.5 -188.5t-69.5 -170.5l-53 -17q-20 16 -54 25.5t-59 3.5q-10 -14 -22.5 -40t-6.5 -44l50 -31q55 20 77.5 14t24.5 -29.5 t-12.5 -59t-33 -73.5t-35.5 -73t-21 -57l-72 -54q10 -29 1 -87t-31.5 -132t-53.5 -155.5t-62.5 -155.5t-60.5 -133.5t-47 -89.5l-17 -9q-29 -78 -60.5 -105.5t-57 -25.5t-40 23.5t-3.5 44.5h-56q-4 -12 -17 -22.5t-26 -14.5q-14 -43 -14 -76q0 -35 16 -75q10 -10 31 -14.5 t43.5 -5.5t44 0t33.5 3q59 6 118.5 63.5t108.5 135.5t84 158.5t45 132.5l17 8q57 209 136 404.5t148 398.5q63 57 133 63t154 -2q10 -10 19.5 -22.5t15.5 -24.5q-14 -35 -30.5 -59.5t-39.5 -53.5q-4 -66 -30.5 -148.5t-61.5 -169.5t-71.5 -170t-61.5 -147q12 -29 28.5 -39 t37.5 -10q20 0 42.5 5.5t45.5 9.5q47 45 97 75.5t99 79.5q6 6 16.5 10.5t18.5 8.5l14 30q18 6 35 21.5t25 34.5v45h-62l-80 -98l-47 -3q-25 -29 -55 -34l-29 4v26q8 10 25.5 46t40 83.5t45.5 101.5t43 104t35.5 89t19.5 56l17 10q4 18 15 47t30 37q10 33 18 65.5t21 65.5 l-17 39q-78 2 -135 -2t-127 -31l4 -8l-41 -8q-16 10 -38.5 17t-43.5 5l-26 64q12 47 33.5 93t44 90t43 88t30.5 87q35 23 62.5 50.5l56.5 56.5h104q31 -39 83.5 -52.5t93.5 2.5q16 39 16 74v76z" />
<glyph horiz-adv-x="1021" d="M1118 1403q-4 43 -3 83t-15 83q-16 12 -37 31.5t-41 23.5q-35 10 -74 18.5t-76 4.5l-12 -2h2l-80 -15l-8 -16l-86 -19l-6 -16q-104 -25 -161.5 -96.5t-92.5 -162.5t-62.5 -188.5t-70.5 -170.5l-53 -17q-20 16 -54 25.5t-59 3.5l-31 -51v-33l49 -31q41 12 68 10t47 -49 q-14 -35 -30.5 -62.5t-32 -54t-28.5 -55.5t-21 -67l-72 -54q6 -33 -4.5 -93t-32 -133t-51 -151.5t-59 -151.5t-58.5 -132.5t-49 -91.5l-17 -9q-6 -18 -16 -41.5t-24.5 -44t-34 -34t-43.5 -13.5l-47 54l4 16h-56q-4 -12 -17 -22.5t-26 -14.5q-14 -43 -14 -76q0 -35 16 -75 q10 -10 31 -14.5t43.5 -5.5t44 0t33.5 3q57 6 116.5 63.5t108.5 135.5t85 158.5t46 132.5l15 8q55 205 132 404.5t154 398.5q31 29 64 43t69.5 19t74.5 4t79 -5q16 -18 31.5 -40.5t23.5 -47.5q-6 -25 -17 -49.5t-30 -40.5q-14 -61 -47 -151.5t-63.5 -184.5t-48 -177 t-0.5 -130l69 -37q51 12 90 32.5t71 45t63.5 52.5t70.5 54l31 68l-8 47q-39 6 -74 -14q-10 -20 -31.5 -43t-44.5 -27l-31 6v158l19 8l16 96q31 37 49.5 75t27.5 80t13 86t9 93l30 23q12 35 35 63q-2 14 10.5 62.5t30.5 103.5t37.5 104.5t34.5 65.5l4 45l16 10 q4 27 22.5 52.5t30.5 48.5zM870 1399q-12 -55 -21 -110.5t-11 -112.5q-14 -10 -26.5 -20.5t-25.5 -22.5q-10 -41 -22 -87.5t-14 -89.5q-18 -12 -36 -14t-36.5 -1t-36.5 2t-39 -3l4 -8q-18 -10 -41.5 -8t-40.5 18l-41 4q-25 12 -26.5 38t6.5 53.5t21.5 53t19.5 42.5 q12 27 19 58.5t22 55.5q12 20 21 32.5t17.5 24t14.5 25.5t10 39q33 27 61.5 51.5t57.5 55.5h35q37 0 72.5 -6.5t53 -22.5t-17.5 -47z" />
<glyph unicode=" "  horiz-adv-x="649" />
<glyph unicode="&#x09;" horiz-adv-x="649" />
<glyph unicode="&#xa0;" horiz-adv-x="649" />
<glyph unicode="!" horiz-adv-x="362" d="M424 1536q-20 29 -18 63q-23 16 -37.5 24.5t-28.5 11.5t-35 3h-51q-12 -10 -33 -16q-10 -23 -23.5 -42t-29.5 -40q18 -10 12 -32.5t-22 -39.5l12 5v-9q-41 -193 -76 -380t-61 -377q12 -10 14 -23.5t1 -30t-5 -33t-6 -30.5h55q10 14 27 14q16 72 29.5 123t39.5 117 q16 6 25 26l-12 39q27 23 35 40.5t8 33.5q0 18 -1 36.5t5 41.5q8 25 15 43t14.5 35.5t14.5 40t15 57.5q14 2 32.5 44t36 94t31 99.5t17.5 61.5zM162 221h-27q-4 -12 -14 -12q-10 20 -20.5 40.5t-20.5 43.5q-29 16 -60.5 15t-64.5 -32q-43 0 -79 -27.5t-53.5 -65.5t-14 -79 t35.5 -67q41 -33 70 -37t52.5 6t46 25.5t53.5 21.5q14 18 28.5 29.5t26.5 22t21.5 24.5t15.5 37q4 14 6 28.5t-2 26.5z" />
<glyph unicode="&#x22;" horiz-adv-x="774" d="M768 1657q-8 18 -16.5 35.5t-24.5 31.5q-29 0 -44 -5t-23.5 -16t-12.5 -26.5t-10 -34.5l-145 -405q-2 -4 -3 -25v-41v-41v-24q10 12 38 55t58.5 92.5t55.5 91t29 54.5q4 16 3 30.5t3 28.5q2 12 12 17.5t20.5 10.5t19.5 11t11 19q4 20 4 34q0 16 2.5 31.5t6.5 33t16 42.5z M432 1640q-14 35 -39 66q-31 0 -46 -5t-22.5 -14.5t-11.5 -25.5t-12 -37q-27 -74 -53.5 -138.5t-48 -129t-34.5 -130t-11 -139.5q6 10 34.5 54.5t61.5 95.5t58.5 94t27.5 51q4 14 2 28.5t2 29.5q2 12 12 18t20.5 10.5t19.5 10.5t14 18q6 23 6 33v24t4 30.5t16 55.5z" />
<glyph unicode="#" horiz-adv-x="1216" d="M1118 635l-26 22q-10 2 -25.5 -4t-19.5 2l-17 -10q-47 12 -110.5 8t-116.5 -4q4 43 14 85t21.5 85t20.5 84t11 82q-23 16 -46 8t-50 -14l-26 -47l4 -6l14 14l2 -2q-2 -4 -7 -10t-7 -10l-13 -68q-6 -4 -11 -11.5t5 -11.5q-4 -23 -3 -47t-3 -47q-4 -16 -10 -28v2l-17 -58 l-182 8l60 293q-6 18 -7 43l-69 -2l-27 -28q-4 -10 0 -24.5t-6 -20.5l6 -15q-20 -59 -30.5 -123.5t-20.5 -124.5q-84 0 -164 4.5t-162 -0.5q-16 -18 -18 -47.5t6 -46.5l43 -20l6 6l-10 14q20 -10 41 -10h45l10 -10l15 10q23 2 47 5t47 5h16q10 0 10 -2t-2 -2l50 -4 q-10 -47 -20.5 -93t-23.5 -93l-284 6q-10 -6 -23.5 -9t-23.5 -8l-15 -67l27 -23q10 -2 25.5 3.5t19.5 -1.5q8 6 47 7.5t84 1.5t84 -2.5t45 -2.5q-18 -78 -36.5 -154.5t-28.5 -152.5q23 -14 47 -8t51 16l27 46l-5 8l-16 -17q10 23 15.5 44.5t9.5 45.5l14 13l-8 12 q4 23 3 46.5t3 45.5l4 17l6 12l2 -2l8 28l185 -6l-58 -266q4 -10 6.5 -20.5t4.5 -20.5q16 -4 33.5 -3t33.5 3l29 31q4 8 2 18.5t-2 18.5l6 8q-6 6 -1 41t14.5 76t17.5 75.5t8 40.5q78 2 158 -6t155 2q18 23 16.5 47.5t-5.5 46.5l-41 19l-9 -4l13 -15q-6 4 -17.5 6.5t-25 3.5 t-25.5 0t-20 -1l-11 12l-14 -10q-20 -2 -49 -8.5t-45 -4.5l-17 2l-12 3l4 2l-35 2l41 186q41 0 80 -3t79 -4t80 3t81 16zM682 557q-2 -12 -9 -22.5t-9 -20.5t4 -22.5t4 -22.5l-21 -96q-29 0 -38 5t-25 5q-10 0 -23.5 -7t-23.5 -7h-76l6 34q0 4 9 17.5t12 19.5 q2 10 -4.5 22.5t-4.5 22.5l15 70q16 0 26.5 -6t24.5 -6q10 0 23.5 8t23.5 8z" />
<glyph unicode="$" horiz-adv-x="1146" d="M1032 1251q16 80 31.5 138.5t9.5 96.5t-43 56.5t-125 18.5q-23 20 -43 25t-49 16l-6 18l-107 18q-10 -10 -34.5 -14t-55.5 -4q-29 0 -54.5 1t-37.5 1q-12 -8 -50 -28.5t-81 -42t-83 -40t-54 -22.5q-29 -76 -48.5 -123t-37 -90t-31.5 -95.5t-29 -138.5q29 -29 42.5 -62.5 t29.5 -68.5q20 -2 43 -18t31 -35q39 -6 47 -39q16 -8 34.5 -15t39.5 -11q-12 -82 -30.5 -159t-38 -151.5t-39 -149.5t-36.5 -155q-51 20 -79.5 46t-41 60.5t-12.5 77.5t8 99q-20 20 -28 43h-35q-41 -43 -63.5 -101.5t-32 -120t-7 -121t10.5 -106.5l43 -16q23 6 45 15t43 24 q20 -29 79.5 -49.5t124 -29.5t122 -5t75.5 26l39 -2l12 19q59 10 125 49t125.5 92t109.5 114.5t78.5 119t32 102.5t-31.5 66q4 57 -16.5 116.5t-58.5 110.5t-88 89t-101 52q10 53 20 95t33 90q-4 47 6 96t18 96l-2 -2l-2 14l2 15l33 94q14 4 10 11t-6 13l1 4q1 3 3 3 q41 -10 56.5 -41t21.5 -66t13.5 -68.5t31.5 -50.5h88zM719 1446q-4 -10 -9 -16.5t-10 -16.5q-31 -111 -53 -218.5t-37 -217.5q-29 6 -56.5 12t-55.5 15l16 83q2 10 12.5 22.5t12.5 23t-1 19.5t-1 19q2 8 6 31t8 48.5t7 47t3 27.5v-2q-4 10 0 26.5t10.5 34t12.5 34t10 28.5 l12 10q-4 4 -5 6t-5 6l8 39h113q2 -14 4 -29.5t-2 -31.5zM500 1464q0 -18 -7.5 -26t-13.5 -25q-12 -41 -24.5 -84t-20.5 -84q-10 -51 -19 -102t-18 -103l-8 2l-6 19q-41 20 -54.5 76.5t-5 118t33 113.5t59.5 67q20 8 42 14t42 14zM786 510q29 -29 15.5 -74t-46 -93 t-74.5 -91t-69 -64q-16 -4 -32.5 -6t-32.5 -6l112 559q27 -25 50.5 -47t41 -48t27.5 -56.5t8 -73.5zM584 748q-10 -66 -20.5 -130.5t-24.5 -130.5q-6 -33 -26.5 -63.5t-27.5 -58.5l-41 -205q0 -2 -3 -7.5t-5 -9.5q-27 -6 -44 -7t-31.5 0t-24.5 3t-21 0l131 623h125 q4 -6 9 -14h4z" />
<glyph unicode="%" horiz-adv-x="1265" d="M635 1155q2 14 -9.5 40t-29.5 52.5t-38.5 46t-37.5 23.5l-2 10q-8 0 -24.5 2t-35 3t-34.5 0t-25 -5h-55l-4 -10q-27 -8 -59.5 -32.5t-63.5 -56.5t-53.5 -66t-28.5 -58q-4 -16 -4 -43t3 -55.5t8 -55t12 -41.5l10 -2q10 -33 30.5 -51t43.5 -41h172q2 2 12 7t22.5 10.5 t22.5 9.5t12 4q23 18 44.5 36.5t43.5 35.5q6 18 21.5 42.5t28 51t16.5 49t-10 37.5zM1161 1341q-14 18 -23.5 33t-20.5 22t-28.5 6t-48.5 -13l-6 -30t-9 -40.5t-12 -39.5t-18 -28q-94 -88 -175 -193.5t-154.5 -217t-146.5 -224t-150 -215.5q-23 -29 -54.5 -50t-48 -43.5 t-37 -54.5t-44 -62.5t-49 -55t-52.5 -31.5q0 -6 -4 -19t-10.5 -27.5t-11.5 -30t-7 -25.5q29 -6 60 -22l43 30v-2q33 43 89 121t124.5 171t142.5 192.5t142.5 187.5t125 153.5t88.5 92.5q16 43 53 90t66 88l-4 -2l6 12q8 14 23.5 29.5t31 30t27.5 27.5t14 26l45 59 q23 4 25 18t8 37zM1087 342q2 14 -8 41t-28.5 53.5t-40 46t-39.5 21.5v10q-10 0 -25.5 2t-34 4t-35 1t-24.5 -7h-55l-6 -10q-25 -6 -58 -32t-63.5 -58.5t-54 -65.5t-29.5 -57q-4 -14 -3 -41t4 -56.5t8 -56t11 -39.5l10 -4q10 -31 29 -49t43 -41h103q51 0 104 10q23 18 39 21 q20 18 41.5 36.5t44.5 34.5q6 16 21.5 41t27.5 50.5t16.5 49t-10.5 38.5zM573 1194l-12 -18q2 -45 5 -74t-3 -54.5t-22.5 -55t-51.5 -74.5q-23 -8 -30 -21q-12 -4 -27.5 -8t-25.5 -15h-66q0 10 -4 13q-82 0 -117 61q2 16 -5 28.5t-11 27.5q-16 10 -33 12q-4 16 2 30.5 t16 30.5q18 2 27.5 13.5t16 27t11.5 30.5t15 28q16 18 32.5 31.5t35.5 27.5q14 2 26.5 5t24.5 3l2 12h63q2 -6 15.5 -11t29 -8t30.5 -5t24 -4l2 -10q14 0 19 -7.5t11 -15.5zM1024 381l-12 -19q6 -35 8 -66.5t-4 -63t-24.5 -63.5t-51.5 -63q-6 -6 -14 -9t-15 -11 q-14 -4 -28.5 -8t-24.5 -15h-63q0 6 -10.5 8.5t-23.5 4.5t-24.5 3t-15.5 5q-29 25 -43 47.5t-21 61.5q-10 2 -17 6t-17 6q-4 14 2 29.5t16 29.5q25 2 36 26.5t26.5 54.5t43 55.5t82.5 31.5l2 12h66q2 -6 14.5 -11t27.5 -9t30.5 -6t23.5 -4l2 -8q14 0 18.5 -7.5z" />
<glyph unicode="&#x26;" horiz-adv-x="1894" d="M1825 950q8 74 10 103.5t-1 45t-11 31t-21 64.5q-18 10 -36.5 21.5t-36.5 19.5q-63 -29 -91 -92q6 -31 11.5 -60.5t-1 -50t-28 -26t-70.5 15.5q-6 12 -25.5 25.5t-44 31t-49 37t-38.5 41.5l-41 6q-14 18 -38 32.5t-46 18.5l-2 19h-109l-27 -33q-29 -2 -59.5 -7t-58.5 -13 l-21 -27l-33 -8q-14 -14 -33.5 -32.5t-38 -40t-33.5 -43t-17 -40.5q-25 -25 -36.5 -65.5t-14.5 -86.5t-1 -89t2 -74q27 -39 71 -72t94 -46t101.5 -1t96.5 66q10 33 22.5 59.5t18.5 53t4 53t-20 57.5h-99q-41 -35 -94 -51l-23 6q0 63 2.5 99t8.5 56.5t17 29.5t29.5 18.5 t46.5 24.5t66 46q16 -8 59.5 -34.5t88.5 -58.5t82 -61.5t41 -41.5q-12 -25 -25.5 -69t-30 -98.5t-36 -111.5t-43 -105.5t-53 -82t-64.5 -39.5q-25 -20 -61.5 -49t-74.5 -54.5t-75 -46t-64 -26.5l-10 -21h-211l-6 21q-72 6 -121 25.5t-89 46t-80 59t-91 67.5q-2 41 6.5 73 t19.5 60.5t21.5 57t14.5 63.5l28 27q31 104 72 202.5t82 195.5t79 195.5t64 205.5q14 10 25 32q-10 61 -31 117q-51 12 -84 12t-88 -12q-25 -35 -21.5 -79t3.5 -101q0 -55 -17.5 -126t-83.5 -157q-23 2 -48 -2t-51 -8t-49.5 -7t-41.5 1q-70 -49 -103.5 -95.5t-48 -97.5 t-15.5 -109.5t-3 -131.5l18 -9q0 -55 -3 -110t-1 -109l19 -10q12 -31 31.5 -79t46 -94t59.5 -83t69 -45l7 -31q53 -16 107 -30.5t108 -36.5l6 -19q37 -14 68.5 -20t63.5 -9.5t66 -3.5h76l25 -20l28 27l37 -2h2h-2q43 12 77 22t65.5 22.5t64.5 30t70 43.5q20 43 51 70 t63.5 50.5t65.5 50t55 69.5l19 10l45 115l18 10q27 43 44.5 73t25.5 58.5t11 65.5t3 96l45 33q35 6 82 -1t74 -28zM309 1020q-4 -49 -14 -93t-29 -91q0 -4 -6 -19.5t-12 -32t-11.5 -31t-5.5 -16.5l-12 -119q-16 -2 -29.5 -6t-29.5 -10q-10 41 -7 80t-12 80q-4 8 -6 17t0 18 q2 10 16.5 24.5t16.5 26.5l10 98l98 90q10 -4 16.5 -8t16.5 -8zM827 25h-2h2z" />
<glyph unicode="'" horiz-adv-x="497" d="M473 1640q-14 35 -39 66q-31 0 -46 -5t-22.5 -14.5t-11.5 -25.5t-12 -37q-27 -74 -53.5 -138.5t-48 -129t-34.5 -130t-11 -139.5q6 10 34.5 54.5t61.5 95.5t58.5 94t27.5 51q4 14 2 28.5t2 29.5q2 12 12 18t20.5 10.5t19.5 10.5t13 18q6 23 7 33v24t4 30.5t16 55.5z" />
<glyph unicode="(" horiz-adv-x="1087" d="M1096 1561q-8 29 -17.5 48t-40.5 29l-61 -16l-8 -20q-49 0 -86 -3.5t-84 -13.5q-25 -25 -59.5 -35t-67.5 -14l-27 -27l-39 -8q-20 -23 -32.5 -36t-25.5 -21t-30.5 -14.5t-46.5 -14.5l-8 -16q-74 -16 -125 -56t-87 -95.5t-60.5 -119t-45 -124t-38 -111.5t-39.5 -82 q-6 -8 -16.5 -21.5t-10.5 -23.5q0 -90 2 -188.5t19.5 -194.5t54.5 -185t104 -159l21 -4q23 -27 41 -32t30.5 4t19.5 30.5t7 48.5t-33 83t-68.5 134t-57 174t2.5 203q14 0 13.5 23.5t-1.5 56.5t5 64.5t37 49.5q4 47 11 74t20.5 44.5t35 32.5t53.5 40q18 61 76 130t131.5 130 t150.5 105.5t134 56.5q14 16 35 16q23 0 41 -2q27 -37 43 -69h39q29 31 53.5 58.5t34.5 70.5z" />
<glyph unicode=")" horiz-adv-x="1095" d="M1102 969l-15 18v219l-24 27q6 35 -14 67l-15 9q-6 18 -15 50t-20.5 63.5t-23.5 57t-25 31.5l-6 27l-43 37l-2 27q-47 12 -82 36q-14 -23 -26.5 -48t-22.5 -52q12 -33 31.5 -66.5t48.5 -54.5q8 -35 19.5 -62.5t21.5 -60.5q4 4 7 1t3 -7v-102l21 -6v-291q0 -39 -28 -109.5 t-68 -142.5t-88 -131.5t-87 -73.5q-27 -49 -84 -96t-126.5 -84t-141.5 -60.5t-127 -25.5q4 -4 1 -8t-7 -4h-127q-31 -59 -34 -91t16.5 -45.5t59.5 -12.5t97 11l10 17q39 4 72 11t62.5 16.5t60.5 19.5t68 20q27 29 59.5 50.5t60.5 50.5q29 -4 82.5 30.5t106.5 82.5t95 96.5 t48 72.5l17 9q14 29 27 54t30 52l29 2q10 33 18 65.5t10 67.5q20 12 28.5 30.5t10.5 41t-1 46t-3 44.5l18 8z" />
<glyph unicode="*" horiz-adv-x="899" d="M1006 1251q-12 10 -18.5 21.5t-16.5 21.5q-18 18 -52 16.5t-72 -3.5t-71 7t-47 52q23 10 34 30.5t34 33.5q12 18 30.5 41.5t36 48t30.5 48t17 46.5q2 18 -7 26.5t-25 8.5q-14 0 -31 -8.5t-27 -20.5q-12 -4 -15 -6t-4 -5t-4 -4t-16 -1q0 -18 -16 -37t-37.5 -37.5 t-42 -35.5t-29.5 -36q-12 -2 -18 -21.5t-10 -43t-10.5 -44t-18.5 -22.5q-6 12 -14 45t-16.5 69t-13.5 68.5t-5 49.5q-16 16 -32.5 31.5t-31.5 31.5q0 6 1 13t-3 12q-12 10 -26 30q-12 4 -27.5 -1t-30.5 -9l-12 -90q35 -41 38 -97.5t7 -109.5q25 0 48.5 -8t9.5 -41h-66l-6 16 q-6 2 -46 8.5t-86 4.5t-86 -14.5t-44 -43.5q-4 -23 11 -38t24 -31h88q10 -20 30 -21q23 0 43 4q16 23 54 26t61 3l8 18q10 -16 10 -34q-23 -45 -58.5 -73t-82.5 -44q-8 -14 -22 -19q-12 -55 -28.5 -78.5t-30 -42t-17.5 -47t8 -96.5h29q35 31 71.5 90.5t72.5 112.5t65.5 83 t50.5 -1l26 18q20 -12 32.5 -35.5t20 -53t12.5 -62.5t12 -61.5t17.5 -49t28.5 -26.5q39 29 46.5 81t-6 104t-42 93t-61.5 51q-4 12 -8.5 29.5t6.5 30.5h47l6 -17q20 -4 32.5 -7t23 -5t23.5 0t36 8l28 -12l37 12q29 -10 53 -10h58l12 10l12 2z" />
<glyph unicode="+" horiz-adv-x="970" d="M885 492q8 18 5 38.5t-11 38.5l-39 17l-6 -4l14 -13q-10 10 -37 11q-27 0 -37 -2l-10 8l-10 -8q-18 -2 -38 -5.5t-38 -3.5h-14l-11 2l2 2q-31 2 -74.5 1t-66.5 12l8 325q-4 8 -6 16.5t-6 18.5q-14 0 -28.5 1t-28.5 -1l-19 -24q-2 -8 3 -20.5t1 -16.5q4 -6 6 -45t1 -90.5 t-2 -100.5t-3 -74l-4 -2l-358 9q-8 -6 -17.5 -8.5t-17.5 -6.5v-55l25 -18q6 -2 19 3t17 -1l13 8q78 -10 158.5 -6t160.5 0q0 -20 1 -69.5t1 -102.5q0 -51 -2 -94.5t-8 -55.5l4 -72q18 -8 41 -6t39 13l14 36l-4 7l-10 -13q8 12 8 37t-2 37l10 10l-10 11q-2 18 -4 37.5 t-4 37.5l2 13v10h2q4 31 2 64.5t4 62.5q2 6 6 17t2 18q86 -4 180.5 -7t176.5 3z" />
<glyph unicode="," horiz-adv-x="612" d="M535 4q23 18 23.5 46t-8.5 56.5t-24.5 53t-23.5 39.5q-29 4 -48.5 20.5t-35.5 38.5q-53 10 -94 14t-103 4q-20 0 -49 -27.5t-53.5 -64.5t-38.5 -73.5t-6 -55.5l22 -49q16 -2 36 -8t36 -6q33 0 54.5 10t42 20.5t45 16.5t61.5 0q-2 -47 -7.5 -89t-20.5 -81t-44 -75t-74 -68 q-6 0 -21.5 -7.5t-31.5 -17.5t-31.5 -19.5t-23.5 -13.5q-14 -25 -35 -47q20 -29 29 -59q10 0 19 -6.5t13 -12.5q12 10 24.5 19.5t22.5 19.5h97q14 16 41 17q47 45 75.5 69.5t47 49t31 58.5t26.5 99q35 29 44.5 64.5t-17.5 64.5z" />
<glyph unicode="-" horiz-adv-x="819" d="M666 510q0 16 -15.5 33.5t-25.5 27.5q-57 4 -108.5 -1t-104.5 -17h-37t-73 2t-78 3t-50 1q-37 0 -66.5 -11t-42 -26.5t-2 -33t53.5 -31.5q53 -16 99 -7t97 9q39 0 99.5 -15.5t117 -21.5t96.5 9.5t40 78.5z" />
<glyph unicode="." horiz-adv-x="368" d="M217 53q31 57 23.5 111.5t-35 88.5t-66.5 39t-71 -38q-10 -10 -19.5 -24.5t-7.5 -30.5q-29 -20 -29 -60q0 -47 23.5 -81.5t56.5 -49t67.5 -5.5t57.5 50z" />
<glyph unicode="/" horiz-adv-x="956" d="M889 1300q-29 41 -56.5 54.5t-74.5 -8.5q0 -10 1 -30t0 -40.5t-5 -39.5t-13 -28q-78 -80 -136 -185t-108.5 -221t-97.5 -230.5t-104 -213.5q-16 -29 -43 -50t-39 -43.5t-25.5 -54.5t-30 -62.5t-38 -54t-47.5 -30.5q4 -16 -3.5 -48.5t-5.5 -55.5q16 -4 32 -9t32 -11l35 28 v-2q20 37 60 114t90 172t106.5 198.5t106.5 193.5t92 154.5t65 85.5q10 47 34.5 91t45.5 87h-4l4 12q14 29 41.5 58.5t30.5 52.5l32 59q6 8 10.5 11t6.5 7.5t3 12.5t3 26z" />
<glyph unicode="0" horiz-adv-x="1122" d="M1143 651q6 27 -15.5 78t-56.5 101.5t-77 89t-74 43.5l-2 20q-18 0 -50 4t-66 6t-65.5 1t-48.5 -11h-104l-11 -20q-33 -10 -72.5 -35t-80.5 -59.5t-81 -76.5t-73 -85t-56.5 -83t-31.5 -73q-6 -27 -5 -78t6 -106.5t14.5 -107.5t21.5 -79l21 -6q8 -33 23 -55.5t33.5 -42 t40 -38t44.5 -38.5h330q18 0 35.5 8t34 19.5t32.5 20.5t35 11q41 35 83 70t85 68q12 29 39.5 75.5t51 97t33 97.5t-15.5 74zM1022 725q-6 -8 -12 -15.5t-11 -17.5q10 -90 12.5 -151.5t-12 -114.5t-48 -105.5t-93.5 -123.5q-8 -10 -26.5 -17.5t-30.5 -23.5 q-29 -6 -55.5 -13.5t-47.5 -29.5h-123q0 16 -8 22q-80 0 -129 25.5t-96 91.5q4 29 -10.5 54.5t-18.5 53.5q-37 16 -65 25q-4 35 5 60.5t30 54.5q31 4 51 28.5t37.5 59.5t37 74.5t50 74.5t75 58.5t111.5 25.5l6 25h123q4 -12 28.5 -22.5t54.5 -16.5t59.5 -11t44.5 -8l4 -18 q25 2 36 -12.5t21 -32.5z" />
<glyph unicode="1" horiz-adv-x="708" d="M803 924q-10 4 -18.5 15t-10.5 22h-213q-6 -4 -8 -7.5t-8 -7.5h-248q-27 -31 -37 -46t-8 -58q12 -2 29.5 -3t35 -4.5t31.5 -8.5t19 -17q25 -4 43 -18q-6 -41 -21.5 -77t-23.5 -77q-29 -129 -51.5 -263t-63.5 -263q-23 -10 -37 -25q-37 2 -63.5 -4t-61.5 -12 q-4 -18 -7 -36t-9 -34q33 0 71.5 3t75.5 3q39 0 76 -4t65 -16q27 2 64 2q39 0 75 3t63.5 14t31.5 40q-12 23 -41 30t-51 11q-14 25 -19.5 48.5t-5.5 45.5q0 25 2 50.5t2 54.5q23 35 37 84t23.5 101t16.5 103.5t17 94.5l-10 18q18 14 17.5 44t9.5 71q2 10 21.5 18t44 12.5 t48 7.5t33.5 5l56 49z" />
<glyph unicode="2" horiz-adv-x="899" d="M881 285h-66q-25 -31 -41 -45.5t-34.5 -19.5t-46 -3t-72.5 2q-4 2 -8.5 5t-4.5 7q-29 0 -53 7q6 27 11 42t13.5 26t22.5 19.5t39 22.5q23 47 58.5 82t74.5 67.5t74 67.5t54.5 80t17.5 105.5t-39 146.5q-10 4 -18.5 13.5t-12.5 19.5q-41 16 -69.5 27.5t-56.5 16.5t-62.5 6 t-86.5 -3q-16 -2 -30.5 -9t-32.5 -5q-18 -23 -51 -33q-25 -27 -55.5 -51.5t-67.5 -28.5q-14 -12 -27.5 -24.5t-29.5 -22.5l-33 -72l-17 -6q-6 -16 -18 -42t-16 -50.5t4 -44t43 -21.5l4 -14q27 -6 53 0q8 8 26.5 15t38 16.5t35 19.5t19.5 27q8 39 12 60.5t12.5 35.5 t24.5 26.5t47 32.5q47 0 101.5 4.5t97.5 -18.5q18 -43 20 -89t-14 -86t-50 -70.5t-87 -39.5q-12 -12 -26.5 -31.5t-30 -38t-32 -33.5t-30.5 -22q-6 -14 -37 -35.5t-73 -50t-86 -62.5t-77.5 -71t-50 -77.5t-2.5 -83.5q31 0 56.5 5t49 12t46 13t47.5 6q0 6 16.5 9.5t38.5 3.5 q23 0 44.5 -1t31.5 -1l10 18h264q20 18 50 31l24 57q20 16 31.5 30.5t15.5 31t7.5 37t9.5 51.5z" />
<glyph unicode="3" horiz-adv-x="980" d="M963 903q-10 2 -30 13.5t-42.5 25.5t-44 28.5t-33.5 22.5q-14 -8 -28.5 -17t-24.5 -20q-14 2 -51 2q-35 0 -73 -3t-72 -11t-46 -22q-37 -2 -96.5 -29t-110.5 -64.5t-80.5 -84t-11.5 -87.5l37 -16q53 31 82 57.5t46 48t32.5 37t43 26.5t77 16t133.5 5l6 -10 q16 -4 33.5 -13t29.5 -24q39 2 54.5 -41t9.5 -96t-34 -103t-73 -63q-18 -6 -64 -36.5t-105.5 -74.5t-123 -96.5t-115.5 -98.5t-86 -81t-32 -47q47 -2 75.5 4t52.5 16.5t47.5 22.5t62.5 25l12 16q63 12 86 12t35 -7t29.5 -18.5t66.5 -21.5q6 -10 21.5 -26.5t32 -35 t26.5 -36.5t8 -31q-6 -31 -13 -71.5t-20.5 -79.5t-35 -70t-58.5 -41l-23 -31l-20 -6l-31 -33q-66 -16 -115 -31.5t-112 -37.5q-29 -47 -73 -61.5t-95 -24.5l-51 -72q33 -33 80 -53q72 14 165 53t186 95.5t179 128t142.5 152.5t74 169t-23.5 178l-23 8l-35 74l-41 4l-2 19 h-131q12 61 54 109t91.5 91t99.5 86t80 96.5t32 122t-43 162.5z" />
<glyph unicode="4" horiz-adv-x="1298" d="M1210 231q-35 2 -63.5 4.5t-54.5 2.5q-27 0 -55.5 -2.5t-63.5 -6.5q2 -10 -14.5 -16t-35 -4t-32.5 16.5t-8 48.5q10 55 21 83t18.5 50.5t10.5 55.5t-3 100l22 6q25 111 33 218.5t25 222.5l-25 24l-8 37q-31 8 -53.5 11t-39 -4t-29.5 -24.5t-28 -49.5l-18 -11 q-10 -29 -27.5 -56.5t-46.5 -45.5q-8 -16 -15 -32.5t-18 -33.5q-14 -4 -28.5 -19t-30.5 -33.5t-34.5 -35t-37.5 -24.5q-10 -16 -37.5 -53t-56 -75t-52.5 -69t-26 -33l-18 -8q-12 -23 -42 -62.5t-64.5 -89t-69.5 -101.5t-59.5 -97t-33 -80t12.5 -49h358l11 22h159 q27 -25 62 -43q6 -20 7 -46.5t-3 -53.5t-14.5 -50.5t-28.5 -37.5q-4 -25 -21.5 -73t-31 -101t-18.5 -100.5t16 -65.5h129q35 29 59.5 47.5t52.5 52.5q-14 45 -13 112t10 138.5t23.5 139t26.5 112.5q27 18 52.5 16t50 -9t51.5 -15t55 -4l12 16q41 0 68 16.5t38 43t5 58 t-31 60.5zM829 764q6 -18 0 -31.5t-12 -28t-7 -35t13 -53.5l-8 -14l-8 -2q-6 -18 -15.5 -47t-17.5 -59.5t-9 -59t9 -47.5q-14 -66 -19 -92.5t-14 -42.5q-6 -14 -16 -29.5t-27 -48.5h-272q0 14 -2 21q-41 -4 -54.5 8t-9 31.5t20.5 45t35.5 49t37 42t23.5 24.5q8 8 23.5 35 t33 57.5t31 58t17.5 40.5q43 23 75.5 64.5t60 76.5t53 50.5t58.5 -13.5z" />
<glyph unicode="5" horiz-adv-x="946" d="M1047 989q-10 0 -20.5 4t-16.5 13q-25 -16 -46.5 -35t-50.5 -27q-10 12 -17 -1t-11 -17q-78 0 -142.5 2t-125 -3t-119 -21.5t-119.5 -53.5q-35 -72 -81 -128t-87 -122q6 -49 1 -91t-16.5 -82t-25.5 -82t-25 -91l21 -23l6 -36h123l6 -13l47 -6l4 -18q51 -6 98.5 -29 t75.5 -68q16 -4 32.5 -9t33.5 -11q16 -31 37.5 -62.5t15.5 -68.5q59 -51 50 -117.5t-54 -127t-109.5 -106.5t-117.5 -59l-13 -20h-127l-36 24l-66 -24q-39 18 -87 19t-77 -38l2 -36q43 -25 61.5 -37.5t34 -17.5t40 -4t83.5 1l21 17h119l12 24h127q100 76 173 137.5t115 132 t54 165t-8 235.5q-23 27 -42.5 51.5t-21.5 60.5q-20 20 -32.5 36t-38.5 30l-11 -2l-2 20h-104l-12 17h-129q-10 14 -28 20t-38.5 9.5t-39.5 6.5t-36 11l27 125q39 35 49 90t16 102q12 14 32 19.5t42 5.5q25 0 47.5 -2t38.5 -2q14 -8 63.5 -9t106.5 1t108.5 5t69.5 3 q68 57 96 144t44 169z" />
<glyph unicode="6" horiz-adv-x="1148" d="M1544 1638q-31 0 -91 -10t-122.5 -28.5t-116 -45t-69.5 -57.5l-96 -22q-12 -20 -39 -38t-49 -22q-14 -18 -32 -42.5t-38.5 -46t-45 -37t-50.5 -15.5l-13 -21q-74 -23 -145.5 -82t-137 -142t-124 -180t-104.5 -194.5t-77.5 -188.5t-46.5 -159q4 -14 16.5 -27.5t22.5 -23.5 q4 -43 28 -83t58.5 -68.5t75.5 -46t82 -17.5q14 -23 32.5 -31t39 -11t43 -1t45.5 2l18 16h125q18 18 50 43t67 49.5t66.5 47t54.5 34.5q37 23 58.5 59t36.5 74.5t29.5 76.5t41.5 67l37 180q-16 37 -30 62.5t-29 49t-33.5 45t-43.5 50.5h-209l-14 16h-125q4 -6 7 -15t3 -15 l-8 -15l-2 2h-112l-21 56q49 49 103.5 71.5t107.5 45t102.5 58.5t85.5 109q49 31 77 65t54 85q31 6 56.5 17.5t50.5 23.5t48.5 23.5t51.5 17.5q33 39 72 78l78 22q31 37 82 57zM1071 567q-31 -10 -53 -24q-14 -43 -27.5 -87t-29.5 -87l-87 -70q-8 -25 -33.5 -51.5t-59 -49 t-68.5 -38t-60 -17.5q-27 14 -56.5 18.5t-59.5 4.5q-31 0 -63 -2t-60 -2q-16 25 -34 39t-30 28.5t-16 34t10 51.5q-23 8 -47.5 15.5t-46.5 17.5q-6 39 -7 62.5t6 40t27.5 31t57.5 32.5q25 39 65 76q6 31 7 59q23 6 47 18.5t32 37.5q-16 12 -31.5 23t-25.5 28l8 28 q25 2 31 27h31q8 -23 29.5 -31t33.5 -28h111l20 16h119l14 -16h125q-4 -16 5.5 -36t23.5 -38.5t31.5 -35.5t27.5 -32l33 -4q0 -10 -1 -19.5t1 -19.5z" />
<glyph unicode="7" horiz-adv-x="1052" d="M1231 901q-10 18 -31.5 32.5t-42.5 18.5q-18 -4 -36.5 -8t-37.5 -4q-16 0 -32.5 7t-28.5 26q-49 0 -85 3t-71 3q-33 0 -65.5 -8t-75.5 -33h-385l-10 -18l-29 -5q-31 -31 -51 -63q2 -10 12 -10t18.5 3t11.5 5t-5 -2q-4 -16 -12.5 -39t-20.5 -47.5t-26.5 -45t-26.5 -30.5 l-21 -102l35 -15l18 29l25 10l18 27q12 4 50.5 28.5t79 53t78.5 55.5t51 33l51 -21q8 10 31.5 15.5t49 7.5t50 1t37.5 -3q8 -10 3 -26.5t-12.5 -36t-14.5 -38t-1 -32.5l-31 -23q-10 -27 -20 -44t-33 -34q12 -27 6 -53t-21.5 -50t-35 -45.5t-37.5 -39.5q-14 -66 -45 -120 t-65.5 -106.5t-68.5 -104.5t-52 -113l-17 -7l-110 -194l-17 -8q-27 -53 -60.5 -120t-74.5 -110l-14 -67h110l27 78q16 14 48 50t70 81t79 96t75.5 98t59 84t33.5 55q8 23 23 58t31.5 71.5t34 69.5t33.5 55q29 39 63 77t64.5 78t56 84t40.5 95l37 25q6 14 26.5 39.5t44 50 t47 46t35.5 30.5q8 23 27.5 41t43 34.5t48.5 34t41 37.5z" />
<glyph unicode="8" horiz-adv-x="929" d="M1018 1585q-33 37 -74 44t-83 3t-81 -11t-67 1l-11 -16q-115 -16 -193.5 -71.5t-123.5 -136.5t-58.5 -181.5t3.5 -204.5q0 -4 18.5 -31t40 -58.5t42 -61.5t26.5 -38l22 -10q-2 -18 -25.5 -41.5t-56 -50.5t-64.5 -51.5t-48 -42.5q-53 -59 -86 -128t-45.5 -139.5t-7 -135 t29 -115t63.5 -81t95 -28.5q59 2 120.5 8t123.5 6q16 23 35.5 27t41.5 12q72 25 125.5 86.5t87 139t48 161.5t8.5 152q-2 16 -29 50t-57.5 71t-56 69.5t-21.5 44.5q2 8 22.5 23.5t26.5 19.5q47 33 82 70t78 72q55 45 88 119.5t40 157.5t-12.5 163t-66.5 133zM907 1501 q59 -131 52 -229t-57 -176t-134 -144.5t-178 -132.5h-33q-6 29 -6 60t4 59l-14 8q-6 25 -26.5 57.5t-43 67.5t-38 67.5t-11.5 57.5q4 20 15.5 32.5t17.5 31.5q12 31 40.5 66.5t65.5 69.5t76 62.5t74 40.5q10 4 18 6t19 11q47 0 81.5 -3.5t77.5 -11.5zM717 606q4 -63 8 -97 t1 -60.5t-14.5 -55t-37.5 -82.5q-2 -4 -9.5 -19.5t-16.5 -32.5t-16 -31l-7 -15q-10 -10 -22.5 -18.5t-22.5 -18.5q-25 -6 -50.5 -10t-44.5 -25q-49 -10 -71.5 -15t-35.5 -1t-29.5 19.5t-55.5 48.5q-2 18 -9.5 39.5t-27.5 29.5l59 281q16 14 42 40.5t53.5 51t55.5 43t50 20.5 q16 16 33.5 27.5t36.5 22.5q16 -10 32.5 -18.5t32.5 -14.5q4 -35 18.5 -64t47.5 -45z" />
<glyph unicode="9" horiz-adv-x="1089" d="M1049 862q-23 23 -34 28t-20.5 10t-20.5 19.5t-32 55.5q-74 0 -129 -2t-105.5 -8.5t-100.5 -17.5t-111 -29l-13 -19q-92 -43 -166.5 -129t-111.5 -190.5t-28 -213t83 -194.5l29 -6l4 -16q31 -20 67.5 -25.5t74.5 -0.5t74 17.5t66 28.5q27 -2 48.5 3t46.5 15 q10 18 36.5 26.5t57.5 9.5t59.5 0t42.5 -1l6 -28q-35 -59 -81 -120t-93 -122.5t-90 -126t-71 -133.5q-8 -6 -48 -37t-91.5 -73t-103.5 -89t-84 -85t-32 -58q0 -23 53 -15q43 6 110 49.5t139.5 107t147 139t134 150.5t98.5 140.5t41 106.5q18 10 37.5 39.5t37 65.5t32 70 t20.5 52q25 63 54.5 143t43 163t0 162t-76.5 138zM940 434q-14 -18 -31.5 -41.5t-38 -43t-44 -34t-50.5 -16.5q-18 -16 -32.5 -25.5t-38.5 -13.5l-5 -12l-10 -8h-143l-2 20q-23 4 -44.5 9t-43.5 12q-12 16 -26.5 31.5t-35.5 25.5q-4 23 -13 42t-24 36q2 27 1 55.5t3 52.5 q8 39 35 84t64 86t79 72t81 41l12 16q16 4 30.5 6t26.5 13q53 0 88 -1t82 -18q0 -10 7 -18t18.5 -15.5t23 -12.5t19.5 -9q29 -59 49 -98t25.5 -73t-9 -71t-53.5 -92z" />
<glyph unicode=":" horiz-adv-x="653" d="M465 1053q-10 0 -18.5 1t-18.5 1q-25 2 -34 -4.5t-29 -28.5q-8 -2 -30 -3t-28 -7q-35 -31 -53 -72t-22.5 -82t8 -77t40 -55t71.5 -15t104 43q45 31 65.5 81t19.5 98t-20.5 84t-54.5 36zM381 233q-10 0 -17.5 1.5t-17.5 1.5q-27 2 -35 -4.5t-30 -28.5q-6 -2 -28 -3t-28 -7 q-35 -31 -53 -72t-22.5 -82t7 -77t40 -55.5t72.5 -15t104 42.5q45 31 65.5 81.5t19.5 98.5t-21.5 83.5t-55.5 35.5z" />
<glyph unicode=";" horiz-adv-x="690" d="M483 1055q-10 0 -18 1t-19 1q-25 0 -34 -6.5t-31 -28.5q-8 0 -29.5 -2t-27.5 -8q-37 -31 -57.5 -72t-27 -82t4 -77t37 -54t71.5 -14t107 43q47 31 69.5 81t23.5 98t-16.5 84t-52.5 36zM463 -70q10 70 11 132.5t-18.5 109.5t-66.5 74.5t-131 27.5q-16 0 -38.5 -4t-44 -9 t-39 -8t-25.5 -3q-31 -27 -55.5 -77t-33 -99t8 -86t69.5 -37q25 0 45.5 10t40 23.5t40 28t42.5 22.5q8 -16 6 -26.5t-6 -18.5t-9 -17.5t-5 -23.5q0 -74 -17.5 -122t-43 -79t-56.5 -50.5t-58.5 -34.5t-47 -32.5t-23.5 -44.5q-8 -45 15.5 -52t62.5 9.5t88 49t93 67.5t79 64.5 t43 39.5q62 74 74 166z" />
<glyph unicode="&#x3c;" horiz-adv-x="819" d="M723 918h-47q-35 -39 -73 -82t-79 -81t-87 -63.5t-97 -29.5q-20 -18 -42 -20.5t-42 -0.5q-18 -10 -37.5 -19.5t-36.5 -25.5q-20 -4 -40.5 -9t-41.5 -12q-8 -10 -19 -20t-26 -14l-18 -29q4 -10 9 -18.5t11 -16.5q41 -8 83 -15t83 -18l2 -18q18 -4 36 -9t36 -9l4 -17 q23 0 39 -8t30.5 -20.5t28 -24.5t31.5 -19q8 -37 18.5 -57t11.5 -38.5t-11.5 -41t-47.5 -61.5q20 -14 35 -23.5t32 -12.5t39.5 1t59.5 14l19 -14l24 82q-18 -2 -22 8t-2 24.5t5 29t1 20.5l-84 172q-20 6 -29 20q-10 2 -26.5 7.5t-33 11.5t-29.5 13t-17 18q-39 4 -40 29.5 t19 58.5q55 4 107.5 26.5t107.5 38.5q12 16 27.5 24.5t31 19.5t29 28.5t23.5 50.5z" />
<glyph unicode="=" horiz-adv-x="1196" d="M1092 567q0 16 1 33.5t-1 34.5l-31 22q-10 2 -19.5 -1t-17.5 -5l-8 4l-15 -10q-8 0 -63 3t-135 5t-172 4t-176 2q-82 0 -144.5 -2t-83.5 -8q-4 -2 -25.5 0t-48 4t-51 4t-32.5 2q-10 -18 -7 -47.5t13 -46.5l47 -20l6 6l-14 14q23 -10 43 -10h45l12 -10l12 10q8 0 26.5 3 t37 5t35 3t22.5 -3l-2 -2q51 -4 98.5 -6t96.5 -12q66 25 134 22.5t139 -9.5t140.5 -9.5t137.5 20.5zM1083 268q14 23 8 47.5t-16 46.5l-45 19l-8 -4l16 -15q-12 8 -43.5 9.5t-46.5 -0.5l-12 12l-12 -10q-31 -4 -60.5 -9.5t-60.5 1.5l2 2q-178 14 -350 10t-353 0 q-10 -6 -21 -9t-22 -8v-67l31 -23q10 -2 18.5 1t18.5 5l8 -4q6 6 58.5 8.5t129 0.5t168 -5.5t176.5 -5.5t154.5 -1t102.5 7q29 4 72.5 -5t86.5 -3z" />
<glyph unicode="&#x3e;" horiz-adv-x="819" d="M715 492q-4 10 -10.5 18t-10.5 16q-43 8 -85 15.5t-83 17.5l-4 16q-18 4 -34.5 10.5t-34.5 10.5l-4 16q-25 0 -42.5 8.5t-31 20.5t-26.5 24.5t-32 18.5q-8 37 -18 57.5t-13 38t8 40t48 61.5q-29 35 -71 38t-95 -16l-20 15l-23 -82q18 0 23.5 -11.5t3.5 -26t-5 -27.5 t-1 -17l90 -172q8 -4 16 -8.5t12 -12.5q20 -6 58.5 -18.5t48.5 -30.5q39 -4 40 -29.5t-18 -58.5q-55 -4 -106 -27.5t-107 -40.5q-12 -12 -24 -19t-29 -15q-20 -12 -36.5 -47t-29 -75t-19.5 -74t-9 -40h47q10 14 26.5 25.5t26.5 23.5q29 37 56.5 73t60.5 64.5t71 47t87 22.5 q20 18 40.5 20.5t43.5 -0.5q18 10 36.5 19.5t34.5 26.5q39 6 80 18l21.5 21.5t25.5 15.5z" />
<glyph unicode="?" horiz-adv-x="927" d="M864 1139q0 90 -9 139t-28.5 86t-48 76t-67.5 106q-29 14 -59.5 27.5t-59.5 30.5l-10 18q-49 4 -89 11t-92 5q-23 0 -45 -9t-45 -9l-8 -16q-29 -2 -44 -3.5t-38 -17.5q-10 -29 -19 -35t-14.5 -12t-6.5 -24.5t7 -67.5h111q23 16 48.5 32.5t53.5 22.5q-4 4 0.5 8t8.5 4h127 l8 -12l43 -4q10 -12 23.5 -22.5t25.5 -20.5q2 -8 11 -27.5t19.5 -41t17.5 -38t7 -18.5v-137q0 -4 -9 -17.5t-21.5 -26.5t-23.5 -25.5t-15 -14.5q-31 -27 -54.5 -42t-49 -22.5t-55.5 -10.5t-69 -5l-10 -16q-23 -2 -42 -8.5t-40 -12.5l-8 -16q-29 -10 -59.5 -20.5t-61.5 -16.5 l2 -6q-12 -12 -39 -17q-16 -39 -30.5 -57t-24.5 -27.5t-17.5 -17.5t-9.5 -25.5t0 -51.5t8 -97q10 -10 24.5 -26.5t31 -32t33 -26.5t30.5 -13l8 -17q47 -16 66.5 -23t38 -9.5t46.5 -1.5t93 1q16 10 33.5 19.5t38.5 13.5q25 18 35 45l-9 25q-16 4 -31.5 8t-31.5 8l-23 -14 h-163l-17 12q-4 23 -17 39.5t-22.5 33.5t-8.5 35.5t28 43.5q31 0 58.5 11t55 25.5t54 25.5t55.5 9l10 19q35 12 70 21.5t69 13.5q35 25 71 49t77 39q0 2 9 21.5t21.5 42t23.5 45t16 34.5q16 11 28 25zM285 170q-29 14 -49 45q-29 0 -54.5 9t-54.5 9q-23 0 -46.5 -9t-47.5 -9 q-4 -6 -9.5 -12t-13.5 -10q-6 -29 -9 -51.5t1 -42t15.5 -39t29.5 -42.5q10 -4 19.5 -11t21.5 -7h98q6 6 15.5 12t19.5 6q10 6 20.5 11.5t20.5 9.5q2 12 12.5 30.5t17.5 38t8 36t-15 26.5z" />
<glyph unicode="@" horiz-adv-x="1796" d="M1606 954q-41 43 -62.5 63.5t-40.5 37.5q-12 8 -26.5 16t-35 18.5t-50 25.5t-72.5 38l-4 16q-41 0 -78 9.5t-57 40.5q-29 4 -66 13t-70 -1l-10 -10h-131l-10 -19q-27 -2 -44.5 -4t-32.5 -6t-31.5 -10t-41.5 -13l-12 -16q-70 -10 -133 -51t-119.5 -99.5t-103.5 -131 t-85 -147.5t-63.5 -146.5t-38.5 -128.5q-10 -43 -11 -85t-1 -88q0 -43 -1 -89t-13 -95l16 -6l58 -225q43 -23 62 -56.5t40.5 -67.5t57.5 -62.5t110 -39.5l33 -38h284q8 0 26.5 5t36 12t30 14t12.5 10q-10 20 -29.5 32.5t-43.5 20.5t-48.5 12t-44.5 10l-12 -20h-66l8 33 l-47 -15l-70 17l-20 36q-102 33 -157.5 108t-76 175t-11.5 217t40 234.5t76 227.5t94 196q29 14 51.5 34.5t34.5 49.5q43 18 87 33.5t89 31.5l9 14l165 33q39 37 95.5 29t116 -35t111.5 -60.5t81 -47.5q6 -31 20.5 -42.5t32 -19.5t33.5 -21.5t24 -50.5q18 -88 43 -162.5 t32 -144t-15.5 -140.5t-99.5 -153q-14 -14 -65.5 -36.5t-111 -42t-113 -32t-69.5 -7.5v71q23 41 43.5 86t24.5 94l16 9v22t3 24.5t9.5 21.5t20.5 12q10 29 17 53t32 45q0 53 3 94t44 78v110l-16 21q-29 8 -39 11t-17.5 1t-16.5 -5t-34 -7q-16 -18 -35 -35q-4 -12 -11 -25.5 t-19 -17.5l-19 25q-39 0 -64.5 -1t-46 -6.5t-41 -15.5t-51.5 -24q-10 -23 -25 -42.5t-40 -19.5q-25 -27 -55.5 -68.5t-60 -83.5t-54.5 -77t-39 -45q-4 -14 -8 -28.5t-8 -29.5l-17 -8q-8 -23 -11 -42t-24 -36v-88q-12 -2 -16 -11t-3 -22.5t3 -29t2 -27.5q14 -16 11 -36.5 t-8 -43t-1 -47t33 -47.5h111q25 35 50 52.5t53 29.5t56.5 25.5t57.5 40.5q6 -16 -0.5 -42t-8.5 -49.5t9.5 -40t52.5 -16.5q16 0 35.5 6t38.5 10q4 4 8 17l24 4l23 29q25 6 47.5 21t40.5 28q53 0 103.5 16.5t103.5 24.5q4 2 25.5 13t56.5 31.5t57 39.5q68 55 108 143 t52 183.5t-2.5 184.5t-52.5 148q4 25 5 48t-1 46zM1055 694q-18 0 -19 -20l8 -10q2 2 9 2q8 -18 8 -48q0 -27 -6 -55t-17.5 -53t-25.5 -39q-2 -23 -7.5 -43t-9.5 -43q-16 -16 -31.5 -29.5t-15.5 -38.5q-12 0 -25.5 -26.5t-33 -58t-46 -56t-67.5 -22.5q-33 -37 -54.5 -38 t-33.5 17.5t-17 49t-5 59.5q0 45 9 74.5t21.5 53t21.5 43t9 44.5q8 12 27.5 37.5t19.5 42.5q18 23 39 37t41 28t40.5 30.5t39.5 45.5q10 2 33 2v20z" />
<glyph unicode="A" horiz-adv-x="1355" d="M1290 1300q10 0 13.5 19.5t2.5 43t-6.5 46.5t-11.5 29q6 35 11.5 62.5t-11.5 60.5l-51 32q-12 2 -33 2q-20 0 -40.5 -1t-39 -5t-30.5 -12q-10 -12 -43 -55t-71 -90.5t-70.5 -85t-43.5 -43.5l-37 -105l-32 -24q-2 -10 -22.5 -45t-53.5 -82.5t-71 -101.5t-74.5 -101 t-67.5 -82t-45 -45q-14 -41 -38 -79t-60 -65l-13 -45l-33 -30q2 -41 -20.5 -84t-62.5 -60q-43 -57 -97.5 -105t-107.5 -95q-18 0 -38 -1t-37 -5.5t-32.5 -14.5t-23.5 -31l16 -55q20 -4 39.5 -7t38.5 -9q25 6 48.5 12t49.5 2q-6 -10 4 -13t29 -3q18 0 37.5 1t32.5 1l16 14 h176l10 -10l43 -6l6 -21h29q39 27 62 64l-9 26q-35 6 -64.5 14.5t-64.5 12.5q-8 10 -15 21.5t-13 23.5q14 57 43.5 112.5t64.5 108.5t71 106.5t64 104.5l39 8l11 21h254q18 -8 35.5 -23.5t27.5 -34.5q4 -61 5 -105t13 -103q-6 -35 -17 -48.5t-22.5 -34t-21.5 -58.5t-16 -118 l-56 -22l-28 14l-41 -14l-11 -35q23 -23 33 -41h105l14 -14h94l8 -21q14 -4 28.5 -10t29.5 -8l12 2h-2l92 18l-2 7l41 16l10 29q-4 14 -17 37.5t-28.5 48t-27 44t-11.5 23.5q0 92 1 193.5t30 191.5l-14 53q6 14 9 21.5t3 11.5q0 6 -3 13.5t-9 19.5q35 154 66.5 306t41.5 310 zM1059 1214q6 -20 6 -32q0 -10 -3 -19.5t-8 -21t-10 -29.5q2 -8 13 -14q4 -29 10 -71t-10 -71q-4 -10 -9.5 -20t-7.5 -23q-4 -45 -11 -88t-15 -88q-12 0 -22.5 -2t-16.5 -14h-150q-6 4 -18 16q-8 -8 -21 -14h-65q-4 10 -6 21.5t-4 23.5q16 25 41 49q47 47 69.5 98.5 t44.5 112.5q27 16 46.5 40t36 49.5t32.5 50t37 46.5h41z" />
<glyph unicode="B" horiz-adv-x="1249" d="M1313 1366l-29 23q-4 37 -11 71.5t-24 69.5q-35 16 -68.5 34.5t-50.5 57.5q-51 14 -105 18.5t-110 4.5q-55 0 -111 -3.5t-108 -3.5l-14 -16h-352q-20 -20 -40 -30.5t-36 -35.5q0 -4 3 -11t7 -11q31 18 67 11t68 -13q2 -20 23.5 -18t36.5 2l35 -23q-35 -49 -44.5 -102.5 t-12.5 -108.5t-11 -109.5t-39 -107.5q-14 -23 -26.5 -52.5t-8.5 -58.5q6 -53 7 -88t-9 -86q-18 -6 -35.5 -45t-35 -96t-34 -125t-30.5 -131.5t-25.5 -116.5t-19.5 -80l-43 -41q-63 -4 -121 -18q-12 -55 0 -111q31 -4 61.5 -12t61.5 0q-16 8 13.5 11t72.5 3q45 0 90 -1t60 -1 l6 21h153l15 16h184l8 -12q29 -8 59.5 0t59.5 14l10 19q78 2 134.5 35.5t93 89t56 125t21.5 144.5t-11 149.5t-40 138.5q-41 29 -80 59.5t-73 67.5q29 35 73.5 55t85.5 35q16 29 40 51.5t52 40.5q18 51 60 88q16 55 31.5 104.5t9.5 108.5zM1126 1270q0 -18 -9 -39t-13 -39 l14 -39q-20 -49 -43 -90q-27 -12 -57 -19q-6 -8 -12.5 -15t-12.5 -17q-57 -18 -84.5 -32.5t-53.5 -24t-62.5 -13.5t-112.5 -2q-6 -10 -6 -22h-96q-29 78 -21 135t26.5 102t38 82t17.5 74q25 12 34 33.5t9 46.5q0 27 -3 53t-3 49q12 6 25.5 11t27.5 5v23h148l6 -19 q29 -4 55.5 -8t54.5 -12q8 -8 17.5 -14t19.5 -9q12 -14 28.5 -39.5t32 -55t25.5 -58.5t10 -47zM1028 549q-16 -41 -15 -82t1 -86q0 -16 -15.5 -39t-36 -45.5t-41 -43l-32.5 -32.5q-39 -10 -56.5 -18t-26.5 -14.5t-16.5 -10.5t-27 -7t-57 -4t-107.5 -1l-6 -21h-203 q18 14 12 31q-10 35 -9 69t7.5 67.5t13.5 67.5t9 69q18 16 31.5 69t26 110.5t23.5 103.5t27 48l25 68h59l4 -21h117t74 -3t45 -11t33.5 -24.5t42 -43t65.5 -65.5z" />
<glyph unicode="C" horiz-adv-x="1163" d="M1327 1407v125q-61 57 -102 80.5t-85 30t-103.5 1t-157.5 -5.5q-18 0 -40 -11t-55 -5q-39 -39 -90 -75t-94 -72q-18 2 -43 -11.5t-39 -23.5q-8 -25 -45 -57.5t-80 -76.5t-81 -98.5t-46 -120.5q-31 -37 -39 -75l-16 -8l-37 -82l-18 -7q0 -88 -9.5 -148t-18.5 -121.5 t-14 -135.5t5 -186l18 -7q16 -55 40 -102t36 -106l4 2q18 -18 14 -43l99 -31l10 -19l66 -4q-4 -4 1 -9t9 -5h131l14 16h119l39 25q47 -2 93 20.5t71 65.5q57 20 105 61t69 101l-27 35q-10 -12 -50 -38t-87 -50.5t-91 -42t-63 -15.5q-25 -23 -61.5 -29t-67.5 -10l-10 -10 l-82 -6l4 -10q-35 -23 -68.5 -1.5t-63.5 61.5t-53.5 84t-37.5 67l14 26q-10 27 -10 53q0 29 6 54.5t14.5 52.5t14.5 55l20 8v125q0 39 5.5 62.5t19.5 52.5t43 98l18 11q16 49 32 99t59 81l34 102l19 10l4 43q51 41 93 89.5t85 95.5q35 10 69.5 19t69.5 16l11 18h110l8 -18 q25 -10 46.5 -20.5t45.5 -18.5q10 -37 25.5 -55.5t36 -23.5t47.5 -1t57 10l7 39h24z" />
<glyph unicode="D" horiz-adv-x="1499" d="M1483 1145l-13 6q10 100 -15 179t-107 132l-9 29q-66 49 -123 71.5t-141 41.5l-8 18l-43 4q4 4 0 8t-8 4h-539l-8 -14l-20 14h-146l-19 -8q-20 -8 -26 -22.5t3 -31.5t20.5 -28.5l13.5 -13.5h168q27 -29 41 -66l-15 -112q-35 -31 -56 -75t-33.5 -94t-20.5 -101.5 t-19 -94.5q-6 0 -10 -6t-4 -10l8 -45q-53 -96 -80.5 -186.5t-43 -181.5t-24.5 -183t-24 -193q-23 -14 -50.5 -21t-49.5 -3q-18 -18 -45 -19q-25 0 -47 4l-4 19h-64q-20 -25 -41.5 -49.5t-36.5 -53.5l6 -24q35 -20 66 -28.5t61.5 -10.5t65.5 -1t80 1q16 8 30.5 18.5 t28.5 20.5h115l18 14h91l12 -14q37 -6 102.5 9t135 43t132 61.5t93.5 66.5l67 19q121 119 211 212t154.5 192t105.5 217t64 286zM1239 1139q-8 -16 -17.5 -53t-20.5 -84.5t-25.5 -97.5t-31 -93t-35.5 -72.5t-42 -31.5q-35 -59 -68.5 -96.5t-78.5 -86.5q-4 -4 -9.5 -22.5 t-9.5 -26.5q-45 -86 -130 -144.5t-173 -74.5l-12 -18l-70 -21l-10 -16q-16 -6 -44 -10.5t-52.5 -1t-40 17.5t-4.5 47l210 637q10 33 14.5 79t8.5 81q8 53 29.5 109.5t50.5 103.5q20 35 26.5 73.5t14.5 76.5t26.5 72t61.5 62q92 0 137 -8t76 -22.5t63.5 -35t102.5 -44.5 q23 -78 36 -145.5t17 -153.5z" />
<glyph unicode="E" horiz-adv-x="1333" d="M1309 1538l-54 53l-112 4l-15 -12l-92 4l-6 -22h-59q-39 0 -88 -1t-102.5 -2t-101.5 0t-84 3t-48 6l-10 -21l-41 23q-10 -10 -31 -14.5t-44.5 -5.5t-46 1t-34.5 5l-51 -29v-68l26 11q41 -8 84 -15.5t84 -3.5v-98l-22 -6q0 -18 3 -41t1 -46.5t-10.5 -43t-28.5 -27.5 q0 -61 -14.5 -123.5t-34 -124l-39 -123t-31.5 -121.5l-53 -57l-4 -74l-47 -65l20 -23q-23 -20 -29 -61t-10 -72l-16 -8q-16 -39 -22.5 -79t-10.5 -83q-33 -12 -69.5 -34.5t-71.5 -16.5q-2 -27 -4 -53.5t-10 -50.5q37 -18 72.5 -19.5t76.5 -3.5l14 14q145 -6 263 -8t227 -2 t220.5 -1t244.5 -7l71 51l19 76l31 24l18 60l18 8q6 35 11.5 61.5t27.5 53.5l-24 39q-35 -20 -68 -40t-63 -44q-6 -35 -25.5 -55.5t-58.5 -12.5l-74 -70l-23 -81l-90 4l-34 24l-33 -22l-19 2l-6 20q-31 2 -72.5 1t-85 0t-82 7.5t-65.5 20.5l-49 -12q-23 6 -45.5 17t-38.5 28 v90l18 6l4 41q4 4 7 4q4 0 8 6v113l18 10q6 27 19.5 51.5t29.5 46.5q2 23 12.5 45.5t24.5 38.5q4 55 11.5 100.5t48.5 86.5l75 -4q12 -16 29 -21l51 18l27 -22l100 -4l25 -49l8 4l10 -21q4 -14 -5 -28.5t-17 -22.5v-106q55 31 83.5 51t40 47t11.5 65v105q14 12 20.5 25.5 t10.5 27.5t9 27.5t17 25.5v127l15 17q-6 16 -16.5 32.5t-20.5 30.5l-33 2q-8 -20 -21.5 -38.5t-29.5 -32.5v-33l22 -12q-23 -20 -35 -40t-23 -39.5t-23.5 -39t-32.5 -37.5l-78 -2q8 -4 5 -7t-11 -3q-6 0 -12.5 3t-2.5 9l-78 6l-6 18l-35 3l-18 -21l-53 31v76l18 8 q2 39 10.5 65.5t22.5 59.5l16 10l21 113l16 6l19 78l18 6v32l-20 11l18 10l21 61q33 23 44 41.5t31 46.5l299 -12l6 -22q25 -2 49.5 -4.5t49.5 -6.5l2 -55q20 -27 36.5 -48.5t45.5 -43.5q18 33 27.5 55.5t11.5 44t1 49t-1 70.5z" />
<glyph unicode="F" horiz-adv-x="1282" d="M1352 1362q-12 18 -19.5 38.5t-13.5 42t-13.5 41t-19.5 38.5v28l-264 17l-8 -15l-29 17q-25 -4 -38 -6t-23.5 -1t-22.5 4t-35 9q-12 -6 -35.5 -8t-50.5 -2q-25 0 -48 2t-36 4l-6 -21l-123 9q-6 -2 -8 -6.5t-6 -8.5l-162 10l-37 -20l-10 -37l21 -45l120 -8l7 -12l38 -7 l13 -30q-6 -16 -20.5 -41t-30 -50.5t-27.5 -48t-12 -30.5q0 -4 -2 -26.5t-5.5 -44t-6.5 -34t-5 5.5l-8 -41l-18 -6q0 -2 -2.5 -25.5t-5.5 -47t-6 -37t-5 5.5l-22 -78l10 -8q-6 -29 -11.5 -55.5t-7.5 -55.5q-6 -8 -13 -19t-9 -22q-10 -66 -26.5 -116t-28.5 -111l2 -10 q-27 -35 -33 -70t-4 -80l-21 -8q-4 -33 -14 -69.5t-25.5 -71.5t-37 -67t-48.5 -52q-31 -4 -63.5 -16.5t-54.5 -34.5q4 -4 5 -14.5t1 -14.5q27 -6 52.5 -14t53.5 -2q-4 4 1 7t9 3l367 -23l8 23l92 -6l17 12l2 35q-23 23 -56.5 35t-64.5 20l-41 -12q-31 10 -53 24l8 144l27 35 l-13 43q10 29 31 49t37 45q6 8 13 58t14.5 108.5t12.5 111t7 68.5l340 -21q6 -8 13 -18t12 -20q-8 -23 -16.5 -45.5t-12.5 -45.5q0 -2 -6 0t-8 -6l-5 -80l52 -20q29 10 47 29l14 196l23 29q0 14 9 61t20.5 97.5t19.5 91.5t6 45l-53 2q-10 -29 -17.5 -62.5t-17.5 -65.5 t-27.5 -58.5t-46.5 -45.5l-262 17l-33 26q18 41 35.5 84t32.5 86q8 8 13 34t10 55.5t9.5 60.5t10.5 53q23 18 33 42t12 49.5t1 52t1 55.5q27 12 56.5 14t58.5 0l4 21q16 -12 40.5 -20.5t43.5 -2.5l8 17l135 -9l8 15q18 -8 39 -12.5t41 -8.5q16 -29 39 -62.5t47.5 -64.5 t51 -51t50.5 -20z" />
<glyph unicode="G" horiz-adv-x="1331" d="M1389 705v55q-47 20 -94.5 27.5t-96.5 8.5t-99 -2t-100 -3l-10 18l-76 4q2 8 -8 11t-26 3t-33 -1t-23 -1q-4 -14 -5 -31.5t5 -31.5l35 -12l16 -21l44 -4q23 -33 55.5 -54.5t56.5 -49.5l-18 -21q-2 -41 -12.5 -84t-38.5 -76q-4 -33 -8.5 -61.5t-26.5 -52.5 q-8 -59 -34 -107.5t-75 -83.5h-162q-10 6 -32.5 20.5t-47 32t-44 33t-23.5 21.5l-10 -2l-80 41q0 4 -4 16t-10.5 27.5t-12.5 31t-8 21.5q-20 16 -37.5 36.5t-13.5 49.5l-19 8v350l19 8q6 33 12 75t17.5 84t28 78t42.5 58q8 20 26.5 38t40 34t40 34.5t24.5 43.5 q18 16 30.5 26.5t22 19.5t18.5 22.5t21 35.5l62 19q14 25 49 33t76 8t82 -4t65 -4l45 -33q29 -2 46.5 -17.5t17.5 -44.5q16 -18 26.5 -41.5t5.5 -48.5q29 -8 54 -37h82l22 47l-20 29v125l-15 12v95q-23 14 -41 34q-41 6 -98 24.5t-100 31.5l-10 16q-55 4 -96.5 7t-96.5 -7 q-14 -14 -35.5 -27.5t-45 -23.5t-47.5 -15.5t-44 -5.5l-39 -32l-33 -5l-28.5 -28.5t-35 -31.5t-36.5 -26.5t-37 -13.5q-39 -35 -78 -70.5t-82 -66.5q-10 -41 -26.5 -73t-32.5 -62.5t-32.5 -63.5t-26.5 -73l-17 -9l-6 -57q-2 4 -7 1t-5 -7v-103l-19 -20l-4 -78 q-16 -20 -14 -50t2 -63q2 4 8 5q8 0 6 -7v-112l25 -27q-2 -29 6 -53.5t17.5 -47t17.5 -47t8 -53.5q37 -35 68 -73l2 -31q29 -16 48 -31.5t42 -38.5q27 -6 48 -24.5t38 -38.5l41 -4l37 -35h376l29 35l41 4l25 31l39 4l77 63v103l11 8l4 41l16 10q10 43 19.5 87t15.5 89l16 10 l21 78l16 8q4 35 16.5 67t40.5 52h117z" />
<glyph unicode="H" horiz-adv-x="1546" d="M1765 1550v88l-36 -14q-14 6 -25 6q-10 0 -17.5 -1t-15.5 0t-18 9h-293l-14 -16h-127l-31 -39v-72q31 -10 58.5 -17t58.5 -21l67 22l33 -20l16 -35q-14 -57 -33.5 -111.5t-35.5 -111.5q-2 -2 -10.5 -26t-21.5 -60.5t-29.5 -80.5t-32 -84t-27.5 -73t-19 -45h-196l-4 -21 l-49 23q-53 -14 -90 -16.5t-69 1t-68 8.5t-89 5l-29 -23q-6 4 -19 7.5t-25.5 8.5t-18.5 15t0 27q25 61 42 148t36.5 176t48.5 167t74 119l129 18l16 45l-33 66l-59 4q0 10 -22.5 13t-51 2t-55.5 -6t-33 -11l-72 14q-12 -8 -34.5 -12t-47 -6t-48 -1t-37.5 3q-20 -23 -49 -33 t-44 -41q14 -33 39 -48t56 -27q27 8 54.5 17t55.5 5q16 -47 -1 -87t-34 -87l-16 -8q-16 -86 -30.5 -171t-41.5 -167v-6q-6 -20 -22.5 -80t-37 -137.5t-43 -165.5t-42 -167t-31.5 -138.5t-14 -81.5q-20 -25 -53 -21l-9 -20h-104l-33 -25l-8 -35l39 -82q31 -16 61.5 -18 t65.5 2l14 16q57 0 104.5 -3t91.5 -7t90 -7t105 -3v57v35q-25 6 -50 11l-50 10l-10 16l-35 4l-27 47q16 72 22.5 125t10.5 95t9 77t19.5 72t41 79t73.5 97l82 16q8 -4 49.5 -7t97.5 -5t122 -2h123h102h59q2 -6 -8 -44t-25.5 -92.5t-35 -119t-37 -124.5t-30.5 -108.5 t-17 -70.5q-23 -18 -50.5 -26.5t-56.5 -12.5l-8 -16l-22 -7q-23 -6 -33 -22q-8 -16 5 -36.5t27.5 -33t16.5 -14.5q23 10 31 14t24 -14l101 41l8 -19l67 -4q23 -16 47.5 -15t61.5 1l98 55v33q-14 0 -36.5 8t-46 20.5t-45 27t-29.5 26.5q10 16 29.5 72.5t42 133.5t46 166 t43 170t31.5 144.5t12 91.5q20 16 32.5 39t12.5 51l27 25q14 109 45 206t45 204q6 -4 22.5 6t22.5 14q10 4 37 4t43 2z" />
<glyph unicode="I" horiz-adv-x="813" d="M1008 1487v69q-10 4 -21.5 15.5t-15.5 23.5h-131l-25 15l-22 -15h-355l-37 -22l7 -49l88 -17l8 -18l78 -4l28 -45q-43 -61 -63.5 -134t-26.5 -147q-23 -23 -28 -41t-9 -47l-16 -8q-16 -78 -38.5 -155t-45.5 -153.5t-42 -152.5t-32 -153l-30 -25q-10 -41 -20.5 -86 t-45.5 -74q-6 -23 -12 -49.5t-13.5 -54t-18.5 -51t-28 -37.5q-10 0 -33.5 1t-50.5 1q-25 0 -47 -4t-30 -13v-47l36 -39h201q45 18 101.5 16.5t109.5 -1.5q4 -4 7 -8.5t7 -6.5h101l14 15h23v55q-18 12 -29.5 19.5t-23 10.5t-26 4t-38.5 1l-47 22l-25 37l43 146l-12 12 q8 31 22.5 59.5t29.5 56t28.5 55.5t17.5 56q10 80 25.5 151.5t44.5 149.5l16 10q6 16 20.5 66.5t35 114t42 134.5t42 132t37 103t24.5 49q18 16 40.5 28t43.5 29h117z" />
<glyph unicode="J" horiz-adv-x="706" d="M893 1595q-14 20 -33.5 29.5t-41 10.5t-44 -3t-43.5 -6l-10 -22q-27 -2 -44.5 -19.5t-43.5 -17.5l-10 -8l-27 22h-80q-20 18 -46 21.5t-44 23.5h-107q-12 -12 -32.5 -20.5t-36.5 -8.5q-27 -37 -66 -59q-10 -23 -18 -37t-12 -26.5t-5.5 -26.5t5.5 -37q-8 -29 -25 -57 l10 -31h43q25 29 32 63.5t11 69.5q12 2 24.5 19.5t16.5 27.5q18 8 41 27h82l29 -19h39l8 -8l55 -4q2 0 15.5 -2t30 -3t31.5 -3t26 -2q12 -6 20 -20.5t10 -28.5q-29 -47 -57.5 -110.5t-34.5 -117.5l-12 -6q-16 -82 -46 -161.5t-61.5 -158.5t-63.5 -157t-52 -158v2v-2 q-2 -6 -8.5 -44t-16.5 -95t-27.5 -126.5t-38 -139.5t-48 -134.5t-58.5 -109.5q-10 4 -27.5 -9t-33.5 -9l-25 22q-4 33 -25 47h-36l-9 -45l27 -34q31 -8 59 -29l11 10h73l52 -14l45 33l71 83l19 89q45 39 89 134t93 234t106.5 317.5t129.5 381.5q4 10 3 6t-1 -2q6 20 15 31.5 t15 31.5q4 20 6 34.5t5 35.5q2 33 -5.5 63.5t-16.5 59t-15 54.5t0 50l39 33l41 -29l43 15q8 18 14 38.5t2 40.5zM326 573v-2v2z" />
<glyph unicode="K" horiz-adv-x="1437" d="M1620 1516q4 12 3 30.5t-6 37t-13.5 33.5t-18.5 21h-96l-16 -14q-70 0 -133.5 -3t-129.5 17q-47 -12 -90 -39v-49q33 -33 63.5 -40t73.5 -17l9 -16l43 -15l-193 -188l-22 -47q-25 -10 -43.5 -28.5l-38 -38t-42 -39t-52.5 -27.5q-29 -10 -49.5 -13.5t-53.5 -1.5 q-16 -23 -44 -20.5t-50 6.5v49q18 12 33.5 43t28 69t23.5 74.5t21 61.5l19 10l24 86q41 2 73 8.5t48 49.5l-14 67q-20 16 -41 29.5t-45 25.5q-41 -20 -87 -17t-93 3l-25 14h-180q-20 -10 -33.5 -29.5t-21.5 -41.5l18 -51q20 -6 44 -5.5t46 0.5q23 0 41 -7t31 -27 q-10 -6 -19.5 -25.5t-17.5 -41t-12 -42t-7 -33.5l9 -2q-18 -66 -44 -123t-48.5 -113.5t-39 -114.5t-16.5 -126q-14 -10 -21 -23.5t-11.5 -27.5t-9.5 -29.5t-15 -27.5q-2 -29 -12.5 -61t-40.5 -44q-18 -33 -17.5 -64.5t0.5 -68.5q-14 -14 -23.5 -42t-15.5 -59.5t-9 -63.5 t-7 -54l-18 -8l-23 -103h-135l-39 -22q-23 -43 -39 -95l16 -47q25 -4 53.5 -9t56.5 -6t53.5 6t43.5 32q16 0 64.5 -8t100.5 -15.5t96 -9.5t53 10l36 -2l58 127l-17 17h-120l-23 22q-6 35 -4 62l18 10q2 23 11.5 56.5t19.5 70.5t21.5 72.5t19.5 60.5l18 10q-4 25 9.5 59.5 t31.5 51.5v98l13 10q4 53 18 103l19 10l20 80q27 20 46.5 26.5t37.5 5.5t38.5 -6.5t51.5 -7.5l41 -32q4 -27 19.5 -52.5t33.5 -44.5v-190l23 -19l-21 -6v-178l23 -29q-2 -10 -10 -21t-15 -22q0 -18 8.5 -51t11.5 -66.5t-3 -63.5t-37 -44q-14 -6 -27.5 -3t-27 7t-25.5 5 t-25 -9q-16 -16 -20 -33.5t-6 -40.5q-2 -20 0 -43.5t10 -23.5q80 -6 122 -8t69.5 -1t52 4t71.5 5q27 2 51.5 -3t48 -7t44 2t41.5 22q16 14 24.5 25.5t14.5 31.5q8 31 -15.5 41.5t-56.5 16.5t-65.5 16t-40.5 39q-4 12 -1 24.5t6 24t3 21.5q0 12 -8 22q-4 4 -8.5 7.5t-8.5 7.5 q-20 20 -22 54t3 65.5t12 53.5l7 23l-22 6v191q-14 12 -13.5 15t13.5 14q2 14 2 40q0 29 -1 57.5t-6.5 55.5t-13.5 41l-18 8l-8 107l-5 26l-4 13q0 16 22.5 48t57.5 71.5t78 82.5t83 85t74 76t52 57h121q16 29 51 43z" />
<glyph unicode="L" horiz-adv-x="1343" d="M1298 231q2 20 10.5 44t13.5 46.5t1 41t-25 28.5q-14 6 -34 6q-18 0 -30.5 -3t-14.5 -3q-18 -29 -36 -50.5t-34 -51.5q-49 -29 -71.5 -73t-51.5 -91h-156l-6 -21h-272l-6 23h-162v84l20 25q2 49 20.5 91t40 83t40 81.5t22.5 88.5l17 10q10 109 48 213t79 205.5t73.5 204 t32.5 206.5q29 33 64 58h106q-4 2 3 8t17.5 14t19.5 17.5t11 21.5q2 14 -6 24.5t-18 18.5t-20.5 17.5t-14.5 23.5q-57 14 -107 16q-8 -12 -70.5 -16t-139.5 -4q-76 0 -146 2t-90 2l-25 -47l27 -35q43 -12 101.5 -26.5t88.5 -40.5l7 -23v-2l-4 -2q-18 -47 -39 -106.5 t-39.5 -122t-33.5 -124t-24 -110.5l-18 -8q-23 -90 -55.5 -177t-65.5 -173t-59.5 -173t-36.5 -180l-17 -8q-4 -35 -21 -57.5t-44 -44.5h-98q-10 -12 -25.5 -19.5t-30 -13.5t-24.5 -15.5t-10 -25.5t9 -25.5t20 -16.5t23.5 -13t22.5 -17q39 0 135.5 -2t220.5 -5t257 -6t245 -3 q115 0 193 4t88 12q10 25 18.5 51.5t14.5 53.5q27 18 39 50.5t32 59.5z" />
<glyph unicode="M" horiz-adv-x="1857" d="M2120 1513v50q-10 -2 -21.5 5t-15.5 17h-168l-6 -20q-76 8 -135.5 -0.5t-104.5 -37t-77.5 -77.5t-57.5 -125l-25 -8q-31 -35 -55 -76t-65 -63q0 -39 -25 -81t-58.5 -81t-68.5 -73t-55 -56l-4 -45l-19 -8q-12 -18 -22.5 -41t-22.5 -44.5t-27.5 -40t-37.5 -26.5 q-23 8 -33 20v234q12 20 12 22q0 4 -12 25v330l-15 12v148l-22 32l22 31v49l-22 14h-188l-7 23h-120q-16 12 -43 12q-25 0 -54.5 -6t-57.5 -15t-46 -14q-18 -33 -17.5 -52t12 -29.5t30 -14.5t35 -7t27.5 -7t7 -12h135q14 -23 21 -43q-16 -51 -35 -99.5t-35 -99.5l-18 -8 q-14 -41 -29.5 -73t-30 -62.5t-28 -64.5t-21.5 -81l-16 -8l-21 -82l-16 -6q-18 -37 -42 -93.5t-30 -92.5l-18 -9q-6 -53 -37 -109.5t-64.5 -113.5t-60.5 -112.5t-25 -104.5q-43 -18 -94 -18l-16 -21l-35 -2l-41 -74l16 -63q63 -4 121 -10.5t123 -6.5l14 17h222l6 20l57 21 l27 59q-4 20 -12.5 40t-22.5 36l-47 4q-10 20 -31.5 35.5t-42.5 19.5v115l12 10q12 47 19 101l18 10q10 51 27.5 98t28.5 99l32 32q6 31 27.5 96.5t47.5 136t52.5 130t44.5 78.5q27 2 62 -4l22 -29l-22 -29l2 -242l20 -4v-153l-22 -31q8 -29 17 -61.5t3 -63.5 q-4 -4 -7 -34.5t-6 -69.5t-5 -74t-2 -45v-211q16 -23 22 -51h51q2 33 15.5 69.5t31 75.5t34 78t26.5 74q29 25 40 56.5t11 68.5l55 39q12 45 31 77.5t44.5 61.5t55 55.5t62.5 56.5l4 29q43 37 64.5 78t58.5 74q14 47 46 82.5t67.5 68.5t70.5 67t54 79l41 16q23 -18 28 -45 q-27 -37 -36 -86t-19 -94l-17 -8q-14 -61 -37.5 -120t-33.5 -122l-31 -35l-8 -55l-16 -8l-21 -82l-16 -9q-12 -51 -35 -98t-37 -100l-18 -8q-2 -33 -5.5 -66t-12.5 -62.5t-28.5 -52t-56.5 -34.5l-8 -17l-96 -37l-25 -59l23 -47h170l14 -17h106l7 -20h108l76 61v64 q-33 6 -63.5 23.5t-47.5 48.5q12 12 20.5 35.5t14.5 51t10 55.5t9 46q16 18 25 43t11 49l19 8q0 80 18 154q4 4 8.5 1t6.5 9v117q18 23 38.5 60.5t39 80.5t32 84t17.5 72l16 8q0 18 2 47t6 58.5t10.5 57.5t16.5 44q10 20 27.5 50t11.5 54q18 33 43.5 48.5t53.5 26.5t57.5 21 t56.5 35z" />
<glyph unicode="N" horiz-adv-x="1626" d="M1841 1542q-4 16 -11 35.5t-3 36.5l-17 24h-305l-4 -14l-39 14l-94 -16q-16 -14 -30.5 -36.5t-8.5 -45.5l23 -20q18 2 43.5 4t52.5 0t50.5 -7.5t39.5 -17.5t10 -78.5t-26.5 -161t-52 -202t-62.5 -201.5t-58.5 -162.5t-39.5 -85.5q-6 -59 -25 -110l-29 -21l-38 15 q4 16 -8.5 38.5t-18.5 36.5q-14 35 -18.5 80t-14.5 82l-10 8q0 33 -3 53.5t-8.5 38t-12.5 36t-19 46.5q8 16 -2 73.5t-30.5 134.5t-48.5 163t-56.5 156.5t-55 118t-43.5 47.5q-12 0 -40.5 1t-59.5 1t-57.5 -4.5t-32.5 -12.5q-51 12 -86 8t-78 -45v-32q35 -14 66 -15h69 l8 -18l68 -25q20 -39 3 -127t-57 -202.5t-95.5 -244.5t-111.5 -252t-106.5 -223.5t-80 -158.5t-31.5 -61l-30 -7q-30 -6 -70 -19t-81.5 -34.5t-64.5 -50.5q0 -39 38 -60.5t68 -21.5q59 29 106.5 35t117.5 0l6 22h88l6 -20h166q18 23 43 36t37 40l-8 26q-6 8 -38 12.5 t-71 4.5q-37 0 -71.5 -1t-47.5 -1l-8 12l-47 4l-20 45l25 52q26 52 68 137t93 194t102.5 224.5t97.5 227t74 201.5l37 -41q6 -41 22.5 -83t35 -85t33 -85t18.5 -80q4 -45 14 -116t24.5 -155t33 -173t40 -168t46 -140.5t49.5 -89.5h30q53 35 90 76q18 113 50 233.5t69 242.5 t75 241.5t69 228.5q29 100 46 196.5t40 196.5q39 29 75.5 45t81.5 29l-2 6z" />
<glyph unicode="O" horiz-adv-x="1200" d="M1229 1006q0 94 1 156.5t-1 108.5t-10.5 78.5t-23.5 66.5t-42 75t-68 100v8q-29 23 -64.5 27t-70.5 12q-6 -10 -34.5 -14t-61.5 -4t-63.5 1t-42.5 1q-18 -16 -42 -22.5t-49.5 -14.5t-52 -26.5t-49.5 -59.5q-35 -16 -60.5 -38.5t-45 -51.5t-38 -59.5t-38.5 -61.5 q-23 -33 -40.5 -55.5t-32.5 -44t-28.5 -48t-25.5 -69.5q-37 -123 -74 -240.5t-53.5 -236.5t-6 -243t65.5 -259q55 -39 88 -92h314q47 0 101 36t109.5 94t107.5 130t96 143.5t77 134t49 103.5q8 20 12.5 47t10.5 52.5t16 48t31 36.5q0 55 19.5 99.5t19.5 81.5zM1087 1257 q-18 -29 -38.5 -100.5t-41 -154t-37 -162.5t-28.5 -123l-16 -10q-14 -37 -40 -86.5t-52.5 -97.5t-46 -88t-21.5 -60q-12 -12 -35.5 -37t-48.5 -52.5t-44.5 -55t-21.5 -48.5q-61 -61 -123.5 -77.5t-112.5 4t-83 76t-33 137.5q0 51 14.5 92t20.5 88q4 35 9 73.5t28 67.5 q2 57 26.5 120.5t54 125t53.5 117t26 96.5l18 8q20 41 37.5 84t34.5 86q20 10 32.5 29.5t21.5 39t15.5 35t12.5 21.5q37 29 76.5 54.5t78.5 53.5q61 0 84 -6t34 -15t22.5 -17.5t48.5 -14.5l2 -20q23 -25 32 -46.5t14 -42t10 -44t17 -50.5z" />
<glyph unicode="P" horiz-adv-x="1124" d="M1286 1466q-10 4 -13 13.5t-7 25.5l-13 -2q-16 29 -49 44.5t-61 29.5l-10 -2q-20 23 -70.5 34t-116 14t-139.5 2t-141.5 -5t-124 -7t-86.5 -3l-27 -19l-35 2l-14 -22v-49q39 -10 63 -35l131 -19q12 -10 21 -28l-19 -78l-16 -8q-8 -29 -16 -55.5t-19 -53.5l-16 -10 l-21 -139l-18 -9l-12 -94t-39 -84q-6 -66 -19 -131q-27 -16 -41 -36.5t-30 -47.5q0 -8 -8.5 -45t-20.5 -80t-24.5 -81.5t-18.5 -51.5l-16 -8q-10 -51 -18.5 -100t-16.5 -101l-17 -8l-6 -51q-20 -25 -59 -35l-37 17q-18 -12 -37.5 -21.5t-40.5 -17.5l-8 -58q14 -47 45 -82 q55 -2 96 3.5t92 15.5l9 18h114l15 15l94 -41l31 24q16 -4 33.5 5t25.5 26v96l-23 14h-110q-6 16 -12.5 37t-6.5 41t8.5 39t28.5 29q6 20 17.5 40.5t27.5 35.5q0 4 10.5 38.5t22.5 79.5t24.5 89.5t14.5 64.5q14 4 24.5 14.5t22.5 20.5t28.5 17t45.5 7q8 12 21.5 21.5 t27.5 13.5l45 -16l70 20l10 17q55 20 99 49t84 59.5t78 63.5t85 63q29 82 53.5 133.5t39 98.5t15 102t-19.5 141zM1112 1292q-12 -6 -19.5 -21.5t-10.5 -33.5t-6 -36.5t-5 -31.5q-6 -4 -12 -18t-10.5 -30.5t-7.5 -32t-5 -21.5q-4 -16 -41 -44t-84 -61.5t-92 -69.5t-65 -69 h-82q-25 18 -27 37t6 36t18.5 32.5t10.5 25.5q0 8 -1 22.5t0 29t7 25.5t19 13q0 51 3 76t8 41.5t11 33.5t10 56l17 9q6 39 11 76.5t9 76.5q18 10 31.5 41t19.5 49q35 18 68 21l6 10q33 -16 66.5 -21.5t68.5 -9.5q4 -14 14.5 -23.5t22.5 -13.5q6 -23 11 -44t30 -29v-101z" />
<glyph unicode="Q" horiz-adv-x="1159" d="M1853 102q-10 25 -20 30t-20.5 2t-20.5 -9t-18 -8l-32 -156t-38 -156l-18 -8l-54 -108q-55 -12 -96 -54q-4 0 -24.5 -4t-54.5 -5t-58 9q-31 12 -46.5 34t-43.5 38q-20 10 -40 12t-38.5 3.5t-36.5 4.5t-39 15q-23 14 -34 31.5t-36 29.5q-25 14 -45 17.5t-49 11.5 q-47 12 -98 27.5t-96 26t-81 15.5t-54 -1l-9 -13q-20 2 -46.5 -1t-52.5 -8t-46.5 -9t-28.5 -2l-28 33q6 8 24.5 24.5t42 32.5t45 30.5t33.5 22.5q18 39 45 64.5t56.5 47t60 41t59.5 48.5q70 68 123 159t93 190t64.5 200.5t37.5 193.5q2 18 8 40t12 43.5t8 43t-4 37.5l-10 6 q0 115 -4 181.5t-26.5 113.5t-68.5 89t-128 110h-99l-26 -19h-31l-8 -16q-35 -4 -58.5 -9t-43 -13.5t-41 -19.5t-50.5 -30q-14 -29 -34.5 -53t-53.5 -35q-57 -76 -117.5 -175t-109.5 -206.5t-81 -217t-32 -203.5l-20 -21q0 -115 5 -182.5t23.5 -120.5t54.5 -108.5t99 -141.5 l23 -8l10 -37l-13 -45q-35 -12 -62.5 -34.5t-61.5 -37.5l-9 -16q-16 -8 -38.5 -11t-46 -7.5t-45 -13.5t-36.5 -30q-27 -37 4 -61.5t84.5 -38.5t112 -18t88.5 0l6 20q35 12 70 20.5t70 14.5l8 18h235l9 -18q25 0 53 4t54 3t48.5 -9t36.5 -33q4 -4 4 -8q0 -6 4 -10 q6 -10 17 -10q12 0 23 1t22 1q12 0 18 -11q4 -4 4 -8q0 -6 4 -10q8 -16 22.5 -20.5t30 -5.5t33 -2t33.5 -7q49 -20 78 -45t78 -43q86 -31 156.5 -37t148.5 19q84 27 138 94t85 152t43 176t12 167zM1044 1206q-2 -29 -16 -56.5t-18 -55.5q-16 -106 -49 -237.5t-82.5 -260.5 t-113 -244.5t-140.5 -193.5l-21 -4q-16 -20 -32.5 -38t-34.5 -34h-113q-59 43 -92 90t-45.5 98.5t-8 110.5t20.5 127q14 2 7 16.5t-11 20.5q2 4 14.5 47t24.5 95t23.5 100.5t13.5 62.5q10 10 18 19.5t14 19.5q35 61 58.5 131t58.5 133q12 23 29.5 51.5t37 57t39 55 t36.5 45.5q10 12 28.5 21.5t28.5 21.5q33 47 67.5 80t94.5 43q29 4 50 -14.5t36.5 -47t26 -59.5t16.5 -49q10 -33 23 -75t11 -77z" />
<glyph unicode="R" horiz-adv-x="1339" d="M1335 1282q-18 82 -37.5 126t-48 71.5t-69.5 52t-103 67.5q-8 -4 -26.5 9.5t-28.5 13.5h-369l-10 -20l-31 22l-32 -22h-115l-10 20q-16 8 -34 14t-34 2q-16 -31 -30.5 -59.5t-14.5 -62.5q49 -16 87 -28.5t91 -17.5v-57q0 -20 -12 -70.5t-30.5 -116t-42 -138t-44 -140 t-38 -122t-25.5 -83.5q-4 -14 -13.5 -62t-19.5 -101.5t-19.5 -97.5t-11.5 -48q-12 -23 -22.5 -69t-21.5 -94t-24.5 -86t-27.5 -44h-129q-27 -33 -39 -71l10 -45l-10 -25h141q16 0 47 2t67 5t70.5 5t59.5 2l16 -14h174l29 18l19 52q-4 16 -15.5 30.5t-25.5 22.5l-95 20 q-4 14 -20 24.5t-27 14.5l-10 29q6 23 15.5 67t21.5 90t24.5 83.5t24.5 50.5q18 170 62 336l38 14q18 -4 34 -20.5t26 -30.5h112q39 -86 56.5 -185.5t37 -210t54.5 -232.5t111 -255l45 -2l34 -29q12 -2 35 -5t47.5 -5t47 0t32.5 12l8 -8l7 45q-12 16 -29 35t-39 23 q-115 158 -172 340t-57 370q-29 29 -55.5 59.5t-45.5 65.5q63 29 135 65t130.5 84t97.5 111.5t39 147.5q10 10 17 24.5t11 30.5zM1128 1303q18 -49 29.5 -75t10.5 -45.5t-16 -43t-52 -70.5q-8 -10 -19.5 -24.5t-25 -30t-26.5 -28.5t-25 -19q-39 -20 -80 -39t-86 -17 q-10 0 -24.5 5.5t-28 8.5t-27 2t-19.5 -14h-114l-17 15q0 47 19.5 75.5t29.5 69.5q12 55 19.5 110.5t19 109t28.5 105.5t48 99h66l6 -22h20h33q18 0 32.5 -1t16.5 -4v-6q25 -8 50.5 -12t52.5 -8q25 -27 36 -39t16 -22.5t10 -27.5t17 -52z" />
<glyph unicode="S" horiz-adv-x="1210" d="M1237 1178q18 6 32.5 40.5t18.5 83t-2 102.5t-27.5 99t-59.5 74t-95 25l-10 18q-25 8 -74 14t-100.5 8.5t-92.5 -3t-53 -19.5l-16 -35l-62 -6l-10 -16q-41 -4 -81 -11.5t-77 -27.5q-10 -25 -32.5 -43.5t-46 -40t-43 -46t-23.5 -61.5q-16 -133 5.5 -222t62.5 -152.5 t95 -107.5t102 -84t84 -83t42 -106l19 -11q31 -90 41 -138t8 -72.5t-14.5 -34t-29 -21.5t-30.5 -37.5t-23 -83.5q-41 -25 -78.5 -34t-74.5 -9t-76 6.5t-82 10.5l-8 18q-37 6 -83 29.5t-85 57.5t-63.5 76t-14.5 83q-33 25 -57 57l-53 21q-6 14 -21 20q-6 -23 -14 -46.5 t-19 -45.5l17 -14l-15 -17q-6 -80 -13 -135t7.5 -95t60.5 -70t144 -54l6 -23h152l14 -16q131 0 202 6t105.5 16.5t48 24.5t28.5 31.5t47 36t106 39.5q31 37 55.5 75.5t13.5 89.5l35 27q20 51 29 92q-8 29 -20.5 48.5t-28.5 41.5q45 61 20.5 119t-83 116t-134.5 120.5 t-134 134.5t-81 155.5t25 188.5l18 10l35 60q76 14 155 36l11 19h141q6 2 8 -6t-2 -13l31 -6q27 -33 54.5 -60.5t50 -56t37 -62.5t18.5 -77q14 -10 27.5 -16t29.5 -12z" />
<glyph unicode="T" horiz-adv-x="1292" d="M1563 1567l-43 55q-20 4 -40 7t-40 9q-16 -6 -39 -12t-41 -2q-25 -12 -28 -29.5t-3 -35.5q0 -16 -4 -27.5t-33 -9.5l-8 -19l-289 21l-14 -15h-444l-19 -20l-18 20h-262q-41 -27 -57.5 -54.5t-27 -55t-25.5 -58t-52 -63.5v-31q57 -31 87 -22.5t51.5 36t45 62.5t72.5 57 l151 -18h109q27 -12 55.5 -31.5t36.5 -48.5l-43 -59l-14 -6q-20 -70 -54 -173.5t-73 -218t-79 -230.5t-72 -208t-53 -149l-20 -58l-30 -39h-129l-39 -30l-17 -48l15 -49q45 -8 83 -13t85 -1l14 14h86l6 21q63 0 99 -14.5t68 -24.5t71 -10t108 28l15 25l26 10v31l-41 49h-215 v76q35 51 76 152.5t85 224.5t88 253t85 240.5t76 189t61 97.5h205l6 20h152l12 13q49 -2 93 3t77 23.5t51.5 53.5t14.5 92z" />
<glyph unicode="U" horiz-adv-x="1531" d="M1655 1268q0 74 -6.5 137t-12.5 135l-32 45l-48 14l-73 -16q-4 -39 -10.5 -76t-6.5 -77q-10 -2 -14 -37t-4 -80q0 -43 2 -84t2 -55q-18 -25 -25.5 -46.5t-17.5 -48.5l-35 -24q-6 -47 -10 -72t8 -70q-12 -29 -39 -45v-129q-10 -20 -28.5 -36.5t-38.5 -24.5l-4 -25l-19 -14 q-4 -39 -28.5 -82t-58.5 -85t-71.5 -77t-70.5 -55q-6 -25 -21.5 -40t-37 -25.5t-45 -15.5t-44.5 -11l-8 -19q-29 -8 -45 -12t-33 -4q-14 0 -30.5 4t-44.5 12q-35 35 -74 71t-66 81v201q35 41 40 78.5t16 87.5l18 10q6 51 26.5 97t44 90t42 88t18.5 91l18 9q8 27 20.5 51 t35.5 43l4 28q39 25 59.5 78t34.5 97q51 31 59.5 85t-6.5 107q-68 6 -122 11t-119 -11q-59 16 -126 22.5t-135.5 4.5t-135 -10.5t-126.5 -18.5l-8 -18l-112 -19q-14 -41 -19.5 -61.5t-13.5 -34.5q-8 -16 -20.5 -31.5t-39.5 -48.5l-18 -117q10 -23 11 -47t2 -50t6.5 -48.5 t21.5 -36.5l-2 -16q31 -12 68.5 -23.5t72.5 -9.5t62.5 20.5t40.5 61.5q-10 35 -26.5 67.5t-33.5 65.5l-20 8v107q18 20 40.5 32.5t44 23.5t42 24.5t37.5 35.5h151l14 -16h105q23 -25 52.5 -40t64.5 -13l14 -60l-33 -94l-18 -8q-4 -20 -20.5 -42t-34.5 -30q0 -6 -24 -40 t-51.5 -71.5t-53 -70.5t-29.5 -39l-6 12q0 -82 -36 -150.5t-80 -135t-80 -136t-36 -153.5q20 -41 53 -80q2 -47 22.5 -78t45.5 -70q47 -20 91 -68t91 -81l70 -4q0 -12 16.5 -16.5t37 -3.5t41 3.5t30.5 2.5l6 -23h115l37 33l55 10q31 27 90 80t119.5 113.5t104.5 118t44 94.5 q41 45 83 109.5t76 137t57.5 145t27.5 134.5l18 22q2 20 4.5 47t5.5 53.5t10 50t19 40.5l4 69q4 -4 9.5 1.5t5.5 9.5z" />
<glyph unicode="V" horiz-adv-x="935" d="M1169 1546l-77 53h-138q-16 -10 -30.5 -17t-25.5 -14t-20.5 -19.5t-15.5 -32.5l17 -58q29 -4 56.5 -7t55.5 -9q20 -23 29 -47q-6 -18 -16.5 -45t-24.5 -51.5t-32.5 -46t-37.5 -29.5q-4 -10 -20.5 -48t-34.5 -80t-34.5 -78t-20.5 -40q-6 -6 -20.5 -16.5t-32 -22.5 t-31 -23.5t-15.5 -15.5q-18 -41 -59 -104.5t-86 -131t-90 -130t-71.5 -99.5t-28.5 -39q2 4 15 56.5t34.5 142.5t42 188.5t36 192.5t15.5 155q18 18 25.5 48t9.5 63t0 64.5t-2 56.5q35 23 50 45.5t44 48.5q33 2 51.5 18.5t36.5 38.5q6 27 -5 49.5t-32 39.5h-188l-6 20h-166 l-25 16h-137l-17 -45q6 -23 19.5 -43t30.5 -34l73 -23l9 -16l43 -17q8 -37 -2.5 -68.5t-27 -62.5t-31.5 -60.5t-15 -62.5q-2 -57 -13.5 -157.5t-28 -221t-34.5 -247.5t-31.5 -237t-19.5 -191.5t2 -108.5l53 -43q12 8 33.5 25.5t43 36t40 38t26.5 31.5q59 106 132 207.5 t126 206.5q12 23 30 43t36 39.5t35.5 38t30.5 36.5q33 55 65.5 115t79.5 105q12 51 41 94t63.5 84t72.5 84t68.5 95t51 116.5t20.5 150.5z" />
<glyph unicode="W" horiz-adv-x="1591" d="M2009 1548l-29 54q-16 6 -61 6q-43 0 -94 -4.5t-96.5 -9.5t-65.5 -11l-8 -20h-115q-12 -16 -17 -24.5t-5 -16.5t2 -17.5t6 -27.5q16 -10 35.5 -18.5t35 -21t24.5 -27.5t7 -38q-23 -23 -38 -50.5t-31.5 -55t-35 -51t-42.5 -35.5q-8 -12 -19.5 -32t-23 -39t-23.5 -35.5 t-24 -22.5q-16 -35 -37 -71t-56 -58q-4 -18 -27.5 -56.5t-58 -84.5t-75.5 -96t-80 -94t-70 -76t-45 -42l86 264l19 72l202 664h121q27 29 39 67l-23 45q-10 0 -52 -3t-89 -1t-83 10t-34 31h-172l-26 -23q-25 2 -20 -13t8 -38l108 -18q23 -31 35 -62q-16 -66 -52 -119 t-71 -108l-18 -8l-21 -59l-16 -9q-6 -49 -34 -90t-58 -78q0 -10 -25 -49t-63.5 -94t-84 -116.5t-86 -115t-72.5 -89t-40 -39.5l-35 30l-14 49q12 18 23.5 49t19.5 65t15 65.5t11 56.5l-16 29q29 111 54.5 207t37.5 208l19 25q4 45 23.5 86t45.5 76q25 2 37 3t22.5 4t21.5 8 t34 18v110q-27 8 -53.5 12t-55.5 9l-6 18q-14 0 -56 -2t-87 -2t-82 4t-43 16l-33 -16l-53 16q-29 -8 -52.5 -18t-43.5 -37l-2 -18q20 -12 32.5 -21.5t24.5 -16.5t27.5 -12.5t37.5 -7.5l37 -77l-24 -95l16 -61q-10 -29 -23.5 -104.5t-26.5 -173t-27.5 -205t-28 -198.5 t-24.5 -151.5t-19 -66.5q-14 -78 -12.5 -159t3.5 -161l70 -41q41 12 88 68.5t98.5 135.5t105.5 171t108.5 177t107.5 153.5t102 99.5l25 -6l-23 -35l-4 -137l-32 -45q-6 -53 -36 -134t-59.5 -167t-46 -162t3.5 -117q27 -6 44.5 -8t31.5 -2t30.5 2t43.5 8q10 37 30.5 70 t47.5 61q94 104 171.5 218t172.5 223l106 121q35 86 85 172t104 163q16 23 37.5 38.5t46.5 29.5q2 29 5 50.5t11 35.5t25.5 24.5t48.5 16.5q45 53 87 101.5t91 99.5q31 4 61.5 12t59.5 21z" />
<glyph unicode="X" horiz-adv-x="1560" d="M1722 1534v49l-43 37l-43 6q-6 0 -24.5 2t-43 5t-48 5t-37.5 0q-23 -2 -39.5 -12t-42.5 0q4 4 -1 8t-9 4h-117l-14 -16h-121q-4 -12 -18.5 -18.5t-22.5 -15.5t-2 -25.5t43 -51.5h55l27 -36l-9 -50q-49 -37 -62 -81t-30 -103q-59 -57 -113.5 -121.5t-113.5 -118.5 q-20 8 -41 23.5t-31 34.5q-10 53 -13 105.5t-7 105.5l-43 61q-4 14 -4 39q0 27 3 52.5t10 48t21 34.5l58 8l8 17q20 4 34.5 18.5t22.5 32.5q-12 35 -41 57h-276l-25 -16q-53 20 -104 18t-107 -2l-22 -16v-35l24 -20q41 -4 64 -4q25 0 59 -21q51 -186 109.5 -369.5 t105.5 -371.5q-23 -59 -65 -99q-4 -25 -15.5 -47t-27 -44.5t-30.5 -44t-28 -42.5q-37 -6 -67.5 -47t-58 -92t-54 -99t-53.5 -67h-100q-23 -20 -49.5 -29.5t-49.5 -27.5l-51 -4q-37 -29 -43 -65t10 -77h82l6 21l74 16q41 -16 96.5 -20t113.5 -2t115.5 5t102.5 3l15 49l-23 39 h-100q-14 20 -26.5 43t-22.5 45q10 27 24 47.5t28.5 40t27 41t18.5 51.5q25 23 50.5 44.5t50 46t46 51t35.5 57.5l25 8l26 33l64 18q23 -35 37 -90t20 -116.5t6 -120.5t-6 -101q-27 -14 -50.5 -34.5t-39.5 -47.5q18 -55 49 -102q18 2 34.5 -2t31 -10t28 -11.5t23.5 -1.5 l6 23h104l9 -21l67 -6q-4 -4 1 -8t10 -4h190q6 23 8 50.5t-4 51.5l-22 25q-37 8 -76 17.5t-60 50.5l-18 8q-10 35 -19.5 67.5t-15.5 67.5l-18 8q-14 47 -33 113.5t-41.5 134.5t-51 126t-63.5 91q-6 27 1 58.5t18 54.5q14 10 32.5 19t34.5 9q2 6 16.5 27.5t36 50.5t46 61.5 t47 61.5t41 49.5t26.5 24.5q-4 14 13.5 42.5t40 56.5t47 51.5t36.5 29.5h13q23 29 47 55.5t53 46.5h131l39 29z" />
<glyph unicode="Y" horiz-adv-x="1167" d="M1386 1536q-14 14 -21 24.5t-18.5 16.5t-30 12t-54.5 17l-7 18q-47 0 -96 -4t-90 18q-18 -4 -37.5 -12t-32.5 -22q-35 -2 -72.5 -37t-72.5 -83t-64.5 -95.5t-48.5 -73.5l-18 78q-10 35 -16.5 70.5t-10.5 72.5q-23 10 -37 21.5t-36 7.5l-15 22h-155l-23 -2q-24 -2 -43 -6 q-16 -4 -26.5 -10t-20.5 -12.5t-23.5 -12.5t-33.5 -8q-29 -25 -67 -64.5t-69.5 -85t-48 -92.5t-2.5 -88h84q20 20 43 56t52.5 72t65.5 60.5t83 20.5q23 -2 45.5 -13t42.5 -23.5t34.5 -22.5t22.5 -13l33 -45q-23 -53 -33 -118.5t-12 -124.5l-16 -8q-16 -29 -20.5 -63 t-6.5 -66q-59 -63 -89 -142.5t-40 -165.5q-16 -16 -21.5 -33.5t-8.5 -37t-7 -39t-16 -35.5l2 -29q-23 -41 -43.5 -84t-28.5 -88l-16 -8l-4 -63q-53 -27 -117 -37l-14 -19l-5 19q-37 0 -58 -14.5t-29.5 -34t-4.5 -43t17 -41.5q0 -2 -2 5t-3 12t1 1t10 -27q29 -6 45 -9 t30.5 -2t31 5t44.5 10q20 20 46 35t49 33h149l8 -10l43 -6l6 -19l179 -47q10 10 28.5 14.5t24.5 22.5q6 25 -16.5 38t-38.5 30q-33 4 -70 33.5t-51 62.5q16 49 25.5 63.5t13.5 25.5t4 36v96q8 12 24.5 53t36 96.5t39 119t35.5 120.5t26.5 102.5t12.5 61.5q39 49 64.5 108.5 t21.5 124.5q31 45 56.5 98.5t57 96.5t72.5 70.5t101 23.5q39 -2 59 -33.5t32.5 -75.5t21.5 -91.5t23.5 -82t38 -48t66.5 13.5l14 41q15 41 26 97t8 116.5t-38 97.5z" />
<glyph unicode="Z" horiz-adv-x="1695" d="M1616 1475v124q-23 12 -47.5 22.5t-50.5 16.5l-27 -16h-250l-6 -23q-25 0 -67 3.5t-87 3.5q-43 0 -80.5 -4.5t-54.5 -16.5q-37 0 -88 -3t-103.5 -4t-99.5 4t-80 22l-8 16q-27 10 -52.5 0t-47.5 -21q-4 -16 -1 -39.5t15 -37.5q-10 -20 -27.5 -39t-37.5 -29 q-12 -33 -28.5 -60.5t-34 -54t-32 -54.5t-20.5 -60l16 -37h89l6 20l170 88l10 17l72 20q10 31 33.5 42t52 13.5t58.5 -1t54 -3.5l8 21q84 0 157 3t151 17l-7 11l23 8q12 4 27.5 1t25.5 -7v-31q-4 -4 -4 -8v-2q-2 0 -3 -1t-3 -1q-10 -16 -29.5 -37t-41 -41.5t-45 -35.5 t-44.5 -21l-22 -33l-51 -19q-18 -41 -71.5 -91t-115 -105.5t-120 -112.5t-87.5 -108q-14 0 -48 -36t-79 -91.5t-96 -120t-100 -124t-91 -105.5t-67 -60q-8 -27 -20.5 -31t-26.5 -2t-29.5 4t-27 -13t-18.5 -54t-7 -117l47 -41h201l14 14q12 0 40 -3t58.5 -4t57 0t37.5 7h123 l16 -14q82 0 164 -2t162 -2q82 0 162.5 4t160.5 18l10 19q20 0 52 29.5t69 75.5t75 100.5t67.5 105.5t49 93t19.5 61h-49q-33 -25 -65.5 -42.5t-65.5 -35.5t-62.5 -41t-56.5 -57l-80 -21l-8 -16q-29 -4 -48.5 -7t-35.5 -7.5t-33.5 -13.5t-40.5 -28h-139l-14 -16l-299 -20 l-29 -23q-10 -2 -20.5 1t-20.5 5q0 10 -17.5 7t-39 -10t-40 -11t-22.5 6q-8 0 1.5 16.5t21.5 38t22.5 42t6.5 26.5q4 16 56 75.5t135 144.5t186.5 189.5t212 211t211 207t183.5 178t130 126t51 48.5z" />
<glyph unicode="[" horiz-adv-x="761" d="M1145 1651h-271q-63 -14 -151 -15l-12 -20q-78 0 -150 -4t-149 -13q-14 -10 -29.5 -18t-32.5 -16q-12 -8 -41.5 -76t-68.5 -166t-81 -214t-79 -219.5t-61.5 -181t-28.5 -98.5l-164 -465l8 -32l-45 -70q8 -41 -6 -79t-29 -85l-10 -39q-29 -49 -61 -98l8 -33l-35 -100 l35 -37q20 0 64 1t99.5 3t117 3t118.5 1q59 0 107.5 -2t74.5 -8q2 0 5.5 -6t-1.5 -6h99l31 43q-4 45 -46 55q-6 10 -13 19.5t-17 15.5q-86 -18 -174 -10t-168 8l2 20h-148q-16 25 -13 46.5t13.5 43t23.5 43t17 47.5l-6 9l66 153q-4 20 2 46t15 53.5t21.5 54t20.5 51.5 q4 6 8 6q6 0 10 6q6 20 20.5 56t28 74t23.5 73t10 53l-16 31l31 86l26 23q10 27 25.5 78t31 111t31 125.5t29.5 123t26.5 100.5t18.5 60l88 57l51 145q29 20 56.5 28.5t54.5 10.5t54.5 -1t56.5 -3l12 21q49 0 92 -2t86 -2t87 4t95 16l15 16l63 17q2 16 7.5 41t21.5 41z" />
<glyph unicode="\" horiz-adv-x="956" d="M889 -41q2 23 -5 55.5t-3 48.5q-27 6 -48.5 30t-38 54.5t-29.5 62.5t-25.5 54.5t-39 44t-43.5 49.5q-57 98 -104 213t-97 231t-108.5 221t-136.5 185q-10 8 -13 27.5t-4 40t0 40t1 30.5q-47 23 -75 9t-57 -55q2 -18 3.5 -26t3.5 -12.5t6 -7.5t10 -11l33 -59 q2 -23 29.5 -52.5t41.5 -58.5l5 -12h-5q20 -43 45 -87t35 -91q23 -20 65 -85t92 -155t106.5 -193.5t106.5 -198.5t90 -172t61 -114v2l34 -28q16 6 32 11t32 9z" />
<glyph unicode="]" horiz-adv-x="997" d="M1022 1599q-49 23 -112.5 19t-123.5 -4v20h-127l-34 -20q-18 18 -64.5 24.5t-99.5 6.5t-102.5 -4.5t-69.5 -6.5l-23 -32l8 -23q18 8 37 5t35 -10t34.5 -16.5t37.5 -9.5l4 -16l41 -4l8 -12q14 0 49 -1.5t74 -1.5t70.5 3.5t40.5 11.5q33 -16 69.5 -15.5t77.5 0.5 q2 -4 4 -20t3 -34.5t1 -35.5q0 -16 -2 -20q-55 -96 -87 -210t-51.5 -233.5t-33.5 -242.5t-31.5 -240t-45 -221t-77.5 -188q-25 -43 -40 -110t-32.5 -129t-42 -108.5t-67.5 -46.5l-12 -16l-78 -6l-12 -12h-336l-45 -23q-33 4 -65.5 -7t-67.5 -20l-15 -28q8 -41 35 -41 q25 0 60 12l45 -14q59 23 121.5 18.5t121.5 -4.5l13 23q96 0 188 4t189 10l36 55v-2q14 59 41 173t58.5 252t67.5 287.5t72 282t68.5 233.5t57.5 144q-6 59 12.5 125t30.5 127l-4 -2v17l4 20q8 29 21.5 60.5t25.5 60.5q16 6 12 14t-8 17l23 88q12 12 15 20t3 14q0 8 -3 17.5 t-5 25.5h2z" />
<glyph unicode="^" horiz-adv-x="649" d="M629 1077q-10 74 -33 136.5t-53.5 122t-67.5 120t-74 127.5q-8 14 -16 30.5t-19.5 28t-27.5 14.5t-41 -7q-25 -45 -43 -99.5t-33 -105.5l-16 -8q-10 -29 -19.5 -57.5t-15.5 -57.5q-10 -8 -29.5 -41t-38 -71t-32 -72.5t-13.5 -46.5q10 6 19.5 10t19.5 8q4 12 23.5 42 t43 62.5t44 59t26.5 31.5l7 28q29 16 39 44t24 55q2 4 6 10t10 2q2 -10 12.5 -15.5t23 -8.5t22.5 -8t14 -15q4 -14 7 -28.5t8 -29.5q2 -8 33.5 -46t70.5 -83t74 -84t45 -47z" />
<glyph unicode="_" horiz-adv-x="1550" d="M1577 -1024q12 23 8 48.5t-14 45.5l-47 19l-6 -7l14 -12q-12 10 -43 10t-45 -2q-10 10 -35 5t-41 -9q-10 -2 -20.5 -5t-20.5 -1l-16 2l-13 2l2 2q-49 4 -98 3t-96 14q-29 -10 -105.5 -14.5t-180 -5.5t-221.5 1t-225.5 4t-194.5 4t-128 2q-10 -6 -20.5 -10t-20.5 -8 q6 -35 0 -68q6 -4 17.5 -13t19.5 -9l31 8l8 -4l14 8q66 -6 130.5 -4t129 7t128 9.5t128.5 2.5q94 -4 198 -12.5t207 -14.5t204 -6q102 0 194 16q35 6 76 -4t82 -4z" />
<glyph unicode="`" horiz-adv-x="497" d="M420 1077q-10 72 -34 134.5t-54.5 123t-67.5 121t-74 127.5q-10 18 -17 32.5t-17.5 24t-26.5 12.5t-43 -3q-10 -18 -19.5 -35t-9.5 -37q25 -43 32 -58.5t8 -23.5t1 -18q0 -8 11 -35q4 -10 14 -15.5t22.5 -9.5t21.5 -9t13 -13q4 -16 7 -29.5t8 -28.5q2 -10 34.5 -48 t71.5 -82t74 -83t45 -47z" />
<glyph unicode="a" horiz-adv-x="829" d="M786 801v110l-16 21q-29 8 -39 11t-17 1t-16.5 -5t-33.5 -7q-16 -18 -35 -35q-4 -12 -11.5 -25.5t-19.5 -17.5l-18 25q-39 0 -63.5 -1t-45 -6.5t-42 -15.5t-52.5 -25q-8 -23 -23.5 -42t-42.5 -19q-25 -27 -55.5 -69t-59 -84t-54 -76.5t-40.5 -44.5q-6 -25 -16 -58l-16 -8 q-6 -23 -10.5 -42t-24.5 -36v-88q-12 -2 -16.5 -11t-3.5 -22.5t3 -29t2 -27.5q16 -16 12.5 -36.5t-8 -43t-1 -47t31.5 -47.5h111q25 35 51.5 52.5t54 29.5t55 25.5t56.5 39.5q6 -16 0 -41.5t-8 -49t9 -40t52 -16.5q18 0 37 6t37 10q4 4 8 17l25 4l22 29q18 4 37 14t34 21.5 t28.5 19.5t23.5 8q18 23 26.5 51.5t18.5 57.5l-14 20h-25l-6 -16q-23 -4 -46.5 -11.5t-47.5 0.5v72q23 41 34 65.5t13 73.5l16 9v22t3.5 24.5t9.5 21.5t20 11q10 29 17.5 53.5t31.5 45.5q0 53 3 93t44 79zM557 733q-18 0 -18 -20l8 -11q2 2 8 3q8 -18 8 -48q0 -27 -6 -55.5 t-17.5 -53t-25.5 -38.5q-2 -23 -7 -43.5t-9 -42.5q-16 -16 -31.5 -29.5t-15.5 -38.5q-12 0 -25.5 -26.5t-33 -58t-46.5 -56.5t-67 -22q-33 -37 -54.5 -38t-34 17t-17.5 49t-5 60q0 45 9 74.5t21.5 53t21.5 43t9 44.5q10 12 28.5 37.5t18.5 41.5q20 23 41 37.5t40.5 28.5 t40 30.5t38.5 45.5q8 2 17 2h16v20z" />
<glyph unicode="b" horiz-adv-x="780" d="M745 664l-14 36q8 31 8 50q0 20 -4 37.5t-10 37t-10 49.5q-43 39 -84 47.5t-83 -1t-85 -26.5t-90 -30l-4 -20l-19 35q8 27 29.5 85t48.5 131.5t54.5 154.5t49 153t32.5 126t5 73q-16 20 -39.5 27t-51 6t-55.5 -6t-48 -7l-8 -16q-18 -4 -36 -14.5t-28 -26.5v-25 q18 -18 42 -25.5t40 -27.5q-16 -43 -22.5 -82t-14.5 -86q-8 -10 -22.5 -50t-33 -98.5t-36.5 -124t-33.5 -126t-28 -107.5t-14.5 -63l-16 -9q4 -27 -18.5 -100.5t-50 -168.5t-49 -197.5t-17.5 -188.5q41 -2 72.5 -28.5t54.5 -57.5q51 -6 95 3t93 13q82 57 140.5 106.5 t102.5 105t76.5 124t67.5 166.5l-14 12l14 17q0 33 -1 60.5t15 56.5zM604 643q-2 -6 -5 -12t-7 -10q4 -37 -10.5 -92.5t-41 -117t-62.5 -122t-76 -106.5t-78.5 -69.5t-73.5 -11.5q-14 18 -31.5 36t-34.5 34q0 27 -1 62.5t-21 56.5q10 14 20.5 47t18.5 70.5t14 73.5t12 57 q12 43 34 80.5t49.5 72.5t57 68t58.5 67q18 4 36.5 9.5t37.5 5.5v22h39q10 -14 36 -22q6 -29 12.5 -58.5t16.5 -58.5l-14 -39z" />
<glyph unicode="c" horiz-adv-x="632" d="M600 864q-2 29 -18 58q-37 0 -45 32q-61 6 -99.5 1t-62 -13t-40 -15t-34.5 -3q-4 -20 -18.5 -41t-33 -39.5t-37.5 -35.5t-34 -32q-2 -16 -8 -31.5t-23 -25.5q-2 -16 -8 -38t-24 -26q-16 -55 -35 -112.5t-29 -114.5l-14 -8l-6 -39q-2 4 -6.5 1t-4.5 -7v-205l31 -33 q-2 -27 4 -46t13 -42q23 -10 32 -33q14 -12 36 -16t46 -4q25 0 49.5 2t40.5 2q25 14 53.5 34.5t55.5 44t47.5 50.5t28.5 55l18 6v29q-31 14 -51.5 20.5t-36.5 1.5t-33.5 -22.5t-38.5 -48.5q-31 -4 -45 -8t-26 -4q-10 0 -23.5 7t-44.5 28v239l17 8q2 18 7 50t14 66t22.5 63.5 t33.5 42.5q8 41 24.5 62t34 33.5t33 20.5t21.5 23h121q18 -29 49 -33t53.5 8t26.5 35.5t-33 52.5z" />
<glyph unicode="d" horiz-adv-x="1003" d="M1112 1573l-14 51q-59 10 -116.5 13t-119.5 1l-35 -34v-31q20 -14 39 -32.5t29 -41.5q-6 -23 -25.5 -75t-41 -108t-37 -102.5t-13.5 -56.5q6 -29 3 -54.5t-12 -49t-24.5 -48t-29.5 -51.5q-8 -16 -2 -29.5t-8 -23.5q-59 0 -107.5 -2t-103.5 -14q-2 -4 -19.5 -15.5t-39 -25 t-42 -25.5t-28.5 -16l-7 -15l-55 -18q-63 -80 -107 -134t-76 -108.5t-53.5 -121t-41.5 -170.5l-15 -7l-4 -20t-6 -21q12 -43 24.5 -87t32.5 -85l54 -4q74 -6 129 5.5t102 39t91 70.5t97 104q23 2 50 -4q0 -14 -6.5 -35.5t-4.5 -17.5q-10 -35 -10 -70t2 -69q39 -2 67.5 4 t63.5 12q35 29 72 58.5t55 72.5v29h-61q-14 -8 -24.5 -11t-22.5 17v107l16 22q0 12 16.5 75.5t39 152t49 186.5t49 181t39 138.5t18.5 57.5l18 53l17 8q14 39 36.5 88t44 100.5t38 99.5t20.5 87zM713 768q31 -37 25.5 -70.5t-26 -66.5t-43 -67t-24.5 -68l-16 -9 q-2 -25 -16.5 -56.5t-36 -62t-44 -59t-38.5 -47.5q-35 -10 -60.5 -32.5t-60.5 -32.5l-6 -19h-107l-8 -14q-43 20 -55.5 60t-5 90.5t30 106.5t50 107.5t56 93.5t45.5 66q6 -2 16 8.5t21.5 24.5t21.5 27.5t14 19.5q2 0 27 10t54.5 22.5t54 23t26.5 10.5q18 -10 38 -16.5 t40 -14.5q6 -10 12.5 -18.5t14.5 -16.5z" />
<glyph unicode="e" horiz-adv-x="638" d="M600 877l-22 6q-12 29 -31 57q-29 8 -42 11t-23.5 2t-25 -4t-44.5 -5q-6 -4 -22.5 -13t-35 -17.5t-35 -14.5t-18.5 -6q-10 -10 -25.5 -24.5t-31 -30t-27.5 -30.5t-14 -28q-20 -14 -41 -32.5t-25 -45.5l-14 -6q-12 -35 -24.5 -56.5t-8.5 -59.5l-14 -7q-4 -14 -8.5 -27.5 t-10.5 -27.5q-31 -10 -30 -41q-2 -109 -9.5 -171t-4.5 -105t23.5 -83t74.5 -102q27 -6 46 -9t36.5 -2t37 3t48.5 6q6 8 25.5 17.5t42 18.5t44 15.5t31.5 10.5l22 28l27 2q4 23 8 38.5t5 28.5t-2 27.5t-11 39.5q-35 -33 -54.5 -52.5t-39 -31t-46 -14.5t-75.5 -1 q-23 23 -47 31q-12 39 -31.5 74t-48.5 63l21 6l2 27q4 0 5 1t5 1q6 37 18 70q27 8 37 37q39 10 74 29.5t74 29.5l8 14q47 10 93 34t64 75q16 4 34 10t32 16zM432 729q-10 -16 -17 -32.5t-18 -30.5q-6 -10 -19 -21.5t-25.5 -22t-21.5 -22.5t-9 -27q-23 0 -36.5 -5t-21.5 -27 h-51q0 6 -1 18t-1 27q0 14 1 25.5t5 11.5l4 -2l2 2q2 16 3 34.5t1 34.5q23 20 40.5 46t31.5 53q18 4 28.5 10t19.5 10t22.5 6t40.5 -2q2 -6 10 -6q8 4 12 8v-88zM154 356q2 -6 0 -10v10z" />
<glyph unicode="f" horiz-adv-x="659" d="M1051 1382v101l-88 84q-27 4 -72 7t-92 -1t-85 -17.5t-50 -39.5q-68 -25 -119 -81.5t-88 -127t-63.5 -147.5t-47.5 -142l-76 -55l-24 22q-16 -8 -33.5 -14t-34.5 -10l-8 2q-8 -20 -17.5 -41t-19.5 -39q12 -27 37 -52h111l30 -20q6 -41 -2 -73.5t-21.5 -63.5t-25.5 -60.5 t-12 -62.5l-17 -8q-6 -37 -25.5 -111t-38.5 -153.5t-34.5 -147.5t-15.5 -90l2 -10l-35 -49v-97q-12 -18 -21.5 -39.5t-15.5 -44.5q-23 -16 -39 -36.5t-32.5 -42t-34 -41t-41.5 -31.5q-23 29 -51.5 54.5t-61.5 41.5q-45 -14 -70 -51q-6 -27 0.5 -56.5t14.5 -54.5l53 -39h166 l20 29q59 8 100.5 65.5t74 130t59 144.5t55.5 106l4 41q27 29 50.5 94.5t43 147.5t38 171t38 167t40 134t44.5 71h127q16 12 26.5 31.5t16.5 37.5l-8 33l-98 17q0 8 -3 11t-9.5 4t-12.5 1t-8 6q-6 49 3 111.5t30.5 124t53.5 117t71 87.5l39 5l8 16q45 10 80.5 13t83.5 -1 l-2 -10q6 -23 21 -43.5t32 -36.5q18 -8 41 -3t39 15z" />
<glyph unicode="g" horiz-adv-x="907" d="M942 786v84l-31 23h-47q-8 -27 -23.5 -50.5t-45.5 -23.5q-16 10 -38 30.5t-45.5 42t-44 37t-32.5 15.5h-168q-8 0 -25.5 -13t-25.5 -18q-76 -33 -131.5 -95t-87 -140t-38.5 -163t11 -163q20 -14 38.5 -31.5t31.5 -39.5q-16 -37 -48 -56.5t-59 -48.5q-31 0 -74 -19.5 t-71.5 -47t-30.5 -62.5t47 -65l21 4q12 -14 22 -21.5t19.5 -11.5t20.5 -5t30 -3v-39q-12 -10 -21.5 -20.5t-19.5 -20.5l-66 -19q-35 -45 -78 -70.5t-79.5 -55t-58 -74.5t-11.5 -129q2 -10 13 -23.5t25.5 -29t29 -30t22.5 -24.5q23 -10 43.5 -22.5t36.5 -28.5l49 -4 q27 -20 73 -17t87 3l8 -19l66 -4q-4 -4 0 -8t8 -4q14 0 52 -1t77 -1q41 0 74.5 4t41.5 16l37 -2l31 21q29 0 54.5 5t54.5 9q18 43 43.5 66.5t49 51t36 69.5t2.5 122q-8 12 -21.5 25.5t-28 27t-25.5 25.5t-13 20l2 11q-47 16 -85 33.5t-91 21.5q-25 27 -41.5 46.5t-34 33.5 t-40 24.5t-59.5 18.5l-22 31q-43 6 -74 36q-16 2 -40.5 5.5t-48 10.5t-41 20.5t-17.5 35.5q20 16 54 30.5t72 26t74.5 18.5t63.5 11l8 17q70 2 127 25.5t102.5 65.5t76 97t46.5 121l29 26q2 6 3 27t1 45v49q0 25 2 39q23 14 34 36t21 44l50 -14q32 5 61 30zM639 805 q4 -78 7 -138.5t-11 -138.5l-17 -10q-4 -39 -13 -56.5t-30 -45.5q-10 -16 -14 -38t-12 -38q-2 -4 -21.5 -15.5t-44 -24.5t-45 -24.5t-26.5 -17.5q-6 4 -13.5 0t-14.5 -10t-15.5 -12.5t-16.5 -6.5q-14 31 -51 37v27q0 16 -2 32.5t-9 30t-22 17.5q14 31 15.5 64.5t2.5 66.5 t7 61.5t31 50.5q4 29 16 61t28.5 63.5t35 61t32.5 54.5l37 2l8 10q12 2 23.5 0t17.5 -14l-6 39h47q10 -14 25.5 -20.5t25.5 -20.5q2 -16 5.5 -27.5t19.5 -19.5zM655 -440q0 -31 -17 -53.5t-44 -39t-55.5 -26.5t-53.5 -14l-22 -35h-129l-15 14h-114q-2 10 -15.5 17.5 t-30 14.5t-32.5 13t-25 14q-41 0 -70.5 2.5t-50 12.5t-29.5 34.5t-9 69.5q0 49 19.5 79t47 51.5t58 42t53.5 53.5q8 0 20.5 8t24.5 19t22.5 22.5t16.5 17.5h164q12 -14 28.5 -18t32.5 -13q6 -4 21.5 -18t32 -30.5t30.5 -33t21 -22.5q18 -6 48.5 -28.5t54.5 -51.5t33 -57.5 t-16 -44.5z" />
<glyph unicode="h" horiz-adv-x="958" d="M934 600v266q-18 16 -29.5 40t-15.5 48l-12 -2q-14 4 -26.5 15.5t-19.5 23.5h-108q-23 -16 -40 -29.5t-46 -23.5q-10 -16 -30.5 -30.5t-46 -29t-51.5 -29.5t-42 -30q-6 2 -21.5 -14.5t-31 -36.5t-26.5 -35.5t-13 -7.5l104 248l17 8q2 31 12 58.5t20.5 55t20.5 55.5t16 56 l17 11q35 92 66.5 183t56.5 187l-23 37q-66 10 -127 12t-127 2v-69l59 -15l25 -43q-10 -41 -25.5 -79.5t-25.5 -79.5l-31 -23q-12 -53 -18 -112l-17 -9q-12 -84 -49 -165.5t-55 -168.5l-17 -8q-20 -55 -39.5 -111.5t-29.5 -115.5l-17 -8q-14 -33 -23 -67t-11 -68l-17 -21 q0 -10 -15.5 -57t-35.5 -102.5t-39.5 -102.5t-30.5 -59q-4 -41 -12 -69t12 -67q23 -12 45 -18l58 14q25 25 42 57.5t28.5 69.5t18.5 75t15 71l17 10q4 20 13 38.5t17 39.5l-14 49q61 117 151.5 215t182.5 192l26 7l9 18h161q10 -16 18.5 -32.5t14.5 -35.5l-14 -20 q0 -68 -11.5 -127t-28.5 -114.5t-38.5 -112t-44.5 -117.5q-12 -31 -32.5 -47.5t-42 -26.5t-41 -17t-27.5 -20l-23 19q-35 2 -81 4t-78.5 -11.5t-38 -46t39.5 -100.5h154l6 19l115 30q31 37 66.5 74t67.5 75t55.5 81t33.5 94l16 8q10 41 20.5 83t18.5 85h23z" />
<glyph unicode="i" horiz-adv-x="495" d="M518 1147q8 16 15.5 46t8.5 60.5t-4.5 59t-21.5 41t-35.5 20.5t-36.5 21q-12 -6 -33.5 -18.5t-43 -28t-37 -32t-15.5 -28.5v-106q31 -25 52.5 -42.5t42 -23.5t45 0t63.5 31zM461 924q16 27 9 43t-26.5 22t-44 4t-41.5 -12h-118q-25 -14 -52.5 -28.5t-46 -33t-22.5 -41 t18 -55.5q12 -2 38 2t53.5 8.5t53 7.5t37.5 -1l-20 -158q-2 -10 -14.5 -23.5t-24.5 -30t-21.5 -37t-5.5 -40.5q-12 -12 -20 -14q-4 -18 -6 -38t-4 -38q-4 -37 -31 -98.5t-52.5 -131t-39.5 -138t8 -116.5q14 -8 21 -18q25 0 36 1t19 4t17 6t32 7l8 17q18 -2 35.5 9t35 24.5 t36 26t37.5 12.5q45 39 86 86l5 22q5 21 -5 35q-8 10 -25.5 9t-31 -5t-15.5 -4q-16 -31 -51 -50.5t-64 -37.5q-18 23 -26 41q4 14 15 53t26.5 90t33 106.5t33.5 103.5t30.5 80t20.5 36q2 41 13.5 76.5t21.5 69.5t19.5 70t9.5 77z" />
<glyph unicode="j" horiz-adv-x="516" d="M580 1147q8 16 15 46t8 60.5t-4 59t-21.5 41t-36 20.5t-35.5 21q-12 -6 -33.5 -18.5t-43 -28t-37 -32t-15.5 -28.5v-106q31 -25 52.5 -42.5t42 -23.5t45 0t63.5 31zM483 874v74q-29 29 -69.5 22t-75.5 -22l-6 -10l-45 -14l-6 -13q-33 -10 -49.5 -19t-43.5 -30v-33 q37 0 67 2.5t64 8.5l5 8q16 -20 5.5 -42t-29.5 -43.5t-37.5 -43t-18.5 -41.5q0 -39 -13.5 -81t-23.5 -64.5t-12 -26.5l-156 -514q-18 -59 -30.5 -123t-28 -125t-38 -118.5t-61.5 -108.5v-19h2q-18 -10 -35 -16q-16 4 -20 26.5t-4 34.5q-6 6 -14.5 12.5t-12.5 14.5 q-8 -31 -26.5 -37t-32.5 -27q4 -8 7 -15t5 -15q2 -4 2 -17q0 -12 10 -12h43l2 -6l15 6h28l3 12q82 35 128 57l46 21q2 2 13 15.5t27.5 34t20.5 36.5q10 35 21.5 62.5t23.5 60.5q2 6 8 24.5t11.5 38t9.5 35t6 17.5l16 16q2 27 21.5 92.5t46.5 148.5t56.5 174t54 171t38 138 t7.5 77q16 47 32.5 95t28.5 97z" />
<glyph unicode="k" horiz-adv-x="1140" d="M1128 53v88l-45 21l-53 -8q-16 -23 -32.5 -47.5t-41.5 -36.5q-2 0 -23.5 22.5t-49 51t-53 55t-33.5 34.5l-6 35q-20 27 -47 47.5t-54.5 41t-51.5 45t-36 63.5l-27 18q-4 20 -12 31.5t-18 30.5l16 51q35 10 58.5 19.5t46.5 37.5q55 16 97 54t83 79q-2 10 4 21.5t16 19.5 v101q-20 16 -32 43q-23 10 -38.5 18t-30.5 12.5t-34.5 5.5t-46.5 -3l-12 -15h-84l-13 -24q-16 2 -34.5 -12.5t-26.5 -24.5v-6q-12 -8 -23.5 -16.5t-21.5 -16.5q-8 12 -15.5 24.5t-13.5 24.5q6 35 20.5 67.5t39.5 61.5q6 29 15 53.5t18.5 49t16.5 51t7 57.5q14 14 21.5 33.5 t9.5 40.5q14 14 30.5 46t28.5 66.5t16.5 68.5t-4.5 54q-29 16 -57.5 20.5t-56.5 10.5l-31 -12q-37 10 -74 10t-73 -8l-29 10v-59q29 -6 51.5 -27t50.5 -23q2 -23 3 -39t0 -30.5t-5 -29.5t-12 -38l-12 -6q-4 -41 -9.5 -70.5t-33.5 -58.5q-4 -29 -8.5 -57.5t-10.5 -57.5 l-12 -6q-4 -41 -9 -79t-34 -68l-16 -90q-27 -16 -41.5 -43t-21.5 -57.5t-8 -62.5t-1 -57l-16 -6l-29 -110l-101 -322q-6 -35 -16 -82t-7 -87t29.5 -61.5t92.5 -2.5q10 14 22.5 54t24.5 92t24.5 110.5t23.5 112t20.5 94.5t15.5 59l12 -2q10 6 22.5 14t22.5 19 q16 -12 36 -22.5t42 -14.5q20 -31 35.5 -66t21.5 -71q14 -14 19.5 -29.5t11.5 -32.5q12 -35 46 -69.5t74 -67.5t80 -64.5t64 -60.5q16 0 32.5 -9t27.5 -22l67 -16l4 -16h131l7 16q25 10 42 24.5t37 32.5zM721 838q-14 -33 -24.5 -56.5t-25 -41t-36 -31t-57.5 -25.5l-7 -14 l-55 -17l-18 -26q-20 -6 -30.5 -9.5t-21.5 -3.5q-8 0 -18 2t-31 9q-10 61 -2 88.5t23.5 46t34 40t28.5 70.5q10 8 19.5 14.5t19.5 14.5h66l6 19h94q14 -16 24.5 -38t10.5 -42z" />
<glyph unicode="l" horiz-adv-x="614" d="M647 1378q33 66 34 111t-34 110q-68 16 -131 14.5t-131 -16.5l-18 -20h-31v-57q25 -23 59 -43q8 -16 14.5 -33t8.5 -33q-14 -25 -23.5 -57.5t-15.5 -68.5t-9 -70.5t-3 -63.5l-50 -43q-12 -47 -21 -96t-13 -99l-15 -6q-12 -29 -27.5 -58.5t-25.5 -60.5q16 -45 11 -71.5 t-42 -61.5q-6 -25 -21.5 -74t-36 -110t-43 -125.5t-40.5 -120t-30.5 -93.5t-12.5 -46q0 -53 21.5 -77.5t54.5 -29t72.5 9t77.5 36t69 50t45 52.5q55 25 67.5 57.5t2.5 89.5q-39 6 -74 -14q-29 -78 -107 -63v157l19 8q2 25 11 56t22.5 61.5t30 57t34.5 43.5q0 18 4 45.5 t10.5 57.5t13.5 58.5t11 51.5l29 22q14 37 37 64q0 20 11 68t27.5 101.5t36 100.5t35.5 65l6 46l15 10q2 27 11 52.5t21 47.5z" />
<glyph unicode="m" horiz-adv-x="1263" d="M1208 715q27 16 31 48t-5 65.5t-27.5 64.5t-37.5 45h-116l-31 -23q-35 0 -56.5 -14t-39 -33.5t-33.5 -39t-39 -27.5l-20 6q-10 74 -17.5 101.5t-25 32.5t-52 -1t-102.5 -2q-6 -12 -27.5 -26.5t-49.5 -27t-54.5 -21.5t-42.5 -9q-10 -14 -29 -18l-22 4l12 53l-21 45h-120 l-29 -20q-16 2 -35.5 -5.5t-36.5 -11.5l-8 -16q-37 -2 -58.5 -21.5t-30.5 -47.5t-9 -60q0 -33 2 -62l45 -2q16 12 30.5 23.5t30.5 25.5h31q12 -25 7 -61.5t-16 -74.5t-26.5 -74.5t-23.5 -63.5l-15 -8q-12 -29 -16 -54.5t-8 -54.5l-31 -20q-12 -37 -27.5 -71t-23.5 -73 q-33 -25 -30 -59.5t3 -71.5q18 -16 29 -35l100 -2l60 60q4 27 9 59.5t32 48.5q-2 33 8 66t23.5 63.5t25.5 62.5t16 64l17 21q-4 55 14 104t49 93.5t69 84t72 76.5h93l32 -24v-99q-10 -6 -19 -59t-24.5 -120.5t-40 -135.5t-65.5 -102q-10 -45 -31.5 -72t-39 -52.5t-22.5 -56 t17 -82.5l94 2q0 2 17.5 21.5t40 45.5t43 53.5t26.5 43.5q27 66 59.5 158t75.5 182t97.5 163t124.5 101q10 4 17 -1t12 -14t8.5 -19.5t3.5 -16.5q0 -25 -8.5 -66.5t-20.5 -86.5t-27.5 -83t-29.5 -55q-6 -51 -28 -90t-32 -88l-14 -8l-66 -174l23 -68q63 -25 128.5 -6 t106.5 74l62 14q2 33 0 68q-14 2 -26.5 1t-23 -2t-21.5 3t-23 16v93q23 33 44 90t40.5 120.5t38 124t34.5 101.5z" />
<glyph unicode="n" horiz-adv-x="874" d="M848 684l-14 12q-2 14 0 37t5 46.5t6 46t3 38.5q-39 51 -63.5 74t-45 25t-41 -12.5t-49 -35t-69.5 -44t-103 -40.5q-6 -6 -20.5 -19t-29.5 -26.5t-30.5 -23.5t-21.5 -10l-4 -19l-4 49q12 20 19 34.5t10 28t2 29t-5 39.5h-110q-16 -12 -36 -19t-36 -17l-15.5 -31 t-13.5 -31q-25 -4 -43 -21.5t-30 -37.5l-25 -4q-14 -16 -24.5 -27.5t-18.5 -34.5q0 -18 6 -37h23q12 4 8 19l24 4l29 29q16 4 31.5 3t30.5 -6q4 -51 -7.5 -101t-11.5 -103q-18 -18 -27.5 -44t-18.5 -52.5t-20.5 -50t-31.5 -36.5q-4 -41 -19.5 -76.5t-25.5 -74.5l-15 -8 q-6 -23 -10 -40.5t-4 -33.5q0 -14 1 -31.5t3 -40.5l-6 -10h90l60 49q12 43 27.5 93.5t32.5 101.5t36.5 99t42.5 85q31 53 63.5 99t48.5 108q43 20 70 55t54.5 64.5t62.5 44t94 -3.5q0 -51 -19.5 -97.5t-23.5 -99.5q-29 -31 -50.5 -83t-43 -107.5t-44 -106.5t-52.5 -78 q-8 -45 -16.5 -89t-18.5 -87l20 -35h105q20 18 52 32.5t66.5 30t72.5 35t71 50.5q-2 10 -3 22.5t-5 22.5h-93l-14 -12q-18 10 -24 30q12 51 28.5 115.5t39 129t51 122t67.5 94.5z" />
<glyph unicode="o" horiz-adv-x="714" d="M711 567q0 61 -4.5 111.5t-14.5 107.5q-14 10 -17 20.5t-3 20.5q0 12 2 22.5t-2 18.5q-27 20 -51.5 39t-57.5 29l-8 20l-16 13h-119q-16 -16 -41 -17l-8 -14q-16 -4 -34 -8t-34 -12q-37 -51 -62.5 -80t-46 -49.5t-36 -38t-28.5 -46t-26.5 -75.5t-29.5 -123l-19 -4 q-6 -92 -8 -165t10 -165q6 -8 26.5 -29.5t25.5 -29.5q29 -80 58.5 -99.5t65 -12.5t78.5 27.5t97 20.5q35 41 72.5 79t74.5 79q2 31 8 44t15.5 22.5t20.5 18.5t24 32q14 23 15 51t21 49q4 37 16.5 74.5t35.5 68.5zM557 786v-51v-84q0 -43 -1 -79.5t-3 -39.5h-8 q-2 -25 -7.5 -49t-11.5 -47l-16 -8q2 -41 -2 -60.5t-13.5 -32.5t-19.5 -26.5t-18 -40.5q-20 -12 -35.5 -17t-27 -13.5t-16.5 -22.5t-5 -43q-37 -43 -76 -45t-86 6q-4 12 -6 29.5t-5 36t-9.5 33t-16.5 20.5v180l19 4q2 47 10 92t22 90q16 10 24.5 27t10.5 35q23 8 29 27.5 t6 42.5q29 33 58.5 62.5t60.5 57.5h80q0 -25 22.5 -47.5t40.5 -36.5z" />
<glyph unicode="p" horiz-adv-x="1050" d="M1028 541q0 41 -2 61.5t-14 46.5v96l-23 39q-43 18 -64.5 32.5t-32.5 25t-20.5 17.5t-29 10t-55 5.5t-101.5 2.5q-16 16 -30.5 33.5t-26.5 37.5q12 12 8 25.5t-11.5 28t-11.5 28.5t9 29v86l10 41l-55 -19q0 -45 -35 -75q0 -61 -37 -121t-84 -94h-43l-41 34 q-37 6 -79 10.5t-69.5 -6t-31.5 -39t39 -88.5q63 -16 116.5 -9t118.5 7l12 23l27 -57q-12 -41 -36.5 -73t-41.5 -69l-16 -8q-8 -18 -7 -36.5t4 -37t6 -38t3 -37.5q-31 -37 -39 -76l-16 -8q-16 -57 -38 -114.5t-36 -111.5l45 -6q-14 -35 -44 -70.5t-34 -72.5l-18 -6v-140 l-37 -43q-2 -29 -18.5 -69.5t-40 -83.5t-48 -80t-43.5 -53l-6 -66l-33 -35l-53 -4l-28 -24l-39 2q-37 -20 -40 -62.5t1 -77.5q14 6 29.5 5.5t31 -3t30.5 -3.5t32 4q-6 4 -1 8t9 4h137l6 22h213l-2 9l23 12h-35l53 65q-31 6 -61.5 11.5t-61.5 9.5l-43 47l15 22v35 q39 45 56 84t21 99l70 77q2 16 6 51t10 72t16.5 67t26.5 40h123q4 4 41 26.5t84 51t93 57.5t67 47q43 33 70.5 82t50 101.5t46 101.5t54.5 84zM862 692q0 -16 4 -56t2 -85t-14 -83t-43 -48q0 -12 -19.5 -45t-44 -70t-49 -68.5t-36.5 -41.5q-8 -2 -15.5 -4.5t-15.5 -4.5 q-6 -23 -22.5 -44t-38 -36.5t-46 -22.5t-49.5 -1q-12 10 -26 20v140l20 30q4 41 15.5 57.5t37.5 47.5q6 33 11.5 66.5t9.5 68.5l16 8q6 39 9 75t7.5 71.5t12.5 69.5t28 71h154q12 -14 39 -23q0 -20 8 -33.5t18.5 -23.5t18.5 -18.5t8 -16.5z" />
<glyph unicode="q" horiz-adv-x="987" d="M952 893q-12 27 -13 32t11 29h-96q-12 -14 -20.5 -25t-16.5 -21.5t-19.5 -19.5t-29.5 -20q-12 4 -26.5 12.5t-18.5 20.5q-25 10 -48.5 20.5t-49.5 18.5l-27 -22q-43 2 -73.5 -3.5t-69.5 -13.5l-9 -16q-41 -12 -75.5 -34t-75.5 -36q-8 -25 -22.5 -44t-31 -37.5t-30.5 -38 t-23 -46.5q-29 -25 -46 -46t-31.5 -43.5t-29.5 -45t-36 -47.5v-141l23 -27l-5 -20l-16 -9q-27 -61 -13.5 -113.5t83.5 -72.5q12 4 16 6q18 -12 37.5 -24.5t40.5 -20.5l2 -10l63 -23l25 27l37 -2q16 6 36.5 17.5t42 22.5t44 18t41.5 5l4 21q14 -20 24 -47q-6 -25 -21 -61 t-34.5 -72.5t-40 -69.5t-39.5 -51q-4 -88 -33.5 -182.5t-58.5 -178.5q-8 -4 -24.5 -12t-33 -15t-31.5 -13.5t-21 -4.5l-39 -28v-56q37 -12 73.5 -15t73.5 0t74 9t74 10q14 16 36.5 13.5t44 -9t36 -7.5t14.5 18q25 10 47 21.5t35 37.5l-9 29h-131q-29 41 -35 83t4.5 84 t35 79.5t59.5 70.5l32 201q29 29 60 97.5t56.5 148.5t42 156.5t18.5 121.5l16 8q16 45 35.5 90.5t17.5 92.5q31 47 52.5 107.5t35.5 115.5zM725 598l-16 -8q-4 -53 -23.5 -107.5t-64.5 -89.5q-4 -43 -19 -80q-33 -20 -67.5 -54t-72.5 -66.5t-78 -55t-81 -18.5l-8 -21l-4 21 h-33l-8 -6q-12 10 -24.5 21t-26.5 22q10 31 7 64.5t-4 67.5t4 63.5t32 49.5l12 42t18.5 55.5t24.5 49t31 27.5q4 25 17 44.5t29.5 38t34 36t31.5 35.5l27 4q18 20 46 37.5t57.5 32t60 21.5t59.5 5q33 -35 44 -58t11 -48q0 -23 -7 -52.5t-9 -72.5z" />
<glyph unicode="r" horiz-adv-x="679" d="M686 901q-18 12 -37.5 24.5t-36.5 26.5q-47 2 -80.5 -15t-62.5 -46t-54.5 -62.5t-56.5 -60.5q-6 51 0.5 90t2 63.5t-31 34t-100.5 -3.5l-6 -16q-18 -4 -56 -27.5t-71 -54.5t-51 -62.5t4 -54.5h66q14 8 27.5 16.5t29.5 14.5q14 -6 26.5 -16.5t22.5 -20.5v-115l-12 -4 l-23 -90l-14 -6q-2 -18 -9 -40.5t-30 -29.5q-6 -33 -20.5 -81t-29.5 -97t-27.5 -93t-14.5 -69q0 -6 4 -19t11 -26.5t14.5 -27t11.5 -19.5q35 -10 57.5 -12t48.5 27q10 12 23.5 48t26 82t24.5 99t22.5 101.5t17.5 87t9 55.5q4 2 22.5 34.5t38 73.5t38 79t22.5 54 q16 16 34.5 32t41.5 26q18 -8 27 -19l4 -20q4 -21 14 -48.5t26.5 -53t41.5 -35.5q39 -16 53 19.5t17 87.5t-1 103.5t-4 65.5z" />
<glyph unicode="s" horiz-adv-x="708" d="M717 885q-18 14 -45 31.5t-55.5 28.5t-58.5 12t-54 -15h-113q-18 -25 -39.5 -53.5t-56.5 -32.5q-14 -37 -33.5 -71.5t-30 -70.5t-7.5 -72t32 -75q4 -51 10 -87t19.5 -66.5t35 -62.5t56.5 -70v-95q-10 -4 -19.5 -19t-16.5 -33.5t-13 -37t-13 -26.5h-94q-10 8 -23.5 24.5 t-25.5 34.5t-22.5 36.5t-12.5 35.5h-80q-16 -23 -23 -38.5t-10.5 -30.5t-3.5 -34v-47q51 -35 83 -46t66 -13t80 3t124 5l147 102q14 49 22.5 57.5t11.5 16.5t3 37v119q-18 27 -32.5 55.5t-18.5 61.5q-6 6 -28.5 43.5t-48.5 80.5t-46.5 80t-20.5 41q0 16 16.5 42t24.5 38 l109 62l6 -17q6 -2 13.5 -14t14.5 -25.5l14 -27t13 -15.5l9 -14q12 -4 32.5 -11t32.5 -7q6 0 18.5 -1.5t18.5 3t11 9.5t12 3l4 -10z" />
<glyph unicode="t" horiz-adv-x="618" d="M649 846v65q-33 23 -72.5 21t-56 2t-19.5 11t1 25.5t11 51.5t11 88q2 20 -5 43t-5 45l10 12h-73q-59 -39 -91 -112.5t-55 -136.5h-133q-18 -20 -29 -50l23 -65h104l25 -47q-4 -10 -13.5 -39t-22.5 -67t-27.5 -80t-26.5 -76.5t-21 -58.5l-8 -23q-20 -35 -37.5 -59.5 t-36.5 -61.5q-6 -16 -12 -32.5t-10 -33.5q-23 -20 -38 -51t-23.5 -65.5t-7.5 -70.5t12 -63q20 -12 36.5 -15t31.5 -1t31.5 6t37.5 8q12 14 39.5 27.5t59.5 27t63.5 30t54.5 34.5q2 23 10 50.5t37 31.5l10 31q-20 4 -37 14q-18 -20 -40.5 -43.5t-55.5 -19.5 q-8 -14 -25.5 -16.5t-33.5 1.5q-2 10 4 37t14 58.5t16.5 63.5t8.5 54q27 23 49 77t45.5 116.5t47.5 123t54 97.5h125q4 16 16.5 23.5t26.5 11.5z" />
<glyph unicode="u" horiz-adv-x="888" d="M817 850q0 16 -6 36.5t-8 37.5q-12 4 -22.5 12t-14.5 20l-47 15q-12 -4 -24.5 -7t-22.5 -8q-14 -20 -22.5 -42.5t-26.5 -39.5l-5 -45q-12 -16 -28 -22q0 -8 -2 -25.5t-6 -36t-11.5 -34t-15.5 -19.5q-2 -31 -19.5 -86t-44 -112.5t-56 -106.5t-54.5 -68q-6 -18 -16.5 -32.5 t-24.5 -28.5l-27 -4q-20 -25 -45 -45q-6 8 -17 16t-22 8v72l17 10q10 25 14 42.5t5 36t0 39t-1 48.5l17 8q10 68 27.5 114t37.5 108q23 12 29 29.5t7 39t0 44t9 42.5q-2 39 -29 72q-37 8 -64.5 3t-54 -16.5t-51 -25.5t-55.5 -25q-14 -23 -28.5 -45t-40.5 -34l8 -52 q49 6 71.5 0t28.5 -22t1 -43t-11 -60l-14 -8l-5 -39q-10 0 -12 -6q0 -29 -12 -86t-28.5 -120.5t-34 -124t-29 -97.5t-11.5 -39q6 -29 10.5 -45t26.5 -37q47 -6 77 -4t52.5 12.5t47 29t61.5 44.5q0 25 16.5 43.5t40 33.5t48 28.5t40.5 25.5q23 -53 18 -99t-32 -95l16 -8 l7 -11q51 -4 82.5 6.5t56 23.5t48 28.5t60.5 23.5q16 14 30.5 29.5t27.5 32.5q45 16 58 42.5t-11 73.5q-29 -25 -51.5 -45t-46 -29t-51 -3t-64.5 34v19l16 8q4 43 17.5 83t29 80t29.5 81t20 86q4 18 7.5 38.5t11.5 37t23.5 40t32 49t29.5 51.5t13 44z" />
<glyph unicode="v" horiz-adv-x="1110" d="M1038 750v151q-16 10 -30.5 19.5t-32.5 17.5q-31 -4 -62 -16q-25 -37 -36 -71t-16 -68.5t-4 -71.5t1 -82l-22 -19q0 -82 -20.5 -165t-94.5 -136q-8 -35 -26.5 -67.5t-59.5 -32.5q-33 -49 -86 -51q-20 -27 -57 -31t-66 -4q-10 12 -19.5 22.5t-21.5 20.5q-8 66 -6 107.5 t6 107.5l18 8q8 25 19.5 46.5t21 42t13.5 43t2 50.5q49 43 89 95.5t81 103.5q2 27 16 48.5t35 37.5q2 23 1 41t-9 39l-21 6q4 14 -8 19h-217l-10 12q-16 4 -51 2t-75 -5t-78 -7.5t-58 -1.5q-6 -12 -17.5 -23.5t-25.5 -15.5l-5 -27q-23 -20 -44 -39.5t-42 -42.5 q0 -47 -1 -68.5t1.5 -36t8.5 -30.5t22 -51h41q25 90 70 133t94 52t93 -6t68.5 -43t20.5 -60.5t-51 -57.5q-16 -37 -31.5 -52t-48.5 -36q-31 -59 -61.5 -107.5t-51 -96.5t-25.5 -102t15 -128q10 -33 38 -58.5t63 -29.5l8 -17l43 -6q12 0 39.5 -2t61.5 -4t67 -4t53 -2l195 127 q6 27 20 50.5t31.5 45t36 43t30.5 45.5l23 4l-2 13q2 8 19.5 47t36 83t33.5 80.5t15 41.5q4 33 3 53t-2 36.5t3.5 34t16.5 46.5h22z" />
<glyph unicode="w" horiz-adv-x="1185" d="M1155 731q2 47 -2 77t-16 71h-4q-6 8 -8.5 17t-4.5 19q-25 6 -50.5 10.5t-41.5 26.5h-110q-6 -18 -22.5 -26t-33.5 -13l-20 -34q-35 -12 -55.5 -36t-49.5 -46q-23 29 -32 62.5t-25 68.5q-41 16 -54.5 24.5t-24.5 11.5t-32 3h-75l-15 -15l-18 -2q-10 -12 -28.5 -31.5 t-38 -38t-40 -32.5t-35.5 -19l-2 -12l-14 -6l-14 4q-2 31 -5 57.5t3 57.5h-88q-16 -16 -41 -17q-14 -35 -49 -34l-89 -99v-67l39 -15q29 31 51.5 41.5t63.5 1.5q8 -14 11 -43.5t4 -65.5t1 -73v-63q-6 -63 -20 -124t-28.5 -122.5t-23.5 -122.5t-5 -127h75l25 16q6 12 21.5 37 t35 52.5t38 54t28.5 43.5q63 16 112.5 66t83.5 104l41 14q18 -18 25 -39q-18 -66 -31.5 -99.5t-21.5 -64t-12.5 -70.5t-4.5 -114h70q10 16 33 16q10 14 39.5 48t64.5 69t68 60.5t49 25.5l2 29q29 31 71 84t80.5 111.5t68.5 115.5t34 98l20 9l13 16q0 29 14 49zM1036 694 q-4 -33 -10 -66.5t-6 -66.5q-18 -10 -41 -38.5t-48.5 -66.5t-52 -77t-55 -69.5t-56.5 -47t-54 -6.5q-2 4 1 18.5t7 32t8 31.5t4 18q2 16 3 46t4 61t9.5 58.5t16.5 39.5q2 45 9 89t25.5 80t51.5 58.5t86 22.5v20q18 -16 39.5 -28t44.5 -23q0 -23 9 -44.5t5 -41.5zM598 659 q0 -16 -10 -30.5t-10 -28.5q-4 -43 -13.5 -69.5t-25.5 -67.5q-6 -12 -15.5 -21.5t-19.5 -18.5t-18.5 -19.5t-10.5 -26.5q-14 -10 -24.5 -22.5t-18.5 -26.5l-18 -6q-31 -39 -48.5 -55.5t-30.5 -19.5t-26.5 1t-34.5 8q0 57 10.5 103.5t22.5 87t23.5 82.5t13.5 89q0 45 -1 67 t1 34t9 26.5t24 49.5q12 4 20.5 14t14.5 20q51 14 70.5 16.5t28.5 -4.5t16.5 -20.5t31.5 -25.5q12 -33 25.5 -67t13.5 -69z" />
<glyph unicode="x" horiz-adv-x="894" d="M850 768q2 23 7 41t6 35.5t-5 34t-24 34.5h-86l-15 -14l-18 -2q-10 -16 -23.5 -39.5t-29 -49.5t-30 -47.5t-28.5 -29.5q-10 -27 -26.5 -48t-40.5 -34q-29 35 -41.5 75t-44.5 75q-4 29 -9.5 45t-12.5 28.5t-17.5 24.5t-22.5 35q-37 18 -75 17t-78 -1l-15 -14l-18 -2 q-14 -37 -47 -35q-14 -23 -27.5 -47.5t-24.5 -50.5q27 -33 48.5 -30t58.5 13q33 -18 69.5 -61t65.5 -95.5t45.5 -104.5t7.5 -87q-27 -31 -55.5 -53.5t-53 -47t-43 -56t-24.5 -76.5q-10 4 -26.5 -6.5t-26.5 -14.5q-33 10 -40 17.5t-13 10.5t-23.5 4t-70.5 1l6 -10 q-16 -72 -10 -112t31.5 -59.5t68.5 -21.5t98 6q2 2 27.5 33t56.5 64.5t57 62.5l25 29q0 16 8 26.5t21.5 16.5t28 10t26.5 8l12 19l21 -66l16 -8q2 -37 20.5 -76t46 -70.5t63.5 -51t75 -17.5q20 14 38.5 26.5t29 24.5t7.5 29.5t-26 46.5q-47 16 -61 59q-18 47 -43 113.5 t-54 114.5q-12 20 -21 29.5t-14.5 18.5t-7.5 22.5t2 39.5l7 -2q35 8 69 33q4 16 11.5 31.5t23.5 23.5q6 25 18.5 52.5t31 53t39 48t40.5 35.5q12 -27 39 -27z" />
<glyph unicode="y" horiz-adv-x="710" d="M686 702q0 14 1 39t0 50.5t-5 48t-14 32.5q-12 10 -27 13l-14 26h-27l-20 -22h-17q-4 -41 -10 -80t-29 -76q0 -90 -5 -142t-16 -92t-30.5 -84t-46.5 -120q-31 29 -42 75t-11 97t5 101t7 87q-25 47 -19.5 114t5.5 120l-41 35q-29 6 -59.5 -1.5t-59.5 -13.5 q-14 -23 -52 -51.5t-69 -62t-41 -71.5t33 -77q20 8 37.5 21.5t30.5 29.5q20 2 45 -4q12 -147 9 -294.5t15 -299.5q4 4 8 1t4 -7v-133l-20 -8l-18 -57l-17 -9q-12 -23 -19 -36t-16.5 -24t-22 -22.5t-32.5 -27.5l-4 -27q-14 -12 -32.5 -27.5t-36 -33t-31 -38t-17.5 -40.5 l-41 -41q-25 0 -42 -15.5t-32 -35.5q-35 -14 -75.5 -41l-73.5 -49q-53 27 -74 86q-23 8 -47 22q-31 -45 -36 -72.5t6.5 -50t32 -47t40.5 -61.5q20 -10 47 -11.5t54.5 1t55 5.5t52.5 3q31 29 59.5 54.5t69.5 35.5q16 27 39 45t51 29q16 31 31.5 59.5t38.5 54.5l33 10 q14 23 33.5 39.5t39.5 28.5q4 25 15.5 44.5t36.5 27.5q70 119 133 232.5t114.5 229t89 238.5t58.5 262q4 -2 8 1t4 7z" />
<glyph unicode="z" horiz-adv-x="892" d="M1274 -406q-31 27 -57.5 31t-49 -7t-45 -32.5t-45.5 -42.5q-23 14 -45 32.5t-26 47.5q-29 29 -51.5 53.5t-32.5 67.5l-17 8l-18 62q-29 27 -56.5 54.5t-56.5 53t-61.5 47t-71.5 33.5l-8 16q-27 8 -41 14.5t-28.5 10.5t-31 6t-47.5 2l-8 17q-29 4 -58.5 21t-64.5 26 q-4 20 -6 41.5t0 42.5q25 23 74 79t107.5 128.5t121 153.5t115.5 157t91 137t46 92l-33 37l-51 16q-35 -8 -65.5 -25.5t-65.5 -27.5l-8 -16l-55 -4l-7 -13h-133l-36 33l-76 6q0 8 -20.5 11.5t-49.5 3.5q-27 0 -52.5 -2t-33.5 -2l-72 -52q-6 -35 -15 -76.5t-13 -85.5t1 -85 t27 -72h68q6 29 9 56.5t7 56.5l17 10q4 23 15 44t28 36h90l43 -33l41 -4q-4 -4 0 -8.5t8 -4.5h166v-43q-16 -25 -28.5 -31.5l-25 -13t-25.5 -19.5t-32 -50q-25 -10 -50 -25.5t-42 -38.5q2 -12 1 -26.5t-6 -27.5t-15.5 -21.5t-26.5 -8.5l-37 -34q-4 -35 -28.5 -55.5 t-55.5 -31.5q-14 -20 -43.5 -56t-60.5 -76t-56.5 -75.5t-27.5 -56.5l-21 -8l-12 -16v-115l33 -14l86 51v33l43 14q27 -10 50.5 -26.5t45.5 -34.5l62 -5l6 -16l39 -10q4 -6 21.5 -18.5t37.5 -22.5t38.5 -15.5t24.5 -1.5q51 -41 117 -80.5t105 -93.5q18 -25 41.5 -53.5 t58.5 -28.5l16 -96l17 -10l4 -25q31 -31 55 -67l37 -2q4 -20 27.5 -28.5t52.5 -9.5t55.5 1t36.5 2q29 18 41 30.5t19.5 24t15.5 22.5t29 27q6 33 13 65.5t1 65.5z" />
<glyph unicode="{" horiz-adv-x="788" d="M958 1698q14 49 19.5 72.5t-21.5 60.5q-29 4 -61.5 3t-60.5 -13l-9 -11q-59 -25 -117.5 -83t-98.5 -123.5t-51 -125t22 -85.5q-4 -74 10 -139.5t24.5 -129t7 -132t-37.5 -148.5q-14 -10 -36 -24.5t-28 -33.5q-35 -18 -68.5 -33.5t-70.5 -25.5q-10 0 -12 -8q-10 0 -31 1 t-43 1q-23 0 -43.5 -3t-32.5 -11l-4 2l-8 -13q-37 4 -72 1t-69 -31l-15 -29v-27l31 -24l78 22q12 -6 31.5 -12t41 -10t43 -6t37.5 -5l11 -12l6 12h57q10 -8 20.5 -14t20.5 -12l23 -51l47 -19q0 -27 3 -45t9 -35.5t12 -36t10 -43.5l7 -4l-15 -73l-10 -6q-2 -8 -3 -13.5 t-3 -11.5t-7 -15.5t-16 -27.5l-10 -6q-70 -117 -138.5 -234.5t-127.5 -238.5l4 -19q-12 -43 1 -76.5t36.5 -62.5t50.5 -55.5t43 -55.5q23 -2 48.5 -10t39.5 -24h51q23 41 31 70.5t-18 64.5h-70q-4 0 -5 3l-1 3l-39 4q-12 23 -34.5 40t-39.5 40l23 115q49 61 86 126.5 t71.5 133t71.5 133t84 127.5l31 162q-25 41 -47.5 81.5t-38.5 83.5q-16 10 -38 18.5t-44 4.5l-4 10l-29 4l-6 6l4 2h-70q-12 4 -21 22.5t9 31.5q29 0 62.5 7t56.5 32h61q76 43 112 94t52 125q0 2 3 5t5 1q16 29 15.5 71t-12 82.5t-30 77.5t-36.5 56q0 66 -6 120t-2 104 t23.5 100t72.5 108q47 20 83 19t83 -1z" />
<glyph unicode="|" horiz-adv-x="956" d="M535 883q-16 47 -14.5 91t-2.5 87h-4l-2 12q-2 14 2 29.5t8 30t6 28t-4 23.5l2 59q2 8 4 11t2 8q0 4 -3 12t-11 26q-53 41 -86 54.5t-70 -8.5q6 -10 17.5 -30t22 -40.5t16.5 -39.5t2 -28q-35 -80 -37 -185t9 -221t24.5 -230.5t9.5 -213.5q-2 -29 -16.5 -50t-16.5 -44 q0 -23 4 -54.5t4 -62.5t-8 -54t-33 -30q12 -16 23.5 -48.5t24.5 -55.5q16 -4 35.5 -9t37.5 -11l21 28v-2q0 37 -1 114t-1 171q0 96 1 199.5t4 193.5t10.5 155t19.5 85z" />
<glyph unicode="}" horiz-adv-x="671" d="M772 551v27l-31 24l-77 -22q-12 6 -32 12t-41.5 10t-43 6t-37.5 4l-10 13l-4 -13h-60l-43 25l-20 53l-47 17q0 27 -3.5 46t-9.5 36.5t-12 36t-10 42.5l-6 4q6 31 10 47.5t9 30t12.5 28.5t21.5 42l12 6q68 119 136.5 234.5t127.5 238.5l-4 17q14 51 -1 85.5t-40.5 61.5 t-53.5 50.5t-36 53.5q-23 2 -47 10.5t-39 24.5h-51q-23 -41 -32 -70.5t20 -64.5h69q6 -6 7 -6l36 -4q16 -25 37 -40t35 -42l-20 -113q-49 -61 -103.5 -151t-103.5 -186.5t-86 -188.5t-49 -158l46 -82t40 -84q16 -10 37.5 -17t43.5 -3l5 -12l26 -2l4 -9h68l18 -16 q6 -8 4 -20.5t-10 -18.5q-29 4 -61.5 -5t-57.5 -32h-59q-78 -41 -122 -108.5t-57.5 -141t4 -143.5t64.5 -119q0 -82 6.5 -163t-10 -145.5t-72 -104t-178.5 -39.5l-28 -25q-6 -25 -11.5 -41t-6.5 -30.5t3.5 -28t18.5 -31.5q29 -4 61.5 -3t61.5 13l8 10q72 29 130 94.5t94 134 t43 124t-23 63.5q6 78 -7.5 141.5t-23.5 126t-8 130t37 153.5q14 10 35.5 24.5t27.5 32.5q23 10 45.5 23.5t44.5 21.5q6 2 32 8.5t28 12.5q8 0 32.5 -2t53 0t52 8t27.5 19q35 -4 71 -2t67 30z" />
<glyph unicode="~" horiz-adv-x="671" d="M588 1057q35 20 48 48t11 53.5t-14 44t-28.5 21.5t-33 -13.5t-24.5 -63.5q12 -27 5 -40t-25.5 -17.5t-41 1t-36.5 15.5q-20 14 -36 34.5t-32 40t-35.5 36t-46.5 22.5q-25 6 -51 6h-49q-41 0 -81 -30.5t-64.5 -68.5t-27.5 -74t31 -44q14 4 20.5 23.5t15.5 42t31.5 41 t72.5 18.5q41 0 73.5 -14.5t61 -34t55.5 -40t56.5 -30.5t64.5 -7t80 30z" />
<glyph unicode="&#xa1;" horiz-adv-x="526" d="M506 1554q6 41 -21.5 62.5t-64.5 21.5h-117q-16 -23 -43 -39t-54.5 -31.5t-50 -32.5t-26.5 -44q-6 -33 13.5 -57.5t50 -42t65.5 -25.5t61 -8q4 0 20.5 6t22.5 8q121 51 144 182zM305 750q2 16 0 60t-7 92t-13.5 88t-18.5 50q-35 -115 -83 -226.5t-97 -221.5 q-47 -111 -86 -221.5t-57 -225.5q-8 -45 13 -80.5t57 -53t79 -11.5t78 47t45 98q25 152 45 301.5t45 303.5z" />
<glyph unicode="&#xa2;" horiz-adv-x="868" d="M815 205v49h-47q-29 -12 -49 -37h-105l-77 -63h-39q2 61 0 152t-1 187.5t7 183.5t24 138q-8 23 -10 43.5t0 42.5h60q10 -12 25 -22.5t32 -14.5q14 -20 25.5 -41.5t22.5 -41t27.5 -35t45.5 -21.5l59 23v81q-29 27 -52.5 59t-49.5 60q-20 6 -35.5 15.5t-32.5 21.5h-127 l-2 23l-2 -2q-2 12 1 34.5l6 45t5 42t-2 23.5l2 68l11 14l-17 47q-25 8 -42 14t-34 6q-14 0 -29.5 -9t-31.5 -31q25 -47 34 -77t9 -59q0 -27 -5 -57.5t-11 -81.5h-58q-18 -23 -48 -38t-60.5 -31.5t-60 -37t-48.5 -51.5q-39 -63 -64.5 -133.5t-31.5 -143.5t10.5 -144.5 t61.5 -137.5q27 -39 37 -74.5t25 -66.5t45 -54.5t93 -37.5l6 -21h78q0 -20 2 -50t2 -58q0 -31 -7 -58.5t-27 -42.5q12 -23 18 -47t20 -49q16 4 34 6t34 4q4 10 8 20.5t10 20.5l5 240q20 0 42.5 6t43.5 10q0 2 26.5 20.5t58 40t59.5 40t32 20.5q4 20 22.5 41t36.5 27z M426 154h-43q-27 25 -62.5 62.5t-52.5 70.5q-16 35 -19 84t-3 88q0 63 7 117.5t24.5 101.5t48 91t77.5 89v-117q0 -57 7 -114q2 -16 8 -37t6 -37z" />
<glyph unicode="&#xa3;" horiz-adv-x="1521" d="M1423 287q-8 66 -27.5 138.5t-23.5 135.5q-23 4 -58.5 27.5t-74.5 33t-76 -11t-63 -104.5l10 -12l-12 -21l10 -41l8 -4q6 -18 26.5 -38.5t43 -39t39 -33t16.5 -20.5q-4 -61 -43 -91t-97.5 -39t-128 -2t-136 21.5t-123 32t-84.5 27.5q16 66 34.5 129t36 127.5t29.5 129 t14 134.5q55 -2 105.5 -15.5t97.5 -19.5t92 3t95 50q45 37 54 85.5t-1 88t-31.5 65.5t-38.5 19q-23 -8 -57.5 -21t-42.5 -40q2 -2 4 -17.5t5 -35t5 -37t6 -25.5l-63 -20q-41 23 -98.5 30t-102.5 17q8 16 7 42t-5 44q23 43 42.5 97t41 108.5t49 104.5t65.5 83t90 43t122 -12 q-23 -27 -33 -60q23 -55 61.5 -70.5t77.5 -5t69 42t35 73.5t-23 89.5t-105 86.5q-29 16 -65 28t-71 8q-100 -12 -175.5 -36.5t-131 -71.5t-95.5 -118t-71 -175q-18 -63 -29.5 -126.5t-41.5 -123.5q-16 4 -46 7t-64 4t-64.5 0t-46.5 -3l-27 21q-8 2 -22.5 3t-31 0t-29.5 -6 t-17 -14q-47 -10 -77 -23t-69 -42q0 -45 -1 -83t24 -77q20 -8 44.5 -10t45.5 8q10 20 15 30.5t8 18.5t2 19.5t-3 33.5q31 18 75 17.5t90 -10t90 -16.5t73 -1q-27 -63 -42 -130.5t-28.5 -136.5t-29 -137.5t-41.5 -131.5q-23 2 -64 2q-39 0 -84 -1t-85 -4t-62 -10 q-74 -78 -86.5 -132t14.5 -87t85 -46t126 -8t136.5 26.5t117.5 56.5q57 -10 126 -26.5t126 -6.5l45 -20q10 6 22.5 9t22.5 7l39 -27q70 -4 121 -1t97 12.5t95 27t117 43.5l10 29l41 21q-4 12 1 30.5t14.5 38t18.5 38t15 30.5zM256 129q-12 -12 -26.5 -20.5t-32.5 -4.5 q-6 2 -26.5 7.5t-20.5 15.5q0 18 16 18q12 0 33 -4q4 -4 8 -4q12 -2 24.5 -4t24.5 -4z" />
<glyph unicode="&#xa4;" horiz-adv-x="1163" d="M1327 1407v125q-61 57 -102 80.5t-85 30t-103.5 1t-157.5 -5.5q-18 0 -40 -11t-55 -5q-39 -39 -90 -75t-94 -72q-18 2 -43 -11.5t-39 -23.5q-8 -25 -45 -57.5t-80 -76.5t-81 -98.5t-46 -120.5q-8 -8 -14 -20q-41 -2 -68.5 -3t-38.5 -5q-4 -2 -25.5 0t-48 4t-51 4t-32.5 2 q-10 -18 -7 -48t13 -46l47 -21l6 7l-14 14q23 -10 43 -10h45l12 -11l12 11q8 0 21.5 2t30.5 4l-23 -49l-18 -7q0 -74 -6 -129h-130q-10 -6 -21 -9t-22 -7v-68l31 -22q10 -2 18.5 1t18.5 5l8 -4q4 4 25.5 6t56.5 2q-6 -35 -11 -71.5t-8 -79.5t-3 -97q0 -51 6 -118l18 -7 q16 -55 40 -102t36 -106l4 2q18 -18 14 -43l99 -31l10 -19l66 -4q-4 -4 1 -9t9 -5h131l14 16h119l39 25q47 -2 93 20.5t71 65.5q57 20 105 61t69 101l-27 35q-10 -12 -50 -38t-87 -50.5t-91 -42t-63 -15.5q-25 -23 -61.5 -29t-67.5 -10l-10 -10l-82 -6l4 -10 q-35 -23 -68.5 -1.5t-63.5 61.5t-53.5 84t-37.5 67l14 26q-10 27 -10 53q0 29 6 54.5t14.5 52.5t14.5 55l20 8v113q72 -2 146 -4t139 -2q68 0 120 1t79 5q29 4 72.5 -5t86.5 -3q14 23 8.5 47.5t-16.5 46.5l-45 19l-8 -5l16 -14q-12 8 -43.5 9t-46.5 -1l-12 13l-12 -11 q-31 -4 -60.5 -9t-60.5 1l2 2q-90 6 -176 8t-174 2q6 18 18 46t35 79l18 11q4 8 5.5 15t5.5 15h4q66 25 134.5 23t139 -9.5t140 -9.5t137.5 21q0 16 1 33.5t-1 33.5l-31 23q-10 2 -19.5 -1t-17.5 -5l-8 4l-14 -10q-6 0 -46 2t-98.5 4t-130.5 4t-145 2q8 10 16 18.5t19 16.5 l34 102l19 10l4 43q51 41 93 89.5t85 95.5q35 10 69.5 19t69.5 16l11 18h110l8 -18q25 -10 46.5 -20.5t45.5 -18.5q10 -37 25.5 -55.5t36 -23.5t47.5 -1t57 10l7 39h24z" />
<glyph unicode="&#xa5;" horiz-adv-x="1167" d="M1386 1536q-14 14 -21 24.5t-17.5 16.5t-30 12t-55.5 17l-7 18q-47 0 -96 -4t-90 18q-18 -4 -37.5 -12t-32.5 -22q-35 -2 -72.5 -37t-72.5 -83t-64.5 -95.5t-48.5 -73.5l-18 78q-8 35 -15.5 70.5t-11.5 72.5q-23 10 -37 21.5t-36 7.5l-15 22h-155l-23 -2q-24 -2 -43 -6 q-16 -4 -26.5 -10t-20.5 -12.5t-23.5 -12.5t-33.5 -8q-29 -25 -67 -64.5t-69.5 -85t-48 -92.5t-2.5 -88h84q20 20 43 56t52.5 72t65.5 60.5t83 20.5q25 -2 47.5 -13t41.5 -23.5t33.5 -22.5t22.5 -13l33 -45q-23 -53 -33 -118.5t-12 -124.5l-16 -8q-10 -23 -15.5 -46.5 t-9.5 -48.5q-66 2 -130 3t-130 -15q-10 -4 -14 -12t-2 -16.5t9 -13.5t19 -3q59 16 119 16q59 0 119 -4q-37 -41 -61.5 -91t-38.5 -103q-31 2 -62 5t-61 9h-4h-82q-23 0 -23 -22q0 -23 23 -23h79q53 -10 119 -14q-4 -14 -6 -28.5t-4 -29.5q-14 -16 -20.5 -33.5t-9.5 -37 t-7 -39t-16 -35.5l2 -29q-23 -41 -43.5 -84t-28.5 -88l-16 -8l-4 -63q-55 -29 -117 -37l-14 -19l-5 19q-37 0 -58 -14.5t-29.5 -34t-4.5 -43t17 -41.5q0 -2 -2 5t-3 12t1 1t10 -27q29 -6 45 -9t30.5 -2t31 5t44.5 10q20 20 46 35t49 33h149l8 -10l43 -6l6 -19l179 -47 q10 10 28.5 14.5t24.5 22.5q4 12 -1 21.5t-14.5 16.5t-20.5 14t-19 16q-33 4 -70 33.5t-51 62.5q16 49 25.5 63.5t13.5 25.5t4 36v96q12 16 36.5 84t51.5 152q51 -4 103 -2t71 22h182q23 0 23 23t-23 22h-196l-23 -22q2 2 2 8q-12 -8 -49 -9.5t-76 3.5q20 63 36.5 122.5 t27.5 100.5q51 10 101 20.5t103 10.5q31 0 57.5 -16.5t65.5 -16.5q23 0 23 22q0 23 -23 23q-31 0 -57.5 16.5t-65.5 16.5q-49 0 -98 -8.5t-98 -18.5q41 49 65.5 108.5t20.5 124.5q31 45 57.5 98.5t57 96.5t71.5 70.5t101 23.5q39 -2 60.5 -33.5t33.5 -75.5t20 -91.5 t22.5 -82t38 -48t66.5 13.5l14 41q15 41 26 97t8 116.5t-38 97.5z" />
<glyph unicode="&#xa6;" d="M1161 1872q2 12 0 18t-5 12.5t-6 13.5t-1 17h-6q-4 2 -3 5.5t1 7.5q-6 0 -14.5 -1t-12.5 3q-2 4 -4 7t2 7h-125l2 -10q-4 -8 -12 -6t-16 0q-2 -4 -3 -11q0 -6 -4 -10q-2 0 -2 8q-6 -6 -3 -17t-9 -11v-37l14 2q14 -20 2 -37.5t-8 -38.5q16 -4 13 -20h26q-2 2 -3 7t3 7 q8 4 12.5 2t5.5 -8t1 -15q0 -6 4 -8l2 4q2 -4 5 -8t1 -10q-6 -2 -11.5 -5t-15.5 -1q-6 -2 -7 1t-1 5q0 4 -1 7t-5 1l6 -6q-2 0 -2 -2h-4q-4 -4 -3 -13.5t1 -13.5q-4 -8 -1 -12t7 -8t7 -8t1 -11q14 2 22.5 -8t20.5 -12l-2 -4h55q-4 12 4.5 13t10.5 11q2 -4 8 -4q4 2 3 5t1 8 q6 6 10 4q4 10 5 25.5t-7 21.5l-8 -10q-10 -6 -15 3t-10 7q-4 4 -4 8q0 6 -2 10q-2 6 2 9t8.5 5.5t7.5 5.5t1 11q6 0 13 1t13 -3q-2 -4 -1 -7t-3 -5h19v8q0 6 6 10l2 -4q2 20 -4 38.5t-4 41.5q4 6 9 5t11 -1zM946 1843v19q-4 -6 -6 0v-19h6zM1454 1303q-6 -2 -13 1t-9 3 q-4 4 -5.5 10t-7.5 6l4 4h-6q-4 4 -3 8t-1 8h-12q0 6 -3 9.5t-7.5 6.5t-7.5 6t-3 11q-6 0 -8 -2q-4 2 -3 9.5t-7 5.5q0 6 -7 12t1 12l-4 -2q-18 23 -25 47l-4 -4q-2 6 -5 12.5t-1 14.5h-10q-6 12 -14.5 25.5t-4.5 29.5h-6q-2 8 -5 14t-1 15h-8q-8 -2 -8 4v10h-23 q0 -23 -10 -35q0 2 -2 2v2q-2 -12 8 -30q4 -4 6 -5h6q0 -8 3 -12t8.5 -7t8.5 -8t1 -13h10q8 -2 6 -10.5t6 -4.5q2 -8 5 -13t1 -13q12 -4 13.5 -12.5t13.5 -12.5l-6 -4q10 0 8 -11.5t0 -9.5l4 2q0 -10 5 -17t10.5 -14t8.5 -14.5t-1 -19.5h6q4 -8 4 -19q0 -8 2 -18q2 0 8 -4 t2 -12h33q4 8 14.5 10t19.5 3t14 5.5t1 18.5zM1524 948v13q-4 0 -4 6t-9 2q-8 16 -6 35.5t0 37.5q-4 29 -16 52.5t-6 58.5h-8q-10 10 -9.5 25.5t0.5 31.5h-6q-2 6 -5 13.5t1 13.5l-16 6q4 0 2 6q-4 -2 -10.5 -1t-10.5 -3l4 -2q-4 -4 -11 -3t-13 -1q2 -8 0 -16.5t6 -12.5 q4 4 6 2q2 -10 5 -19t1 -19h6q6 -29 7 -60h4q6 -16 6 -35v-39v-2v-14q6 4 0 14v2q0 4 4 4q16 -20 12 -46.5t2 -51.5zM1219 1329l-2 129q-10 20 -11 55q-10 -2 -16 3v63l-105 6l-4 47q-14 -2 -26.5 1t-28.5 1q-10 0 -9 -14t-9 -16v-35q-12 -6 -35 -7t-35 9l8 8h-53 q0 -25 -6 -45h-4v-18q-4 -2 -6.5 -5.5t-6.5 -1.5q-4 -4 -3 -12t1 -16q0 -6 -2 -11.5t-14 -3.5q2 -18 0 -39.5t6 -35.5q0 6 4 8q0 -6 5 -13.5t-5 -11.5l-4 2q-6 -2 -5 -6t-1 -8q10 0 5 4t5 8q4 -16 7 -31.5t1 -33.5h7q2 -10 5 -20.5t1 -22.5q8 -2 10 -10.5t0 -16.5h6 q4 -2 3 -5t-1 -5l4 2q6 -12 6 -33q2 -2 8.5 -4t2.5 -10q18 4 20 -8l-2 -2q4 -2 3 2t3 6l6 -13q10 0 31 5q4 23 1 47t7 45q0 -2 10 -2v34q4 14 23 23q8 -8 6 -12q4 0 8 1t9 -3q-4 -8 -1 -12.5t7 -7.5t7 -8t-1 -13h8q6 0 10 -6q-2 -8 -1 -17.5t1 -19.5q6 2 7 -3.5t2 -11.5 t3.5 -12t10.5 -6q2 -8 15 -7t13 -9l9 4q2 -6 6 -5t8 1q-2 4 2 7t8 1q4 10 14.5 21t8.5 28q4 -4 6 -2q-4 6 -1 15t1 16q4 6 8 6h8v34q6 6 3.5 18.5t9.5 10.5zM1550 848q-4 0 -8 -1t-6 3q2 12 -2 21.5t-2 19.5h-21q-2 -6 1.5 -14.5t-7.5 -12.5q-8 6 -17 9.5t-5 17.5 q12 4 12 10q0 8 14 8q-4 0 -4 4q2 4 7.5 8.5t9.5 -1.5v12h-25q0 -4 1 -8t-3 -6l-20 8l12 6h-25l4 -12q-4 -4 -11 -3t-13 1l4 -33l2 4q10 -10 0 -15l-6 5v-66q14 2 24.5 -1t22.5 -5v-8q8 4 14 -4q4 10 4 24t4 23q8 2 21 -6q4 4 9 6t9 6zM1532 770q8 0 0 4q2 4 2 12t-4 13 q-6 -8 -2 -16.5t4 -12.5zM1544 760q-4 4 -2 6q-4 2 -3 -2t-1 -6q2 -2 6 2zM1505 758q0 4 1 9t-1 9v2q0 4 -2 6q-4 -4 -2 -3t4 -3v-2q0 -4 -3 -6t-5 2q-10 -4 -12 -1t-2 9t-1 12.5t-7 6.5q-4 -4 -3 -14.5t-12 -6.5v-18h8q2 4 1 7t4 5q12 -16 32 -14zM864 1579q-16 -4 -20 12 q-16 6 -17.5 -4t-13.5 -8q-4 -12 -4 -27q0 -14 -8 -24q-4 -6 -8 -6h-11q0 -10 -3 -19.5t-7 -15.5t-14 -6v-8q-8 -8 -13 -7v-8q-10 -2 -13 -12t-15 -2q-2 -6 -1 -11.5t-3 -9.5q-6 -4 -12.5 -10t-12.5 0q2 -14 -12 -20.5t-23 -16.5l-4 4l-2 -32h8q12 -16 9 -39q10 12 26.5 18 t14.5 35l4 -4q4 4 2 8t0 8q6 2 8 10.5t12 6.5q-4 4 -4 6q4 2 6 5t6 1q4 16 7.5 28.5t19.5 22.5q8 4 13 13.5t16 5.5v8q12 2 12 10t14 10q-4 2 -4 8q6 4 14 4t11 11q12 -2 16 4t5 14t0 18.5t1 18.5zM1231 1030q-8 -4 -10 1t-4 7q0 -2 -5 -6q-2 6 -5 10.5t-1 10.5q-6 2 -14 1 t-14 3v12q-10 4 -23.5 2t-26.5 -2q6 -4 2 -8l-8 -8q-2 -4 -13 -5t-17 -10q-23 2 -21 23.5t0 38.5q-4 -4 -8 -2t-6 6q2 37 -1 68.5t-5 66.5l-4 -2q-2 6 -5.5 11t0.5 12q-6 2 -12 -0.5t-8 6.5v2q2 0 2 4q-2 -2 -3 0t-3 2q-2 -39 1 -82t-7 -84h-4v-31q-4 -12 -17 -8q6 -6 4 -8 t-5 -4l-6 -4t-1 -9q-25 -8 -50.5 -0.5t-49.5 -1.5q-6 -10 -3 -18t-8 -16q4 -8 8.5 -20.5t12.5 -20.5h12q6 -4 5 -10.5t1 -10.5h7q0 -6 4 -12t0 -14h10t8 -7q0 -2 -1 -3l-1 -1q14 0 13 -12t3 -20q4 -12 15 -9q4 -10 9 -14t9 -12q14 2 25.5 -1t23.5 -5l-6 -7h14v7q16 2 34 5 t36 1q2 10 9 13t5 13q12 -6 11.5 2.5t9.5 8.5v24q12 -2 12 6q0 10 6 15v2q4 6 9.5 9t7.5 13q2 2 6 -2v15q10 4 13 9t16 9q4 12 4 27q0 14 8 24zM1300 539v145h-6q-8 59 -6 122.5t0 125.5l-8 12q-4 8 -2 13.5t-2 15.5q-6 -4 -17.5 -1t-11.5 -7q-8 2 -11 -1t-5 -9.5t-5 -10.5 t-9 0q-8 -8 -4 -16t-7 -15q-4 4 -5 2t-5 3q2 -12 -10 -21q8 2 17 -1t18 -5q-8 -8 -9 -12q16 4 25 -9v-168q0 -16 -4 -31.5t-8 -29.5q6 0 8 -2q-6 -6 -8 -6v-60q4 4 6 5q4 -12 4 -23q0 -10 4 -20q2 4 9 -0.5t3 -10.5q16 2 29.5 1.5t19.5 13.5zM629 1278q4 10 3 20.5t-3 16.5 h-23q2 -4 -3 -9.5t-9 -2.5q0 -12 1 -26.5t-3 -25.5q-10 0 -12 -7t-2 -17v-21q0 -10 -3 -18q2 4 3.5 1t3.5 -1l-2 2q2 4 8 4q-2 8 1 14t7 11.5t6 12.5t-2 17q4 2 6 4t6 0v11q2 4 4.5 11t12.5 3zM657 1243v21h-22q-2 -6 -2 -15q0 -6 -4 -12q-2 2 -13 2v-20q-4 -6 -1 -17.5 t-9 -11.5l-4 -62q-6 -6 -8 -4q4 -18 -1 -36.5t-1 -36.5l-6 -7q-6 6 -6 7l-7 -7q-2 -4 -5 -2t-7 7v71h-10q6 -20 -3 -36.5t-9 -32.5q-4 -4 -5.5 -8.5t-5.5 -0.5q-4 -16 1.5 -20t9.5 -14h22q-4 4 0 6t6 6q8 -8 6 -12q14 -6 15 2q0 10 12 10q-4 23 1 38t1 36q14 10 10 31.5 t2 37.5q10 4 14.5 20.5t6.5 28.5l2 -2q6 8 3 19.5t7 19.5q2 -6 4 -6h6zM571 1139l-2 28q-2 -10 -4 -17t6 -11zM905 897v21q-16 -6 -14 6t-4 16q-6 -2 -9.5 2t-6.5 10t-7 10.5t-12 2.5q-2 10 -12.5 7t-18.5 1q2 -4 -1 -8t-7 0v-162l2 4q8 -23 7 -42.5t-5 -41.5q-4 -4 -4 2 q6 -8 1 -14t-1 -17q-6 -4 -3 -15t-9 -9v-107h6q2 -8 5 -13t1 -13q31 -6 64 0v8q-4 6 1 8t9 0l-2 68l-2 -3q-8 31 -5 63t-12 62q-4 31 -2 63t0 64q4 4 4 11q0 6 9 2q-4 2 -5 8q6 8 15.5 6t17.5 0zM1300 141q0 14 1.5 33t-3.5 35q-6 -4 -12 2q-4 53 -4 113q0 61 6 114 q8 -2 12 0v56q-2 -4 -8 -5q-4 4 -8 5.5t0 7.5q-8 4 -7 -1t-3 -7q-14 -8 -27.5 -2t-27.5 -3q0 -92 -1 -182t-1 -182q8 0 11 -3t6 -7t6 -7.5t9 -1.5q-2 -4 0 -12h23v19q4 4 4 8q0 6 8 4v10q2 6 6 6h10zM1505 4q0 4 1 10t-3 9q0 -8 -2 -9q-4 2 -4 9q-16 -4 -32.5 1t-32.5 1 q-4 -6 -6.5 -11.5t-6.5 -9.5h17l-2 4q10 8 23 6t24 0q2 -4 4 -5t2 -5h18zM600 897q-2 6 -6 12t-8 15q10 10 5 22t1 23q0 8 -5 7t-9 -1q-6 -4 -11.5 -1t-9.5 -1q-10 4 -17.5 0t-15.5 0q16 -10 17.5 -17.5t11.5 -21.5l8 4q12 -2 8 -10t4 -8q-8 -4 -17 -3t-17 -4 q2 -14 -1 -27.5t-6 -27.5q-4 0 -4 4q-4 -10 4.5 -11t6.5 -11q6 2 12 1t10 3q0 2 -1 3t-1 3q-4 14 7.5 16t21.5 2v23q8 8 12 6zM522 883q-4 16 1 30.5t-5 30.5q-10 4 -8 -3t-6 -9q-2 -2 -3 0t-3 2v-55q6 2 13 1t11 3zM1399 31q-4 2 -1 4t1 4q-10 0 -13.5 9t-15.5 3 q-4 4 -10 5t-2 10q-6 4 -16.5 3t-10.5 9h-14l4 -6q-4 -2 -7 -4t-7 2q0 -8 -1 -13.5t-3 -11.5q10 2 20 1t20 -3q10 -6 3 -14q16 4 29.5 -2t23.5 4zM573 836q-2 4 -8 4q4 -10 -4 -13.5t-4 -11.5q14 0 11 -13.5t-1 -15.5zM547 827h-8q2 -10 0 -19t6 -15q-6 10 3 17t-1 17z M522 829v19q-10 0 -13 -1t-11 3v-37h6v8q-2 10 5 9t13 -1zM545 772q-4 4 -1 7t1 7q-2 -2 -5 -6t-1 -8h6zM1251 49q-4 8 -12 6t-14 0q-4 -2 -4 -6t4 -6q6 2 14 0t12 6zM915 141q-2 14 0.5 33t-2.5 35q-6 -4 -12 2q-4 53 -4 113q0 61 6 114q8 -2 12 0v56q-2 -4 -8 -5 q-4 4 -8 5.5t-2 7.5q-6 4 -5 -1t-3 -7q-14 -8 -27.5 -2t-27.5 -3q0 -92 -1.5 -182t-1.5 -182q8 0 11.5 -3t5.5 -7t5 -7.5t9 -1.5q-2 -4 0 -12h25v19q4 4 4 8q0 6 6 4v10q4 6 8 6h10zM887 45v25q-10 -4 -8 5t-9 5l-4 -35h21zM795 45v25q-8 -4 -11.5 -1t-4.5 8t-3 9t-8 4 q4 -6 -2 -12q-10 6 -11 -5.5t-10 -6.5v-9q-2 -8 -10 -5t-4 -7q-8 -2 -14 -5t-15 -1q-4 -14 7 -35q0 10 6 11t12 1t12 1t6 12q10 -8 15.5 -4t9.5 10t9.5 11t15.5 -1zM670 4v19h-35q4 -4 0 -7.5t-6 -7.5q10 -4 20.5 -3t20.5 -1zM1126 1837l-4 -25l-45 3q-10 20 0 43h37 q-2 -6 0 -13.5t12 -7.5zM1071 1808q-4 -6 -12 -8t-12 -8q-6 8 -1 16.5t1 18.5h10q0 -6 -1 -13.5t3 -11.5q6 6 12 6zM1026 1858v-31q0 -16 -16 -15q-4 2 -8.5 -2t-0.5 -8q-8 0 -10 4l4 2q-4 4 -8 6.5t-10 0.5v20q6 8 12 7t15 5q0 2 -5 2h-2h-6q2 2 1 5.5t3 0.5q-2 -2 0 -3 t2 -3h2q4 0 5.5 3t-0.5 6h22zM1094 1729q0 -8 -2 -11l-5 11h7zM1059 1733h-17q0 4 5.5 8t9.5 -2q-2 -2 2 -6zM1112 1495q-8 0 -16.5 1t-14.5 -3l4 -4q-2 -2 -8 -2q-4 2 -5 5t-5 7q-2 -4 -8 -4q2 4 1 9t3 9q10 0 22.5 -1t22.5 10q8 -13 4 -27zM1483 1100q-2 -23 1 -42.5 t-3 -41.5q-8 0 -8 -2q-10 35 -12.5 69.5t-6.5 69.5q-4 2 -6 -1t-6 -5v47q4 -6 6 -3t6 3q8 -18 0 -37q6 -6 14 -4q2 -14 1 -28.5t4 -26.5zM1163 1493q-2 -10 0 -23.5t2 -25.5t-3 -22.5t-15 -14.5q-12 -8 -17.5 -11t-21.5 -7l-21 2q2 6 -2 8t-8 3t-7 3t1 8t12.5 4t3.5 8 q16 4 27.5 3t28.5 4v12q-18 4 -41 3t-39 -1q-4 4 -3 9t-1 11q23 6 49 2q2 4 5 5.5t1 5.5l-2 2q-2 -2 -6 -2q0 2 6 2q14 4 16 8q2 0 9 -6q12 16 10 26h4l-2 -2q4 -2 1 -4t-1 -4zM1182 1384q6 -12 2 -17t-10.5 -6t-13.5 -3t-9 -8q-6 -6 -20.5 -2t-8.5 -15q-8 -8 -16 -2t-19 -2 q-4 6 -3 13.5t1 13.5l23 6q-2 2 -8 2q4 12 21.5 10t25.5 10h35zM1167 1309q-6 -2 -13 -4t-3 -13q-25 -6 -51 0v11q8 2 18 2t10 14q10 -4 22.5 -1t16.5 -9zM975 1522q2 -12 -10.5 -9t-16.5 -4q2 -8 0 -16t6 -12h7q0 -8 -5.5 -10.5t-11.5 -3.5t-9 -4t3 -15q8 -4 18 -4v-25 q-25 -6 -49 0q4 4 4 6q-4 6 -14 7q0 14 -6 16l2 61q16 0 18 9q-6 2 0 6q16 0 32 1t32 -3zM1151 1225q-16 -8 -31 0q-4 16 -4 35h27q0 -6 4 -9q2 2 2 9q4 -8 3 -16.5t-1 -18.5zM983 1384q-4 -6 -9 -7t-9 -2t-7.5 -4t-3.5 -13q-12 2 -25.5 0t-21.5 6q4 4 2 6t-4 6h-12 q-6 0 -2 8q-2 10 3 13.5t11 3.5q8 0 15.5 -2t13.5 0l6 -10zM1505 778v-2v2zM954 1280q-10 -4 -8 -14q-8 4 -12 -1t-12 -1q-4 4 -2 10t-9 4q0 10 -2 19.5t2 17.5q-4 8 -9 6t-9 2q2 4 1 10t-1 10q27 10 55 0q2 -4 1 -9t5 -5q4 -10 -6 -9t-14 -5q-2 -6 2 -12.5t-2 -10.5 q4 -6 14 -3t6 -9zM956 1237l-2 -27q-6 -2 -14 1t-18 1v37h18q-8 -12 2 -10t14 -2zM1143 973q-4 -8 -14.5 -13.5t-6.5 -15.5q6 -4 3 -6t-3 -6q-6 -6 -12 -18.5t-23 -8.5l-6 -10q-4 -2 -12 -1t-12 -3q0 -12 -10 -14q-4 0 -7.5 4t-7.5 -2q-8 8 0 12q-4 4 -12 3t-12 3 q2 4 -2.5 8t-1.5 8q-16 -2 -17 11q0 14 -10 14q-2 8 -3 19.5t-9 15.5q10 0 12 -4l-2 -2q14 4 19 0t8.5 -10.5t7.5 -12.5t16 -6q10 -4 23.5 -5t23.5 7l-2 4q4 4 10 3t13 -1q-2 10 3 13.5t11 3.5t12 2t6 10q15 0 17 -2zM1274 141q-4 -4 -3 -8t1 -8q-6 0 -8 3t-2 7v10q0 6 -5 9 l-6 -7l-6 23q2 72 1 145.5t3 139.5h23zM889 141q-4 -4 -3 -8t1 -8q-6 0 -8 3t-2 7v10q0 6 -5 9l-6 -7l-6 23q0 72 -1 145.5t3 139.5h25zM844 258h-2v14h2v-14z" />
<glyph unicode="&#xa7;" horiz-adv-x="1331" d="M1255 1296q20 6 30.5 55.5t3.5 104.5t-35.5 98t-90.5 39l-8 13q-18 6 -52 10t-69 5t-64.5 -2t-37.5 -13l-10 -25l-43 -4l-9 -10q-29 -4 -56.5 -9.5t-53.5 -19.5q-8 -16 -23.5 -29.5t-32 -28t-29.5 -31.5t-16 -44q-12 -90 1.5 -151.5t41.5 -106.5q-41 4 -74.5 1t-43.5 -15 l-13 -25l-43 -4l-6 -10q-29 -4 -56.5 -9.5t-53.5 -19.5q-8 -16 -23.5 -29.5t-32 -28t-31 -32t-16.5 -43.5q-14 -119 12.5 -189.5t71.5 -117.5q2 -45 30 -73t112 -50q4 -4 5 -6t5 -7l2 -4h2q29 -35 35 -82l12 -6q20 -63 28.5 -97t6.5 -50.5t-10.5 -23.5t-19.5 -15 t-21.5 -26.5t-16.5 -57.5q-29 -18 -55.5 -24.5t-52.5 -6.5q-25 0 -51.5 3t-57.5 7l-6 15q-25 4 -57.5 20.5t-60 40t-44 53t-10.5 58.5q-10 10 -20.5 19.5t-20.5 19.5l-37 14q-4 10 -14 14q-4 -16 -9.5 -31.5t-13.5 -31.5l13 -10l-11 -13q-4 -55 -9 -94t5 -67.5t42 -48 t102 -37.5l4 -15h104l10 -12q92 0 141.5 4t74 11.5t33.5 17.5t20.5 21.5t34 24.5t73.5 27q23 27 39 54.5t8 62.5l25 19q6 16 11 32.5t9 32.5q-6 20 -14 32.5t-20 29.5q20 29 20 53q0 27 -14 53q59 2 92 7t48 12.5t23.5 17.5t19.5 21.5t32.5 23.5t68.5 25q23 25 39.5 52.5 t9.5 61.5l25 19q12 31 18 65q-4 20 -13 33.5t-19 30.5q31 43 13.5 83t-58.5 81t-94.5 84t-94.5 93t-56 109.5t17 130.5l15 9l24 41q27 4 53.5 10t55.5 16l6 12h98q6 0 8 -5t-2 -7l21 -6q18 -23 37.5 -42t35 -38.5t26.5 -43t14 -54.5q15 -11 38 -21zM944 870q23 -63 30 -97 t6 -50t-10 -23.5t-20.5 -15.5t-21.5 -26.5t-17 -57.5q-29 -18 -55.5 -24.5t-52.5 -6.5q-25 0 -51.5 4.5t-57.5 8.5l-6 12q-25 4 -57.5 20.5t-60 40t-44 53t-10.5 58.5q-10 10 -20.5 19.5t-18.5 19.5l-14 6q-20 70 14 141l12 9l25 40q29 4 55.5 10.5t53.5 16.5l8 12h98 q4 0 6 -5t-2 -7l23 -6q18 -23 37.5 -34t35 -22.5t25.5 -26.5t12 -46q18 -12 41 -19q12 4 23 23q0 -4 1 -9t1 -11z" />
<glyph unicode="&#xa8;" horiz-adv-x="837" d="M772 1556q0 37 -41 60.5t-89 28t-89 -11t-41 -54.5q0 -63 41 -93t89 -31t89 25.5t41 75.5zM309 1554q0 37 -41 60.5t-90 28t-90 -11t-41 -54.5q0 -63 41 -94t90 -31t90 26.5t41 75.5z" />
<glyph unicode="&#xa9;" horiz-adv-x="1142" d="M1024 1139h-4h4zM1120 940q-2 4 -9 2t-7 -4q-41 29 -72 66q16 23 17 24q2 -2 6 -3t18 3l-24 10q6 0 15 -2t13 0l-4 2l-8 4h-37q6 4 23.5 2t25.5 -2q4 0 1 3.5t1 3.5h6q-2 0 -7 3t-5 -1l-14 8q4 -2 11 -4t11 2l-4 2l-6 4t-14 9t-15.5 9t-9.5 6h2q8 -4 12 -5l3 -1 q2 2 -3.5 5.5t-11.5 0.5q-4 2 -7 4.5t-7 6.5l29 -8v6l-41 18q8 2 19 -3t20 -7v2l-41 16q10 0 19 -3t19 -7v2l-12 8l-10 2l6 2l14 -2l-4 2l-6 4l-26 -6q-8 0 -9 2q0 2 4.5 4.5t9.5 5.5t9 3h4h-4l-25 -6l-6 2l31 6q-14 -2 -30.5 3t-38 10t-48 6t-63.5 -9v2q29 37 39 80 q-25 39 -31 84t-13.5 95t-28 106.5t-73.5 119.5l23 7l12 22q-8 23 -11 46.5t-20 43.5l33 10q4 0 5 -7t-7 -7q-16 0 -11 -3t15 -5q4 0 10 4t11 6l4 2q4 2 4 -2l12 12q4 0 5 1l1 1l2 5l6 4l-6 8v-6v-6l-8 -7q-6 -6 -6 0q4 16 10 25.5t12 26.5q-4 12 -15 30.5t-25.5 37 t-30 32.5t-29.5 20q-4 -6 -15.5 5.5t-21.5 3.5q-8 4 -22.5 8t-27.5 9t-21.5 9t-4.5 8l-22 -12l-33 15l-29 -11l-24 27l-16 -6q-2 -2 4 -2t10 4q4 -4 11 -10.5t7 -12.5l-20 -12q-20 0 -37 8l-29 -8l-18 4l-27 -16q2 4 -1 3t-6 -4t-3 -5t10 -2q-12 -10 -20 -22.5t-17 -25.5 q4 -4 9.5 -15t-3.5 -17q18 -29 49 -40.5t60 -23.5q-12 -20 -20.5 -42.5t-14.5 -45.5q4 -12 12.5 -24.5t20.5 -18.5q-16 -25 -25.5 -39t-13.5 -25.5t-4 -27.5v-43q-18 -18 -48 -35.5t-30 -42.5q-27 -10 -38 -28.5t-34 -34.5q-8 29 -28 55q-8 -8 -19.5 -13.5t4.5 -15.5 l-14 -20q-2 -4 3 -3l5 1l23 -2q2 0 5 3t7 -1l-16 -23q4 -4 -2 -8t-11 -4q-4 6 -10 21.5t-16 13.5l14 -43q-92 -86 -198 -144q4 -10 10 -21t16 -18q53 37 108.5 73t112.5 71l23 -23q8 4 30.5 15.5t32.5 3.5l23 14l4 -4l18 12l37 31q0 -37 2 -75t27 -66q-4 -2 -7 -9.5 t-5 -14.5t-3 -10t1 1q-4 -6 -8.5 -16.5t-0.5 -18.5q-23 -16 -48 -27.5t-48 -27.5l19 -21l-39 -30l10 -7q-33 -25 -61.5 -54.5t-51.5 -63.5l15 -29l-21 -31q0 -35 21.5 -57.5t52.5 -36.5q-27 -86 -27 -147q0 -59 14.5 -115.5t35 -119t36.5 -150.5q-6 -6 -14 -5.5t-4 -3.5 l10 -39h-6l-21 -28v-2q-29 -39 -49 -60.5t-67 -31.5l-19 -23l11 -20q33 -6 55 -7q25 0 46 6.5t43.5 18.5t53.5 33l10 -25q10 -10 32 -4t34 10q-14 51 -12 116t0 134.5t-14.5 142t-53.5 142.5q43 76 98.5 128t120.5 109q12 -25 12 -51q0 -25 1.5 -44t9.5 -27.5t37 2.5l39 -91 q-35 -53 -74 -104t-68 -109l4 -6q41 45 78 93.5t74 97.5q8 -25 24.5 -49.5t36.5 -40.5q2 -35 15.5 -72t30 -74t36 -73.5t33.5 -67.5q-2 0 -9 2t-7 -2q2 -4 8 -16.5t12 -24.5t10 -23.5t0 -13.5q6 -29 6 -51q0 -20 2.5 -39.5t11.5 -39t34 -42.5q18 10 40.5 11t45.5 5 q14 31 13 52.5t-10.5 39t-23.5 35t-27 41.5q2 0 8.5 4.5t2.5 6.5l-15 22l-6 -2l-8 68l-10 -8q-6 39 -10.5 84t-14.5 89t-28.5 82.5t-49.5 67.5q-2 10 3.5 16.5t5.5 14.5q0 6 -7.5 9t-11.5 -3l-12 41q10 14 7 45t-7 47q4 0 16.5 4t25.5 8t25.5 7.5t14.5 3.5q18 14 38.5 27.5 t37.5 29.5l-23 43l16 25q-4 12 -11 24t-15 23l14 12q14 -20 30.5 -38.5t35.5 -37.5l8 -39l4 13q-6 6 -11 21t-8.5 29.5t-4.5 20.5t-1 -2l-26 25l6 -13l-21 15q0 4 5 5l6 1h-9q-4 4 -5 0t-7 6l23 37l16 -27v4l10 -12h-8l25 -26l-6 14q25 -14 43 -43l-31 31q10 -10 17 -23.5 t14 -26.5l-35 43l37 -59q2 -4 3 1t1 7l-6 6l6 -2l-2 10q-2 9 2 5q-10 18 -23.5 33.5t-27.5 31.5l14 -4l-27 25q4 -4 7 -9.5t-1 -5.5l-16 13q-4 8 -7 20t1 14q4 6 10 -1t6 -11l-6 -2q2 -8 10.5 -11t14.5 -7l23.5 -23.5t29.5 -9.5l7 1q7 1 7 5zM1065 1051l-6 -2l-53 24l49 -22 q-8 -4 -25.5 4t-25.5 12v-2l36 -16l-39 8l29 -10l-33 2l19 -5q-29 6 -55.5 17.5l-53 23t-56.5 19.5t-63 8l50 23q2 4 -9.5 -0.5t-7.5 0.5l17 14l65 6l45 -10q2 -6 -8 -5t-18 1q-16 -2 -39 -2q-20 0 -39 -4h6l8 -2l47 6q20 4 43 -7.5t41 -21.5l-16 -2l37 -16l-13 14h4l39 -29 l-28 13l24 -17v-2l-26 10zM713 1325h-2q0 2 -2 2q-4 -4 -4 -10q0 -4 -7 -4q0 -6 -1 -13.5t3 -11.5q0 -4 2.5 -10t-2.5 -10q-2 -4 -8 -5l-12 -2t-8 -5.5t2 -14.5q-4 0 -8 1t-9 -3v-2h2q-2 0 -2 -2h2q-10 -2 -17 -3t-17 -3q-4 6 -9.5 5t-11.5 -1q-4 8 -2 17.5t-8 11.5l-19 2 q0 4 -2 4t-2 2h-6v8q10 -4 8 4t2 12q-4 4 -10 4q-2 14 -2 29q0 16 4 29l2 -2q6 8 10.5 15t14.5 13q12 8 29.5 9.5t34 -2t25.5 -7.5t5 -6q2 -10 5 -6t7 -6q8 -6 5 -16.5t8 -12.5v-10zM436 1362l-12 29l12 -2v-27zM678 1280q0 10 -4 27l-23 2q-2 -8 -4 -15.5t0 -15.5 q2 -4 7 -2t5 -4h5q0 6 6 4t8 4zM645 1251v23l-12 2q-4 -4 -2 -12.5t0 -12.5h14zM623 1307q-6 2 -16.5 1t-10.5 -10q-2 -6 -4 -13t6 -11v-2q2 0 6 -1t4 3q16 -2 14.5 10.5t0.5 22.5z" />
<glyph unicode="&#xaa;" d="M1622 1841q-2 14 -4 38t-12 32q2 10 -6.5 12t-12.5 6q-23 6 -50.5 7t-49.5 -7l4 -2q-6 -4 -12 -4t-11 -4q-14 -23 -14 -53q0 -29 4 -56q10 -4 2 -11t-2 -13l-4 -2q0 -8 6 -13.5t4 -13.5q18 -6 37 0q4 -4 4 -12v-12q-10 -6 -20 0q-6 -12 -4 -33t14 -29q6 0 10 -6 q8 -16 15.5 -13t17.5 -3l-2 -2q20 -10 35 10q-2 12 8 13t14 13.5t1 21.5t-3 21v-8q-8 -4 -14 -6t-4 14q-10 6 -4 14.5t6 16.5q6 2 12 -1t12 -1q14 0 12.5 8.5t8.5 12.5q-2 2 -2 16q-16 18 -8 45q8 4 12 4zM2028 1386q-4 -6 -11.5 -5t-3.5 -13q-2 -6 -3 -12t-5 -10 q2 -10 -2 -17.5t-6 -17.5l-4 2q2 -18 -8.5 -33.5t-8.5 -36.5h-2q-4 -6 -2 -13t-4 -13q-10 -10 -10 -21q0 -10 -4 -20h-2q-4 -8 -3 -22.5t-10 -12.5q2 -18 -6 -30.5t-4 -31.5q4 6 3 18.5t14 8.5q-2 16 6 27.5t6 27.5q6 0 10 9.5t7 20.5t4 22.5t3 15.5l3 -2q4 10 3 18t3 17 l6 -2q4 10 4 18q0 10 4 18l2 -2q2 8 2 23q0 14 10 12q4 10 8.5 28.5t0.5 28.5zM1831 1300q0 4 -3 15.5t-7 23t-8.5 19.5t-8.5 6q0 14 -7 24.5t-7 22.5q-12 4 -18.5 18.5t-10.5 26.5q-10 4 -13 18.5t-15 16.5q-2 20 -12.5 55t-20.5 49l2 4q-4 4 -3 12.5t-3 12.5 q-12 4 -23.5 2t-22 -8t-20.5 -11t-22 -8q0 -10 -12.5 -12t-18.5 -4q-8 0 -10 4t-2 10v13q0 8 -2 12q-6 8 -17.5 6t-19.5 2q2 4 -2 4t0 -4q-10 0 -12.5 -9t-4.5 -18.5t-4 -18.5t-8 -9v-8l-18 -6q-4 4 -12.5 2t-4.5 10q-10 0 -23.5 5t-23.5 -7q0 -23 -3 -47.5t-19 -34.5 q-4 -33 -3 -65.5t5 -67.5h6q0 -10 3 -19.5t1 -19.5q16 -41 18 -82q12 2 13 -12q0 -12 6 -16.5t17 -8.5t7 -16h6l3 10l4 -10l-2 8l12 8q4 23 2 43.5t6 42.5h6q4 10 4 27q0 18 13 18q2 -10 11 -8t7 -10q6 -2 8 -11.5t10 -5.5q8 -16 12.5 -36.5t20.5 -28.5q4 -10 16.5 -8 t14.5 -13h18q4 10 7.5 29.5t13.5 19.5q4 10 1 23.5t7 19.5q0 8 1 33t7 27q4 39 -3 81t-3 79q-2 2 -5 7t1 9q-6 4 -14.5 1t-12.5 7l4 10q16 2 35 -8l4 -24l4 2q4 -2 6.5 -9.5t5.5 -15.5t6 -14t7 -4q6 -16 14.5 -33.5t10.5 -36.5q10 4 9 -10.5t5 -20.5l2 4l-2 -10l2 2 q2 -8 4 -14t2 -12l8 -9l6 -28l-2 -2q10 -18 30 -14.5t34 3.5zM1898 967l-4 45h-6q-4 53 -12 103t-12 104h-6l-7 47l-30 2q-4 0 -8.5 -5.5t-8.5 -0.5l-8 -5q2 -23 3 -44t9 -39l2 2q14 -25 17.5 -54.5t3.5 -62.5v-66q0 -31 4 -57h16q2 10 11 10q8 0 14 4q-4 12 7 13.5t15 3.5z M1905 885q4 23 0 47h-7l-2 -43q7 -6 9 -4zM1399 1552q-2 4 -1 9.5t1 9.5q10 4 -1.5 13t-11.5 15h-6q-10 10 -10 -2q0 -10 -8 -10q-4 -8 -8 -13t-8 -13q-10 -2 -14.5 -12.5t-14.5 -10.5q-4 -10 -11.5 -19.5t-17.5 -11.5v-8q-14 -6 -26.5 -15t-28.5 -11q0 -8 -5 -10.5 t-11.5 -3.5t-11.5 -3t-7 -10l4 -8l-6 -2q0 -4 -1 -13.5t-1 -19.5q0 -8 3 -14.5t9 -4.5q4 0 12.5 2.5t8.5 10.5l2 -2q4 4 3 9t5 9q10 4 13 14.5t12 10.5q-2 14 8 13t10 11q8 -4 7 7.5t9 7.5q4 14 16.5 16t22.5 6q-2 8 1 11t7 3t8.5 1.5t4.5 7.5q4 2 9 4t9 -2l4 4q0 10 4 12 l2 -2q6 2 7 10q0 8 8 4zM1882 848q-6 20 -4 40.5t-20 18.5l2 -8l2 4q4 -14 5 -28.5t5 -28.5q6 0 10 2zM1843 907q-8 0 -14 1t-12 -1l2 -2l-7 -8l-2 2q-4 -6 -7 -15.5t-9 -13.5q2 -8 -1 -19t5 -13q8 -4 23 0q4 20 4 30q8 4 7 21.5t11 17.5zM1874 797v8h-16v-17l2 5q2 0 2 -7 v2q4 4 6 8.5t6 0.5zM1174 1393h-3l-2 4q-6 0 -14 1t-6 13q4 4 9 0t11 0q0 8 1 15.5t-9 5.5q-4 4 -4 14q-8 4 -12 12t-15 6q-2 16 -14 20.5t-18 14.5q4 10 -4.5 11t-6.5 12q-8 0 -10 6q0 10 -4 17t-8 18l-6 -2q-8 23 -14.5 23.5t-24.5 2.5q-2 -16 -13.5 -12t-17.5 -2 q4 -6 3 -13.5t-1 -13.5l2 2q0 -6 6.5 -10t-0.5 -10l15 -4q0 -10 9 -11.5t5 -13.5q14 0 23 -18q8 4 8 -6t4 -11q6 -6 13 -12t5 -16q8 4 10.5 -5.5t8.5 -11.5l-2 -4l7 -7t5 -11q6 0 8 -5.5t4 -11.5l4 -12t7 -8q8 -4 18 0t20 2l-2 2q6 4 4.5 12.5t0.5 16.5zM1739 856v12l-6 2 q-4 8 -3 20.5t-10 14.5l2 2l-16 15l-2 -2l-10 2l-6 10h-9l-6 12l17 6q4 20 18 25q23 66 0 131q-8 4 -22.5 11t-22.5 7q0 -10 -9 -11t-14 1q-8 -8 -16 -12t-16 -12l2 -9q-16 -14 -37 0q4 31 -4 62t-6 63l-2 -4l-7 41l-10 2l2 6l-8 19q2 10 -6 16t-16 6q2 -16 -0.5 -33.5 t6.5 -33.5l-6 -6q0 -10 1 -34t1 -50q0 -25 -2.5 -45.5t-8.5 -26.5q2 -16 -17.5 -15t-23.5 17q-8 0 -15 1t-15 -3q2 -12 -8.5 -15.5t-14.5 -13.5q-4 -14 -4 -37t12 -32l9 2q2 -4 8 -17.5t12 -9.5q10 -18 14 -38.5t9 -41.5l30 2v8q16 6 32.5 5t33.5 -1q18 0 33.5 2.5 t31.5 12.5l8 22l17 -14q0 -18 8 -24.5t12 -18.5q4 -14 -4 -32.5t-6 -35.5q-8 -6 -8 -18t-4 -23l-6 5q2 -14 -3.5 -25.5t-9.5 -22.5l2 -2q-2 -8 -2 -22q0 -12 -10 -10q0 -23 -4 -44.5t4 -41.5h6l4 -15l17 -8l14 8q-2 10 5 14.5t9 12.5h5q0 37 6 75t4 74l10 7q0 16 7 27t7 28 q8 10 7.5 28.5t9.5 22.5zM1849 844q-2 4 -14 4q-4 -10 -8 -22.5t-4 -24.5q-6 -4 -7 -15.5t-12 -7.5q4 -16 -6 -23t-8 -22q-6 0 -12 -1t-11 3v8h-12q2 -6 -1 -12t-7 -10q-12 -82 0 -162q4 4 11 5t3 11q4 6 19.5 18.5t13.5 16.5q6 4 7 12.5t11 4.5q0 18 11.5 25t7.5 30 q-10 4 -7 18.5t-7 18.5q0 6 -1 15t5 11q2 4 4 15.5l4 23t5 19.5t9 8zM1737 635v10h-2v-10h2zM993 1622l-35 4q-4 12 -13 16.5t-13 14.5l6 33h12q-4 29 -9 56.5t-9 55.5h-6q-2 4 -3 20.5t9 10.5q10 29 24 45q12 -4 13.5 15.5t1.5 25.5l-37 8v2h-51q-10 -6 -21 -6q-8 0 -18 -4 q-4 -10 2 -21.5t6 -21.5l18 -23l-2 -2q20 -23 14.5 -48t-16.5 -52h-2v-4l-12 -16v-13q-10 -6 -22.5 -10t-22.5 -8q-10 -18 -18.5 -30.5t-8.5 -39.5l-10 -6v-4q-27 -18 -55.5 -17t-57.5 -4v-8l-84 -8q0 -10 -3 -25.5t-17 -11.5q-6 20 -15.5 27.5t-20.5 9.5t-23 2t-25 6v8 q-16 0 -33.5 8.5t-34.5 4.5q-6 8 -13 20.5t-19 9.5q-10 10 -22.5 4t-24.5 -8q2 -14 -11.5 -13t-15.5 -9q-4 -16 -3 -47t3 -49l16 8v8l23 27l16 2q-4 14 6 14q12 0 17 10l4 -18l-51 -72q-10 -2 -12.5 -14t-12.5 -8l-8 -39h31l2 10q27 -8 37 -19.5t11 -27t-3 -38t-4 -54.5 l-15 -6l2 -3q-12 -2 -25.5 -5t-25.5 -9q-4 -8 -4 -20t2 -23l51 -6v-2l39 -2q8 -2 11.5 7t11.5 5q-2 27 5 50.5t7 47.5q6 4 6 13v14q0 8 2 15.5t10 7.5l7 34l57 -8v-4q29 -4 60.5 -2t58.5 25q0 6 -2 23.5t-2 33.5q0 18 2 31.5t8 13.5l6 8q8 -16 5 -35.5t1 -35.5q6 2 8 -5.5 t3 -15.5t4.5 -15t13.5 -5q4 10 11 20t17 8v9l70 81l4 -2l6 13l4 -2v2q20 20 43 34q10 -2 14.5 11.5t14.5 13.5l16 27l3 -4l10 24l2 -4l8 12l14 -16l-6 -4l15 -29q-2 -14 8 -17t14 -14q-6 -16 14.5 -18t28.5 0zM1886 264q0 16 -4 29.5t-6 28.5q-6 2 -9 12t-9 10q-6 8 -15 29 h-8q-2 12 -10 17t-13 16h-8q-6 6 -6 14q-4 4 -7 10t-9 4q-6 10 -2 15q-12 4 -21 24h-4q-2 10 -7 17.5t-9 15.5l-2 -4h-4q-2 10 -4.5 18t-6.5 15q2 12 -4 17t-14 5t-17.5 -1t-15.5 -1q-10 0 -10 -16q0 -14 -10 -9v-12q6 2 7 -2t1 -8t1 -9t5 -7l2 -13q6 -4 8 -11t11 -5 q2 -8 9 -10t3 -13q8 -4 12 -10t10 -10l-2 -4q8 -20 21 -25q6 -8 14 -16t12 -19l-2 -2l2 -6h4q4 -8 9.5 -15t13.5 -11q2 -10 7 -17.5t5 -17.5h8q8 -25 11.5 -35t6.5 -13t10 -1t26 0q4 4 8 7t2 11q2 4 10 8zM1450 840q4 8 2 16t-2 16q-10 -2 -9 10.5t-3 20.5h-4 q2 12 -3.5 16.5t-13.5 4.5q-6 0 -13 -2t-13 0q0 -4 -2.5 -16.5t-5.5 -26t-6 -23.5t-7 -10q-4 -10 -3 -21.5t-5 -19.5l-4 -29q-6 -12 -8 -26.5t-4 -28.5l-3 4q-10 -4 -12 -18.5t-10 -22.5q-4 4 -6 -6t-4 -12q-10 -16 -7 -46t19 -38q8 4 17.5 3t13.5 9q4 6 4 12t6 10l4 35 q6 6 8 2l6 58h2q2 4 2 12v14q0 8 2.5 13.5t10.5 5.5l2 28q10 10 8 23.5t2 24t17.5 8.5t21.5 0zM1917 211q0 10 -2 12l2 4q-2 2 -2 9q-6 0 -6 -5q-4 4 -10.5 0t-10.5 -2q2 -4 0 -9t-4 -9q6 -10 15.5 -6t17.5 6zM342 1688q2 55 0 110h-8q-4 4 -12.5 6t-12.5 2q-4 4 -11 2t-7 7 q-16 4 -30.5 2t-31.5 0l2 -2q-6 -12 -16 -9l-8 -12q-10 4 -9 -10.5t-5 -18.5q-4 -16 2 -26t6 -25q10 4 9 -8t7 -16q2 -4 8 -21.5t11 -17.5l2 -4q23 -4 42 0t39 10q4 10 8.5 19.5t14.5 11.5zM1868 193q-6 0 -19.5 3t-15.5 -12q-2 -20 -6 -39.5t0 -40.5q4 2 12 0t6 9q8 6 7 18 t3 21q4 4 8.5 3t2.5 5l-2 2q8 15 4 31zM1815 45l-3 4q4 4 2 10.5t1 10.5q-8 8 -17.5 6t-17.5 0l2 -2l-37 -8l2 -21q4 2 12 1t13 3q6 4 9 0t7 2q4 -8 12.5 -6t14.5 0zM1442 221q2 23 -5 43.5t-7 42.5h-9l-6 45h-4q0 27 -7 50.5t-5 52.5h-8q0 27 -6.5 52t-8.5 52q-37 4 -67 -8 v-8q-10 -6 -6 -18.5t4 -22.5q6 -8 10 -29q10 2 10 -10t8 -17l-2 -4q6 -16 6 -34q8 0 13.5 -26t9.5 -58.5t6 -63.5t2 -41h10q4 -10 13.5 -11t11.5 -13l6 2l2 -2q10 0 15.5 10t13.5 16zM1466 137v17q-4 6 -6 20t-12 10q-8 -4 -7 -21.5t3 -25.5h22zM354 1378q2 10 -4 13.5 t-6 17.5q-2 10 -6 10h-10l2 -4q-4 -6 -15.5 -5t-11.5 -9q-8 -6 -16 -10.5t-19 -12.5l2 -2q-8 -10 -17 -13t-17 -13l-3 2q-4 -6 -12 -6q-6 0 -2 -11q-12 -2 -21.5 -10t-21.5 -8q4 -20 3 -38.5t1 -37.5q10 2 8 -12.5t2 -20.5h5v9q14 2 21 15t20 13q-4 8 1 12.5t9 8.5 q10 2 12 13t10 17q4 10 3 22.5t-1 22.5l-2 2q6 10 10.5 4t4.5 -14q8 4 8 -4t4 -10t7 1t7 -1q6 4 23.5 3t13.5 19q-4 10 -2 14.5t5 6.5t5 5t0 11zM414 1169v25h-6q0 8 -5.5 11t-3.5 12q-16 0 -30.5 1t-30.5 3q-18 4 -15 -11.5t1 -27.5l38 -8v-5h52zM297 1178q6 23 0 41h-25 q-4 -20 0 -43q6 0 13.5 -1t11.5 3zM1384 137q4 10 1 22.5t-1 24.5q-2 -4 -8 2q2 2 2 7h-8q-4 -10 -10 -16.5t-12 -14.5l2 -2l-4 -6l-3 2l-2 -2l-2 2q-4 -6 -8 -11.5t-8 -11.5q-10 4 -9 -8t-7 -12l2 -2q-10 -4 -7 -12.5t-2 -14.5h5q6 14 20 10l-2 2q10 10 19.5 16.5t21.5 8.5 q-4 14 6 13t14 3zM236 1169v25h-5q-4 14 -8 6t-10 -8q0 -12 -2 -14t-10 -9h35zM1260 74q0 2 4 11t-4 7q-6 -2 -13.5 -3t-13.5 -3v-12q13 -10 27 0zM266 936q2 20 4 48t2 56q0 29 -1 56.5t-5 46.5q-25 -6 -49 -11.5t-49 -7.5q-4 -6 -7 -12t-3 -14q-10 2 -11.5 -12.5 t-5.5 -20.5l-2 2q0 -6 -1 -21.5t-11 -11.5q-4 -8 -3 -19t-5 -16l-8 -49l-2 6l-5 -65l-8 -4v-8q4 0 8.5 -1t8.5 -1q14 10 30.5 9t30.5 3q0 6 7 11t18.5 8t21.5 5t15 2q4 8 14 7.5t12 9.5zM502 543q12 41 7 92t-13 92h-7q-6 37 -15 73t-9 72h-6l-6 31q-41 4 -80 -1t-80 1 l-4 17q47 8 93 5t93 -1l4 6q-2 18 -7 35.5t-7 38.5q-6 0 -9 11t-5 24.5t-5.5 24.5t-7.5 11q-2 16 -8 31.5t-8 32.5h-16q-4 4 -15.5 1t-7.5 11h-80q-6 -12 -4 -27.5t-2 -27.5h-2q2 -84 -6 -160h-6q0 -8 -2 -26.5t-13 -12.5v-8q-23 -12 -46 -10t-46 -9l4 -8q-8 -4 -15 -5 t-11 -9l-2 6q-10 -6 -13.5 -15.5t-3.5 -17.5q0 -6 -1 -10t-7 -2l-4 -82l-4 -6q0 -41 -6.5 -83t-10.5 -83h-6v-23q12 -10 18.5 -11t9.5 1l6 4t9 0q8 4 19.5 3t21.5 -1q12 0 22.5 2t16.5 13q-2 14 10.5 17t8.5 18q8 4 10 17t12 11q0 16 5 31.5t7 32.5h4l7 102h6q4 16 2 31.5 t4 32.5q10 -12 7 -30t1 -34h8q4 -12 4 -37t2 -51.5t7.5 -47t19.5 -22.5q2 -18 15.5 -23t23.5 -16q-2 -8 5 -11t16.5 -5t16.5 -5t7 -11q14 -4 37 -4t37 4zM555 109v24q-14 10 -32.5 9t-35.5 8v2q-8 -2 -16 10l2 2q-6 6 -5 21.5t-9 15.5l-6 20l-2 -2q-10 33 -6 68t4 69 q10 16 8 35t2 35h6l6 88q-6 2 -13 3t-12 7q-8 2 -25.5 6.5t-23.5 -0.5q-4 -4 -5 -9t-5 -3q-2 -6 -3 -15t-5 -14l-6 -51l-4 2q0 -43 10 -88t6 -88q-4 -4 -3 -12t-3 -8q-12 -49 0 -94l2 2q4 -6 5 -14.5t3 -16.5q4 4 6 -3t6 -7l5 6q-2 -4 3 -1t3 -3q8 2 16 22q10 -6 10 -10 l15 -6l4 -8h8q4 -6 10 -7q8 0 4 -10h31l2 10l4 -2q10 2 19.5 5.5t19.5 1.5zM217 313q0 23 2 39.5t2 32.5t-1 33.5t-5 40.5q-4 20 -12 26.5t-19.5 7.5t-24 0t-22.5 5q-4 -12 -10 -13v-98h6q6 -68 0 -135l-4 2v-8l4 6l2 -4l-2 -12l-4 2q-2 -29 -3 -58.5t-5 -58.5h-2 q-4 -10 -2 -20.5t-6 -18.5q-4 -2 -8.5 -9t-6.5 3l-2 -4l-35 -6v-9q-10 -2 -19 -10t-20 -10q-2 -8 0.5 -15.5t4.5 -15.5q14 -4 27.5 0t27.5 2q10 10 21.5 8t19.5 9q-4 16 5 18t13 14q6 -4 13.5 -3t13.5 -5t8 -4t3 5t3 6t6 1q10 41 3 81t4 81h2q4 10 1 30.5t11 22.5 q4 10 3 21.5t7 19.5zM1593 1798q-6 0 -4 -7t-2 -9q-6 -4 -16 -4t-15 6q-2 4 0.5 9t-2.5 9q-6 -8 -6 0t-2 13q12 0 15 4l28 -4q0 -12 4 -13v-4zM1554 1757q-6 0 -8 2q-4 -2 -2 -5t0 -7q-4 0 -6 -4q-8 10 -4 24.5t4 24.5l2 -2l-2 -4q4 -4 5 -11.5t3 -13.5q2 4 8 4v-8z M1522 1806l-4 -24q-4 -4 -11.5 -3t-11.5 -3q0 -2 6 -2q-8 -4 -9 2t-7 6q-4 14 0 33q4 -2 10 0t12 3t10.5 -1.5t4.5 -10.5zM1573 1700q0 -10 -2 -10q-6 -4 -4 8t6 2zM1501 1710l-2 -18q0 6 -2 8q-2 -2 -2 -8v18h6zM1583 1511q4 -12 -7 -13t-15 -3q-2 0 -11 4l-2 -2q-2 2 -1 5 t-1 5q10 4 18.5 3t18.5 1zM1622 1432q-10 -6 -17.5 -12.5t-17.5 -10.5v-8h-14t-6 10q-10 4 -8 8q12 2 24 9.5t25 9.5v8t-4 8q-6 4 -24.5 -1t-33.5 1q2 4 1 8t1 8l-2 3l2 -3l2 -6q4 2 4 9q10 4 23 4q14 0 22 12q6 -2 13 8l8 -8l2 2q4 -28 0 -59zM1851 1065q-6 23 -4 46.5 t-4 45.5h-8q4 10 0 21.5t0 21.5h8q4 -12 1 -26.5t7 -18.5q6 -47 0 -90zM1634 1372q-16 4 -28 -12q-10 0 -17.5 -3l-17.5 -7q0 2 -3 1t-1 3q-2 8 1 11t8 4l10 2t5 9q6 4 15.5 5t15.5 8q-2 -2 2 -7l2 5q0 -6 2 -7q2 0 2 9q2 -4 3 -3t1 -6v-12zM1612 1321q0 -4 3 -7t-3 -5h-4 q0 8 4 12zM1479 1520q-14 -4 -25 -15l4 -2q-4 -2 -3 -5t-1 -7q4 -2 6 -6t6 0q-4 -10 -13 -7t-11 -14q-2 -10 2 -11t8 -5q6 -4 7 -10t5 -11q-4 2 -13 -1t-13 -1l-13 15h-2l4 4q-10 8 -8 25.5t2 27.5q6 -2 8.5 2t3.5 9t2 9.5t5 4.5q10 0 19.5 -1t19.5 -1zM1606 1300h-7v5 q6 0 7 -2v-3zM1466 1393q-10 -2 -8 -12.5t-2 -12.5q-4 0 -5 1t-3 1q-4 2 -10 1t-2 9q-8 4 -13.5 10.5t-1.5 18.5h11q0 -8 -2 -8q10 -4 18 -5t18 -3zM1460 1341q2 -8 -2 -8t-8 -4q-4 2 -9 0t-9 6q0 4 -1 11.5t-8 7.5h27q0 -2 1 -3l1 -1q4 1 8 -9zM1462 1303q-4 -4 -7 -6.5 t-7 -6.5q-4 0 -6 4t-6 9q4 10 13 7t13 -7zM1466 1243q-2 0 -3 -1l-1 -1v-6q-4 0 -4 -2q-2 10 -10 8t-4 10q-4 2 -1 3t1 6q6 -2 16 -3.5t6 -13.5zM1151 1415q-4 -4 -9 0t-9 0q-6 4 -9.5 14.5t-13.5 6.5q0 16 -10 17t-15 11l-4 -2q2 12 -6 15.5t-12 11.5q-10 4 -12 17.5 t-13 21.5q2 8 -4 18h-6v10h6q0 -8 2 -10q8 2 10.5 -7t4.5 -15q2 -10 10 -11q10 0 8 -14q6 -10 15.5 -14t13.5 -15q0 -14 12 -14l-2 -2q2 -2 5 -4t5 2q6 -4 5 -11t5 -9l7 -7l4 5q0 -6 4 -8.5t8 -6.5zM1622 989q-4 -8 -6 -17t-10 -16q4 -4 0 -6t-9 -4q-8 -6 -11 -17t-13 -9v-5 h-6q0 6 -7.5 7.5t-3.5 9.5q10 4 11 16q0 12 8 19q0 14 9 17t7 20l2 -5q-2 14 8.5 13.5t8.5 13.5h12v-37zM866 1681q4 -10 -2 -10q-4 0 -8 -4q-4 2 -7 1t-7 3l2 12l2 -2l2 2l4 -2q4 6 7 1t7 -1zM1542 940q-6 -2 -16 -2q-8 0 -13 -10l-10 -5t-10 -1q-4 16 -4 30q0 16 6 31 q6 0 10 6q-2 14 8.5 13t14.5 6q12 0 15 -7.5t1 -17.5t-4 -22.5t2 -20.5zM1708 496l-6 2h6v-2zM1851 281q-4 2 -7 5t-5 -1l-6 4l2 2q-10 10 -13 23.5t-20 23.5q-8 4 -7 17.5t-11 9.5l-12 16l2 2q-4 4 -9.5 13.5t-9.5 6.5q-4 10 -8 20.5t-14 14.5q-2 16 -9.5 23.5t-9.5 17.5 q-2 2 -1 6t5 4q-2 -6 5.5 -15t9.5 -15q10 -2 17 -16.5t13 -22.5l-2 -4q6 -8 12.5 -15.5t10.5 -17.5h6q4 -8 8 -15.5t14 -9.5q-2 -6 1.5 -11t5.5 -9l2 2q0 -10 7 -13t3 -14q6 -4 11 -9l9 -9v-14zM322 1765q2 -10 -2.5 -12t-6.5 -6h-18q0 4 -2 5t-4 5q-6 0 -6 2q2 4 0 8.5 t0 8.5h16q4 -6 11.5 -7.5t11.5 -3.5zM250 1765q-2 -23 -19 -22q-4 0 -9 1t-1 11q-4 10 4 11t13 3q8 4 12 -4zM299 1700q4 -10 -3 -12t-9 -9q-8 0 -11.5 -5t-11.5 -1q-4 10 -13 11.5t-7 13.5q12 6 26 6q17 0 29 -4zM1407 238q-4 6 -3 19t-13 7q0 27 -6.5 51.5t-8.5 51.5h-6 q-4 12 -2 24t-4 23q-2 29 -10 56.5t-2 55.5q6 -8 5 -21t9 -20q-2 -10 0 -18t4 -18h6q-2 -29 7.5 -55.5t9.5 -55.5h6l6 -74l2 4v-30z" />
<glyph unicode="&#xab;" horiz-adv-x="1529" d="M1313 934h-47q-10 -16 -24.5 -26.5t-24.5 -24.5q-27 -37 -51.5 -73t-53.5 -63.5t-64.5 -46t-84.5 -22.5q-16 -20 -38 -21.5t-42 0.5q-16 -10 -34 -19t-32 -26q-20 -4 -39.5 -9t-42.5 -11q-6 -10 -16 -20.5t-23 -14.5l-16 -31l25 -34q43 -6 87 -13.5t85 -19.5l4 -17 q20 -4 37.5 -9t37.5 -9l5 -16q41 0 74.5 -28t62.5 -46q14 -39 27.5 -59.5t16.5 -38t-6.5 -39t-39.5 -60.5q31 -35 75 -35q47 0 95 13l20 -15l14 84q-18 -2 -23 8.5t-5 22.5q0 14 1 28.5t-3 22.5l-107 172q-23 8 -30 21q-10 2 -28 7t-34 11t-30.5 13.5t-20.5 17.5 q-31 4 -42 31.5t11 56.5q53 4 102.5 26.5t102.5 39.5q45 45 64.5 64t27.5 40.5t11.5 56.5t15.5 111zM616 918h-47q-10 -14 -26.5 -25.5t-24.5 -24.5q-27 -39 -50.5 -73.5t-52 -62t-64.5 -46t-85 -22.5q-12 -14 -28.5 -17.5t-35 -5.5t-40 -10t-43.5 -35q-41 -6 -80 -18 q-6 -10 -16.5 -20.5t-24.5 -14.5l-14 -31l24 -35q43 -8 86 -15t84 -18l6 -16q18 -4 37 -10t35 -10l8 -15q25 -2 41.5 -11t31.5 -20.5t30.5 -23.5t33.5 -19q14 -37 26.5 -57t17 -37.5t-5 -40t-40.5 -61.5q31 -37 76 -38t92 15l21 -14l14 84q-18 -2 -23.5 8t-5.5 25 q0 14 2.5 28.5t-2.5 20.5q-35 53 -69.5 99t-69.5 93q-10 2 -26.5 6.5t-34 10.5t-31.5 14t-20 19q-41 2 -42 28.5t11 59.5q53 4 103 26.5t104 38.5q10 14 21 20.5t26 14.5q20 12 33.5 47t21.5 74t11 73t5 42z" />
<glyph unicode="&#xac;" horiz-adv-x="2043" d="M2001 1659l-2 2v12q-35 -57 -83 -93t-83 -28q-35 -57 -81 -89.5t-81 -26.5q-35 -53 -79 -86t-79 -29q-37 -55 -84 -90t-86 -33q-39 -57 -93 -96t-93 -39q16 -16 41 -14t50.5 19t51 47t43.5 71q16 -10 39 -6t47.5 20.5t46 43t37.5 63.5q12 -14 34 -10.5t45.5 21t45 44.5 t31.5 59q12 -14 34.5 -10t47.5 21.5t48.5 45t35.5 60.5q12 -16 34.5 -11t47.5 23.5t48.5 48t35.5 60.5zM2005 1599l-2 -2v13q-35 -57 -84 -92t-84 -29q-35 -55 -81 -89t-81 -28q-35 -53 -79 -85t-78 -27q-37 -57 -84.5 -91t-85.5 -34q-35 -53 -77 -83t-81 -38l4 -21 q41 4 81 31t73 98q33 -18 86 15.5t86 107.5q12 -14 33.5 -10t44 20.5t44 44t31.5 60.5q14 -14 37 -10t47.5 21.5t47 45t34.5 62.5q12 -16 34.5 -11t48.5 23t49.5 47.5t35.5 60.5zM2007 1540l-2 -2v12q-35 -57 -84 -92t-84 -28q-35 -55 -80 -89t-80 -28q-35 -53 -79 -86 t-78 -29q-39 -55 -86.5 -90t-85.5 -33q-35 -51 -74 -80.5t-76 -38.5v-20q35 -4 78 29.5t72 97.5q35 -20 87 15.5t85 109.5q12 -14 33.5 -10t44 20t44 43t33.5 59q14 -14 37 -10t46.5 21.5t46 45t34.5 62.5q12 -16 35.5 -12t48.5 23.5t48.5 48t35.5 61.5zM2009 1481l-2 -2v12 q-35 -57 -84 -92t-84 -29q-35 -57 -80 -90t-80 -27q-35 -53 -79 -85.5t-78 -28.5q-39 -55 -86 -90t-86 -33q-35 -53 -77 -83t-81 -38l-4 -16q35 -10 84 21.5t80 103.5q16 -10 38.5 -6.5t47 21t46 44.5t38.5 63q12 -14 33.5 -9t45 21.5t45 44t31.5 58.5q12 -16 35 -12 t47.5 22.5t47 46t36.5 62.5q12 -16 35 -12t47.5 23.5t48 48t35.5 61.5zM2011 1419h-2v15q-16 -29 -37.5 -52.5t-44 -40t-44 -24.5t-40.5 -4q-35 -57 -81 -90t-81 -27q-35 -53 -78.5 -86t-78.5 -29q-37 -57 -84 -92t-86 -33q-39 -55 -89.5 -92t-88.5 -35l-5 -12q16 -12 41 -8 t51.5 22.5t50 48t40.5 66.5q16 -10 38.5 -6t47 20.5t46 43t38.5 63.5q12 -14 33.5 -10t45 21.5t45 44t31.5 59.5q14 -14 37 -10t47.5 21t47 45t34.5 60q12 -16 35 -11t48.5 23.5t48 48t34.5 60.5zM2085 16v52q-12 0 -16.5 6t-5.5 14t-2 16.5t-3 12.5l-84 106q-12 4 -20 13 q-12 4 -39 11t-35 19q-25 2 -30 17.5t1 35.5q33 4 60.5 16.5t60.5 22.5q4 10 11.5 15.5t15.5 12.5t13 17.5t5 30.5v92h-28q-16 -25 -31.5 -51t-34 -49t-41 -39t-53.5 -18q-10 -10 -22.5 -11.5t-24.5 -1.5q-10 -4 -20.5 -10t-16.5 -16l-12 -4q12 49 24 77q14 8 16.5 27t-3 37 t-15.5 34.5t-18 24.5h-66l-16 -12q-18 0 -30.5 -8t-22 -19.5t-18.5 -21.5t-21 -14l-11 4q-6 39 -10 54t-14 18t-28.5 0t-55.5 -1q-4 -6 -16.5 -14t-28 -15.5t-29.5 -12.5t-22 -5q-8 -8 -17 -10l-12 4l6 29l-10 24h-66l-16 -12q-10 2 -20.5 -2t-18.5 -6l-6 -8q-41 -4 -48 -39 t-3 -66l24 -2q8 8 16.5 13.5t16.5 13.5h16q6 -14 4 -33.5t-8 -41t-14 -42t-14 -35.5l-7 -4q-8 -14 -10 -28.5t-4 -30.5l-16 -10q-8 -20 -16.5 -39t-12.5 -41q-16 -14 -15 -33t1 -39q12 -12 16 -18l53 -3l33 33q4 14 6 32.5t17 27.5q0 18 5 36.5t13 35t14.5 34t8.5 35.5 l10 10q-4 61 35 109.5t77 89.5h50l18 -14v-54q-6 -4 -11 -33.5t-13.5 -66.5t-21.5 -75t-36 -56q-6 -25 -17.5 -39t-21.5 -28.5t-12 -31t10 -45.5l51 3l10 11q9 11 21 25.5t23.5 28.5t15.5 25q14 37 32.5 87t42 99t53.5 89t69 56q10 4 16 -8t6 -20q0 -12 -4 -36t-11 -48.5 t-15.5 -46t-16.5 -29.5q-4 -29 -16.5 -49.5t-16.5 -48.5l-8 -4l-37 -97l13 -37q35 -14 71.5 -3.5t59.5 40.5l32 9q0 10 1 18t-1 18q-16 4 -26 0t-25 11v51q10 14 19.5 37.5t19.5 52.5q23 -4 44.5 -8t43.5 -10l4 -11q12 -4 23.5 -7t23.5 -5l6 -8q29 0 48.5 -18.5t42.5 -26.5 q12 -23 22 -35t14.5 -23.5t1 -25t-17.5 -37.5q31 -18 47.5 -22.5t57.5 10.5zM1178 956q-2 88 -44 107.5t-97.5 -7t-111 -91t-83.5 -146.5q-37 -47 -83 -76.5t-81 -27.5q-37 -57 -84 -91t-84 -32q-35 -53 -78 -85t-78 -28q-35 -55 -82 -90t-82 -27q-16 -29 -37.5 -52 t-45 -39.5t-45 -24.5t-39.5 -4l2 -13q12 -14 35.5 -9t48 22.5t48 45t36.5 60.5q12 -14 34.5 -9t46 22.5t46 45t34.5 58.5q12 -14 34 -10t44.5 21.5t44 44t33.5 57.5q16 -10 38.5 -6.5t46 21t45.5 45.5t38 64q33 -20 77 7.5t79 81.5q-4 -16 -9 -46q-35 -41 -72.5 -67.5 t-72.5 -22.5q-37 -57 -84 -92t-86 -33q-35 -53 -78 -84.5t-78 -27.5q-35 -55 -82 -90t-82 -27q-16 -29 -37.5 -52.5t-44 -39.5t-44 -24.5t-39.5 -4.5v-12q12 -14 35.5 -9t48 22.5t48 45t36.5 60.5q12 -14 34.5 -9t47 22t46 46t33.5 60q12 -16 34 -12.5t44.5 20t44 44 t33.5 58.5q16 -10 38.5 -4t46 23.5t46.5 44t37 61.5q33 -18 70.5 3.5t74.5 74.5v-21v-18q-35 -41 -71.5 -64.5t-69.5 -19.5q-39 -59 -86 -94t-86 -33q-35 -53 -78 -85t-78 -28q-35 -55 -81 -90t-80 -26q-35 -57 -84.5 -93t-83.5 -28v-13q14 -14 36.5 -10t48 22.5t48 47.5 t37.5 63q12 -16 33.5 -12t45 21.5t46 46t34.5 61.5q12 -16 34 -13t44.5 19.5t44 44t33.5 58.5q16 -10 38.5 -4t47.5 23.5t46.5 44t37.5 61.5q33 -18 70.5 4t74.5 75q2 -8 4 -15t5 -13q-37 -47 -78 -76t-76 -27q-37 -57 -84 -91t-86 -31q-33 -53 -76 -85t-78 -28 q-35 -53 -82 -87t-81 -28q-16 -29 -38 -53.5t-45.5 -40.5t-45 -24.5t-39.5 -4.5v-12q14 -14 37.5 -10t48 22.5t48 47t36.5 61.5q12 -16 33.5 -12t46 22.5t47 47t34.5 59.5q12 -14 34 -10.5t44.5 21t44 44t33.5 57.5q16 -10 38.5 -5t46.5 21.5t45.5 44t37.5 62.5 q35 -20 80 8.5t80 93.5q12 -16 18 -22q-39 -57 -88 -94t-90 -35q-37 -55 -84 -88t-84 -33q-35 -53 -78 -85t-78 -28q-35 -55 -82 -88.5t-81 -27.5q-35 -57 -83.5 -92t-82.5 -29v-14q14 -12 36.5 -7t47 22t48 45t36.5 62q12 -14 34.5 -10t47 21.5t46 45t33.5 58.5 q12 -14 34 -10t44.5 21.5t44 44t33.5 57.5q35 -20 86 16.5t82 108.5q18 -10 43 -5t50.5 23.5t50 49t40.5 67.5l-2 2q35 -25 89.5 -2.5t104.5 76t86 129t36 159.5zM1159 1014q-6 -10 -16 -25.5t-22.5 -32t-24 -30t-17.5 -15.5q-4 6 5.5 23.5t22.5 36t27.5 33t20.5 16.5z M1122 1024q-2 -6 -9 -19.5t-14 -27.5t-15.5 -25.5t-12.5 -13.5l-4 8t0 8q4 6 10 18.5t13.5 24t13.5 20.5t12 11zM1077 1049q0 -6 -4 -22.5t-10 -35t-13.5 -35t-11.5 -18.5l-8 10l2 8q2 9 4 11l11 30q2 6 9 26.5t11 23.5zM1151 928q-4 -10 -16.5 -20.5t-18.5 -14.5 q-25 -16 -31 -15t-0.5 10t19.5 23.5t35 24.5q8 4 12 4v-12zM1018 979v-33q-2 -20 -9.5 -23t-11.5 7q-4 8 -4 31q0 6 1 30.5t5 28.5q6 6 11 8q4 -8 6 -22.5t2 -26.5zM1151 846l-2 -2q0 -2 -4 -15q-2 -4 -8 -4h-7q-14 2 -29.5 3t-27.5 6l6 20q16 10 42 7t30 -15zM981 913 q0 -10 -10 -20q-2 -2 -5 -1t-5 1q-8 8 -13 10l-9 13.5t-5 19.5l10 12q8 0 8 -4q4 -2 16.5 -14.5t12.5 -16.5zM1104 778l-10 -16q-6 -4 -21.5 8t-19.5 18q2 6 10 23q10 8 25.5 -7.5t15.5 -25.5zM1061 834q-8 -20 -22.5 -36t-28 -22t-22.5 -2t-9 25q0 18 10 35.5t21.5 25.5 t17.5 4t-2 -28q-10 -4 -14 -2q-6 -14 0 -16.5t14 3.5t15.5 19.5t5.5 29.5q0 12 -10.5 16.5t-26 -6t-26.5 -30t-15 -44t6 -46.5q-8 -33 -19.5 -25t-13.5 37t10.5 68t51.5 67q41 29 63.5 11t-6.5 -84zM956 866l-6 -8q-6 -8 -8 -10q-10 -2 -34.5 10t-24.5 23l8 14q2 2 12 0 t22.5 -5t21.5 -9.5t9 -14.5zM1071 688l-10 -10q-6 0 -14.5 10t-14.5 24.5t-6 30.5t10 29q4 -2 10.5 -13t11.5 -24.5t9 -27t4 -19.5zM936 821l-2 -10q-14 -16 -43 -19.5t-39 1.5l4 12q14 16 36.5 18t39.5 6zM1012 737q2 -2 2 -14q0 -10 -1 -24.5t-3 -27t-4 -18.5l-9 -8 q-4 2 -7 16.5t-3 30.5q0 18 4 34.5t15 23.5q2 -4 4 -6.5t2 -6.5zM934 778q-4 -8 -15.5 -19t-24.5 -22.5t-24.5 -18.5t-17.5 -7l-2 10q2 8 16.5 22.5t29.5 25.5t26.5 16t11.5 -7zM977 729q4 -6 0 -23.5t-11.5 -39t-16.5 -41t-15 -27.5l-8 -2l-4 10q0 4 6 20.5t12 35t12 34 t8.5 19.5t4.5 5t4 5zM948 719q0 -4 -6 -17.5t-15 -29t-18.5 -28.5t-13.5 -15l-6 4q0 4 6 17.5t14.5 27.5t15.5 26.5t9 14.5q4 4 8 3t6 -3zM934 741q-2 -8 -13.5 -23.5t-25.5 -31.5t-26.5 -29.5t-18.5 -17.5l-2 10q-2 2 4 10.5t8 10.5q4 6 15.5 21.5t23.5 28.5t21.5 20 t13.5 1z" />
<glyph unicode="&#xad;" horiz-adv-x="819" d="M666 510q0 16 -15.5 33.5t-25.5 27.5q-57 4 -108.5 -1t-104.5 -17h-37t-73 2t-78 3t-50 1q-37 0 -66.5 -11t-42 -26.5t-2 -33t53.5 -31.5q53 -16 99 -7t97 9q39 0 99.5 -15.5t117 -21.5t96.5 9.5t40 78.5z" />
<glyph unicode="&#xae;" horiz-adv-x="1624" d="M1599 1303l-40 36l-25 -8l41 39l-23 14l-16 2h-6q2 4 8 10.5t4 10.5l-16 8q-31 -12 -100.5 12.5t-147.5 63.5t-147.5 79t-96.5 62l-2 -2l-59 49q-8 12 -6 15.5t6 2.5t10 -5t8 -6l-4 8l29 -41l2 22l-35 64l16 12l-36 53q25 18 49 39t43 45l-29 25l-12 43l-27 -21l17 23 l-37 43l2 -35l-47 8l-9 -2l-22 23l-6 -2l-17 -25l17 -14q-25 -2 -49.5 -9.5t-47.5 -23.5l-26 4q-31 -14 -58.5 -36.5t-48.5 -51.5q0 -18 11.5 -31.5t28 -21.5t34.5 -8t33 8l-17 -29l-8 -2l43 -16l33 10l14 35q-2 -10 -3 -18.5t-3 -16.5l-2 2l-14 -16v4q-10 -4 -13.5 -5 t-6.5 0t-8 4t-17 7l-8 -4l2 4l-15 -8l4 -4l-30 -60l2 -2h-6l-9 -2l-8 4l6 -4h2h9l8 2v-4l-17 -10q0 -2 9 -2l16 10l-2 -4l-8 -6l-27 -6l-61 49q-35 29 -28 41t23.5 22t24.5 26.5t-24 53.5l-101 -8l-16 -33l-33 33q-16 4 -16 -2q0 -4 7 -11.5t16 -14.5t12 -9l-25 10l-18 -16 l2 -31q-55 -29 -124 -65.5t-131.5 -84.5t-110.5 -104.5t-62 -124.5l2 -4q55 45 107 93.5t106.5 93.5t112 85t122.5 70l31 -18q0 12 6 11t14 -6t16.5 -12.5t14.5 -7.5l-31 -14l-28 -43l4 -14l-25 -31q8 -29 19.5 -54.5t23.5 -49.5l6 2l13 -121l59 -23q33 12 51.5 40t34.5 57 l12 -46q-2 0 -11 -7t-17.5 -14t-10.5 -14.5t13 -7.5l24 27q-4 -33 0 -66.5t10.5 -68.5t8.5 -71t-6 -72l-72 55l-41 -23l-23 -47l13 -30l26 -15l41 21l33 -27l-23 -10q-10 -51 -35.5 -86t-59.5 -62.5t-73.5 -50t-78.5 -47.5l-6 -31l2 2l12 -39l57 -47l-14 -28 q37 -29 54.5 -45.5t32.5 -26.5t37.5 -16.5t69.5 -10.5q6 -53 -8 -107t-16 -108l29 -34q-8 -117 0 -188t24 -103.5t33.5 -31.5t30 25.5t13.5 69.5t-18 103q12 10 13.5 35.5t1.5 50.5t4 39t24 2l50 -27l39 45l-15 276q8 2 26.5 8.5t38 14.5t35 15.5t19.5 13.5l-92 -164l6 -19 q45 14 68.5 50t44.5 75q-2 -23 -10.5 -68.5t-11.5 -93t4 -87t36 -48.5q20 4 30.5 8.5t19.5 5.5t20.5 -1t29.5 -11q16 -37 15.5 -90t-13.5 -90l31 -31l4 5l11 -13q23 -25 50 -44t60 -25l57 39l-2 26l-96 99l25 16l-37 12q4 -2 6 2t2 10t-4 11.5t-12 5.5q-4 18 -4 53 q0 37 8 53q12 29 11 66t-8 77t-15.5 79.5t-8.5 70.5l64 -43h6l4 25l20 76q6 23 2 54.5t-13 64t-21.5 62t-24.5 50.5l31 12l-60 76l19 23q-29 47 -50.5 95t-47.5 95l24 16h-37l25 50q6 18 -4 9t-19 -7v12l-30 -14q-4 49 -4 98q0 51 -13 98q57 -20 99.5 -47t78 -57.5 t71.5 -64.5t81 -66l41 18l6 -27l-24 13l-9 -49l15 -31l8 -2l-10 -17l-25 -43q10 -2 24.5 -3t22.5 8q-2 -47 -5 -92.5t-3 -92.5l37 -12l41 252l30 35l-4 12q14 27 31.5 53.5t15.5 57.5zM977 1325h-2q0 2 -2 2q-4 -4 -4 -10q0 -4 -6 -4q0 -6 -1 -13.5t1 -11.5t4 -10t-2 -10 q-2 -4 -8.5 -5t-12.5 -2t-8 -5.5t2 -14.5q-4 0 -8 1t-8 -3v-2h2q-2 0 -2 -2h2q-10 -2 -17.5 -3t-17.5 -3q-4 6 -9.5 5t-11.5 -1q-4 8 -2 17.5t-8 11.5l-18 2q0 4 -2 4t-2 2h-7v8q10 -4 8.5 4t2.5 12q-4 4 -11 4q-2 14 -2 29q0 16 4 29l3 -2q6 8 10 15t14 13q12 8 29.5 9.5 t34 -2t25.5 -7.5t5 -6q2 -10 5.5 -6t7.5 -6q8 -6 5 -16.5t7 -12.5v-10zM942 1280q0 10 -4 27l-23 2q-2 -8 -4 -15.5t0 -15.5q2 -4 7.5 -2t5.5 -4h4q0 6 6 4t8 4zM909 1251v23l-12 2q-4 -4 -2 -12.5t0 -12.5h14zM887 1307q-6 2 -16.5 1t-10.5 -10q-2 -6 -4 -13t6 -11v-2 q2 0 6 -1t4 3q16 -2 14.5 10.5t0.5 22.5z" />
<glyph unicode="&#xaf;" horiz-adv-x="1427" d="M1606 1403q-6 41 -4 81t-13 85l-20 20q-41 29 -98.5 47.5t-108.5 10.5l-14 -2h2l-78 -15l-8 -16q-12 -2 -27.5 -11.5t-31 -16.5t-28 -9t-18.5 10q-35 -23 -66.5 -46t-66.5 -40q-23 10 -45.5 26.5t-40.5 33.5q-14 2 -35.5 3t-44.5 1t-44 -4.5t-34 -12.5l-8 -14 q-57 10 -100 -19.5t-76 -77.5t-56.5 -102.5t-39.5 -93.5l-29 -20q-18 -57 -41.5 -119t-71.5 -103l-14 13l-104 2l-33 -25l-2 -104l45 -33l88 -2l16 -16q-37 -72 -70.5 -175.5t-63 -215t-50 -218t-29.5 -184.5q-31 -41 -54 -71.5t-40.5 -63.5t-30 -71t-20.5 -91l-35 -18 q-39 37 -67.5 41t-75.5 -7q-14 -35 0 -72.5t35 -66.5l135 -2q31 41 55.5 58.5t44 27.5t34.5 20.5t28.5 36t24.5 75.5t24 138l18 13q2 25 11.5 47t18.5 43.5t16 44t3 45.5l27 20q0 23 9 49.5t28 41.5l2 90q18 31 42.5 87t46 117.5t34 120t6.5 94.5l18 33q35 12 62 43 q27 0 48 1t39.5 3t39 4t47.5 2l47 -38q2 -12 -2 -32t-12.5 -40.5t-17.5 -38.5t-15 -29l-15 -8q-4 -12 -20 -61t-34.5 -106.5t-33 -106.5t-12.5 -62l-14 -18q-14 -109 -60.5 -217.5t-85.5 -212.5l-14 -8q-16 -31 -28.5 -50.5t-28 -31t-38 -16.5t-57.5 -7l-49 -43 q6 -18 17.5 -37.5t25.5 -34.5q37 -6 79 -3t65 42q55 0 93 40t69.5 91.5t62.5 101.5t72 72l37 -8l6 29q-12 27 -22.5 52.5t-18.5 53.5q-2 4 17.5 54.5t48 124t63.5 159.5t66.5 161t55 128t31.5 62l43 -2l33 20l80 -2q6 -20 19.5 -40.5t17.5 -41.5q-6 -23 -16.5 -48.5 t-28.5 -41.5q-14 -61 -47 -151.5t-64 -182.5t-49 -176t-2 -133l72 -37q53 14 91 34.5t69.5 45t62.5 51.5t72 53l28 68l-8 47q-39 6 -74 -14q-8 -20 -29.5 -43t-43.5 -27l-33 6v158l18 8q2 20 11.5 51t22.5 61.5t29.5 59.5t35.5 45q0 20 4 48t11 56.5t13 57.5t10 51l29 23 q14 37 37 63q8 37 17.5 82t21.5 91t29.5 89t42.5 74l6 45l14 10q10 57 33 101zM1358 1399q-12 -55 -21.5 -110.5t-11.5 -112.5q-12 -10 -24.5 -20.5t-24.5 -22.5q-10 -45 -19.5 -88.5t-17.5 -88.5q-6 0 -29.5 -2t-27.5 -6v-8q-39 0 -77 1t-77 1q-6 6 -13 15.5t-10.5 17.5 t-1 15t18.5 11q0 4 5 27t11 47.5t11.5 45t5.5 22.5q-2 33 -5 54.5t-1 39.5t14 36.5t41 47.5q10 53 42 85t71 69h34q37 0 72 -6.5t52.5 -22.5t-17.5 -47zM928 1397l-2 -90l-10.5 -10.5t-8.5 -10.5q-18 -51 -33.5 -88t-25.5 -70.5t-17.5 -68.5t-13.5 -80q-16 0 -34.5 -9 t-26.5 -9q-14 2 -36 17t-32 15l-102 2l8 36l8 36q8 2 14 8q0 27 24 63t48 44q6 39 15.5 62.5t22.5 43t29.5 40t35.5 50.5q41 20 63 52h41q0 -14 10.5 -21.5t22.5 -11.5z" />
<glyph unicode="&#xb0;" horiz-adv-x="985" d="M956 920l-4 2q-41 4 -79.5 0t-79.5 -13q6 18 22 33.5t31 28.5q-2 78 -36 158.5t-56 154.5q-23 80 -34 123t-18.5 66.5t-16.5 35t-26.5 25.5t-48 39.5t-82.5 77.5l4 8l21 16l14 -24v26q6 -10 16.5 0.5t16.5 25.5t4 27.5t-20 6.5l8 28l-17 37l60 35l-39 57q12 31 9 54.5 t-25 48.5q-12 -10 -21.5 -28.5t-9.5 -35.5l-55 23q-41 -8 -75 -12.5t-63.5 -14.5t-56.5 -31.5t-53 -60.5q43 -29 98 -45l-22 -27v25q0 -6 -1.5 -18.5t-4.5 -24.5t-8 -19.5t-15 -3.5l16 -8l6 -30q8 2 5 5l-7 7l60 -29q-41 -35 -89 -52.5t-96 -41.5l-38 -96q6 -18 -7.5 -58.5 t-30 -88.5t-28.5 -95t-4 -80q-23 -53 -26 -108.5t1 -114.5l39 -25l-65 -209q25 -23 50 -39t56 -30q-6 -23 -8 -47.5t6 -48.5l27 -9q14 -20 33 -20q20 0 43 -6q-2 -29 4 -67t12 -77t6 -75q0 -35 -14 -58l14 -33q-8 10 -21.5 4t-13.5 -16l15 -22q-12 -31 -42 -57.5t-51.5 -51 t-20.5 -47.5t50 -45q31 10 53.5 24.5t42 30t38 33.5t42.5 37q4 37 3 70.5t-11 68.5q8 14 13 48t7.5 72t2.5 73v57l77 41l52 -21q37 -16 47 -23t7 -18.5t-12.5 -29t-9.5 -49.5q0 -29 10.5 -59.5t10.5 -55.5q0 -4 -3 -38t-6 -74t-5.5 -73.5t-4.5 -35.5q27 -8 68 -15.5 t85 -10.5t85 -2t70 7l6 19l-8 22q-41 23 -81 43.5t-75 50.5l6 3q-6 8 -15.5 18t-19.5 14q2 4 5 12.5t5.5 14.5t-1 9t-15.5 -3q-6 33 -2 65.5t11 66.5t14.5 66.5t5.5 65.5l16 23q23 4 59.5 18.5t47.5 36.5l-9 61q4 -8 12.5 -15t16.5 9q-10 53 -24.5 102.5t-26.5 98.5 q20 18 46 30.5t51.5 23t50 23t44.5 30.5zM514 1321q-2 -2 -4 2q-4 -4 -4 -10q0 -4 -6 -6q0 -6 -1 -13.5t3 -11.5q0 -4 2 -9t-2 -11q-2 -4 -8.5 -5.5t-12.5 -2.5t-8 -4t2 -13q-4 -2 -8 -1t-8 -1q0 -2 2 -2q-2 0 -2 -2v0q0 -2 2 -2q-10 0 -17.5 -2t-17.5 -2q-4 4 -9 3t-11 1 q-4 6 -2 16t-9 10l-18 2q0 4 -2 5q-2 0 -2 2h-6v8q10 -4 8 4t2 12q-2 4 -10 4q-2 14 -2 29q0 16 4 31l2 -4q6 10 10 16t14 12q12 8 29.5 9t34 -2t26 -7t4.5 -6q2 -10 5.5 -6t7.5 -6q8 -6 5 -16.5t7 -10.5v-10zM479 1274q0 10 -4 26l-22 3q-2 -8 -4.5 -14.5t0.5 -16.5 q2 -4 7 -2t5 -4h4q0 8 6 5t8 3zM446 1245v23l-12 2q-4 -4 -2 -12.5t0 -12.5h14zM424 1300q-6 4 -16.5 3.5t-10.5 -11.5q-2 -4 -4 -12t6 -12v-2q2 2 6.5 0t4.5 2q16 -2 14 10t0 22z" />
<glyph unicode="&#xb1;" horiz-adv-x="1224" d="M1184 207v8q-25 25 -62 79t-76.5 123.5t-79.5 147.5t-71 149.5t-48.5 130t-10.5 91.5l43 -43l22 18q-12 18 -32.5 28.5t-41.5 14.5q4 23 7.5 52.5t-5.5 52.5l9 6q-6 23 -23.5 69t-40 102t-48.5 117.5t-49.5 115t-44 92t-30.5 51.5q-6 -2 -18.5 4t-25.5 14t-25.5 17.5 t-14.5 13.5q10 20 16 25l7 4q0 2 -4 2t-15 8l2 -2l6 -2q4 -2 11 -2h14l6 -2h4l-35 12l2 8l7 -6l-2 8h6l-6 4v2l-2 6q27 25 48 41.5t33.5 35t15.5 42t-9 64.5l-35 28q-4 -4 -13.5 2.5t-19.5 16.5l-19.5 19.5t-15.5 11.5q-23 6 -54.5 7t-62 -4t-55 -19.5t-33.5 -39.5 q-31 -23 -41 -57l15 -64q10 -8 32.5 -23t26.5 -32l-6 -33l-31 -8l-1 -2t3 0q14 4 11.5 1t13.5 -1l10 -26q-2 -2 -8 -3q-41 -14 -78 -34.5t-78 -30.5q-31 -59 -72.5 -118.5t-62.5 -123.5l2 -4q-16 -51 -5 -78.5t35.5 -41t53.5 -16.5t49.5 -7t22.5 -12.5t-29 -30.5l-67 -51 l4 -13l-25 -8q20 -16 43 -18t47 -4q-16 -37 -26.5 -105.5t-15.5 -152.5t-2 -174.5t17.5 -169t39 -137t63.5 -79.5l6 2l27 -120q-25 -47 -66 -80t-71 -76q27 -37 56.5 -38t59 14.5t58 38t53.5 34.5l8 27q-14 55 -12 98t-2 98l43 13q16 -23 41.5 -31t50.5 -16l16 2 q6 -10 5 -32t-3 -47.5t-6 -49t-4 -33.5q-2 -23 11.5 -34t33 -16t40 -7.5t34.5 -6.5q37 -10 50 -16t21.5 -8t21.5 1t52 9l25 31q-6 4 -12.5 9t-8.5 11q-27 14 -61.5 26.5t-63 30t-44 45t-5.5 72.5q45 -4 66.5 50.5t28 142.5t-1 194.5t-19.5 204.5t-26.5 175t-24.5 104l4 8 q-2 8 -6 24.5t-8.5 35t-4.5 32.5t7 18q29 -41 59.5 -76.5t58.5 -76.5l-30 -10l-17 -21q16 -23 28.5 -43t23.5 -49q-10 -4 -2 -12t12 -11l-17 -45l13 -12l24 -4l-8 31l23 41q23 -102 53.5 -201.5t73.5 -196.5q16 -39 40.5 -88t56.5 -95t70.5 -83t81.5 -53zM498 1407l-2 2 q-6 -4 -7 -10q0 -4 -6 -4q0 -6 -1 -13.5t3 -11.5q0 -4 3.5 -10t-1.5 -10q-2 -4 -8 -5.5t-12 -2.5t-9 -5t1 -14q-4 0 -8.5 1t-8.5 -3l2 -2h-2v-2h2q-10 -2 -17 -3t-17 -3q-4 6 -9.5 5t-9.5 -1q-4 8 -3 17t-9 11l-19 3q0 2 -4 6h-6v8q10 -4 8 4t2 12q-4 4 -10 4q-2 14 -2 29 q0 16 4 29l2 -2q8 8 11.5 15t13.5 13q12 8 29.5 9.5t34 -2t25.5 -7.5t5 -6q2 -10 6 -6t8 -6q8 -6 4 -16.5t7 -12.5v-10zM463 1362q0 10 -4 27l-23 2q-2 -8 -4 -15.5t0 -15.5q2 -4 7 -2t5 -4h5q0 6 6 4t8 4zM430 1333v23l-12 2q-4 -4 -2 -12.5t0 -12.5h14zM408 1389 q-6 2 -16.5 1t-10.5 -10q-2 -6 -3 -13t7 -11l-2 -2q10 0 12 2q14 -2 13.5 10.5t-0.5 22.5z" />
<glyph unicode="&#xb2;" horiz-adv-x="1441" d="M1407 1929q-20 10 -34.5 22.5t-31.5 -7.5q-4 -53 -28.5 -106.5t-42.5 -104.5l-10 -2l-15 -23l-4 2l-39 -24q-8 -29 -22.5 -47.5t-29.5 -36t-27.5 -38t-16.5 -51.5l24 -18q-10 -16 -14 -33.5t-8 -34.5q-4 2 -13.5 18.5t-18.5 38t-17 41t-12 27.5q-12 27 -36 49.5t-51.5 42 t-56.5 39t-51 37.5h14l33 -12l-25 14l9 4q6 2 17 4.5t5 6.5l-35 18l7 2l41 -18q4 6 10 -2t10 -8q6 0 4 1l-6 3t-8 5t0 5q4 4 12 -5t21 -3l-29 12l-6 -2h-4q14 10 22 3t19 -3l-25 10l-31 -8l-6 2q2 0 11.5 3t9.5 -1l28 12v4h-6l-14 9q-6 -12 -23.5 -11.5t-32.5 4.5l-8 5 q18 8 25.5 11t11.5 3q6 0 12.5 -4t24.5 -10l37 -7q8 0 8 5h-29q-8 0 -16 5t-14 11h14l-20 10l4 2l18 -8l14 -16l5 2l-25 18h14h6l-24 6l24 8q4 2 7 2q2 0 6 3l-13 -5q-14 -4 -26 9q0 2 2 2l14 4q6 2 14.5 0t12.5 0l-4 2l-6 4l-17 -6h-4q-6 0 -10 -4h-4q-6 4 2 5l8 1l4 4 q-4 0 -11 -4t-11 2l22 6l-4 4l23 16v5l-23 -19q-10 -2 -25.5 5t-23.5 16q25 8 37 12t18 10t10 17.5t13 33.5q-16 27 -36 47.5t-54 20.5l-37 -27q-41 27 -74 27q-31 0 -58.5 -13.5t-55 -32t-60.5 -26.5q-4 0 -15.5 -6t-23.5 -13t-22.5 -15.5t-8.5 -12.5q2 -6 16.5 -14 t18.5 -2l66 -10q0 -2 4 0t8 -3l4 -16q-16 -16 -17 -33.5t4 -37t14 -40t17 -40.5q45 -29 26 -26t-97 1q-33 -23 -57.5 -49.5t-50 -53t-56.5 -48t-74 -33.5q-23 -29 -50.5 -52.5t-51.5 -52.5q-16 -4 -31.5 -11t-32.5 -15q-6 -14 -14 -28.5t-18 -27.5q4 -2 -4.5 -1t-19.5 0 t-20.5 -8t-7.5 -26q12 -20 16.5 -29t3.5 -17.5t-2 -17.5t3 -30l14 -20l4 2l39 -31q0 2 -3 -11t0 -23.5t18.5 -11.5t52.5 24l118 -129h-6q-10 -20 -19 -44t-9 -47q-4 -4 -7.5 -14t-5.5 -23.5t-3 -26.5t-1 -20l-4 -2q2 -37 2 -77q0 -41 6 -78l4 -6q23 39 64 61q0 -2 -5 -14.5 t-11.5 -26.5t-12.5 -25.5t-8 -13.5l-6 -28l6 -5q-18 -47 -33.5 -102t-28 -111.5t-19.5 -111.5t-7 -101l-29 -4l-14 -22l-16 8l-23 -20q0 -4 1 -8.5t5 -8.5q-10 -6 -26.5 -15t-35 -17.5t-35.5 -13.5t-30 -5l-18 -31l39 -35l33 -6q-2 4 9 1t15 -3l35 4q6 -6 22.5 -1t24.5 7h16 l60 5v-2l53 10q10 29 10 53q0 25 -1 49.5t1 48t15 52.5l41 14l24 119q2 2 9.5 26.5t16.5 54t16 57.5t11 38l-4 2q8 20 18.5 48t24 55.5t28.5 51t32 35.5q10 -4 21 -3t20 -9q18 6 28.5 11t19.5 8.5t19.5 4.5t30.5 1v10q0 12 1 22.5t4 17.5t7 -1q55 -80 63.5 -159t4.5 -169 v-27q0 -20 -4 -22q-2 -37 -5 -74t-12 -72l15 -34l-13 -25h7q-20 -27 -25.5 -58.5t-1.5 -64.5q8 -12 17.5 -32.5t23.5 -12.5q35 -39 71.5 -43t84.5 8q0 -4 3 0t3 6q4 18 -4 33q-23 18 -39.5 40t-32.5 44l22 12l-20 19q-2 -10 -11.5 -2t-9.5 12l11 27q-2 2 -7.5 11t-0.5 20 l24 12v8q12 -16 39 -10q6 43 7 107.5t3 130t6.5 125t14.5 89.5l22 -84q6 -4 19.5 -1t28 7.5t26.5 10.5t16 10l9 16q12 25 30.5 43.5t37 36t34.5 37t25 45.5q-12 41 -46 90t-57 88q4 6 10.5 4t6.5 9q-23 25 -43.5 53.5t-34.5 58.5q-16 59 -31.5 121t-24.5 123l5 2 q14 -23 32.5 -50.5t39 -52t44 -43t51.5 -22.5q33 14 43 47h-4q23 66 28 125.5t17 126.5q-4 0 -2 11.5t2 13.5q2 8 5.5 17t-11.5 20q27 45 47.5 97t38 105.5t33.5 106.5t39 102zM842 1784l-15 6h7zM848 1325h-2q0 2 -2 2q-4 -4 -4 -10q0 -4 -6 -4q0 -6 -1.5 -13.5t3.5 -11.5 q0 -4 2 -10t-2 -10q-2 -4 -8.5 -5t-12.5 -2t-8 -5.5t2 -14.5q-4 0 -8 1t-8 -3v-2h2q-2 0 -2 -2h2q-10 -2 -17.5 -3t-17.5 -3q-4 6 -9.5 5t-11.5 -1q-4 8 -2 17.5t-8 11.5l-18 2q0 4 -2 4t-2 2h-7v8q10 -4 8.5 4t2.5 12q-4 4 -11 4q-2 14 -2 29q0 16 4 29l3 -2q6 8 10 15 t14 13q12 8 29.5 9.5t34 -2t25.5 -7.5t5 -6q2 -10 5 -6t8 -6q8 -6 5 -16.5t7 -12.5v-10zM553 1448q2 -14 -2 -36.5t-10 -47.5t-13.5 -46.5t-13.5 -33.5l4 -2q-4 -4 -13 -25.5t-20.5 -45t-19.5 -43t-8 -21.5q-6 -10 -12.5 -21.5t-10.5 -21.5l4 -2q-14 -23 -27.5 -45.5 t-25.5 -44.5q-29 29 -55.5 58.5t-55.5 55.5q10 20 14.5 26.5t8.5 27.5v-4q8 2 14 12q-8 12 -14 16v-2l-8 2l12 23h-4q4 6 15.5 21.5t25.5 30.5t26.5 28.5t18.5 17.5l6 12q8 4 15.5 9.5t7.5 15.5q8 4 16 9t16 11l-4 2q33 10 60.5 28t54.5 36h-2zM813 1280q0 10 -4 27l-23 2 q-2 -8 -4 -15.5t0 -15.5q2 -4 7.5 -2t5.5 -4h4q0 6 6 4t8 4zM780 1251v23l-12 2q-4 -4 -2 -12.5t0 -12.5h14zM758 1307q-6 2 -16.5 1t-10.5 -10q-2 -6 -4 -13t6 -11v-2q2 0 6 -1t4 3q16 -2 14.5 10.5t0.5 22.5z" />
<glyph unicode="&#xb3;" horiz-adv-x="1736" d="M1716 2028q-129 -117 -242.5 -247t-230.5 -259l-47 14l-25 -16l11 -27l-45 -29l-19 6q-63 -43 -105 -73.5t-80 -36.5t-78 15.5t-97 82.5l41 15q14 70 45 124v39l-4 -2q25 41 23.5 76t-25 55.5t-64.5 23.5t-94 -15l18 -23l9 35q-4 -12 -3 -17.5t3 -7.5l3 -3t-1 -3l10 27 q4 0 1 -6.5t-3 -8.5l-4 -4l10 17l4 -4l-10 -33q-2 10 2 12t4 -20v6l10 10l2 -12l8 14l5 -33l6 19l2 -33q2 -23 8 -12.5t6 12.5q4 0 6 -12.5t2 -14.5l2 2l2 -14q2 -4 1 2t1 6l2 -8q12 12 24.5 29.5t16.5 36.5q-2 -6 -5 -18.5t1 -16.5l8 10v-6q4 -6 5 6q0 12 -2 21l-3 -5l9 17 q4 2 1 -5t-1 -5l8 16l2 -6l-14 -37l4 2l4 8q4 0 1 -7t-5 -7l2 2l4 6l2 -4l-14 -16l-5 2l-4 -39q4 0 -2 2t-4 4l6 31l-12 -27q-4 16 -4 6q0 -8 -10 -12q-2 -2 1 4t-1 6l-6 -12v4l-5 -2q0 2 4.5 5t0.5 3l-9 -8l-2 -4q-2 6 -12 6t-14 6l-2 8l-2 6v-14v4t-2 12l-2 -14 q-8 12 -6.5 14t3.5 2q4 0 7.5 2.5t-2.5 14.5q-4 -4 -11.5 -1t-11.5 7l10 -37q-8 16 -10 19l-2 4h2t0 12v-4l-4 -6l8 -17l-10 29q2 -18 -1 -22.5t-5 -4.5v-8l-10 29q-4 -6 0 -16.5t6 -14.5l-29 47q0 -12 4 -24.5t8 -22.5q4 8 -12 8l-8 11l-2 4q0 -16 -1 -20.5t-2 -2.5t-5.5 6 t-10.5 6q-4 0 2.5 -6t1.5 -6l-8 10q-4 -2 1 -10t9 -8l-20 20l6 -12l-2 2q0 2 -8 10.5t-10 4t1 -17.5l3 -13l-37 33l2 2l10 -15l-14 29l2 2l29 -37l-11 14l6 -4l-20 27q12 -14 12 -12q0 4 -10 18l27 -8l-11 16l2 -6l-10 12v-4l-2 11l10 -11l-2 29l27 -33q-14 23 0 49 q2 2 1 -4t1 -6q4 -2 3 4t-1 4l8 -22l-2 6l-2 11t0 11l12 -18l3 37q2 -10 -7.5 -14.5t-17.5 -8.5q-10 -6 -3 1.5t1 13.5h-4q-16 0 -26.5 -16.5t-15.5 -38t-8 -44t-3 -32.5l24 -25q-10 -43 -52 -83t-81 -54l2 -6q-88 -104 -183 -203.5t-167 -216.5l29 -100l14 26l10 -4 q33 37 58.5 77t52 79t59.5 72.5t78 60.5q4 10 14 14q-14 -49 -28.5 -101t-59.5 -85l-10 10q-23 -8 -37 -32.5t-25 -47.5l-38 -22l-2 -11l14 -34v2l18 -17l-8 -12q0 -16 6 -32.5t17 -26.5q-2 -47 -5.5 -91.5t-9.5 -89.5q-45 -35 -93 -104.5t-86 -150.5t-59.5 -161.5 t-11.5 -136.5l31 -14l60 18q45 -12 90 -1.5t69 53.5l-18 20q-12 -4 -30.5 -1t-38 10.5t-36 16.5t-26.5 17l10 43l39 -2q43 61 74 129l12 -35q23 20 27 46t8 55q2 16 33.5 46.5t70.5 65.5t76 67t53 50q31 -18 65 -35.5t67.5 -36t64.5 -39t53 -47.5q-6 -53 -14 -121.5 t-12.5 -139t-1 -137.5t19.5 -116l70 -12q18 -18 43.5 -33.5t52 -20.5t53.5 0t47 25q-10 18 -31.5 36t-46 35t-50 33.5t-44.5 33.5l-8 30l2 6l33 15q0 96 22.5 188t36.5 187q-20 45 -51 83.5t-65.5 73.5t-70.5 71t-67 75q31 33 46.5 73.5t21.5 84.5t7 90.5t5 87.5l41 -31 q18 -4 39.5 2t36.5 18l14 -4q23 10 66 31.5t86 48.5t79.5 53.5t47.5 46.5l45 -32l49 20l24 47l-16 78l58 58t93.5 96.5t105.5 114t97 112.5t66.5 94.5t13.5 57.5zM702 1247l-4 2q-4 -4 -4 -10q0 -4 -8 -6q2 -6 4 -23.5t0 -19.5q-2 -6 -8 -7l-12 -2t-9.5 -4t3.5 -14 q-4 0 -8.5 1t-8.5 -3l2 -2l-2 -2l2 -2q-10 0 -17 -2t-18 -2q-4 4 -10 3t-10 1q-4 8 -3 14.5t0 9.5t-6 4t-20 3l-4 4h-6v8q10 -4 8 4t2 12q-2 4 -10 5q-2 14 -3 29.5t5 29.5l2 -2q6 6 11 14t14 13q14 10 30 10q18 0 35 -2q6 -2 15.5 -4t13.5 -7q4 0 0 -4q2 -10 5 -6t7 -4 t3 -18.5t9 -10.5v-10zM668 1200q0 10 -4 27l-23 2q-2 -4 -4 -15.5t0 -15.5t7 -2t5 -2h4q0 6 6.5 3t8.5 3zM635 1174v20l-12 2q-4 -4 -2 -11t0 -11h14zM612 1227q-6 4 -15 3t-13 -11q0 -6 -2 -13.5t6 -11.5h-2q4 0 8 -1t4 1q16 -2 14 11.5t0 21.5z" />
<glyph unicode="&#xb4;" horiz-adv-x="1224" d="M1198 1270l-16 20q-4 -2 -49.5 1t-98.5 8.5t-97 10.5t-48 7l-19 55l-6 -10l6 -27l-16 29l14 10q0 4 -9 13.5t-13 11.5l-4 -2q-8 -25 -11.5 -42.5t-9.5 -27.5t-19.5 -11t-41.5 9q-23 -12 -45.5 -26.5t-44.5 -30.5l-17 35q6 12 6 32q0 23 -2 46.5t-5 46t-3 36.5 q18 20 59.5 32.5t69.5 12.5q-2 -4 2 -4q6 0 13.5 2t13.5 4l6 2q14 4 29.5 21.5t31.5 28.5q2 -4 13.5 2t25 17t24.5 21.5t17 14.5l9 -2l32 43l-20 39q0 6 12 11t28.5 8t31 5t20.5 2l10 11l-22 16q4 8 17 29.5t9 31.5l21 21l-8 16q14 29 22 52.5t12 52.5q-84 41 -127 24.5 t-52 -43t-9 -30.5l29 -68q-8 -10 -15.5 -28.5t-14.5 -35t-17.5 -23.5t-26.5 5l-21 -29v-2q-23 -23 -53 -52.5t-59 -35.5q-4 -2 -18.5 -7t-14.5 1q-20 -8 -36.5 -10t-33.5 -2h-30t-37 -4l-21 14l-26 -8h-4l-37 25l8 10l25 8q18 10 29.5 30.5t15.5 43.5l-7 22q6 10 26 39 t35 54.5t16 39t-25 -5.5q-53 35 -65.5 56.5t-23 34t-40 16.5t-117.5 2q-43 0 -72.5 -28t-42 -66.5t-4.5 -78.5t41 -67q-8 -2 -7 -6t5 -8t8 -9.5t2 -7.5q-6 -6 -6 -2q0 6 -2 9l-4 -5l8 -18l23 -10q12 8 16 3t4 -15q0 -8 -2 -17.5t0 -9.5q-33 -39 -64.5 -67.5t-51 -59.5 t-24.5 -70t13 -96q4 0 11.5 -21.5t14.5 -49t15 -53t12 -36.5q-6 -4 -26 -4h-43q-23 0 -44.5 1t-31.5 -1q-18 -10 -33.5 -31.5t-19.5 -44.5q6 -33 14 -65.5t33 -56.5l-14 -35l14 -43l39 -19l-2 -8q10 -8 20 -14t19 -17q-8 -25 -2 -49t4 -49l-68 -20l-2 2l-98 -21l-6 -12 l43 -31q23 6 49 7t51 7q10 -6 14 -4q10 -51 31 -96q-8 -4 -11 -15.5t-3 -19.5q10 -18 3 -45.5t-11 -48.5q-4 -18 3 -53t14 -72t11 -66.5t-2 -37.5q10 -14 15.5 -39t11.5 -29q-10 -27 -24.5 -51.5t-24 -49t-10.5 -50t18 -52.5l43 -6l2 2q41 -10 66.5 7.5t39 50t17.5 76.5 t3 88.5t-5 83t-4 59.5q16 49 20 102t-4 105q4 10 6 16t-2 16q33 31 43 77t23 87q-6 4 0 17.5t8 17.5l67 -35q2 -2 9 4q0 29 8 47q12 -23 28.5 -38t26.5 -41l-18 -29q8 -10 17 -18.5t19 -16.5l13 -31l6 2l6 -14l3 -7t5 -14.5t2 -13.5q0 -4 -6 -2q-4 -35 -6 -57.5t-2 -44.5 q0 -20 1 -44t3 -57l-6 -28q10 -8 15 -22.5t3 -26.5l-6 -13l13 -20l-11 -14v-17v-24t1 -23.5t5 -13.5q-6 -16 -12 -35t-7 -38t4 -37.5t20 -33.5l34 -8q0 4 4.5 2t6.5 -2l18 -2l37 8q8 -4 20 -4t23.5 -1t21 -5t11.5 -14l30 -4q0 4 2 2t4 -2l41 2q16 2 38 11t34 21l-31 43 l-6 -2q-41 16 -71.5 45t-61.5 58q4 2 3 17.5t-4 36t-7 38.5t-4 25q-4 53 6 125.5t8 138.5l31 43q-4 16 -7 38.5t7 37.5q-6 16 -11 37.5t-10.5 43t-12.5 40t-21 28.5h-9l-14 41q2 2 10.5 7t3.5 9l-30 60q20 2 43.5 8t40.5 20q8 14 12 35t-4 37l2 4l6 -6l6 12q0 2 -9 9.5 t1 9.5l-6 26l-25 21q-20 -25 -46.5 -43.5t-55.5 -30.5q-29 33 -47 66l-12 -11q-10 2 -14.5 26t-2.5 32l35 22q2 18 1 27l-1 8q2 2 9 -7t30 -24q10 8 25.5 11.5t27.5 1.5q45 47 118 60t142 9q2 0 30 -3t59.5 -4t56 3.5t20.5 20.5zM877 1317h-29l-17 14l3 4q4 2 16 -1t18 -3 l4 2zM532 1325q-2 0 -3 1l-1 1q-6 -4 -5 -9t-7 -5q0 -6 -1 -13.5t3 -11.5q0 -4 3 -10t-1 -10q-2 -4 -8 -5l-12 -2t-9.5 -5.5t1.5 -14.5q-4 0 -8.5 1t-8.5 -3l2 -2h-2v-2h2q-10 -2 -17 -3t-16 -3q-4 6 -10 5t-10 -1q-4 8 -3 17.5t-9 11.5l-19 2q0 2 -4 6h-6v8q10 -4 8 4t2 12 q-4 4 -10 4q-2 14 -2 29q0 16 4 29l2 -2q8 8 11 15t14 13q12 8 29.5 9.5t34 -2t26.5 -7.5t4 -6q2 -10 6 -6t8 -6q8 -6 4 -16.5t8 -12.5v-10zM496 1280q2 8 0 14t-4 13l-23 2q0 -8 -2 -15.5t-2 -15.5q4 -4 8 -2t4 -4h4q0 6 6.5 4t8.5 4zM463 1251v23l-12 2q-2 -4 -1 -12.5 t-1 -12.5h14zM442 1307q-8 2 -18 1t-10 -10q-2 -6 -3 -13t7 -11l-2 -2q10 0 12 2q14 -2 13 10.5t1 22.5z" />
<glyph unicode="&#xb5;" horiz-adv-x="1425" d="M809 1577q2 14 -9.5 39.5t-29.5 52.5t-38.5 46.5t-37.5 23.5l-2 10q-8 0 -24.5 2t-35 3t-34.5 0t-25 -5h-55l-4 -10q-25 -10 -58.5 -35t-64.5 -55.5t-53.5 -64.5t-28.5 -58q-4 -16 -3 -43t4 -56.5t7.5 -55t10.5 -40.5l10 -2q10 -33 31.5 -51t42.5 -41h172q2 0 13 5 t23.5 10t22.5 10.5t12 5.5q20 18 42 36.5t44 34.5q6 16 21.5 42t29 51.5t17.5 49t-10 38.5zM1337 1763q-14 18 -23 32.5t-20.5 22t-29 6.5t-47.5 -14q-2 -10 -6.5 -29.5t-10.5 -40t-13 -40t-18 -27.5q-94 -88 -175 -193.5t-154.5 -217t-145 -224t-149.5 -215.5 q-23 -29 -55.5 -51t-49.5 -43q-16 -23 -36.5 -54.5t-44 -62t-49 -55.5t-52.5 -31q2 -16 -13.5 -48t-19.5 -54q16 -4 30.5 -10t29.5 -13l43 31v-2q33 43 89 120t124.5 170t142.5 193.5t142.5 187.5t126 153.5t89.5 93.5q16 41 52 89t65 89l-4 -2l6 12q8 14 23.5 29.5t31 30 t27.5 27.5t14 26l46 59q23 4 24.5 18t9.5 37zM1264 764q2 14 -9.5 40.5t-30 53.5t-40 46.5t-39.5 21.5v10q-10 0 -25.5 2t-34 4t-35 1t-24.5 -7h-55l-6 -10q-25 -6 -58 -32t-63.5 -58.5t-54 -65.5t-29.5 -57q-4 -14 -3 -42t4 -56.5t8 -55.5t11 -39l11 -4q10 -33 29.5 -50 t43.5 -40h103q51 0 104 10q8 6 17.5 12.5t19.5 8.5q23 18 43 36.5t43 34.5q6 16 21.5 41t27.5 50.5t16.5 49t-8.5 38.5zM682 135q-2 74 -31.5 123t-68.5 64.5t-78 -5t-60 -86.5q-8 -23 -6 -45t19 -39q-33 -16 -73 -11t-79 23.5t-72.5 44t-54.5 52.5q-10 16 -15 46t-28 34 l-35 6l-8 -29q12 -16 17.5 -33.5t6.5 -37t3 -39t12 -35.5q31 -53 77 -96t101.5 -70t116.5 -35t123 8q16 4 37.5 15.5t42 27t34 34t13.5 38.5q0 8 -2 14.5t0 14.5q8 6 8 16zM748 1616q-8 -12 -11 -19q2 -45 4 -73.5t-3 -54t-22.5 -55.5t-51.5 -75q-8 -4 -16.5 -9t-14.5 -11 q-12 -4 -27.5 -8t-23.5 -15h-66q0 4 -4 13q-41 0 -69.5 13t-49.5 48q4 16 -4 27.5t-10 27.5q-14 8 -35 13q-2 27 18 61q18 2 28.5 13.5t17 26.5t11.5 30.5t15 27.5q14 18 30.5 30.5t37.5 29.5q12 2 24.5 5t26.5 3l2 12h63q2 -6 14.5 -11t28 -8t31 -5t23.5 -4l4 -11 q12 0 17.5 -7t11.5 -15zM1200 803q-10 -10 -12 -19q4 -35 6 -66.5t-4 -63t-23.5 -63.5t-52.5 -63q-6 -6 -14 -9t-15 -11q-12 -4 -27.5 -8t-25.5 -15h-63q0 6 -10.5 8.5t-22.5 4.5t-24.5 3t-16.5 5q-29 25 -43 47t-21 61q-10 2 -17 6.5t-17 6.5q-4 14 3 29.5t17 29.5 q25 2 35 25.5t25.5 53.5t43 56.5t83.5 32.5l2 12h65q2 -6 14.5 -12t27.5 -9t30.5 -6t23.5 -3l2 -9q14 0 18.5 -8t12.5 -16zM725 1505q0 59 -42 102.5t-103 43.5q-59 0 -102.5 -43t-43.5 -103q0 -61 43 -103t103 -42q61 0 103 42t42 103zM1171 707q0 55 -38.5 95t-96.5 40 q-55 0 -95 -40t-40 -95q0 -57 40 -96.5t95 -39.5q57 0 96 39.5t39 96.5zM623 1487q0 -23 -23 -23t-22 23v49q0 10 7 15t15 5t15.5 -5t7.5 -15v-49zM1081 684q0 -23 -22 -22q-23 0 -23 22v66q0 10 7.5 15t15.5 5t15 -5t7 -15v-66z" />
<glyph unicode="&#xb6;" horiz-adv-x="1523" d="M1382 1229q0 18 -23.5 30.5t-58 19.5t-74.5 11t-73 6v113q0 23 -23 23t-22 -23v-111q-10 2 -16 2h-9q-86 10 -183 21.5t-189 11.5v174q0 23 -23 23t-22 -23v-176q-111 -6 -204 -48t-161 -111.5t-105.5 -164t-37.5 -204.5q0 -53 13 -111.5t37.5 -115t59.5 -104.5t78 -81 q23 -16 49.5 -29.5t46.5 -33.5q59 -59 104.5 -84t88.5 -35v-31q0 -14 -2 -28q-8 -119 -8 -240t-9 -236q-10 -131 -29.5 -248.5t-19.5 -244.5q0 -23 23 -23t22 23q0 127 19.5 243.5t30.5 245.5q8 115 8 236t8 239q0 12 1 25.5t1 26.5q33 -6 68.5 -15.5t82.5 -31.5 q35 -16 61 -21.5t49.5 -6.5t51 1t68.5 2q-16 -68 -30.5 -133.5t-20.5 -136.5q-4 -41 -3 -98.5t1 -116.5t-5.5 -113.5t-23.5 -89.5l-2 -10v-164q0 -23 22 -23q23 0 23 23v159q18 41 24.5 95.5t6.5 113.5q0 57 -1 114.5t3 104.5q6 61 18 120t24.5 116t24 116.5t15.5 123.5 q2 49 2 90t-1 81t-2 80.5t1 92.5q6 131 10 281.5t6 297.5q27 -2 56.5 -4t55 -6t46 -8t26.5 -8q6 -18 25.5 -16t19.5 22zM1108 1253q-2 -150 -6 -299t-10 -280q-2 -51 -1 -92t2 -81t1 -81t-2 -90q-4 -43 -9.5 -82t-13.5 -78h-4q-35 0 -80 -2t-82 2q-25 4 -60.5 24.5 t-68.5 24.5q-59 10 -94 21q-2 61 -4 125.5t2 123.5q2 57 7 98.5t10 80.5t9.5 82t6.5 102q4 121 3 225.5t-1 210.5q90 0 185 -11t181 -22q4 0 11.5 -1t17.5 -1z" />
<glyph unicode="&#xb7;" horiz-adv-x="509" d="M432 762q0 23 -13 47.5t-11 42.5q0 14 10 24.5t10 24.5q2 43 -23.5 67.5t-62.5 37t-78 12.5t-69 -8l14 4q-43 -6 -74 -37t-45 -73t-10 -89t30.5 -87t79 -65.5t134.5 -25.5q51 0 79.5 39t28.5 86z" />
<glyph unicode="&#xb8;" horiz-adv-x="612" d="M510 -410q33 29 32 65t-32 64q0 63 -5 98.5t-18.5 60t-37 49t-62.5 69.5q-10 0 -20.5 3t-16.5 13h-96q-8 10 -18.5 19.5t-20.5 19.5q-4 -6 -15.5 -12t-21.5 -6q-14 -31 -41 -60q14 -20 25 -47q8 -4 22.5 -13t28.5 -19.5t26.5 -17.5t18.5 -7q39 -35 60.5 -70t28.5 -73.5 t4 -80.5t-11 -89q-37 -6 -60.5 0t-42 16t-38 20.5t-52.5 10.5q-16 0 -36.5 -6.5t-38.5 -8.5l-33 -49q-12 -18 -5 -55t24.5 -74t40 -64.5t42.5 -27.5q63 0 104.5 4t96.5 14q20 23 44 39.5t52 20.5q12 14 31.5 38.5t35 53.5t19.5 56.5t-14 45.5z" />
<glyph unicode="&#xb9;" horiz-adv-x="1083" d="M1063 1821q0 2 -8 5t-17.5 6t-18.5 5t-11 0l-84 -180q-18 25 -21.5 7.5t-3.5 -38.5l5 -2t1 -6l-16 -21q14 0 7 -8t-11 -12t-5 5t-6 3l-20 -12q-2 6 -8 -1t-6 -9l12 -23q2 4 17.5 6t15.5 -2q-4 -16 -13.5 -28.5t-16.5 -25.5t-12 -29.5t-1 -41.5q-16 -20 -39 -26 q-12 8 -38 14t-42 -4q-23 8 -33 27.5t-31 29.5l13 33q-20 31 -45 47q0 25 -12.5 48.5t-34 41t-47 27.5t-50.5 10q-10 10 -22 18.5t-27 14.5l-8 4l8 14l6 -6l17 17q-4 4 4 9t8 17v-4v2l-12 21l10 -7l-14 37l6 -2l-4 37l4 -2l-6 25q0 4 3 -2l3 -5q2 -2 2 7q2 -2 4 -3t4 -4 l6 -8q-2 2 -3 4t-3 4l-8 9v-2q-8 8 -8 14l4 -2l6 -4l-6 4h8l-16 16q0 4 6 0l12 -8v4l-6 8q0 8 -1 6t-1 3v2l4 6l-4 -6v2v12l-4 6v2q0 -6 2 -11t-2 -11l-13 20l4 10l-22 17l-8 22l-39 29q-16 -10 -35.5 -14t-38 -8.5t-37 -12.5t-33.5 -26l5 -5q-6 -31 -9.5 -66.5t-0.5 -66 t14.5 -52t29.5 -21.5q2 0 -3 2t-5 4h10l-6 4l6 2l21 -31q-10 -18 -30.5 -42.5t-24.5 -39.5q-35 -25 -71 -72t-63.5 -101t-43 -110.5t-11.5 -99.5l-31 -49q2 -20 7.5 -47t12.5 -53.5t18.5 -49t27.5 -34.5l29 6l6 -8v2q6 -20 5 -35.5l-2 -31t0 -34t13 -43.5q29 -27 56.5 -27.5 t62.5 19.5q-23 -162 -59.5 -315.5t-61.5 -315.5l37 -51q-6 -25 -22.5 -56.5t-28.5 -63t-13.5 -59.5t25.5 -42q20 0 42 4t42 10l33 35q-2 43 -5 79t5 79q16 -4 39.5 2t38.5 18q27 92 40 176t28.5 166t40 164t71.5 172q35 -51 63.5 -117.5t51 -137t40 -139.5t31 -125t22.5 -95 t17 -47l17 -15q10 -20 9 -42.5t-4 -46t-3 -48.5t14 -49l4 2q14 -4 36.5 -11t33.5 11q29 -31 69.5 -35t81.5 0l27 37l-10 19q-8 4 -30 17t-32 11l-55 41q4 16 -7.5 17.5t-24.5 2.5t-23.5 12t-4.5 48q23 12 43.5 23.5t45.5 21.5l20 29q-14 76 -37.5 156.5t-51.5 163.5 t-55.5 165t-52.5 158l-43 133l-6 20q37 12 76 19.5t76 17.5l4 -2q29 14 59.5 28.5t59.5 31.5q-14 12 -46 9t-69 -11.5t-70.5 -18.5t-52.5 -12v-2l-51 -12q-4 6 -11 15t-13.5 18.5t-8.5 14.5t6 3q12 -2 26.5 -7.5t25 -6.5t12.5 6.5t-8 29.5l-15 19v-2l-37 63l31 -18 q10 6 27.5 1t27.5 -7q45 18 93 43l18 41l-8 24q18 25 47 41l27 -14l34 41q-4 6 4.5 30.5t8.5 34.5q-2 8 -8.5 14.5t-6.5 16.5l25 39l-23 31q23 57 44.5 112.5t50.5 108.5l-5 10zM504 1427h-2q0 2 -2 3q-4 -4 -4 -11q0 -4 -7 -4q0 -6 -1 -13t4 -11q0 -4 2 -10.5t-2 -10.5 q-2 -4 -8.5 -5t-12.5 -2t-8 -5t2 -15q-4 0 -8 1.5t-8 -3.5v-2h2q-2 0 -2 -2h2q-10 -2 -17.5 -3t-17.5 -3q-4 6 -9.5 5t-11.5 -1q-4 8 -2 17.5t-8 11.5l-18 2q0 4 -2 4t-3 2h-6v8q10 -4 8 4.5t3 12.5q-4 4 -11 4q-2 14 -2 29q0 16 4 28l2 -2q6 8 10.5 15.5t14.5 13.5 q12 8 29.5 9t34 -2t25.5 -7t5 -6q2 -10 5 -6t8 -7q8 -6 5 -16t7 -12v-11zM303 1090l-4 -11q-4 2 -7 9.5t-3 11.5l4 4q4 0 7 -5t3 -9zM270 1026q4 -6 3 -17.5t-5 -17.5q-12 18 -30 37q-4 0 -19.5 -3t-15.5 -11l6 -6l-6 -7q-4 8 -9.5 16.5t-5.5 18.5q18 4 31 19 q12 -8 25.5 -14.5t27.5 -14.5h-2zM469 1382q0 10 -4 27l-23 2q-2 -8 -4 -15t0 -16q2 -4 7.5 -2t5.5 -4h4q0 6 6 4t8 4zM436 1354v22l-12 2q-4 -4 -2 -12t0 -12h14zM414 1409q-6 2 -16.5 1t-10.5 -9q-2 -6 -4 -13.5t6 -11.5v-2q2 0 6 -1t4 3q16 -2 14.5 10.5t0.5 22.5z" />
<glyph unicode="&#xba;" d="M1171 1819q-16 -2 -18 9t-8 19q-8 12 -26.5 17.5t-39.5 5.5q-20 0 -39.5 -2t-31.5 -4q-8 2 -9.5 8t-1.5 12t-3 9t-15 3q-8 0 -10 -3t-2 -7q0 -2 -2 -5t-9 -3q-16 -4 -27 -12t-28 -11q2 -10 -2 -13t-10 -5t-13.5 -3t-9.5 -9l-2 4q-8 -6 -9 -14.5t0 -17.5t2 -18.5t-1 -17.5 h10l6 -10q29 -4 50.5 3t46.5 11q0 10 6 17q8 -4 14 3t11.5 13t10.5 9t9 -5l4 4l8 -4q6 -10 13.5 -18t7.5 -23q10 -4 20 -9t12 -19q14 -6 28.5 -1t31.5 1q6 4 4 8t6 4q16 0 20.5 8t2.5 19.5t-5.5 24t-1.5 22.5zM1550 911q6 45 0 86h-10q-6 2 -6 9v12q-2 10 -9 13t-17.5 2 t-19.5 -5t-15 -8q-12 10 -13.5 -1t-9.5 -15l-6 -41q12 4 16 -11.5t2 -23.5q16 4 17 -8q0 -12 4 -21q12 -4 24 -4q14 0 27 4q0 8 -4 10q10 4 20 2zM1536 1049q0 27 -8 48t-10 46l-5 -4q-14 6 -14 22q0 18 -4 28.5t-15.5 9.5t-6.5 13q-8 4 -19.5 10.5t-21.5 4.5 q-4 14 -16.5 21t-16.5 24q-6 0 -14.5 12t-15.5 27.5t-12 30t-5 18.5q-8 6 -10.5 13t-5.5 14.5t-7 13.5t-14 10q-8 4 -16.5 12.5t-2.5 18.5q-2 -4 -6 3t-10 -1q-6 10 -11 19.5t-7 19.5q-2 6 -7.5 9t-11.5 6t-10 7t-4 11l-29 2q-4 6 -12 8t-16.5 4t-15.5 4t-7 12l-19 4 q-10 10 -20 18.5t-16 22.5h-9l-14 -16q-10 8 -8 13t7 11.5t11 12.5t4 14q10 0 16.5 15.5t6.5 31.5q0 18 -5 31.5t-18 9.5q-2 8 -9 9t-15 1q-6 0 -11.5 3.5t-2.5 15.5l-17 12l-33 4q-12 -10 -29.5 -12t-33.5 2q-10 -29 -5 -57.5t5 -57.5q12 2 17 -10t5 -22q-2 -23 -19 -31 t-38.5 -11.5t-38 -6.5t-16.5 -15q-10 -4 -24.5 -11t-10.5 -22l-10 -6q2 -16 -12.5 -21t-12.5 -22q-16 -4 -33.5 -21.5t-25.5 -31.5q-8 0 -10.5 -4t-3.5 -10.5t-3 -11.5t-8 -7q-18 -4 -32.5 -17.5t-30.5 -11.5q-12 -10 -28.5 -6t-27.5 -6q-49 -12 -96 -10l-2 -12l-117 -7v-18 t2 -26.5t3 -25.5t6 -18l-5 -8l140 -6q10 10 6 24.5t2 26.5h4l2 -14l16 -12q10 0 18.5 -4.5t4.5 -14.5h84q2 0 -4 7.5t-2 5.5q18 -2 33.5 8t33.5 10l7 16q16 0 26 13.5t27 13.5l8 16l25 15q-4 10 3 17t17 9q10 -25 11 -51.5t1 -50.5l11 2q6 -6 6 -16q0 -8 -1 -17.5t0 -18.5 t9 -16l-2 -8q20 -4 41.5 -5t40.5 7l-2 4l45 13l2 186l-8 12q-4 16 -12.5 27.5t-10.5 28.5l-10 -5l-6 33l16 17q-2 -14 7.5 -23.5t11.5 -21.5l34 -27q6 14 4 29.5t7 27.5q10 -2 13 -9t3 -17v-19q0 -8 2 -14l27 22q10 -4 14 8.5t4 20.5l4 -4l2 20l17 7q10 -6 7 -16.5t-7 -16.5 q0 4 -4.5 1t-4.5 3q0 -10 -2 -21.5t-12 -15.5q2 -10 -1 -24.5t-17 -12.5q-12 -37 -18.5 -59.5t-8.5 -43t-2 -42.5v-53l47 -9q-4 0 -1 -4t-1 -4q25 -4 57.5 -6t55.5 8l-4 4l10 11q2 2 3 11t1 19q0 12 -1 23.5t-1 15.5l8 4q-2 4 -2 17q0 12 2 25.5t5 22.5t9 9 q4 -14 15.5 -23.5t7.5 -25.5q6 2 14 -7.5t15.5 -22.5t11.5 -25.5t4 -18.5q16 0 21.5 -14.5t21.5 -14.5q-4 -12 7 -17t22 -5l-4 -2h28l10 -21q-10 -8 -11 -17t2 -19.5t7.5 -20.5t4.5 -20l36 -23v4q27 10 54.5 13.5t56.5 5.5zM1155 1104q0 10 -6 14t-15.5 5t-19.5 1 q-8 0 -14 2l4 7q-51 4 -101.5 9t-101.5 -5q2 -6 -1 -12.5t-5 -10.5q33 -10 68 0q8 2 17 -2t15 2l127 -10v-2q8 0 17.5 -1t15.5 3zM1903 248v8h-517v-8h517zM350 1348v16q-8 10 -22.5 6t-18.5 6q-10 -2 -16 2t-14 8q0 68 -2.5 135.5t-6.5 135.5q-4 0 -4 2q0 4 4 4l-10 291 l-10 -2q-2 14 -6 28.5t-25 1.5l-10 -79h-4q-8 -129 -2 -257t10 -257q-20 -25 -49 -25q4 -8 -4 -13t-15 -10h9q2 -16 16 -18t27 0q-4 -10 6 -13t10 -14l-16 -10l2 -8q-12 -10 -10.5 -29.5t4.5 -31.5h6l4 -13q12 -2 26.5 -7t18.5 -19q10 0 21.5 1t17.5 11q-4 25 15.5 27 t35.5 6q4 14 3 28.5t-1 28.5q-2 0 -2 2q0 4 2 4q-12 2 -21.5 10.5t-23.5 3.5q-6 0 -13.5 5.5t-2.5 13.5q20 8 30 6q2 6 8.5 8t12.5 3t11 4t5 12zM1348 152q0 31 -2.5 60.5t-36.5 37.5q2 6 8 8t12 3t9 5t-1 15q4 12 1 19t-10 12t-16 9.5t-16 10.5l4 2q-25 2 -36 16.5 t-31 20.5q-2 35 -6 71.5t8 71.5h10v21q0 16 2 32.5t4 29.5t6 15q4 90 1 174t-13 175q-16 -2 -15 15t-7 25q2 20 -15.5 30.5t-19.5 31.5q-29 10 -59.5 12t-59.5 4l-4 13q-74 6 -147 0q2 -14 -11.5 -17.5t-23.5 -3.5l4 -2l-17 -10q2 -8 -1 -10t-8 -3.5t-9 -3.5t-4 -8q0 4 -1 1 t-4 -8t-7.5 -8t-10.5 -1l-16 -35l4 -4l-14 -23q0 -8 -2 -21t-15 -13q-2 -6 -4 -17.5t-6 -24t-9 -21.5t-11 -9v-25q10 -4 20 -1t21 1v6q45 4 88 14.5t88 4.5q6 4 6 10v14q0 8 2 13.5t12 5.5l8 104l21 11q6 -2 7 -24.5t1 -51.5t-2 -54.5t-4 -33.5q10 -6 40 -7t54 -12l-33 -6 l-10 -12q4 -29 7 -54.5t7 -52.5l13 -4q6 -31 14 -62.5t18 -62.5l19 -10q-4 -10 -4 -29q0 -16 -15 -18l-10 -57h-4q2 -20 7 -59.5t-1 -57.5q6 -10 4 -24.5t-2 -28.5t5.5 -23.5t25.5 -5.5q4 -14 -7 -15t-11 -12l-4 7l-13 -29l-4 4q-4 -23 -3 -43t3 -41q12 0 13 13.5t1 21.5h9 v-39h-13l4 -2l-14 -27h4q0 -10 6.5 -13t13.5 -4t13 -3t6 -10q14 4 19.5 -7.5t5.5 -21.5q10 4 25.5 2t9.5 -19q4 -4 7 0.5t1 8.5l14 4l4 4q10 -8 22.5 -2t22.5 2q0 12 4 30.5t25 10.5q18 4 20 13t-2 20.5t-8 23.5t2 23zM946 831q-10 -2 -27.5 1.5t-23.5 -11.5q-6 -4 -25 -4 q-18 0 -35.5 -3t-29.5 -9t-8 -19q-8 -4 -4 -16t-11 -8q6 -41 -6 -87t-6 -93q16 -6 29 -21q-4 -10 -4 -26t-13 -21v-41h9q2 -18 2 -39q0 -18 10 -35q6 -14 6 -24q0 -8 -4 -16.5t-8 -16.5t-6 -20q-12 -4 -20.5 -13.5t-22.5 -5.5v-10q-16 -8 -35 -12.5t-29 -20.5q0 6 -5 2t-5 2 v-26l4 4q4 -6 12 -8.5t17 -2.5q8 0 15 -2t9 -10q-16 -2 -28.5 -13t-22.5 -22l-2 2q-10 -23 -9 -46t5 -46l16 -6q-6 -6 -3 -18.5t-13 -8.5v-12h10l6 -10q25 -2 32 -4t9 -7t1 -13.5t5 -22.5q8 2 18.5 1t14.5 -7q14 0 27.5 3t25.5 3q-6 0 0 5t-2 3l27 4q-8 16 -4 22.5t13 7.5 t20.5 2t15.5 9v12t-2 21.5t-3 23t-1 15.5q10 2 10 10q0 10 8 14l6 -2v15q-16 2 -13 17t-5 28q-10 14 -26.5 12t-18.5 14q16 8 33 8q18 0 34 5q6 23 2 42t-6 42q-14 0 -17 32.5t-2 72.5t5 72.5t4 37.5h10v28q-10 -2 -12 1t-2 9t1 12.5t-3 10.5q4 4 3 12t-1 17q0 8 2 13t12 5 q-2 29 8.5 52.5t14.5 50.5l10 -3q4 23 3 43t-1 43zM674 211v6h-518v-6h518zM1075 1688q-6 -10 -19.5 -11.5t-23.5 -1.5q0 6 -7 7t-11 6q-8 0 -16.5 -2.5t-12.5 -10.5h-6q0 10 -9 6t-14 7l-4 -2q-10 10 1.5 14t13.5 14q4 -4 15 0t13 -10q6 -2 10.5 -5t12.5 -1q0 10 5 13t13 3 t15.5 -2t13.5 -2l-2 -2q4 -4 10 -8t2 -12zM1036 1620q0 -12 -7 -15t-17 -8q-2 4 -6.5 3t-8.5 2q0 6 -4 8t-9 3t-8 3t-1 8q8 2 14 4t8 12q12 0 25.5 -2t13.5 -18zM1053 1573q-4 -6 -12.5 -5t-14.5 1q6 2 11 6t10 -2l2 2zM1303 270l-29 -4v4h29zM1303 111q-2 0 -7 -5v-10 q-10 0 -10 -2l-2 2q-8 -6 -15 -1t-18 1q-2 -4 -2 -14q0 -8 -3 -15.5t-8 -9.5t-15 4q-8 4 -2 12.5t2 16.5q4 0 5 2t5 4v10q16 0 18 6.5t4 26.5q6 -4 7.5 -1t1.5 7t1 7.5t9 -0.5q0 -8 6 -11.5t14.5 -5.5t11.5 -7t-3 -17zM1212 117q-12 -2 -14 -14.5t-14 -12.5q-2 2 -6 2 q-2 0 -2 2q-2 0 -4 1l-1 1l-4 -2q-4 6 -8 19.5t2 21.5q2 4 8 4h11q6 0 9 2t1 11h8q-4 -8 2 -12.5t12 -4.5v-18zM854 66q-4 -10 -13.5 -7.5t-9.5 -7.5h-6q0 10 -8 7t-12 3q-4 8 1 23.5t7 26.5l35 -5q2 -10 5 -20t1 -20zM803 20h-23q2 10 0 19.5t2 19.5l21 -4v-35zM768 106 q-2 -6 -1 -16t0 -18.5t-5 -13.5t-17 -3q-2 -4 -9 -3t-11 -1l4 4q-12 4 -10 16.5t4 22.5q2 16 16 17q17 -1 29 -5z" />
<glyph unicode="&#xbb;" horiz-adv-x="1488" d="M1458 508l-20 33q-41 8 -84 15t-82 19l-2 17q-18 4 -35.5 10t-38.5 8l-2 17q-41 0 -69.5 27.5t-57.5 45.5q-10 39 -19.5 59.5t-10.5 38t12.5 39t48.5 60.5q-20 14 -35.5 22.5t-33 11.5t-41 0t-56.5 -13q-14 4 -21 16l-24 -84q18 2 22 -8.5t2 -23.5t-6 -27.5t0 -22.5 l82 -172q20 -6 29 -21q20 -6 58 -18t48 -31q29 -4 36 -31.5t-19 -56.5q-53 -4 -106.5 -26.5t-108.5 -38.5q-12 -14 -24.5 -21.5t-29.5 -15.5q-23 -12 -40 -48t-31.5 -76t-22.5 -73t-10 -39h47q14 16 30.5 26.5t26.5 25.5q31 37 61 72.5t62.5 63t71.5 46t88 22.5 q18 20 41 21.5t43 -0.5q18 10 36.5 19.5t35.5 25.5q23 4 42 9t42 11q10 10 20 20.5t25 14.5zM756 492q-4 10 -9.5 18t-9.5 16q-43 8 -84 15.5t-82 17.5l-4 16q-18 4 -34.5 10.5t-34.5 10.5l-2 16q-27 0 -43.5 8.5t-29.5 20.5t-26.5 24.5t-31.5 18.5q-6 37 -15.5 57.5 t-11.5 38t10 40t49 61.5q-29 35 -69.5 38t-94.5 -16l-20 15l-27 -82q18 0 22.5 -11.5t3.5 -26t-5 -27.5t-2 -17l84 -172q8 -4 16 -8.5t12 -12.5q20 -6 57.5 -18.5t45.5 -30.5q39 -4 40 -29.5t-20 -58.5q-55 -4 -107 -27.5t-108 -40.5q-12 -12 -25.5 -19t-27.5 -15 q-23 -12 -40 -47t-31.5 -75t-22.5 -74t-10 -40h47q12 14 29.5 25.5t27.5 23.5q29 37 58.5 73t62.5 64.5t71.5 47t88.5 22.5q20 18 40.5 20.5t43.5 -0.5q18 10 37.5 19.5t35.5 26.5q39 6 80 18q10 10 22.5 21.5t26.5 15.5z" />
<glyph unicode="&#xbc;" horiz-adv-x="1402" d="M1389 602v156q12 16 11 20t-11 21v108q-20 25 -49 34t-58 13q-51 -23 -99 -48t-100 -46l-32 19v71l16 8q8 35 21.5 64t27.5 57.5t24.5 59t14.5 69.5h21q0 35 18 63.5t16 63.5q20 16 32.5 43t14.5 52l52 40v43q-47 25 -81 35.5t-67 13.5t-71.5 1t-94.5 -2l-6 18h-65 q6 -6 2 -9t-11 -3q-6 0 -9 3t3 9h-78v-18q-41 -4 -79 -17l-7 -14q-70 -16 -109.5 -46t-64 -67t-38 -80t-27.5 -85t-34.5 -82t-59.5 -72q-2 -41 -15.5 -90.5t-30 -99.5t-35 -99t-30.5 -90l-16 -6q-18 -92 -52 -179.5t-45 -181.5l-16 -20q4 -37 -6 -75t-25 -73l-16 -6 l-57 -213q-16 -4 -30.5 -22.5t-25.5 -30.5l-6 -45q-37 -43 -71.5 -88t-67.5 -92h-27q-20 29 -37.5 55.5t-33.5 58.5h-78l-45 -37q-8 -25 -10.5 -39t-5.5 -26t-10 -25.5t-23 -35.5v-95l34 -28q82 -2 143.5 6t137.5 22l8 17q35 8 57.5 16t41 20.5t35 31t40.5 46.5h27 q18 27 30.5 48.5t17.5 44t5 49.5t-4 61l16 8q2 20 10.5 55t19.5 70t24.5 67t25.5 48q2 12 17.5 60t40 114t52 139.5t54.5 139t48.5 113.5t29.5 61l2 55q29 47 51.5 109.5t46 129t49 132t57 122t73.5 96.5t98 54l10 16l76 15l43 -19q0 -29 22 -47v-90l-18 -4q0 -4 -1 -26.5 t-2 -44t-4 -33t-5 7.5l-19 -92l-14 -9l-19 -71l-43 -35l-4 -45q-10 2 -15 -9.5t1 -17.5q-23 -33 -37 -70.5t-43 -64.5l-18 -92l-29 -21q-6 -55 -36 -116.5t-65.5 -124t-67.5 -127t-42 -125.5l-16 -6q-20 -43 -21 -86q0 -43 6 -88l33 -29h78q29 43 40 87t23 93l15 8 q10 35 32.5 72t18.5 74q12 6 20.5 22.5t14.5 36t9 37.5t3 31l14 8q14 39 50 97.5t81 116.5t92.5 108.5t84.5 74.5h38q16 -16 34 -28.5t36 -22.5q4 -47 4 -104q0 -55 -6 -115t-21.5 -117t-42 -105t-67.5 -84t-98 -50q-23 4 -46.5 16t-41.5 29h-78q0 -61 -33 -115v-64 q18 -6 36.5 -18t29.5 -29q16 -4 41 -4t49 3t46.5 11.5t35.5 22.5q-4 35 18.5 54.5t56.5 15.5l52 24q23 49 43 76t55 61q6 23 18.5 43.5t28.5 36.5q4 23 7 36.5t7 23.5t12.5 22.5t22.5 30.5v84z" />
<glyph unicode="&#xbd;" horiz-adv-x="1415" d="M1534 -231v88l-45 20l-55 -8q-27 -51 -74 -84q-4 2 -25.5 24.5t-48 50t-51.5 54.5t-35 35l-4 35q-33 47 -91 93t-99 103l-25 19q-4 18 -12 31.5t-21 29.5l19 51q35 10 57.5 19.5t44.5 38.5q57 16 99 54t83 79q-4 10 3.5 22.5t17.5 18.5v100q-29 49 -79 66.5t-103 9.5 l-13 -14h-86l-10 -25l-29 -6l-32 -31v-29h71l4 19h95q14 -16 24 -37t12 -43q-14 -31 -25 -55.5t-25.5 -43t-37 -31.5t-57.5 -24l-6 -14l-53 -16l-21 -27q-20 -6 -30.5 -8t-20.5 -2q-8 0 -18.5 2t-30.5 6l-10 51q8 31 21 54.5t27.5 45t27 45t22.5 52.5l-43 65q8 39 28.5 82 t42 87t36 87t10.5 84q25 27 50 83.5t41.5 125t21.5 140t-9 131t-52 96.5t-106 37l-14 -15h-125l-4 -18l-61 -19l-9 -16q-35 -12 -75.5 -49t-76.5 -77t-63.5 -72.5t-36.5 -36.5q-14 -51 -37.5 -106.5t-49 -112t-46 -110.5t-28.5 -104q-29 -178 -69 -366.5t-81 -362.5l-16 -8 q-4 -51 -16.5 -103.5t-26 -104.5t-24.5 -103t-13 -98l-17 -9q-27 -57 -79 -82q-35 20 -52.5 30.5t-32 15t-34.5 4.5h-66l-37 -37v-60q29 -10 52.5 -30.5t50 -37t57.5 -20.5t72 21l8 16q63 20 96 50t53.5 65t37 74.5t49.5 80.5q0 33 11 81t25.5 100.5t29.5 102.5t22 91l20 4 q0 35 19.5 125t49 207t66.5 246t72 242.5t64.5 198.5t43.5 112l17 8l14 31q57 23 69.5 41t21 30.5t36 19.5t115.5 7l24 -35q-4 -16 0.5 -36.5t8.5 -37.5q-23 -66 -49.5 -126t-43.5 -130l-14 -6q-2 -39 -8 -69.5t-35 -59.5l-16 -114l-15 -7q2 -27 -4 -56.5t-16 -60t-21.5 -61 t-17.5 -59.5q-27 -18 -41 -45t-20.5 -55.5t-7.5 -60.5t-1 -58l-16 -6l-29 -111l-14 -6q-4 -29 -17.5 -65.5t-19.5 -72.5t1 -66t42 -44l51 14q33 47 50.5 100.5t35.5 106.5l11 -2q12 6 24 14.5t23 18.5l75 -37q47 -72 88.5 -154.5t92.5 -156.5t121.5 -129t177.5 -68l4 -16 h133l4 16q23 6 44.5 24t37.5 34z" />
<glyph unicode="&#xbe;" horiz-adv-x="1396" d="M1393 1446l-9 8q4 25 6.5 36t1.5 20.5t-4.5 21.5t-11.5 37l-35 14l-32 -12q-31 16 -74 17t-76 -1q-31 -25 -64.5 -47t-68.5 -39q-23 10 -45.5 26.5t-40.5 33.5q-12 2 -34.5 3t-45 0t-44 -4.5t-34.5 -11.5l-8 -14q-61 2 -104 -26.5t-74 -72.5t-53.5 -96.5t-40.5 -97.5 l-29 -20q-16 -57 -40.5 -119t-72.5 -103l-14 13l-104 2l-33 -25l-2 -104l45 -33l88 -2l16 -16q-35 -68 -68.5 -172.5t-63 -218t-51 -221t-30.5 -181.5q-31 -41 -54 -71.5t-40.5 -63.5t-30 -71t-20.5 -91l-35 -18q-39 37 -67.5 41t-75.5 -7q-14 -33 1 -71.5t34 -67.5l135 -2 q12 16 27.5 24.5t30.5 13.5t28.5 10t25.5 16q31 31 48.5 65.5t26.5 71.5t13.5 77t10.5 78l18 13q4 14 12.5 41.5t17.5 55.5t15 51.5t4 31.5l27 20q0 23 9 49.5t28 41.5l2 90q18 31 42.5 87t46 117.5t34 120t6.5 94.5l18 33q35 12 62 43q27 0 48 1t39.5 3t39 4t47.5 2l47 -38 q2 -12 -2 -32t-12.5 -40.5t-17.5 -38.5t-15 -29l-15 -8q-4 -12 -20 -61t-34.5 -106.5t-33 -106.5t-12.5 -62l-14 -18q-14 -111 -60.5 -218.5t-85.5 -211.5l-14 -8q-37 -68 -66.5 -85.5t-54 -19.5t-45 -4t-35.5 -39q6 -18 17.5 -37.5t25.5 -34.5q37 -6 79 -3t65 42 q45 0 77.5 24.5t57 61.5t45 78t43 74t48.5 50t63 9l6 29q-12 27 -22.5 52.5t-18.5 53.5q0 2 18.5 52.5t47 124t63.5 159.5t66.5 162t55 129t31.5 62l43 -2l33 20l80 -2l23 -47q-14 -18 -19.5 -45t-9.5 -49q-8 -37 -31.5 -105.5t-48.5 -137.5t-44.5 -125t-21.5 -69l11 -32 q-33 -53 -58.5 -111.5t-7.5 -122.5q49 -6 81 -4t55.5 13.5t45 33t50.5 58.5l22 4q27 20 51.5 37.5t42 38t25.5 47t2 65.5l-47 2l-64 -43h-22l-10 41q14 35 25 73t22 75l14 8q18 74 37.5 138t30.5 142l14 8q8 29 18.5 56.5t18.5 54.5t9 53.5t-7 57.5h-62l-6 -19l-102 4 q-10 0 -29.5 -2t-42 -4t-46 -3t-42.5 -1l-27 39l21 20q8 39 12 84t10.5 88.5t18.5 81t41 66.5q12 45 24.5 66.5t29 33t39 19.5t52.5 26q6 -4 14.5 -8t12.5 -10zM928 1397l-2 -90l-10.5 -10.5t-8.5 -10.5q-18 -51 -33.5 -88t-25.5 -70.5t-17.5 -68.5t-13.5 -80 q-16 0 -34.5 -9t-26.5 -9q-14 2 -36 17t-32 15l-102 2l8 36l8 36q8 2 14 8q0 27 24 63t48 44q6 39 15.5 62.5t22.5 43t29.5 40t35.5 50.5q41 20 63 52h41q0 -14 10.5 -21.5t22.5 -11.5z" />
<glyph unicode="&#xbf;" horiz-adv-x="765" d="M741 1614q-23 10 -40 15t-35.5 6t-38.5 1t-52 2q-8 -4 -16 -9t-18 -7q-8 -12 -24.5 -31.5t-34 -40t-32 -38t-16.5 -23.5q-4 -16 2 -29.5t15 -23.5q23 -29 39 -44.5t35.5 -21.5t45 -8t68.5 -4q94 59 115.5 118.5t-13.5 137.5zM506 1112q-12 -10 -26.5 -19.5t-28.5 -13.5 q-4 -12 -13.5 -60t-22 -104.5t-26.5 -105.5t-24 -64l-119 7q-2 8 -8.5 13t-12.5 9l-12 -20l-94 4l-60 -31q-61 -74 -139 -139l-61 -219q2 -6 6 -13.5t12 -9.5q6 -53 6 -104l15 -9q8 -53 24.5 -80.5t39 -47t49 -37t55.5 -50.5q76 -16 148.5 -21t156.5 -9q18 10 43 14 q-6 41 2 78l-8 10l-121 6q-25 33 -65 47.5t-79 29.5t-68.5 42t-33.5 86l-12 10q6 43 12 95.5t33 93.5q35 23 67.5 49t71.5 37l18 14l228 -10l-6 16q25 55 52 127t42.5 143.5t9.5 135t-51 100.5z" />
<glyph unicode="&#xc0;" horiz-adv-x="1472" d="M1360 1786q-29 27 -82 61.5t-112.5 67.5t-117 57.5t-94.5 32.5q-10 2 -17 -4t-9 -14.5t2 -16.5t16 -10q33 -6 87 -29.5t111.5 -54.5t108 -63.5t74.5 -59.5q8 -8 17.5 -7t15.5 7t7 15.5t-7 17.5zM1421 1300q10 0 13.5 19.5t2.5 43t-6.5 46.5t-11.5 29q6 35 11.5 62.5 t-11.5 60.5l-51 32q-12 2 -33 2q-20 0 -40.5 -1t-39 -5t-30.5 -12q-10 -12 -43 -55t-71 -90.5t-70.5 -85t-43.5 -43.5l-36 -105l-33 -24q-2 -10 -22.5 -45t-53.5 -82.5t-71 -101.5t-74.5 -101t-67.5 -82t-45 -45q-14 -41 -38 -79t-60 -65l-13 -45l-32 -30q2 -41 -20.5 -84 t-63.5 -60q-43 -57 -97.5 -105t-107.5 -95q-18 0 -38 -1t-37 -5.5t-32.5 -14.5t-23.5 -31l16 -55q20 -4 39.5 -7t38.5 -9q25 6 48.5 12t49.5 2q-6 -10 4.5 -13t28.5 -3t37.5 1t32.5 1l16 14h176l10 -10l43 -6l7 -21h28q39 27 62 64l-9 26q-35 6 -64.5 14.5t-64.5 12.5 q-8 10 -15 21.5t-13 23.5q14 57 43.5 112.5t64.5 108.5t71 106.5t64 104.5l39 8l11 21h254q18 -8 35.5 -23.5t27.5 -34.5q4 -61 5 -105t13 -103q-6 -35 -17 -48.5t-22.5 -34t-21.5 -58.5t-16 -118l-56 -22l-28 14l-41 -14l-10 -35q23 -23 32 -41h105l14 -14h94l8 -21 q14 -4 28.5 -10t29.5 -8l12 2h-2l92 18l-2 7l41 16l10 29q-4 14 -17 37.5t-28.5 48t-27 44t-11.5 23.5q0 92 1 193.5t30 191.5l-14 53q6 14 9 21.5t3 11.5q0 6 -3 13.5t-9 19.5q35 154 66.5 306t41.5 310zM1190 1214q6 -20 6 -32q0 -10 -3 -19.5t-8 -21t-9 -29.5 q2 -8 12 -14q4 -29 10 -71t-10 -71q-4 -10 -9 -20t-8 -23q-4 -45 -11 -88t-15 -88q-12 0 -22.5 -2t-16.5 -14h-150q-6 4 -18 16q-8 -8 -20 -14h-66q-4 10 -6 21.5t-4 23.5q16 25 41 49q47 47 69.5 98.5t44.5 112.5q27 16 46.5 40t36 49.5t32.5 50t37 46.5h41z" />
<glyph unicode="&#xc1;" horiz-adv-x="1472" d="M1622 1982q14 16 -1 32t-32 1q-43 -43 -91 -69.5t-95 -54t-89 -63.5t-73 -97q-4 -10 -1 -18.5t11.5 -12.5t16.5 -2t14 12q27 53 68 88t89 62.5l96 55t87 66.5zM1421 1300q10 0 13.5 19.5t2.5 43t-6.5 46.5t-11.5 29q6 35 11.5 62.5t-11.5 60.5l-51 32q-12 2 -33 2 q-20 0 -40.5 -1t-39 -5t-30.5 -12q-10 -12 -43 -55t-71 -90.5t-70.5 -85t-43.5 -43.5l-36 -105l-33 -24q-2 -10 -22.5 -45t-53.5 -82.5t-71 -101.5t-74.5 -101t-67.5 -82t-45 -45q-14 -41 -38 -79t-60 -65l-13 -45l-32 -30q2 -41 -20.5 -84t-63.5 -60q-43 -57 -97.5 -105 t-107.5 -95q-18 0 -38 -1t-37 -5.5t-32.5 -14.5t-23.5 -31l16 -55q20 -4 39.5 -7t38.5 -9q25 6 48.5 12t49.5 2q-6 -10 4.5 -13t28.5 -3t37.5 1t32.5 1l16 14h176l10 -10l43 -6l7 -21h28q39 27 62 64l-9 26q-35 6 -64.5 14.5t-64.5 12.5q-8 10 -15 21.5t-13 23.5 q14 57 43.5 112.5t64.5 108.5t71 106.5t64 104.5l39 8l11 21h254q18 -8 35.5 -23.5t27.5 -34.5q4 -61 5 -105t13 -103q-6 -35 -17 -48.5t-22.5 -34t-21.5 -58.5t-16 -118l-56 -22l-28 14l-41 -14l-10 -35q23 -23 32 -41h105l14 -14h94l8 -21q14 -4 28.5 -10t29.5 -8l12 2h-2 l92 18l-2 7l41 16l10 29q-4 14 -17 37.5t-28.5 48t-27 44t-11.5 23.5q0 92 1 193.5t30 191.5l-14 53q6 14 9 21.5t3 11.5q0 6 -3 13.5t-9 19.5q35 154 66.5 306t41.5 310zM1190 1214q6 -20 6 -32q0 -10 -3 -19.5t-8 -21t-9 -29.5q2 -8 12 -14q4 -29 10 -71t-10 -71 q-4 -10 -9 -20t-8 -23q-4 -45 -11 -88t-15 -88q-12 0 -22.5 -2t-16.5 -14h-150q-6 4 -18 16q-8 -8 -20 -14h-66q-4 10 -6 21.5t-4 23.5q16 25 41 49q47 47 69.5 98.5t44.5 112.5q27 16 46.5 40t36 49.5t32.5 50t37 46.5h41z" />
<glyph unicode="&#xc2;" horiz-adv-x="1472" d="M1509 1667q-16 25 -27.5 53.5t-23.5 55t-28.5 51t-40.5 43.5q-14 10 -21.5 24.5t-13.5 28.5t-15.5 23.5t-27.5 9.5q-37 0 -67 -23.5t-56.5 -56.5t-52 -66.5t-52.5 -54.5q-8 -6 -8 -16q0 -8 5 -15.5t13.5 -9.5t18.5 4q20 14 45 47t51.5 65t53 56.5t49.5 24.5v-4 q6 -14 9 -23.5t7 -17.5t11.5 -15.5t23.5 -17.5q23 -16 37 -38.5t25.5 -49.5t22.5 -53.5t26 -49.5q12 -18 30 -5.5t6 30.5zM1421 1300q10 0 13.5 19.5t2.5 43t-6.5 46.5t-11.5 29q6 35 11.5 62.5t-11.5 60.5l-51 32q-12 2 -33 2q-20 0 -40.5 -1t-39 -5t-30.5 -12 q-10 -12 -43 -55t-71 -90.5t-70.5 -85t-43.5 -43.5l-36 -105l-33 -24q-2 -10 -22.5 -45t-53.5 -82.5t-71 -101.5t-74.5 -101t-67.5 -82t-45 -45q-14 -41 -38 -79t-60 -65l-13 -45l-32 -30q2 -41 -20.5 -84t-63.5 -60q-43 -57 -97.5 -105t-107.5 -95q-18 0 -38 -1t-37 -5.5 t-32.5 -14.5t-23.5 -31l16 -55q20 -4 39.5 -7t38.5 -9q25 6 48.5 12t49.5 2q-6 -10 4.5 -13t28.5 -3t37.5 1t32.5 1l16 14h176l10 -10l43 -6l7 -21h28q39 27 62 64l-9 26q-35 6 -64.5 14.5t-64.5 12.5q-8 10 -15 21.5t-13 23.5q14 57 43.5 112.5t64.5 108.5t71 106.5 t64 104.5l39 8l11 21h254q18 -8 35.5 -23.5t27.5 -34.5q4 -61 5 -105t13 -103q-6 -35 -17 -48.5t-22.5 -34t-21.5 -58.5t-16 -118l-56 -22l-28 14l-41 -14l-10 -35q23 -23 32 -41h105l14 -14h94l8 -21q14 -4 28.5 -10t29.5 -8l12 2h-2l92 18l-2 7l41 16l10 29 q-4 14 -17 37.5t-28.5 48t-27 44t-11.5 23.5q0 92 1 193.5t30 191.5l-14 53q6 14 9 21.5t3 11.5q0 6 -3 13.5t-9 19.5q35 154 66.5 306t41.5 310zM1190 1214q6 -20 6 -32q0 -10 -3 -19.5t-8 -21t-9 -29.5q2 -8 12 -14q4 -29 10 -71t-10 -71q-4 -10 -9 -20t-8 -23 q-4 -45 -11 -88t-15 -88q-12 0 -22.5 -2t-16.5 -14h-150q-6 4 -18 16q-8 -8 -20 -14h-66q-4 10 -6 21.5t-4 23.5q16 25 41 49q47 47 69.5 98.5t44.5 112.5q27 16 46.5 40t36 49.5t32.5 50t37 46.5h41z" />
<glyph unicode="&#xc3;" horiz-adv-x="1472" d="M1513 1845q23 8 17 29.5t-29 15.5q-23 -8 -52.5 -31.5t-59 -49t-55 -46t-40.5 -20.5q-4 4 -7 20.5t-11 26.5l-8 8l-21 25q-6 8 -11 14t-9 10q-8 10 -15.5 23.5t-16.5 25t-20.5 19.5t-27.5 8q-37 0 -58.5 -19.5t-37 -43t-30.5 -44t-42 -24.5q-10 -2 -15.5 -9t-3 -16.5 t8.5 -15.5t18 -4q35 6 55.5 26.5t36 44t29.5 42t39 18.5q8 0 12 -8t8 -12q10 -18 21.5 -33t23.5 -31l21 -25l6 -8q2 -2 2 -4q8 -20 16.5 -39.5t36.5 -19.5q29 0 57.5 20.5t55.5 46t53 49t53 31.5zM1421 1300q10 0 13.5 19.5t2.5 43t-6.5 46.5t-11.5 29q6 35 11.5 62.5 t-11.5 60.5l-51 32q-12 2 -33 2q-20 0 -40.5 -1t-39 -5t-30.5 -12q-10 -12 -43 -55t-71 -90.5t-70.5 -85t-43.5 -43.5l-36 -105l-33 -24q-2 -10 -22.5 -45t-53.5 -82.5t-71 -101.5t-74.5 -101t-67.5 -82t-45 -45q-14 -41 -38 -79t-60 -65l-13 -45l-32 -30q2 -41 -20.5 -84 t-63.5 -60q-43 -57 -97.5 -105t-107.5 -95q-18 0 -38 -1t-37 -5.5t-32.5 -14.5t-23.5 -31l16 -55q20 -4 39.5 -7t38.5 -9q25 6 48.5 12t49.5 2q-6 -10 4.5 -13t28.5 -3t37.5 1t32.5 1l16 14h176l10 -10l43 -6l7 -21h28q39 27 62 64l-9 26q-35 6 -64.5 14.5t-64.5 12.5 q-8 10 -15 21.5t-13 23.5q14 57 43.5 112.5t64.5 108.5t71 106.5t64 104.5l39 8l11 21h254q18 -8 35.5 -23.5t27.5 -34.5q4 -61 5 -105t13 -103q-6 -35 -17 -48.5t-22.5 -34t-21.5 -58.5t-16 -118l-56 -22l-28 14l-41 -14l-10 -35q23 -23 32 -41h105l14 -14h94l8 -21 q14 -4 28.5 -10t29.5 -8l12 2h-2l92 18l-2 7l41 16l10 29q-4 14 -17 37.5t-28.5 48t-27 44t-11.5 23.5q0 92 1 193.5t30 191.5l-14 53q6 14 9 21.5t3 11.5q0 6 -3 13.5t-9 19.5q35 154 66.5 306t41.5 310zM1190 1214q6 -20 6 -32q0 -10 -3 -19.5t-8 -21t-9 -29.5 q2 -8 12 -14q4 -29 10 -71t-10 -71q-4 -10 -9 -20t-8 -23q-4 -45 -11 -88t-15 -88q-12 0 -22.5 -2t-16.5 -14h-150q-6 4 -18 16q-8 -8 -20 -14h-66q-4 10 -6 21.5t-4 23.5q16 25 41 49q47 47 69.5 98.5t44.5 112.5q27 16 46.5 40t36 49.5t32.5 50t37 46.5h41z" />
<glyph unicode="&#xc4;" horiz-adv-x="1472" d="M1409 1845q6 10 2 18.5t-12 12.5t-16.5 2t-14.5 -12q-18 -35 -45 -63.5t-49 -63.5q-6 -10 -2 -18.5t11 -13.5t16.5 -4t15.5 11q20 35 47 64.5t47 66.5zM1237 1970q6 8 4 17.5t-9 14.5t-18 5q-8 0 -14 -8q-53 -72 -98 -144.5t-105 -136.5q-8 -8 -7 -17t7.5 -15.5 t15.5 -7.5t17 8q61 66 107.5 139t99.5 145zM1257 1300q10 0 13.5 19.5t2.5 43t-6 46.5t-12 29q6 35 11.5 62.5t-11.5 60.5l-51 32q-12 2 -33 2q-20 0 -40.5 -1t-39 -5t-30.5 -12q-10 -12 -43 -55t-71 -90.5t-70.5 -85t-42.5 -43.5l-37 -105l-33 -24q-2 -10 -22.5 -45 t-53.5 -82.5t-70.5 -101.5t-74.5 -101t-68 -82t-45 -45q-14 -41 -37.5 -79t-60.5 -65l-13 -45l-32 -30q2 -41 -20.5 -84t-63.5 -60q-43 -57 -97.5 -105t-107.5 -95q-18 0 -37.5 -1t-37 -5.5t-33 -14.5t-23.5 -31l16 -55q20 -4 40 -7t38 -9q25 6 48.5 12t49.5 2 q-6 -10 4.5 -13t28.5 -3t38 1t32 1l16 14h176l11 -10l43 -6l6 -21h28q39 27 62 64l-8 26q-35 6 -65 14.5t-64 12.5q-8 10 -15.5 21.5t-13.5 23.5q14 57 44 112.5t64.5 108.5t70.5 106.5t65 104.5l39 8l10 21h254q18 -8 35.5 -23.5t27.5 -34.5q4 -61 5 -105t14 -103 q-6 -35 -17.5 -48.5t-23 -34t-21.5 -58.5t-16 -118l-55 -22l-29 14l-41 -14l-10 -35q23 -23 32 -41h105l14 -14h94l9 -21q14 -4 28.5 -10t28.5 -8l12 2h-2l92 18l-2 7l41 16l11 29q-4 14 -17.5 37.5t-29 48t-26.5 44t-11 23.5q0 92 1 193.5t29 191.5l-14 53q6 14 9 21.5 t3 11.5q0 6 -3 13.5t-9 19.5q35 154 66.5 306t41.5 310zM1026 1214q6 -20 6 -32q0 -10 -3 -19.5t-8 -21t-9 -29.5q2 -8 12 -14q4 -29 10 -71t-10 -71q-4 -10 -9 -20t-7 -23q-4 -45 -11.5 -88t-15.5 -88q-12 0 -22.5 -2t-16.5 -14h-149q-6 4 -19 16q-8 -8 -20 -14h-66 q-4 10 -6 21.5t-4 23.5q16 25 41 49q47 47 69.5 98.5t45.5 112.5q27 16 46 40t35.5 49.5t33 50t36.5 46.5h41z" />
<glyph unicode="&#xc5;" horiz-adv-x="1472" d="M1456 1765q0 37 -16.5 77t-43 72t-61.5 53.5t-71 21.5q-80 0 -116 -49.5t-36 -127.5q0 -72 46 -117.5t114 -43.5q6 -6 16 -6q25 0 54.5 5t54 18t42 36.5t17.5 60.5zM1421 1300q10 0 13.5 19.5t2.5 43t-6.5 46.5t-11.5 29q6 35 11.5 62.5t-11.5 60.5l-51 32q-12 2 -33 2 q-20 0 -40.5 -1t-39 -5t-30.5 -12q-10 -12 -43 -55t-71 -90.5t-70.5 -85t-43.5 -43.5l-36 -105l-33 -24q-2 -10 -22.5 -45t-53.5 -82.5t-71 -101.5t-74.5 -101t-67.5 -82t-45 -45q-14 -41 -38 -79t-60 -65l-13 -45l-32 -30q2 -41 -20.5 -84t-63.5 -60q-43 -57 -97.5 -105 t-107.5 -95q-18 0 -38 -1t-37 -5.5t-32.5 -14.5t-23.5 -31l16 -55q20 -4 39.5 -7t38.5 -9q25 6 48.5 12t49.5 2q-6 -10 4.5 -13t28.5 -3t37.5 1t32.5 1l16 14h176l10 -10l43 -6l7 -21h28q39 27 62 64l-9 26q-35 6 -64.5 14.5t-64.5 12.5q-8 10 -15 21.5t-13 23.5 q14 57 43.5 112.5t64.5 108.5t71 106.5t64 104.5l39 8l11 21h254q18 -8 35.5 -23.5t27.5 -34.5q4 -61 5 -105t13 -103q-6 -35 -17 -48.5t-22.5 -34t-21.5 -58.5t-16 -118l-56 -22l-28 14l-41 -14l-10 -35q23 -23 32 -41h105l14 -14h94l8 -21q14 -4 28.5 -10t29.5 -8l12 2h-2 l92 18l-2 7l41 16l10 29q-4 14 -17 37.5t-28.5 48t-27 44t-11.5 23.5q0 92 1 193.5t30 191.5l-14 53q6 14 9 21.5t3 11.5q0 6 -3 13.5t-9 19.5q35 154 66.5 306t41.5 310zM1411 1765q0 -43 -36 -58t-70 -17q-8 10 -21 8q-53 -8 -90 26.5t-37 87.5q0 131 107 132 q25 0 51 -16.5t47.5 -42t35 -57.5t13.5 -63zM1190 1214q6 -20 6 -32q0 -10 -3 -19.5t-8 -21t-9 -29.5q2 -8 12 -14q4 -29 10 -71t-10 -71q-4 -10 -9 -20t-8 -23q-4 -45 -11 -88t-15 -88q-12 0 -22.5 -2t-16.5 -14h-150q-6 4 -18 16q-8 -8 -20 -14h-66q-4 10 -6 21.5t-4 23.5 q16 25 41 49q47 47 69.5 98.5t44.5 112.5q27 16 46.5 40t36 49.5t32.5 50t37 46.5h41z" />
<glyph unicode="&#xc6;" horiz-adv-x="1998" d="M1927 279l-16 38q-35 -45 -76 -88t-88 -73h-209l-14 -15h-111l-6 -22h-121l-10 20q-23 4 -44.5 10.5t-41.5 16.5q-4 25 -3 75t4 111.5t8 126t11.5 120.5t12.5 97t10 52l47 40h119l14 -14h105l49 -45q10 -59 3 -110.5t-24 -106.5l39 -18l62 30q29 119 44 227.5t25 231.5 h-2q4 20 -2 43t-14 41h-49l-19 -16q-8 -29 -12 -58.5t-8 -58.5q-16 -12 -25.5 -32.5t-15.5 -39.5h-217q-37 0 -51.5 42t-14.5 106q0 66 10.5 141.5t24.5 144t26.5 119.5t18.5 66q14 8 44 12t63 4q35 0 65.5 -1t46.5 -1l8 -12q23 -2 39.5 -1t26.5 -22l102 -18 q2 -10 17.5 -25.5t33 -34t35 -35t25.5 -28.5h55q0 72 3 106.5t-1 56t-21.5 41t-56.5 60.5h-305l-16 -16h-262l-6 -21h-115q0 10 -12.5 18.5t-22.5 4.5l-35 -23h-90l-14 -16h-111l15 -117l112 82l35 -33q-8 -18 -17.5 -44.5t-21.5 -50.5t-30.5 -40t-45.5 -12 q-10 -18 -30.5 -34.5t-42.5 -16.5q-16 -8 -24.5 -29t-10.5 -37q-41 -35 -60.5 -86t-27.5 -104l-17 -9q-12 -39 -31.5 -82t-45 -80.5t-59.5 -69.5t-77 -48l-32 -88l14 -29q-25 -27 -44.5 -46t-37.5 -54l8 -25q-16 -43 -42.5 -86t-47.5 -90l-39 -22l-16 -86l-35 -3l-8 -16 q-47 -4 -83 -13t-58.5 -28.5t-28.5 -52.5t8 -82q35 -20 59.5 -27.5t49 -8.5t54 1t77.5 2l16 15h240q39 27 61 63q-10 25 -26.5 37t-34 22.5t-33 22.5t-25.5 39q6 23 23.5 70t41 104t52.5 118.5t55.5 116t50 96.5t39.5 58l4 27l48 34h233l47 -34q10 -47 8 -78t-20 -76l14 -20 q-8 -10 -23.5 -51.5t-31.5 -89.5t-28.5 -91t-12.5 -57q-16 -18 -24.5 -32.5t-11.5 -28t-5 -29t-4 -37.5l-76 -25q-25 -29 -41 -63l17 -58h208q86 0 160 -1t148 -1h180l16 17h299q31 41 38 92t9 100q23 23 35 54zM1186 1319q0 -25 -13.5 -41t-21.5 -39q-12 -41 -15 -94 t-6.5 -107.5t-13.5 -101.5t-37 -74q-6 0 -21.5 -1t-33.5 -1t-32.5 1t-16.5 5v8q-29 0 -50.5 5.5t-45.5 15.5q-4 12 -8.5 24.5t-8.5 24.5q2 2 3 10.5t1 12.5l6 47q12 2 20.5 16t14.5 31.5t9.5 35t7.5 27.5q14 12 29.5 21.5t31.5 17.5q6 23 21.5 57.5t36 68.5t47 57.5 t55.5 23.5q23 0 32 -14t9 -37z" />
<glyph unicode="&#xc7;" horiz-adv-x="1163" d="M1327 1407v125q-61 57 -102 80.5t-85 30t-103.5 1t-157.5 -5.5q-18 0 -40 -11t-55 -5q-39 -39 -90 -75t-94 -72q-18 2 -43 -11.5t-39 -23.5q-8 -25 -45 -57.5t-80 -76.5t-81 -98.5t-46 -120.5q-31 -37 -39 -75l-16 -8l-37 -82l-18 -7q0 -88 -9.5 -148t-18.5 -121.5 t-14 -135.5t5 -186l18 -7q16 -55 40 -102t36 -106l4 2q18 -18 14 -43l99 -31l10 -19l66 -4q-4 -4 1 -9t9 -5h41q-18 -41 -31 -82q-6 -6 -6 -16v-6q-4 -14 -5 -27.5t-3 -28.5q0 -12 6 -18t14 -6t16.5 5t8.5 15q0 12 2 19q33 -14 82 -19.5t95 -18t79 -37t33 -75.5 q0 -59 -26 -103t-67 -75t-95 -46.5t-109 -15.5q-57 0 -94.5 6.5t-70 18.5t-65.5 29.5t-80 42.5q-10 4 -18 1t-12.5 -11.5t-2 -16.5t12.5 -14q49 -25 85 -44.5t69.5 -31.5t74.5 -18.5t101 -6.5q61 0 121.5 17.5t109.5 52.5t80 89t31 126q0 74 -44 107.5t-101.5 48t-110 19.5 t-70.5 22q8 25 18.5 49t20.5 49h41l14 16h119l39 25q47 -2 93 20.5t71 65.5q57 20 105 61t69 101l-27 35q-10 -12 -50 -38t-87 -50.5t-91 -42t-63 -15.5q-25 -23 -61.5 -29t-67.5 -10l-10 -10l-82 -6l4 -10q-35 -23 -68.5 -1.5t-63.5 61.5t-53.5 84t-37.5 67l14 26 q-10 27 -10 53q0 29 6 54.5t14.5 52.5t14.5 55l20 8v125q0 39 5.5 62.5t19.5 52.5t43 98l18 11q16 49 32 99t59 81l34 102l19 10l4 43q51 41 93 89.5t85 95.5q35 10 69.5 19t69.5 16l11 18h110l8 -18q25 -10 46.5 -20.5t45.5 -18.5q10 -37 25.5 -55.5t36 -23.5t47.5 -1 t57 10l7 39h24z" />
</font>
</defs>
</svg>
